<?xml version="1.0" encoding="UTF-8" standalone="no"?>
<svg
   viewBox="0 0 488.7945 488.79472"
   height="488.79471"
   width="488.79449"
   xml:space="preserve"
   id="svg2"
   version="1.1"
   sodipodi:docname="Libra1.svg"
   inkscape:version="1.4.2 (ebf0e940, 2025-05-08)"
   xmlns:inkscape="http://www.inkscape.org/namespaces/inkscape"
   xmlns:sodipodi="http://sodipodi.sourceforge.net/DTD/sodipodi-0.dtd"
   xmlns="http://www.w3.org/2000/svg"
   xmlns:svg="http://www.w3.org/2000/svg"
   xmlns:rdf="http://www.w3.org/1999/02/22-rdf-syntax-ns#"
   xmlns:cc="http://creativecommons.org/ns#"
   xmlns:dc="http://purl.org/dc/elements/1.1/"><sodipodi:namedview
     id="namedview1"
     pagecolor="#ffffff"
     bordercolor="#000000"
     borderopacity="0.25"
     inkscape:showpageshadow="2"
     inkscape:pageopacity="0.0"
     inkscape:pagecheckerboard="0"
     inkscape:deskcolor="#d1d1d1"
     showgrid="false"
     inkscape:zoom="0.30847571"
     inkscape:cx="235.02661"
     inkscape:cy="476.53671"
     inkscape:window-width="1176"
     inkscape:window-height="783"
     inkscape:window-x="0"
     inkscape:window-y="25"
     inkscape:window-maximized="1"
     inkscape:current-layer="svg2" /><metadata
     id="metadata8"><rdf:RDF><cc:Work
         rdf:about=""><dc:format>image/svg+xml</dc:format><dc:type
           rdf:resource="http://purl.org/dc/dcmitype/StillImage" /></cc:Work></rdf:RDF></metadata><defs
     id="defs6" /><path
     id="path14"
     style="fill:#f9ba0f;fill-opacity:1;fill-rule:nonzero;stroke:none;stroke-width:0.133333"
     d="m 488.7945,913.44802 c 0,134.97308 -109.4132,244.38668 -244.3999,244.38668 C 109.4186,1157.8347 0,1048.4211 0,913.44802 c 0,-134.9866 109.4186,-244.4 244.3946,-244.4 134.9866,0 244.3999,109.4134 244.3999,244.4" /><path
     id="path16"
     style="fill:#f9ba0f;fill-opacity:1;fill-rule:nonzero;stroke:none;stroke-width:0.133333"
     d="m -63.2974,913.44802 c 0,134.97308 -109.41867,244.38668 -244.39734,244.38668 -134.97733,0 -244.39866,-109.4136 -244.39866,-244.38668 0,-134.9866 109.42133,-244.4 244.39866,-244.4 134.97867,0 244.39734,109.4134 244.39734,244.4" /><path
     id="path18"
     style="fill:#f9ba0f;fill-opacity:1;fill-rule:nonzero;stroke:none;stroke-width:0.133333"
     d="m -63.2974,244.40133 c 0,134.97609 -109.41867,244.39339 -244.39734,244.39339 -134.97733,0 -244.39866,-109.4173 -244.39866,-244.39339 C -552.0934,109.42 -442.67207,0 -307.69474,0 -172.71607,0 -63.2974,109.42 -63.2974,244.40133" /><path
     id="path20"
     style="fill:#f9ba0f;fill-opacity:1;fill-rule:nonzero;stroke:none;stroke-width:0.133333"
     d="m 488.7945,-424.64532 c 0,134.97333 -109.4132,244.39999 -244.3999,244.39999 C 109.4186,-180.24533 0,-289.67199 0,-424.64532 c 0,-134.97333 109.4186,-244.39999 244.3946,-244.39999 134.9866,0 244.4,109.42666 244.4,244.39999" /><path
     id="path22"
     style="fill:#f9ba0f;fill-opacity:1;fill-rule:nonzero;stroke:none;stroke-width:0.133333"
     d="m -613.1961,-424.64532 c 0,134.97333 -109.42,244.39999 -244.3986,244.39999 -134.9776,0 -244.3973,-109.42666 -244.3973,-244.39999 0,-134.97333 109.4197,-244.39999 244.3973,-244.39999 134.9786,0 244.3986,109.42666 244.3986,244.39999" /><path
     id="path24"
     style="fill:#f9ba0f;fill-opacity:1;fill-rule:nonzero;stroke:none;stroke-width:0.133333"
     d="m -63.2974,-424.64532 c 0,134.97333 -109.41867,244.39999 -244.39734,244.39999 -134.97733,0 -244.39866,-109.42666 -244.39866,-244.39999 0,-134.97333 109.42133,-244.39999 244.39866,-244.39999 134.97867,0 244.39734,109.42666 244.39734,244.39999" /><path
     id="path26"
     style="fill:#f9ba0f;fill-opacity:1;fill-rule:nonzero;stroke:none;stroke-width:0.133333"
     d="m -613.1961,913.44802 c 0,134.97308 -109.42,244.38668 -244.3986,244.38668 -134.9776,0 -244.3973,-109.4136 -244.3973,-244.38668 0,-134.9866 109.4197,-244.4 244.3973,-244.4 134.9786,0 244.3986,109.4134 244.3986,244.4" /><path
     id="path28"
     style="fill:#f9ba0f;fill-opacity:1;fill-rule:nonzero;stroke:none;stroke-width:0.133333"
     d="m 1039.8345,-429.35199 c 0,134.97333 -109.4132,244.4 -244.3865,244.4 -134.9867,0 -244.4001,-109.42667 -244.4001,-244.4 0,-134.98666 109.4133,-244.39999 244.4001,-244.39999 134.9732,0 244.3865,109.41333 244.3865,244.39999" /><path
     id="path30"
     style="fill:#f9ba0f;fill-opacity:1;fill-rule:nonzero;stroke:none;stroke-width:0.133333"
     d="m 488.7945,244.40133 c 0,134.97609 -109.4132,244.39339 -244.3999,244.39339 C 109.4186,488.79472 0,379.37742 0,244.40133 0,109.42 109.4186,0 244.3946,0 379.3812,0 488.7945,109.42 488.7945,244.40133" /><path
     id="path32"
     style="fill:#f9ba0f;fill-opacity:1;fill-rule:nonzero;stroke:none;stroke-width:0.133333"
     d="m 1039.8345,239.69066 c 0,134.98006 -109.4132,244.39476 -244.3865,244.39476 -134.9867,0 -244.4001,-109.4147 -244.4001,-244.39476 0,-134.97733 109.4133,-244.39866 244.4001,-244.39866 134.9732,0 244.3865,109.42133 244.3865,244.39866" /><path
     id="path34"
     style="fill:#f9ba0f;fill-opacity:1;fill-rule:nonzero;stroke:none;stroke-width:0.133333"
     d="m 1039.8345,908.74142 c 0,134.97358 -109.4132,244.38648 -244.3865,244.38648 -134.9867,0 -244.4001,-109.4129 -244.4001,-244.38648 0,-134.9867 109.4133,-244.4134 244.4001,-244.4134 134.9732,0 244.3865,109.4267 244.3865,244.4134" /><path
     id="path36"
     style="fill:#100f0d;fill-opacity:1;fill-rule:nonzero;stroke:none;stroke-width:0.133333"
     d="m 796.3413,-323.44532 c -26.6401,0 -54.56,0 -59.76,13.64 -53.9067,-18.82667 -100.0267,-55.21334 -100.0267,-98.08 0,-37.01333 24.04,-63 56.5067,-71.44 32.48,-8.44 33.1333,-18.84 35.7333,-24.04 9.7334,12.34667 31.8134,20.14667 67.5467,20.14667" /><path
     id="path38"
     style="fill:#100f0d;fill-opacity:1;fill-rule:nonzero;stroke:none;stroke-width:0.133333"
     d="m 636.2212,-500.48532 c 0,0 -18.1333,3.09333 -32.4,2.13333 -2.3867,-30.98666 52.6401,-153.46666 183.8667,-128.87999 -14.64,2.28 -79.4534,26.34666 -100.08,52.77333 -20.6266,26.44 -3.2799,34.93333 4.5467,35.16 -9.9067,-5.04 -5.9334,-22.89333 0.1866,-30.70667 6.1068,-7.8 25.36,-27.85333 57.4933,-28.81333 -23.6,11.10667 -27.2133,26.45333 -27.4665,46.58667 -0.1734,13.05333 -10.6135,36.05333 -39.6535,38.66666 -29.0533,2.61334 -50.4265,-5.02666 -49.4,-14.06666 -9.2666,6.8 -8.1999,14.76 1.6135,20.45333 9.8132,5.68 8.56,4.61333 8.56,4.61333 l -7.2668,2.08" /><path
     id="path40"
     style="fill:#100f0d;fill-opacity:1;fill-rule:nonzero;stroke:none;stroke-width:0.133333"
     d="m 646.3813,-431.17865 c 0,0 -24.0267,-10.66667 -41.2534,-22.02667 -15.48,-10.2 -25,-0.0667 -25.6533,16.82667 -0.6533,16.88 7.1466,39.62666 2.6,48.70666 12.9867,-5.84 19.4933,-39.61333 16.8934,-48.70666 20.5866,13.8 44.8132,23.38666 44.8132,23.38666 l 2.6,-18.18666" /><path
     id="path42"
     style="fill:#100f0d;fill-opacity:1;fill-rule:nonzero;stroke:none;stroke-width:0.133333"
     d="m 644.5946,-397.95199 c 0,0 -29.1733,7.92 -47.72,6.26667 -8.4133,-0.74667 -11.4666,14.49333 -3.6,25.56 5.88,8.26666 16.8934,22.08 18.1867,31.82666 7.1467,-20.78666 -2.0933,-35.22666 -5.9867,-40.42666 27.2934,-0.14667 46.2667,-8.93333 46.2667,-8.93333 l -7.1467,-14.29334" /><path
     id="path44"
     style="fill:#100f0d;fill-opacity:1;fill-rule:nonzero;stroke:none;stroke-width:0.133333"
     d="m 659.288,-368.91199 c 0,0 -17.92,18.12 -40.0934,35.01333 -13.0534,9.94667 24.5066,39.02667 26.4534,52.02667 8.44,-20.78667 -0.5067,-42.41333 -8.2934,-45.65333 24.44,-11.45334 32.1733,-28.89334 32.1733,-28.89334 l -10.2399,-12.49333" /><path
     id="path46"
     style="fill:#100f0d;fill-opacity:1;fill-rule:nonzero;stroke:none;stroke-width:0.133333"
     d="m 705.5413,-347.69866 c 0,0 -16.1867,26.4 -36.8933,44.89334 -8.6267,7.69333 -20.72,15.17333 -0.76,30.68 7.8266,6.08 26.6533,14.29333 43.5466,24.02666 16.88,9.74667 18.3334,9.93333 19.8534,15.28 8.4,-12.98666 -4.2001,-18.12 -14.0535,-27.26666 -9.7999,-9.10667 -32.88,-26.26667 -38.0799,-24.97334 22.3334,-20.02666 43.64,-51.73333 43.64,-51.73333 l -17.2533,-10.90667" /><path
     id="path48"
     style="fill:#100f0d;fill-opacity:1;fill-rule:nonzero;stroke:none;stroke-width:0.133333"
     d="m 641.408,-492.79199 c 0,0 -19.7067,2.41334 -29.7334,2.41334 -10.04,0 -11.0667,5.53333 -11.4133,8.65333 3.1067,-3.81333 6.92,-4.84 13.48,-1.38667 6.5733,3.45334 15.5733,22.13334 43.9333,28.36 -0.36,-6.57333 7.5999,-11.41333 13.1334,-12.8 -10.0267,-3.10666 -29.0535,-16.25333 -29.4,-25.24" /><path
     id="path50"
     style="fill:#100f0d;fill-opacity:1;fill-rule:nonzero;stroke:none;stroke-width:0.133333"
     d="m 794.5413,-323.44532 c 26.64,0 54.56,0 59.76,13.64 53.9066,-18.82667 100.0265,-55.21334 100.0265,-98.08 0,-37.01333 -24.0399,-63 -56.5065,-71.44 -32.48,-8.44 -33.12,-18.84 -35.7334,-24.04 -9.7334,12.34667 -31.8134,20.14667 -67.5466,20.14667" /><path
     id="path52"
     style="fill:#100f0d;fill-opacity:1;fill-rule:nonzero;stroke:none;stroke-width:0.133333"
     d="m 954.6612,-500.48532 c 0,0 18.1333,3.09333 32.4001,2.13333 2.4,-30.98666 -52.64,-153.46666 -183.8533,-128.87999 14.6266,2.28 79.44,26.34666 100.0665,52.77333 20.6268,26.44 3.2801,34.93333 -4.5333,35.16 9.8934,-5.04 5.92,-22.89333 -0.1999,-30.70667 -6.1068,-7.8 -25.3601,-27.85333 -57.4934,-28.81333 23.6,11.10667 27.2133,26.45333 27.4666,46.58667 0.1734,13.05333 10.6134,36.05333 39.6667,38.66666 29.04,2.61334 50.4133,-5.02666 49.3866,-14.06666 9.28,6.8 8.2,14.76 -1.6133,20.45333 -9.8133,5.68 -8.56,4.61333 -8.56,4.61333 l 7.2667,2.08" /><path
     id="path54"
     style="fill:#100f0d;fill-opacity:1;fill-rule:nonzero;stroke:none;stroke-width:0.133333"
     d="m 944.5146,-431.17865 c 0,0 24.0132,-10.66667 41.2399,-22.02667 15.4935,-10.2 25,-0.0667 25.6533,16.82667 0.6535,16.88 -7.1466,39.62666 -2.6,48.70666 -12.9866,-5.84 -19.48,-39.61333 -16.8933,-48.70666 -20.5867,13.8 -44.8132,23.38666 -44.8132,23.38666 l -2.5867,-18.18666" /><path
     id="path56"
     style="fill:#100f0d;fill-opacity:1;fill-rule:nonzero;stroke:none;stroke-width:0.133333"
     d="m 946.2879,-397.95199 c 0,0 29.1734,7.92 47.7334,6.26667 8.4,-0.74667 11.4533,14.49333 3.5866,25.56 -5.88,8.26666 -16.8934,22.08 -18.1866,31.82666 -7.1467,-20.78666 2.0933,-35.22666 5.9866,-40.42666 -27.2933,-0.14667 -46.2666,-8.93333 -46.2666,-8.93333 l 7.1466,-14.29334" /><path
     id="path58"
     style="fill:#100f0d;fill-opacity:1;fill-rule:nonzero;stroke:none;stroke-width:0.133333"
     d="m 931.5946,-368.91199 c 0,0 17.92,18.12 40.0933,35.01333 13.0533,9.94667 -24.4933,39.02667 -26.4533,52.02667 -8.44,-20.78667 0.5067,-42.41333 8.3067,-45.65333 -24.44,-11.45334 -32.1734,-28.89334 -32.1734,-28.89334 l 10.2267,-12.49333" /><path
     id="path60"
     style="fill:#100f0d;fill-opacity:1;fill-rule:nonzero;stroke:none;stroke-width:0.133333"
     d="m 885.3413,-347.69866 c 0,0 16.1866,26.4 36.8932,44.89334 8.6268,7.69333 20.7201,15.17333 0.7601,30.68 -7.8267,6.08 -26.6533,14.29333 -43.5466,24.02666 -16.8801,9.74667 -18.32,9.93333 -19.8534,15.28 -8.4,-12.98666 4.2,-18.12 14.0534,-27.26666 9.8,-9.10667 32.8933,-26.26667 38.0799,-24.97334 -22.3333,-20.02666 -43.6399,-51.73333 -43.6399,-51.73333 l 17.2533,-10.90667" /><path
     id="path62"
     style="fill:#100f0d;fill-opacity:1;fill-rule:nonzero;stroke:none;stroke-width:0.133333"
     d="m 949.4746,-492.79199 c 0,0 19.72,2.41334 29.7467,2.41334 10.0266,0 11.0533,5.53333 11.4,8.65333 -3.1067,-3.81333 -6.9067,-4.84 -13.48,-1.38667 -6.5734,3.45334 -15.56,22.13334 -43.92,28.36 0.3466,-6.57333 -7.6134,-11.41333 -13.1467,-12.8 10.0267,-3.10666 29.0533,-16.25333 29.4,-25.24" /><path
     id="path64"
     style="fill:#100f0d;fill-opacity:1;fill-rule:nonzero;stroke:none;stroke-width:0.133333"
     d="m 889.3013,1058.368 c -14.92,2.6266 -50.0267,-13.6 -50.4667,-33.3598 -0.44,-19.7335 17.1067,-15.3468 17.9867,-10.0802 4.8267,-8.3466 -14.04,-22.82658 -31.1467,-9.2133 -12.1866,9.68 -17.56,23.6935 -18.4401,46.5064 -0.6532,17.1068 -12.7199,31.1605 -21.9332,28.0939 0.88,7.0129 43.44,16.2265 62.3067,10.5197 7.04,-2.1333 35.5466,-22.3735 41.6933,-32.4667" /><path
     id="path66"
     style="fill:#100f0d;fill-opacity:1;fill-rule:nonzero;stroke:none;stroke-width:0.133333"
     d="m 867.5413,947.62142 c 11.2667,-2.3867 11.6267,-20.28 20.9733,-13.8134 -14.8266,-19.7066 -25.0533,-28.9733 -34.32,-45.24 0,0 -2.4933,8.9067 2.2934,21.0667 4.7866,12.16 18.5866,33.12 11.0533,37.9867" /><path
     id="path68"
     style="fill:#100f0d;fill-opacity:1;fill-rule:nonzero;stroke:none;stroke-width:0.133333"
     d="m 862.6346,751.18142 c -3.6133,0 -6.56,-2.9467 -6.56,-6.5734 0,-3.6266 2.9467,-6.56 6.56,-6.56 3.6267,0 6.5734,2.9334 6.5734,6.56 0,3.6267 -2.9467,6.5734 -6.5734,6.5734 z m 168.8,148.0533 c -9.8134,-1.9333 -4.9466,-26.1867 -17.5199,-56.68 -10.6667,-25.88 -32.8401,-41.3867 -39.3468,-45.5067 -40.4133,-75.04 -113.8266,-102.12 -168.3466,-51.24 -0.053,0.1334 -0.093,0.2667 -0.1467,0.4 7.24,1.5867 24.6267,9.6 32.84,22.68 8.72,13.9067 0,26.72 -4.9066,27.5467 -1.64,-0.5467 -1.9067,4.0933 0.8133,5.4533 2.72,1.36 20,-1.8 18.5467,6.5467 0.2666,-4.9067 -7.64,-4.0933 -13.64,-3 -6,1.0933 -15.2667,-4.6267 -12.2667,-11.72 9,-3.0133 9.8133,-13.64 7.0933,-20.4667 -2.4533,-6.1066 -18.7066,-19.8666 -30.4933,-21.6533 -10.4267,31.44 1.5867,62.3067 21.2667,92.7733 12.0533,10.2667 37.7066,14.7067 57.7733,11.0534 29.68,-5.4 43.1732,-41.84 29.68,-60.72 -0.2267,-6.2934 8.2666,-9.84 17.48,-4.1734 8.1466,5.0134 17.3866,5.5867 19.1733,3.4534 0.093,-0.3334 0.2533,-0.6 0.3067,-0.9734 0.04,0.3734 -0.08,0.6934 -0.3067,0.9734 -1.8133,6.3466 -10.9867,6.0266 -17.04,4.3466 -6.3733,-1.7733 -9.2133,-2.84 -9.2133,-2.84 7.08,13.1067 6.5066,50.16 -29.4,62.3467 -26.5733,9 -51.12,1.9867 -64.0267,-6.7733 56.16,82.36 160.7067,161.86658 20.68,242.19978 124.64,-30.2666 161.8134,-117.57318 152.2266,-204.09318 10.0401,6.4134 18.5467,9.4267 28.7734,10.0667" /><path
     id="path70"
     style="fill:#100f0d;fill-opacity:1;fill-rule:nonzero;stroke:none;stroke-width:0.133333"
     d="m 699.1546,754.64802 c 14.9333,-2.64 50.04,13.6 50.4666,33.3467 0.4401,19.7467 -17.1066,15.36 -17.9866,10.0933 -4.8266,8.3334 14.04,22.8267 31.16,9.2134 12.1734,-9.68 17.5467,-23.6934 18.4267,-46.5067 0.6533,-17.1067 12.72,-31.16 21.9467,-28.0933 -0.88,-7.0134 -43.4535,-16.2267 -62.32,-10.5334 -7.04,2.1334 -35.5467,22.3867 -41.6934,32.48" /><path
     id="path72"
     style="fill:#100f0d;fill-opacity:1;fill-rule:nonzero;stroke:none;stroke-width:0.133333"
     d="m 720.9146,865.39472 c -11.2534,2.3733 -11.6266,20.28 -20.9733,13.8133 14.8267,19.7067 25.0533,28.96 34.3199,45.24 0,0 2.4933,-8.9066 -2.2932,-21.0666 -4.7734,-12.16 -18.5868,-33.1334 -11.0535,-37.9867" /><path
     id="path74"
     style="fill:#100f0d;fill-opacity:1;fill-rule:nonzero;stroke:none;stroke-width:0.133333"
     d="m 725.8213,1061.8347 c 3.6267,0 6.56,2.9469 6.56,6.5735 0,3.6265 -2.9333,6.5598 -6.56,6.5598 -3.6267,0 -6.5733,-2.9333 -6.5733,-6.5598 0,-3.6266 2.9466,-6.5735 6.5733,-6.5735 z m -168.8,-148.05328 c 9.8133,1.9333 4.96,26.1866 17.52,56.68 10.6667,25.8666 32.8533,41.37328 39.36,45.50658 40.4,75.0266 113.8132,102.1068 168.3332,51.2402 0.053,-0.1334 0.093,-0.2667 0.1468,-0.4 -7.2401,-1.5871 -24.6268,-9.6 -32.84,-22.6803 -8.72,-13.9068 0,-26.7332 4.9067,-27.5465 1.64,0.5466 1.92,-4.0934 -0.8134,-5.4534 -2.72,-1.36 -20,1.7867 -18.5333,-6.5466 -0.28,4.9066 7.6267,4.0933 13.6267,3 6,-1.0934 15.2666,4.6266 12.28,11.72 -9,3 -9.8268,13.6401 -7.0934,20.453 2.44,6.1204 18.6934,19.8803 30.4934,21.6667 10.4266,-31.4531 -1.6,-62.31968 -21.28,-92.77308 -12.0534,-10.2666 -37.7067,-14.7066 -57.76,-11.0666 -29.6934,5.4133 -43.1867,41.84 -29.6934,60.73328 0.2267,6.2935 -8.2666,9.8268 -17.48,4.16 -8.1467,-5 -17.3866,-5.5867 -19.16,-3.44 -0.1066,0.3333 -0.2666,0.6 -0.3201,0.96 -0.04,-0.36 0.08,-0.68 0.3201,-0.96 1.7999,-6.3467 10.9734,-6.0267 17.0267,-4.3467 6.3867,1.7734 9.2132,2.84 9.2132,2.84 -7.0799,-13.1066 -6.4933,-50.17328 29.4001,-62.34658 26.5733,-9.0134 51.1199,-1.9867 64.0266,6.76 -56.1466,-82.3467 -160.7066,-161.8534 -20.6799,-242.1867 -124.6401,30.2667 -161.8134,117.5733 -152.2268,204.0933 -10.04,-6.4133 -18.5465,-9.4266 -28.7732,-10.0666" /><path
     id="path76"
     style="fill:#100f0d;fill-opacity:1;fill-rule:nonzero;stroke:none;stroke-width:0.133333"
     d="m -783.5094,366.59742 c 0,-8.4 -8.3987,-21.3813 -22.912,-23.6733 -14.5133,-2.2907 -26.7333,10.6906 -26.7333,20.6213 0,9.9293 2.2946,26.7253 24.4413,37.4213 22.148,10.6947 20.6187,28.26 15.2747,32.8414 15.276,-16.8027 15.5053,-42.7987 2.52,-53.4947 -12.984,-10.696 7.4093,-13.716 7.4093,-13.716" /><path
     id="path78"
     style="fill:#100f0d;fill-opacity:1;fill-rule:nonzero;stroke:none;stroke-width:0.133333"
     d="m 187.3132,289.79066 c 0,0 2.3988,30.31467 -20.7426,47.87076 -23.14,17.556 -54.256,9.572 -54.256,27.128 0,-17.556 -31.116,-9.572 -54.2546,-27.128 C 34.9186,320.10533 37.3159,289.79066 37.3159,289.79066 h 149.9973" /><path
     id="path80"
     style="fill:#100f0d;fill-opacity:1;fill-rule:nonzero;stroke:none;stroke-width:0.133333"
     d="m 108.0093,195.13066 c 0,0 -31.9293,10.556 -38.3693,41.97067 -4.5227,22.06667 -14.9374,45.06 -22.1454,48.66667 -7.2093,3.608 -14.42,-7.464 -5.408,-12.61467 -1.028,4.89067 2.8374,7.20933 7.4707,2.31733 4.6293,-4.89066 10.144,-18.96533 15.96,-40.944 6.9546,-26.264 32.1907,-41.45733 44.5493,-41.45733 -2.3173,1.80267 -2.0573,2.06133 -2.0573,2.06133" /><path
     id="path82"
     style="fill:#100f0d;fill-opacity:1;fill-rule:nonzero;stroke:none;stroke-width:0.133333"
     d="m 112.3866,194.09733 c 0,0 7.208,11.592 6.1786,25.75333 -1.0279,14.16 -5.924,60.25734 -2.8319,62.82934 3.092,2.57333 -3.3467,3.088 -3.3467,3.088 0,0 -6.4386,-0.51467 -3.348,-3.088 3.0934,-2.572 -1.8041,-48.66934 -2.832,-62.82934 -1.0306,-14.16133 6.18,-25.75333 6.18,-25.75333" /><path
     id="path84"
     style="fill:#100f0d;fill-opacity:1;fill-rule:nonzero;stroke:none;stroke-width:0.133333"
     d="m 116.7626,195.13066 c 0,0 31.9307,10.556 38.3707,41.97067 4.524,22.06667 14.936,45.06 22.1467,48.66667 7.2093,3.608 14.4173,-7.464 5.404,-12.61467 1.032,4.89067 -2.836,7.20933 -7.4668,2.31733 -4.6319,-4.89066 -10.1466,-18.96533 -15.9626,-40.944 -6.956,-26.264 -32.1906,-41.45733 -44.5493,-41.45733 2.3172,1.80267 2.0573,2.06133 2.0573,2.06133" /><path
     id="path86"
     style="fill:#100f0d;fill-opacity:1;fill-rule:nonzero;stroke:none;stroke-width:0.133333"
     d="m 243.728,197.81066 c -19.0895,0 -20.6187,26.72934 -9.1601,31.312 -5.3453,6.11067 -11.4586,67.20667 -3.8199,109.98006 -9.9294,12.2214 -6.1095,29.0254 2.2866,35.1347 -22.9093,0 -24.4334,29.02 0,29.02 0,0 -9.92,0 -24.4334,0 -14.5132,0 -24.4439,5.348 -24.4439,14.5133 -12.9813,0 -16.7987,0 -25.964,0 -9.1654,0 -16.8027,6.108 -16.8027,13.7467 0,7.6387 45.06,25.968 102.3374,25.968" /><path
     id="path88"
     style="fill:#100f0d;fill-opacity:1;fill-rule:nonzero;stroke:none;stroke-width:0.133333"
     d="m 244.3013,148.56667 c 0.7867,-14.36 25.52,-25.53067 52.6533,-8.776 27.12,16.75466 50.7599,44.03066 95.9334,37.05599 15.1866,-2.34533 24.5866,-12.29333 25.2533,-17.60666 0,0 -6.9733,-1.996 -6.6533,-9.63467 11.2933,-12.956 9.9733,-22.92133 10.64,-25.912 7.64,12.624 9.96,29.568 6.4666,39.236 -9,24.94667 -43.08,31.11467 -67.8133,26.328 -24.7333,-4.78533 -65.2667,-32.82666 -79.6267,-29.636 0,20.74533 -20.6666,27.85333 -37.4266,27.85333 -16.7534,0 -37.4174,-7.108 -37.4174,-27.85333 -14.36,-3.19066 -54.9013,24.85067 -79.636,29.636 -24.732,4.78667 -58.8053,-1.38133 -67.816,-26.328 -3.4893,-9.668 -1.1626,-26.612 6.4773,-39.236 0.6666,2.99067 -0.6626,12.956 10.6307,25.912 0.332,7.63867 -6.6426,9.63467 -6.6426,9.63467 0.6626,5.31333 10.0626,15.26133 25.2466,17.60666 45.176,6.97467 68.8094,-20.30133 95.9374,-37.05599 27.128,-16.75467 51.86,-5.584 52.66,8.776" /><path
     id="path90"
     style="fill:#100f0d;fill-opacity:1;fill-rule:nonzero;stroke:none;stroke-width:0.133333"
     d="m 300.1546,289.79066 c 0,0 -2.4,30.31467 20.7334,47.87076 23.1466,17.556 54.2532,9.572 54.2532,27.128 0,-17.556 31.1201,-9.572 54.2668,-27.128 23.1333,-17.55609 20.7333,-47.87076 20.7333,-47.87076 H 300.1546" /><path
     id="path92"
     style="fill:#100f0d;fill-opacity:1;fill-rule:nonzero;stroke:none;stroke-width:0.133333"
     d="m 379.448,195.13066 c 0,0 31.9333,10.556 38.3733,41.97067 4.52,22.06667 14.9333,45.06 22.1467,48.66667 7.2133,3.608 14.4132,-7.464 5.4,-12.61467 1.04,4.89067 -2.8267,7.20933 -7.4667,2.31733 -4.6267,-4.89066 -10.1467,-18.96533 -15.96,-40.944 -6.96,-26.264 -32.1867,-41.45733 -44.5467,-41.45733 2.3199,1.80267 2.0534,2.06133 2.0534,2.06133" /><path
     id="path94"
     style="fill:#100f0d;fill-opacity:1;fill-rule:nonzero;stroke:none;stroke-width:0.133333"
     d="m 375.0746,194.09733 c 0,0 -7.2134,11.592 -6.1866,25.75333 1.04,14.16 5.9333,60.25734 2.84,62.82934 -3.0934,2.57333 3.3466,3.088 3.3466,3.088 0,0 6.44,-0.51467 3.3467,-3.088 -3.0933,-2.572 1.8,-48.66934 2.8267,-62.82934 1.0399,-14.16133 -6.1734,-25.75333 -6.1734,-25.75333" /><path
     id="path96"
     style="fill:#100f0d;fill-opacity:1;fill-rule:nonzero;stroke:none;stroke-width:0.133333"
     d="m 370.7013,195.13066 c 0,0 -31.9334,10.556 -38.3733,41.97067 -4.52,22.06667 -14.9334,45.06 -22.1467,48.66667 -7.2133,3.608 -14.4134,-7.464 -5.4,-12.61467 -1.04,4.89067 2.8267,7.20933 7.4667,2.31733 4.6266,-4.89066 10.1466,-18.96533 15.96,-40.944 6.9466,-26.264 32.1866,-41.45733 44.5465,-41.45733 -2.3199,1.80267 -2.0532,2.06133 -2.0532,2.06133" /><path
     id="path98"
     style="fill:#100f0d;fill-opacity:1;fill-rule:nonzero;stroke:none;stroke-width:0.133333"
     d="m 243.728,134.41733 c 0,0 22.92,-2.292 22.92,-24.44 0,-22.14666 -22.92,-42.768 -22.92,-65.68 0,22.912 -22.9094,43.53334 -22.9094,65.68 0,22.148 22.9094,24.44 22.9094,24.44" /><path
     id="path100"
     style="fill:#100f0d;fill-opacity:1;fill-rule:nonzero;stroke:none;stroke-width:0.133333"
     d="m 243.728,197.81066 c 19.0933,0 20.6266,26.72934 9.1733,31.312 5.3332,6.11067 11.4533,67.20667 3.8132,109.98006 9.9335,12.2214 6.1068,29.0254 -2.2932,35.1347 22.9067,0 24.44,29.02 0,29.02 0,0 9.9333,0 24.44,0 14.5067,0 24.44,5.348 24.44,14.5133 12.9867,0 16.7999,0 25.96,0 9.1733,0 16.8133,6.108 16.8133,13.7467 0,7.6387 -45.0666,25.968 -102.3466,25.968" /><path
     id="path102"
     style="fill:#100f0d;fill-opacity:1;fill-rule:nonzero;stroke:none;stroke-width:0.133333"
     d="m 252.9013,192.46266 c 0,5.06134 -4.1067,9.16534 -9.1733,9.16534 -5.0534,0 -9.1601,-4.104 -9.1601,-9.16534 0,-5.06133 4.1067,-9.16533 9.1601,-9.16533 5.0666,0 9.1733,4.104 9.1733,9.16533" /><path
     id="path104"
     style="fill:#100f0d;fill-opacity:1;fill-rule:nonzero;stroke:none;stroke-width:0.133333"
     d="m -247.9774,827.70142 c 0,0 -27.20534,-16.5067 -45.48934,-17.84 3.56934,-7.1334 -5.34933,-38.3467 -8.91866,-39.6934 26.756,-3.5733 63.32666,20.0667 54.408,57.5334" /><path
     id="path106"
     style="fill:#100f0d;fill-opacity:1;fill-rule:nonzero;stroke:none;stroke-width:0.133333"
     d="m -367.94007,735.38142 c -25.42133,4.4666 -86.96403,46.8266 -54.85466,131.56 2.228,6.6933 2.228,6.6933 2.228,6.6933 0,0 17.396,-0.44 22.3,0 -12.932,-18.7333 -23.63467,-96.7733 30.32666,-138.2533" /><path
     id="path108"
     style="fill:#100f0d;fill-opacity:1;fill-rule:nonzero;stroke:none;stroke-width:0.133333"
     d="M -651.7187,908.22142 H -920.8 v -4.8934 l 269.0666,-1.1466 c 0,-6.12 -6.9293,-15.7734 -9.5307,-18.7467 17.824,7.0533 47.8974,21.2933 50.2494,21.7867 -5.9414,3.0933 -44.928,23.5066 -45.5454,23.88 4.5774,-7.6667 5.596,-19.24 4.8414,-20.88" /><path
     id="path110"
     style="fill:#100f0d;fill-opacity:1;fill-rule:nonzero;stroke:none;stroke-width:0.133333"
     d="m -1077.8832,924.52802 c 3.2943,3.6267 4.9407,16.8 24.3734,23.72 19.4338,6.92 32.1984,-5.1333 59.2037,-13.04 27.0047,-7.8933 29.0634,-8.04 36.9661,-6.72 0,0 -3.6227,-2.96 -4.6094,-5.6 -0.9866,-2.64 -1.6467,-8.56 0.6573,-12.1866 0,0 -1.3159,4.9466 0.6587,9.2266 2.9627,9.5467 13.1747,13.1734 25.3614,9.5467 12.184,-3.6267 25.3586,-12.52 26.6773,-15.1467 1.3173,-2.64 2.964,-8.24 2.964,-8.24 0,0 2.6347,-0.32 3.952,-1.64 1.3186,-1.32 0.9893,-5.28 0,-5.6 -0.988,-0.3333 -30.6293,-11.2 -39.8507,-8.8933 -9.22,2.3067 -31.2892,10.2133 -31.2892,10.2133 -20.4208,4.28 -44.9438,6.9467 -59.674,4.1067 -19.8583,-3.8133 -39.4631,-1.1467 -46.7077,6.4267 -7.2458,7.5733 0.3302,9.56 1.3171,13.8266" /><path
     id="path112"
     style="fill:#100f0d;fill-opacity:1;fill-rule:nonzero;stroke:none;stroke-width:0.133333"
     d="m -696.2627,898.74142 c 0,0 17.1933,0.3733 23.6866,0 -3.4373,-16.04 -11.4413,-94.08 -37.2333,-122.0134 -18.2533,-19.76 -43.1507,-42.0133 -55.7533,-55.3733 -12.6,-13.36 -19.4774,-24.4267 -15.2747,-29.4 -2.672,-3.8267 -8.0173,0 -9.5453,5.7333 -1.528,5.72 0.38,11.0667 4.9626,15.6534 4.5827,4.5733 41.6587,43.44 53.844,57.6666 20.6214,24.0534 31.3787,85.6934 35.3134,127.7334" /><path
     id="path114"
     style="fill:#100f0d;fill-opacity:1;fill-rule:nonzero;stroke:none;stroke-width:0.133333"
     d="m -679.6441,954.22142 c -7.556,29.8533 -20.9373,65.74658 -30.1653,79.13298 -15.2733,22.147 -43.1507,42.0136 -55.7533,55.3735 -12.6,13.3599 -19.4774,24.4271 -15.2747,29.4 -2.672,3.8271 -8.0173,0 -9.5453,-5.7333 -1.528,-5.7198 0.38,-11.0667 4.9626,-15.6531 4.5827,-4.5735 41.6587,-43.4401 53.844,-57.6667 14.7907,-17.2534 24.2774,-53.85338 31.42,-88.68008 8.6774,3.9067 20.512,3.8267 20.512,3.8267" /><path
     id="path116"
     style="fill:#100f0d;fill-opacity:1;fill-rule:nonzero;stroke:none;stroke-width:0.133333"
     d="m -870.5787,906.95472 c 0,0 -12.2174,12.2133 -12.9827,16.04 -3.8187,-1.1467 -12.2213,0 -12.2213,0 l 7.256,-10.32 -9.548,9.9333 c -6.108,0 -11.4547,0 -11.4547,0 l 10.692,-13.36 c -4.964,5.72 -14.892,13.36 -14.892,13.36 l -12.22,-2.6666 5.1494,-16.6134 50.2213,3.6267" /><path
     id="path118"
     style="fill:#100f0d;fill-opacity:1;fill-rule:nonzero;stroke:none;stroke-width:0.133333"
     d="m -870.5787,906.18142 c 0,0 -12.2174,-12.2134 -12.9827,-16.04 -3.8187,1.1466 -12.2213,0 -12.2213,0 l 7.256,10.32 -9.548,-9.9334 c -6.108,0 -11.4547,0 -11.4547,0 l 10.692,13.36 c -4.964,-5.72 -14.892,-13.36 -14.892,-13.36 l -12.22,2.6667 5.1494,16.6133 50.2213,-3.6266" /><path
     id="path120"
     style="fill:#100f0d;fill-opacity:1;fill-rule:nonzero;stroke:none;stroke-width:0.133333"
     d="m -1056.0399,897.99472 c 16.9156,-1.2267 27.6431,3.3067 37.9578,4.5467 1.6781,0.2 3.7745,0.28 6.1192,0.2666 l 0.041,-0.16 c 0,0 -7.398,-22.2 -23.8411,-25.08 13.8744,-3.4666 26.6667,18.0134 28.2078,25.0934 11.9848,-0.64 28.2474,-3.4934 37.7479,-8.3734 15.2644,-7.84 39.6071,-7.0133 49.5097,-7.4266 1.4454,-0.067 6.18,1.3733 7.32,2.3733 -0.144,-1 0.8507,-1.8533 1.896,-2.7067 10.5614,-0.3466 23.7894,-0.4933 27.504,0.7467 4.952,1.6533 14.0294,11.96 14.0294,11.96 l 66.5066,0.56 c -29.444,-17.3467 -51.86,-10.24 -58.7533,-13.84 -8.02,-4.2 -6.8733,-10.6933 -26.3493,-17.5733 -19.476,-6.8667 -37.8054,0.76 -46.1814,6.4533 -2.3426,-1.3467 -11.3746,-12.0533 -14.4893,-17.9333 0,0 -2.6227,0 -5.8987,-1.3067 -22.276,-6.88 -29.4765,-19.6533 -29.3516,-21.5333 7.3079,14.6266 40.2876,23.8266 50.209,25.0133 9.9186,1.2 15.4786,-1.5867 14.288,-3.9733 -2.1787,-5.5467 -1.5867,-20.64 -0.1974,-21.4267 1.3907,-0.8 4.3667,-5.36 4.3667,-5.96 0,-0.5867 0,-1.3867 -4.764,-2.1733 -4.7653,-0.8 -14.292,-0.9867 -16.072,0.2 -1.7853,1.1866 -2.3853,3.1733 -1.1933,3.3733 1.1933,0.2 1.5866,0.9867 0.7933,2.5733 -1.7867,0.2 -5.7533,-2.5733 -1.9853,-6.5466 3.772,-3.9734 20.2426,-0.5867 21.4373,-0.8 1.1893,-0.1867 2.7747,-2.9734 1.584,-4.36 -1.192,-1.3867 -0.5947,-4.36 3.1733,-5.36 3.772,-0.9867 10.1227,-2.7734 7.4787,-6.5867 -0.9827,-1.4 -9.608,-14.2133 -12.6853,-19.2133 -0.7894,-1.28 -0.94,-2.5067 -0.7427,-3.6534 -0.1733,0 -8.5013,3.1734 -17.7787,-0.12 -1.6933,-0.8533 -2.5386,-2.6533 -2.3266,-3.0666 0.5293,1.2666 3.4906,3.0666 8.68,3.4933 4.9493,0.4 6.7666,-0.1467 7.436,-0.6 -3.3027,-0.4933 -7.0267,-1.52 -10.5507,-2.5733 -5.3613,-1.56 -9.024,-5.08 -10.2253,-6.4667 -2.012,-2.3333 -1.3774,-7.4133 0.7426,-7.84 2.1867,-0.4267 3.6934,1.1733 2.752,2.44 -0.9466,1.2667 -1.788,0.84 -2.1,-0.4267 -1.58,0.9467 0.192,6.04 4.2147,8.8 4.308,2.9334 9.6347,4.44 17.9973,5.3867 0.52,0.067 0.9387,0.08 1.38,0.1067 0.9574,-2.88 3.8574,-5.0667 3.5987,-5.8534 -0.3853,-1.16 0.1107,-12.7333 -7.6893,-29.9733 -10.0107,-22.1333 -38.0187,-24.72 -46.1694,-24.5733 -13.7964,0.2533 -34.2943,4.8533 -45.3016,31.5066 -3.1995,8.8667 -7.2047,19.72 -3.5421,46.04 3.0484,21.9067 7.015,30.5334 7.015,30.5334 -0.4114,3.72 -17.3317,14.4533 -25.5812,18.16 -8.25,3.7066 -32.5953,2.0533 -49.5109,24.3333 -16.9152,22.2933 -1.6505,41.2667 0,43.3333 -0.8261,-6.6 12.3785,-18.5733 29.2943,-19.8133" /><path
     id="path122"
     style="fill:#100f0d;fill-opacity:1;fill-rule:nonzero;stroke:none;stroke-width:0.133333"
     d="m -972.4587,964.71472 c -12.3312,8.64 -39.8734,24.2533 -55.9053,16.04 -16.0317,-8.2267 -13.5636,-11.1067 -18.9093,-12.3333 3.2864,-1.24 13.5635,4.52 21.3756,8.2133 7.8114,3.7067 27.1275,-0.8133 45.6275,-11.92 18.4995,-11.0933 29.5981,-12.7333 34.1195,-10.2667 0,0 -13.9773,1.64 -26.308,10.2667 z m 305.9,-33.0267 c 2.5306,-1.2666 2.528,-6.96 0,-10.44 3.1626,-1.5733 1.58,-8.8533 -0.6334,-8.8533 l -0.1146,-0.6667 c 0,0 -23.588,-4.72 -24.8747,-1.28 -1.2867,3.4267 1.928,7.9334 5.1467,11.5734 -1.2867,3.2266 -0.216,10.9333 1.5013,13.7333 -3.86,-3.2267 -3.8613,-9.44 -3.432,-13.3067 -3.4333,-1.4933 -6.6493,-6.4266 -5.7427,-9.7333 -6.316,-0.027 -12.424,5.6933 -13.1893,9.52 -2.6747,-4.2133 3.0533,-8.7867 3.0533,-8.7867 l -0.3826,-1.5333 h -166.1694 l -10.256,14.1333 c 0,0 -15.656,0 -21.7666,-0.3866 -6.1107,-0.3734 -18.7107,1.9066 -18.7107,1.9066 -10.3106,4.96 -13.748,6.4934 -31.3146,4.5867 -17.5669,-1.92 -40.4798,8.4 -55.373,13.7467 -14.8927,5.3466 -32.0777,13.36 -45.8239,8.7866 -20.2798,-6.7733 -28.6418,-33.2266 -28.6418,-33.2266 3.0543,37.8 14.1287,91.65328 59.5729,143.19978 45.4443,51.5599 130.9404,88.2402 210.7951,76.3735 0,0 31.036,-6.1735 38.3333,-18.6265 -2.1467,3.8666 -15.4547,4.7333 -23.0587,3.7468 -25.9653,-1.5734 -5.9413,-23.8006 -9.5746,-39.8135 -2.3907,-10.5469 -15.912,-27.0532 -25.9934,-18.0265 18.0347,6.8932 5.8587,36.1733 -18.564,26.5197 -20.248,-8 -9.4453,-55.0265 -14.2173,-50.7864 -20.688,32.8932 -92.0826,31.6531 -99.8346,17.3599 33.9493,19.6401 97.6053,-12.2 97.1719,-23.0538 -16.38,-11.2394 -23.112,-27.013 -23.5173,-41.75968 -13.7626,11.62668 -72.0306,18.53328 -77.0002,5.53328 34.8296,12.2 69.0189,-5.99998 77.1175,-10.81328 0.8614,-11.52 5.556,-21.88 12.3547,-28.3333 -3.8387,0.5466 -8.048,-0.1334 -15.8907,-2.3734 -11.5106,-3.2933 -27.1293,-9.8666 -34.5293,-9.04 2.8774,-6.1733 12.3334,-2.4666 20.5534,0.4134 6.6826,2.3333 22.0466,7.9333 33.9679,7.2933 14.8467,-13.3867 14.5294,-23.6133 20.6747,-29.4133 -3.084,-1.0267 -11.6773,-3.6 -17.0027,-7.4267 -0.7826,-0.4267 -1.4293,-0.8667 -1.7093,-1.3467 0.508,0.4667 1.1027,0.9067 1.7093,1.3467 3.5,1.8667 11.108,3.1333 15.4747,4.3733 5.348,1.5334 7.6373,6.4934 21.768,9.5467 14.1307,3.0533 45.824,2.2933 45.824,2.2933 23.676,13.36 51.1733,2.68 65.6827,2.68 14.512,0 17.568,2.2934 24.3533,4.9067 14.3853,5.56 25.5,2.5333 28.3453,1.5733 2.8467,-0.9466 7.3934,-5.68 2.9654,-7.2666 1.8973,-0.6267 2.532,-5.6934 0.952,-8.8534" /><path
     id="path124"
     style="fill:#100f0d;fill-opacity:1;fill-rule:nonzero;stroke:none;stroke-width:0.133333"
     d="m -871.9241,922.43472 c -0.6066,-0.44 -1.2013,-0.88 -1.7093,-1.3467 0.28,0.48 0.9267,0.92 1.7093,1.3467" /><path
     id="path126"
     style="fill:#100f0d;fill-opacity:1;fill-rule:nonzero;stroke:none;stroke-width:0.133333"
     d="m -795.2761,700.39472 c 0,0 -0.976,10.2533 5.8627,14.6533 6.8373,4.4 7.3253,7.8134 7.3253,7.8134 -1.9546,0.4933 -104.52,142.6133 -104.52,142.6133 -2.932,-1.9467 -3.42,-1.4667 -3.42,-1.4667 10.2574,-15.6266 95.2414,-134.8 95.2414,-139.1866 0,-4.4 -6.84,-19.0534 -0.4894,-24.4267" /><path
     id="path128"
     style="fill:#100f0d;fill-opacity:1;fill-rule:nonzero;stroke:none;stroke-width:0.133333"
     d="m -779.1587,1084.7816 c 0,0 -15.6307,16.1198 -15.1427,21 -0.488,-8.3068 -0.9773,-12.2136 1.9533,-16.1204 2.932,-3.9068 -90.356,-120.14648 -90.356,-120.14648 l 2.9307,-1.4667 100.6147,116.73358" /><path
     id="path130"
     style="fill:#100f0d;fill-opacity:1;fill-rule:nonzero;stroke:none;stroke-width:0.133333"
     d="m 743.6746,179.99066 c 0,0 -4.8533,7.35467 -6.56,21.86534 2.16,2.82133 -33.3066,-5.968 -42.64,-8.38267 -9.3334,-2.416 -0.8933,-14.344 2.2534,-17.43733 0.5733,5.928 4.7733,8.14 13.8266,5.25466 9.0667,-2.88933 30.7734,-1.32 33.12,-1.3" /><path
     id="path132"
     style="fill:#100f0d;fill-opacity:1;fill-rule:nonzero;stroke:none;stroke-width:0.133333"
     d="m 694.2613,174.83466 c 0,0 -8.72,6.97067 -8.72,12.54667 -8.0134,-5.576 -13.9333,-19.516 -11.4934,-27.18133 6.6133,-8.71333 15.6801,-9.06133 15.6801,-9.06133 -2.44,3.83333 -5.92,5.924 -0.6934,10.45466 5.2266,4.53067 6.6133,7.31733 5.2266,13.24133" /><path
     id="path134"
     style="fill:#100f0d;fill-opacity:1;fill-rule:nonzero;stroke:none;stroke-width:0.133333"
     d="m 690.0879,148.39733 c 0,0 -8.0799,-1.28133 -12.5466,4.18 -7.7734,9.50133 -8.3068,-0.492 -9.3467,-1.536 -1.0534,-1.04533 -8.7466,-19.228 -6.3066,-42.57333 2.4265,-23.348 29.4265,-66.22667 73.8532,-65.664 -25.5067,5.21867 -58.6133,34.65333 -52.3067,80.90533 4.7201,8.93467 14.1867,-1.052 11.04,-6.308 -3.16,-5.256 -6.8399,-39.41866 24.6934,-54.66 -26.7999,23.124 -9.4534,47.30267 -7.3467,60.968 2.0933,13.66534 -14.0267,24.14667 -21.7333,24.688" /><path
     id="path136"
     style="fill:#100f0d;fill-opacity:1;fill-rule:nonzero;stroke:none;stroke-width:0.133333"
     d="m 741.768,441.97072 c 19.1733,5.0934 26.52,1.9214 30.1066,-8.1533 3.5867,-10.0773 -11.8933,-19.184 -23.1733,-19.4267 -11.2667,-0.228 -39.28,-10.8106 -29.7467,-33.3213 -19.4133,8.884 -3.8933,53.8133 22.8134,60.9013" /><path
     id="path138"
     style="fill:#100f0d;fill-opacity:1;fill-rule:nonzero;stroke:none;stroke-width:0.133333"
     d="m 817.7945,339.48812 c 0.48,-5.3934 -2.08,-10.8668 0,-16.25879 l -29.1999,-3.464 -18.8134,4.484 c 0.053,0.22 -0.6,0.564 -0.5333,0.788 1.8267,6.16139 2.1066,13.22809 4.7201,18.84009 l 14.5866,-7.3213 29.2399,2.932" /><path
     id="path140"
     style="fill:#100f0d;fill-opacity:1;fill-rule:nonzero;stroke:none;stroke-width:0.133333"
     d="m 782.2745,425.87342 c -0.8932,0.6813 -1.8399,1.308 -2.8532,1.872 l 6.16,4.1747 1.36,6.2613 c 4.7466,-1.3333 8.9467,-3.232 12.5866,-5.5627 l -5.0399,-6.3506 -12.2135,-0.3947" /><path
     id="path142"
     style="fill:#100f0d;fill-opacity:1;fill-rule:nonzero;stroke:none;stroke-width:0.133333"
     d="m 777.8213,428.56412 c -1.5067,0.7013 -3.1068,1.32 -4.8533,1.74 -7.68,1.844 -4.3468,10.7586 5.3866,9.612 2.3734,-0.276 4.5867,-0.724 6.7334,-1.2427 l -2.3334,-6.104 -4.9333,-4.0053" /><path
     id="path144"
     style="fill:#100f0d;fill-opacity:1;fill-rule:nonzero;stroke:none;stroke-width:0.133333"
     d="m 823.5679,379.69472 c -0.7066,-5.8346 -2.2399,-9.24 -3.1999,-14.328 l -24.6135,-1.424 -12.0933,6.3507 c 1.4001,2.3053 2.8134,4.632 4.2668,7.0093 1.6666,2.7027 2.9465,5.772 3.9065,9.0027 l 14.8401,-7.8933 16.8933,1.2826" /><path
     id="path146"
     style="fill:#100f0d;fill-opacity:1;fill-rule:nonzero;stroke:none;stroke-width:0.133333"
     d="m 820.7945,361.94272 c -1.2399,-6.2373 -2.1866,-10.7 -3,-15.3973 -0.1733,-1.0173 0.2668,-2.8027 0.2135,-3.8533 l -28.16,-1.6747 -15.0935,7.044 c 3.0135,6.0147 3.5468,13.3147 7.1735,19.368 l 13.1866,-6.3493 25.6799,0.8626" /><path
     id="path148"
     style="fill:#100f0d;fill-opacity:1;fill-rule:nonzero;stroke:none;stroke-width:0.133333"
     d="m 822.928,398.94412 c 0.36,-2.78 0.5866,-4.4254 0.4266,-7.0574 -0.1466,-2.3813 0.4534,-6.0506 0.2134,-8.3413 l -19.7734,-1.3253 -11.3466,6.284 c 1.0266,4.2146 4.4,7.12 4.1732,11.5093 2.2534,-0.784 8.5067,-2.408 10.2133,-2.408 1.5735,0 13.0267,0.336 16.0935,1.3387" /><path
     id="path150"
     style="fill:#100f0d;fill-opacity:1;fill-rule:nonzero;stroke:none;stroke-width:0.133333"
     d="m 805.5413,400.86672 c -1.6667,0.332 -5.4667,1.168 -8.7067,2.14 -0.3066,2.7214 -0.6533,6.4587 -1.4933,8.9854 l 9.6267,0.2106 11.3333,6.4174 c 2.76,-4.6667 5.2533,-10.8467 6.2,-15.828 -3.36,-0.9494 -15.24,-2.2694 -16.96,-1.9254" /><path
     id="path152"
     style="fill:#100f0d;fill-opacity:1;fill-rule:nonzero;stroke:none;stroke-width:0.133333"
     d="m 793.6346,414.77212 c -1.36,2.8506 -6.6133,6.672 -8.8,8.8773 l 10.96,-0.204 6.0667,7.6347 c 3.64,-2.672 9.1733,-5.008 11.6533,-8.396 l -12.72,-7.392 -7.16,-0.52" /><path
     id="path154"
     style="fill:#100f0d;fill-opacity:1;fill-rule:nonzero;stroke:none;stroke-width:0.133333"
     d="m 817.1812,320.45466 c 3.6268,-8.87333 7.8401,-16.83067 8.4267,-21.49867 0.3467,-2.84133 -22.5466,-9.59866 -31.2134,-17.70799 0,0 -13.9465,10.52133 -24.6266,14.32133 -7.7867,2.76533 -9.9867,7.67866 -9.9867,7.67866 0,0 3.6801,2.92667 7.12,16.81734 3.7867,-1.512 11.32,-4.21467 20.2534,-4.21467 9.3067,0 26.1466,3.71867 30.0266,4.604" /><path
     id="path156"
     style="fill:#100f0d;fill-opacity:1;fill-rule:nonzero;stroke:none;stroke-width:0.133333"
     d="m 743.3813,206.66266 c 0,0 -26.56,1.03467 -28.2934,1.03467 -1.7199,0 -10,-1.03467 -10,-1.03467 0,0 -15.1866,15.87467 -16.92,15.87467 -0.6799,6.9 -4.1333,21.73733 -4.1333,21.73733 6.2134,-8.62533 9.6666,-21.73733 9.6666,-21.73733 9.6533,-1.72667 16.6801,-6.78 16.6801,-6.78 l 35.8932,1.90933 -1.5065,-11.69333" /><path
     id="path158"
     style="fill:#100f0d;fill-opacity:1;fill-rule:nonzero;stroke:none;stroke-width:0.133333"
     d="m 746.8346,222.88266 c 0,0 -26.2133,2.416 -35.1866,-0.34533 -2.08,3.45067 -14.16,11.38667 -14.16,11.38667 -0.3468,8.28133 -8.28,24.50133 -8.28,24.50133 8.6266,-3.79467 15.1866,-21.396 15.1866,-21.396 8.28,-2.416 13.4534,-6.55467 13.4534,-6.55467 10.7066,3.79334 31.4133,0.68934 31.4133,0.68934 l -2.4267,-8.28134" /><path
     id="path160"
     style="fill:#100f0d;fill-opacity:1;fill-rule:nonzero;stroke:none;stroke-width:0.133333"
     d="m 750.288,243.24133 c 0,0 -21.04,0.344 -26.5735,-1.72533 -3.0933,4.14266 -13.1066,8.97066 -15.1732,8.97066 1.0266,7.59467 -4.84,23.472 -6.9067,25.19467 10.6934,-0.69333 14.1467,-18.29467 14.1467,-19.672 6.56,1.72667 12.4267,-6.212 12.4267,-6.212 10.6933,3.79467 23.12,2.072 23.12,2.072 l -1.04,-8.628" /><path
     id="path162"
     style="fill:#100f0d;fill-opacity:1;fill-rule:nonzero;stroke:none;stroke-width:0.133333"
     d="m 753.7413,263.60266 c 0,0 -16.56,1.03467 -20.0133,-2.416 -4.84,3.45067 -7.9334,7.24934 -13.4535,7.93867 -3.4532,6.556 -4.4933,17.60133 -11.4,22.08533 13.4667,-4.83333 16.9067,-15.53466 16.9067,-16.912 6.5733,-0.68933 10.36,-5.17333 10.36,-5.17333 7.24,3.79467 21.4001,3.45067 21.4001,3.45067 l -3.8001,-8.97334" /><path
     id="path164"
     style="fill:#100f0d;fill-opacity:1;fill-rule:nonzero;stroke:none;stroke-width:0.133333"
     d="m 843.5946,179.99066 c 0,0 4.84,7.35467 6.56,21.86534 -2.1733,2.82133 33.2934,-5.968 42.6267,-8.38267 9.3333,-2.416 0.8933,-14.344 -2.2534,-17.43733 -0.5733,5.928 -4.7599,8.14 -13.8267,5.25466 -9.0533,-2.88933 -30.7732,-1.32 -33.1066,-1.3" /><path
     id="path166"
     style="fill:#100f0d;fill-opacity:1;fill-rule:nonzero;stroke:none;stroke-width:0.133333"
     d="m 893.008,174.83466 c 0,0 8.7065,6.97067 8.7065,12.54667 8.0134,-5.576 13.9334,-19.516 11.4934,-27.18133 -6.6133,-8.71333 -15.68,-9.06133 -15.68,-9.06133 2.44,3.83333 5.9334,5.924 0.7066,10.45466 -5.2265,4.53067 -6.6266,7.31733 -5.2265,13.24133" /><path
     id="path168"
     style="fill:#100f0d;fill-opacity:1;fill-rule:nonzero;stroke:none;stroke-width:0.133333"
     d="m 897.168,148.39733 c 0,0 8.0799,-1.28133 12.5465,4.18 7.7734,9.50133 8.3068,-0.492 9.3601,-1.536 1.04,-1.04533 8.7332,-19.228 6.3067,-42.57333 -2.44,-23.348 -29.44,-66.22667 -73.8667,-65.664 25.5067,5.21867 58.6266,34.65333 52.3199,80.90533 -4.7332,8.93467 -14.1999,-1.052 -11.04,-6.308 3.1468,-5.256 6.8267,-39.41866 -24.7066,-54.66 26.8001,23.124 9.4534,47.30267 7.3601,60.968 -2.1068,13.66534 14.0133,24.14667 21.7199,24.688" /><path
     id="path170"
     style="fill:#100f0d;fill-opacity:1;fill-rule:nonzero;stroke:none;stroke-width:0.133333"
     d="m 793.1412,288.448 c 31.7468,0 33.48,11.73466 42.1068,11.04533 8.6266,-0.68934 7.24,-15.528 2.0666,-13.80533 0,0 3.8,1.72666 2.4267,3.79466 -4.1467,3.79467 -8.6267,-1.03466 -8.8267,-6.14533 -0.1333,-3.664 1.8134,-6.64 6.04,-19.92267 4.2266,-13.28133 9.0667,-57.352 9.0667,-57.352 l -3.0267,-21.736 c 0,0 -6.04,-12.67733 -11.4666,-15.092 -5.44,-2.41466 -37.8934,-8.45066 -37.8934,-8.45066 0,0 -32.4666,6.036 -37.8933,8.45066 -5.44,2.41467 -11.48,15.092 -11.48,15.092 l -3.0133,21.736 c 0,0 4.8266,44.07067 9.0533,57.352 4.2267,13.28267 6.1733,16.25867 6.04,19.92267 -0.1867,5.11067 -4.68,9.94 -8.8133,6.14533 -1.3867,-2.068 2.4133,-3.79466 2.4133,-3.79466 -5.1733,-1.72267 -6.56,13.11599 2.0667,13.80533 8.6266,0.68933 10.36,-11.04533 42.1066,-11.04533" /><path
     id="path172"
     style="fill:#100f0d;fill-opacity:1;fill-rule:nonzero;stroke:none;stroke-width:0.133333"
     d="m 843.8746,206.66266 c 0,0 26.56,1.03467 28.2934,1.03467 1.7333,0 10,-1.03467 10,-1.03467 0,0 15.1866,15.87467 16.9199,15.87467 0.68,6.9 4.1334,21.73733 4.1334,21.73733 -6.2133,-8.62533 -9.6533,-21.73733 -9.6533,-21.73733 -9.6667,-1.72667 -16.6934,-6.78 -16.6934,-6.78 l -35.8933,1.90933 1.5067,-11.69333" /><path
     id="path174"
     style="fill:#100f0d;fill-opacity:1;fill-rule:nonzero;stroke:none;stroke-width:0.133333"
     d="m 840.4213,222.88266 c 0,0 26.2266,2.416 35.1999,-0.34533 2.0668,3.45067 14.1468,11.38667 14.1468,11.38667 0.3466,8.28133 8.2799,24.50133 8.2799,24.50133 -8.6266,-3.79467 -15.1866,-21.396 -15.1866,-21.396 -8.28,-2.416 -13.4533,-6.55467 -13.4533,-6.55467 -10.6935,3.79334 -31.4,0.68934 -31.4,0.68934 l 2.4133,-8.28134" /><path
     id="path176"
     style="fill:#100f0d;fill-opacity:1;fill-rule:nonzero;stroke:none;stroke-width:0.133333"
     d="m 836.968,243.24133 c 0,0 21.0533,0.344 26.5733,-1.72533 3.1067,4.14266 13.1067,8.97066 15.1867,8.97066 -1.04,7.59467 4.8266,23.472 6.9066,25.19467 -10.7066,-0.69333 -14.16,-18.29467 -14.16,-19.672 -6.5466,1.72667 -12.4133,-6.212 -12.4133,-6.212 -10.7067,3.79467 -23.1333,2.072 -23.1333,2.072 l 1.04,-8.628" /><path
     id="path178"
     style="fill:#100f0d;fill-opacity:1;fill-rule:nonzero;stroke:none;stroke-width:0.133333"
     d="m 833.5146,263.60266 c 0,0 16.5733,1.03467 20.0133,-2.416 4.8401,3.45067 7.9334,7.24934 13.4667,7.93867 3.4534,6.556 4.48,17.60133 11.3867,22.08533 -13.4533,-4.83333 -16.9067,-15.53466 -16.9067,-16.912 -6.56,-0.68933 -10.36,-5.17333 -10.36,-5.17333 -7.24,3.79467 -21.4001,3.45067 -21.4001,3.45067 l 3.8001,-8.97334" /><path
     id="path180"
     style="fill:#100f0d;fill-opacity:1;fill-rule:nonzero;stroke:none;stroke-width:0.133333"
     d="m 761.928,168.564 3.92,-15.17733 28,-9.944 27.48,7.328 4.4533,18.05466 -38.7334,7.84933 -25.1199,-8.11066" /><path
     id="path182"
     style="fill:#100f0d;fill-opacity:1;fill-rule:nonzero;stroke:none;stroke-width:0.133333"
     d="m 776.3145,151.032 c 0,0 0.7868,-4.448 3.6668,-9.15867 2.88,-4.70933 8.3867,-5.75733 11,-6.01866 -3.1468,2.356 -3.9334,4.18666 -4.2001,5.75733 -0.2533,1.57067 0.8001,3.66267 0.8001,3.66267 l 0.7732,1.57066 -12.04,4.18667" /><path
     id="path184"
     style="fill:#100f0d;fill-opacity:1;fill-rule:nonzero;stroke:none;stroke-width:0.133333"
     d="m 812.4346,151.032 c 0,0 -0.7866,-4.448 -3.6666,-9.15867 -2.88,-4.70933 -8.3734,-5.75733 -10.9867,-6.01866 3.1333,2.356 3.92,4.18666 4.1867,5.75733 0.2533,1.57067 -0.7868,3.66267 -0.7868,3.66267 l -0.7867,1.57066 12.04,4.18667" /><path
     id="path186"
     style="fill:#100f0d;fill-opacity:1;fill-rule:nonzero;stroke:none;stroke-width:0.133333"
     d="m -383.10273,-505.08532 c -23.62,1.77333 -40.14934,-25.98666 -36.01734,-47.82666 4.132,-21.85334 21.848,-37.78667 31.29467,-44.88 9.44533,-7.08 12.988,-13.57334 12.988,-17.70667 8.26533,1.77333 14.76133,36.01333 10.03733,44.86667 -4.72266,8.85333 -13.31866,18.93333 -7.676,20.66666 7.676,2.36 14.76133,2.36 14.76133,2.36 l -25.38799,42.52" /><path
     id="path188"
     style="fill:#f9ba0f;fill-opacity:1;fill-rule:nonzero;stroke:none;stroke-width:0.133333"
     d="m -413.61073,-310.52532 c 0,0 11.74666,-3.66667 19.088,-2.93334 7.34133,0.73334 21.29066,9.54667 21.29066,9.54667 l -2.20266,8.8 -23.49467,-10.26667 c 0,0 24.23067,22.01334 26.43333,22.01334 2.20134,0 4.40267,-6.6 4.40267,-6.6 0,0 6.608,-13.21334 4.40666,-17.62667 -2.20266,-4.4 -31.57199,-13.94667 -35.24266,-13.94667 -3.66933,0 -14.68133,11.01334 -14.68133,11.01334" /><path
     id="path190"
     style="fill:#f9ba0f;fill-opacity:1;fill-rule:nonzero;stroke:none;stroke-width:0.133333"
     d="m -359.2814,-464.69865 c 6.60666,4.4 5.13733,12.48 -1.46934,22.02666 -6.608,9.54667 -22.02533,19.81334 -22.02533,19.81334 10.28,1.46666 21.29067,-5.13334 25.696,-10.28 4.40533,-5.13334 13.94933,-20.54667 11.01333,-25.69334 -2.93466,-5.13333 -3.672,-12.48 -13.21466,-5.86666" /><path
     id="path192"
     style="fill:#100f0d;fill-opacity:1;fill-rule:nonzero;stroke:none;stroke-width:0.133333"
     d="m -357.08007,-433.13865 c -4.40533,5.14666 -15.416,11.74666 -25.696,10.28 0,0 15.41733,-10.26667 22.02533,-19.81334 6.60667,-9.54666 8.076,-17.62666 1.46934,-22.02666 9.54266,-6.61334 10.28,0.73333 13.21466,5.86666 2.936,5.14667 -6.608,20.56 -11.01333,25.69334 z m -6.60667,125.54666 c 2.20134,4.41333 -4.40666,17.62667 -4.40666,17.62667 0,0 -2.20133,6.6 -4.40267,6.6 -2.20266,0 -26.43333,-22.01334 -26.43333,-22.01334 l 23.49467,10.26667 2.20266,-8.8 c 0,0 -13.94933,-8.81333 -21.29066,-9.54667 -7.34134,-0.73333 -19.088,2.93334 -19.088,2.93334 0,0 11.012,-11.01334 14.68133,-11.01334 3.67067,0 33.04,9.54667 35.24266,13.94667 z M -63.2974,-424.64532 c 0,-53.01333 -16.9347,-102.05333 -45.61601,-142.09333 -0.24933,-0.24 -0.49733,-0.52 -0.748,-0.74667 -23.748,10.61334 -41.11466,9.54667 -41.11466,9.54667 0,0 0,0 -10.276,1.46667 -3.52134,0.50666 -13.15867,0.0533 -25.66267,-1.10667 3.188,24.09333 -5.09067,48.34667 -23.23333,65.94666 -11.384,11.04 -36.18667,19.05334 -58.97733,19.05334 -21.08667,0 -36.44267,-6.62667 -43.24,-18.65334 -7.99734,-14.14666 -8.388,-29.43999 -1.07867,-41.97333 5.14533,-8.82666 13.46533,-14.52 21.19467,-14.52 16.55466,0 25.00133,1.82667 31.168,3.17334 5.45333,1.17333 9.452,1.89333 15.56266,1 8.29734,-1.24 9.8,-9.29334 9.53334,-20.38667 -11.592,-1.93333 -22.68667,-4.12 -31.72267,-6.48 -33.772,-8.81333 -66.812,0 -77.82133,14.68 0,0 -25.69733,44.05333 -34.508,60.93333 -4.55867,8.73333 -14.68133,32.30667 -16.88533,38.92 -2.204,6.6 -4.40267,13.94667 0.73333,20.54667 5.13733,6.61333 7.34267,13.96 8.80933,16.16 1.468,2.2 -14.50933,70.57333 -19.82133,82.95999 -4.408,10.28 -22.02667,30.84 -22.02667,30.84 0,0 44.048,26.42667 60.20134,30.82667 16.15199,4.4 24.22799,-35.24 24.96133,-40.37333 0.62533,-4.38667 -12.55734,-16.69334 -21.48267,-21.64 7.936,3.6 24.57867,11.66666 27.356,17.22666 3.672,7.34667 -5.13733,33.04 -8.07467,38.18667 -2.93733,5.13333 -5.87333,13.21333 -5.87333,13.21333 0,0 44.048,10.26667 46.98533,19.08 3.672,-10.28 5.14267,-14.68 5.14267,-14.68 22.02667,-79.29333 92.504,-82.96 100.58266,-92.50666 8.07734,-9.53334 16.884,-48.45333 13.21467,-55.8 7.34133,17.62667 -0.73467,41.85333 -7.34133,58 20.72533,16.58666 39.872,88.84 26.152,129.11999 62.82266,-44.22666 103.90667,-117.25333 103.90667,-199.91999" /><path
     id="path194"
     style="fill:#211c1d;fill-opacity:1;fill-rule:nonzero;stroke:none;stroke-width:0.133333"
     d="m -244.31207,-536.76532 c -7.18267,1.08 -12.228,0.18667 -18.028,-1.08 -6.188,-1.33333 -13.892,-3.01333 -29.70933,-3.01333 -5.248,0 -11.37867,4.46667 -15.25867,11.12 -2.85867,4.89333 -8.476,18.13333 1.12533,35.12 7.456,13.2 26.54534,15.16 37.25734,15.16 20.83466,0 44.13066,-7.36 54.19333,-17.12 16.94533,-16.42667 24.448,-39.22667 20.96,-61.69333 -0.62934,-4.04 -1.572,-8.09334 -2.92667,-12.08 -3.928,-11.54667 -7.292,-19.41334 -9.752,-25.14667 -2.43867,-5.70667 -4.13467,-9.66667 -4.38133,-13.04 -13.844,4.12 -19.17067,22.17333 -18.74134,31.61333 0.0693,1.49334 0.176,3.08 0.28667,4.74667 0.192,2.88 0.396,6.08 0.42933,9.36 0.12,11.6 -2.016,24.06667 -15.45466,26.05333" /><path
     id="path196"
     style="fill:#100f0d;fill-opacity:1;fill-rule:nonzero;stroke:none;stroke-width:0.133333"
     d="m -1056.5525,-282.79199 c -0.2355,-0.33333 -0.4676,-0.65333 -0.7004,-0.98667 0.2328,0.33334 0.4649,0.65334 0.7004,0.98667" /><path
     id="path198"
     style="fill:#100f0d;fill-opacity:1;fill-rule:nonzero;stroke:none;stroke-width:0.133333"
     d="m -1017.1129,-239.57866 c -0.3319,-0.28 -0.6652,-0.57333 -0.9964,-0.85333 0.3312,0.28 0.6621,0.57333 0.9964,0.85333" /><path
     id="path200"
     style="fill:#100f0d;fill-opacity:1;fill-rule:nonzero;stroke:none;stroke-width:0.133333"
     d="m -1101.4243,-408.76532 c 0,0 0,0.0133 0,0.0133 0,-0.0133 0,-0.0267 0,-0.04 0,0.0133 0,0.0133 0,0.0267" /><path
     id="path202"
     style="fill:#100f0d;fill-opacity:1;fill-rule:nonzero;stroke:none;stroke-width:0.133333"
     d="m -1099.867,-392.85865 c -0.047,-0.36 -0.094,-0.73334 -0.1406,-1.10667 0.046,0.37333 0.093,0.74667 0.1406,1.10667" /><path
     id="path204"
     style="fill:#100f0d;fill-opacity:1;fill-rule:nonzero;stroke:none;stroke-width:0.133333"
     d="m -1090.0551,-349.16532 c 0,0 0,0.0133 0,0.0133 0,0 0,-0.0133 -0.01,-0.0133 v 0" /><path
     id="path206"
     style="fill:#100f0d;fill-opacity:1;fill-rule:nonzero;stroke:none;stroke-width:0.133333"
     d="m -1048.0369,-271.53866 c -0.042,-0.0533 -0.084,-0.10666 -0.1265,-0.17333 0.042,0.0667 0.085,0.12 0.1265,0.17333" /><path
     id="path208"
     style="fill:#100f0d;fill-opacity:1;fill-rule:nonzero;stroke:none;stroke-width:0.133333"
     d="m -1084.7724,-334.55199 c -0.1452,-0.36 -0.291,-0.73333 -0.4337,-1.09333 0.1427,0.36 0.2885,0.73333 0.4337,1.09333" /><path
     id="path210"
     style="fill:#100f0d;fill-opacity:1;fill-rule:nonzero;stroke:none;stroke-width:0.133333"
     d="m -1079.1358,-321.44532 c -0.01,-0.0133 -0.011,-0.0267 -0.018,-0.04 0.01,0.0133 0.012,0.04 0.018,0.04" /><path
     id="path212"
     style="fill:#100f0d;fill-opacity:1;fill-rule:nonzero;stroke:none;stroke-width:0.133333"
     d="m -1028.4013,-249.91199 v 0 0" /><path
     id="path214"
     style="fill:#100f0d;fill-opacity:1;fill-rule:nonzero;stroke:none;stroke-width:0.133333"
     d="m -968.4494,-206.85866 c -0.3817,-0.18667 -0.7676,-0.38667 -1.15,-0.58667 0.3824,0.2 0.7683,0.4 1.15,0.58667" /><path
     id="path216"
     style="fill:#100f0d;fill-opacity:1;fill-rule:nonzero;stroke:none;stroke-width:0.133333"
     d="m -955.5641,-200.73866 c -0.116,-0.0533 -0.2279,-0.10667 -0.344,-0.14667 0.116,0.04 0.228,0.0933 0.344,0.14667" /><path
     id="path218"
     style="fill:#100f0d;fill-opacity:1;fill-rule:nonzero;stroke:none;stroke-width:0.133333"
     d="m -1101.7503,-415.04532 c -0.123,-3.18667 -0.2417,-6.38667 -0.2417,-9.6 0,3.21333 0.1021,6.41333 0.2417,9.6" /><path
     id="path220"
     style="fill:#100f0d;fill-opacity:1;fill-rule:nonzero;stroke:none;stroke-width:0.133333"
     d="m -1006.203,-230.67199 c -0.088,-0.0667 -0.1698,-0.13334 -0.2573,-0.2 0.088,0.0667 0.1694,0.13333 0.2573,0.2" /><path
     id="path222"
     style="fill:#f9ba0f;fill-opacity:1;fill-rule:nonzero;stroke:none;stroke-width:0.133333"
     d="m -1028.404,-249.91199 c -6.9636,-6.81333 -13.5188,-14.04 -19.6329,-21.62667 6.1156,7.58667 12.6677,14.81334 19.6329,21.62667" /><path
     id="path224"
     style="fill:#f9ba0f;fill-opacity:1;fill-rule:nonzero;stroke:none;stroke-width:0.133333"
     d="m -1006.4603,-230.87199 c -3.6364,-2.8 -7.1829,-5.70667 -10.6526,-8.70667 3.4697,3 7.0162,5.90667 10.6526,8.70667" /><path
     id="path226"
     style="fill:#f9ba0f;fill-opacity:1;fill-rule:nonzero;stroke:none;stroke-width:0.133333"
     d="m -1018.1093,-240.43199 c -3.5176,-3.06667 -6.9562,-6.22667 -10.292,-9.48 3.3358,3.25333 6.7744,6.41333 10.292,9.48" /><path
     id="path228"
     style="fill:#f9ba0f;fill-opacity:1;fill-rule:nonzero;stroke:none;stroke-width:0.133333"
     d="m -955.9081,-200.88533 c -4.2466,-1.88 -8.424,-3.86666 -12.5413,-5.97333 4.1173,2.10667 8.2947,4.09333 12.5413,5.97333" /><path
     id="path230"
     style="fill:#f9ba0f;fill-opacity:1;fill-rule:nonzero;stroke:none;stroke-width:0.133333"
     d="m -969.5994,-207.44533 c -12.9129,-6.66666 -25.1609,-14.44 -36.6036,-23.22666 11.4453,8.78666 23.6891,16.56 36.6036,23.22666" /><path
     id="path232"
     style="fill:#f9ba0f;fill-opacity:1;fill-rule:nonzero;stroke:none;stroke-width:0.133333"
     d="m -1085.206,-335.64532 c -1.7371,-4.44 -3.3657,-8.94667 -4.8464,-13.50667 1.4807,4.56 3.1073,9.05333 4.8464,13.50667" /><path
     id="path234"
     style="fill:#f9ba0f;fill-opacity:1;fill-rule:nonzero;stroke:none;stroke-width:0.133333"
     d="m -1100.0076,-393.96532 c -0.6115,-4.88 -1.0943,-9.81333 -1.4141,-14.78667 0.3198,4.97334 0.8026,9.90667 1.4141,14.78667" /><path
     id="path236"
     style="fill:#f9ba0f;fill-opacity:1;fill-rule:nonzero;stroke:none;stroke-width:0.133333"
     d="m -1101.4243,-408.79199 c -0.1344,-2.08 -0.2328,-4.17333 -0.326,-6.25333 0.081,2.09333 0.1916,4.17333 0.326,6.25333" /><path
     id="path238"
     style="fill:#f9ba0f;fill-opacity:1;fill-rule:nonzero;stroke:none;stroke-width:0.133333"
     d="m -1057.2529,-283.77866 c -8.3579,-11.82666 -15.7028,-24.41333 -21.8829,-37.66666 6.1822,13.25333 13.524,25.84 21.8829,37.66666" /><path
     id="path240"
     style="fill:#f9ba0f;fill-opacity:1;fill-rule:nonzero;stroke:none;stroke-width:0.133333"
     d="m -1090.0571,-349.16532 c -4.5579,-14.05334 -7.8589,-28.65333 -9.8099,-43.69333 1.9557,15.04 5.252,29.63999 9.8099,43.69333" /><path
     id="path242"
     style="fill:#f9ba0f;fill-opacity:1;fill-rule:nonzero;stroke:none;stroke-width:0.133333"
     d="m -1048.1633,-271.71199 c -2.9022,-3.6 -5.6927,-7.30667 -8.3892,-11.08 2.6965,3.77333 5.487,7.48 8.3892,11.08" /><path
     id="path244"
     style="fill:#f9ba0f;fill-opacity:1;fill-rule:nonzero;stroke:none;stroke-width:0.133333"
     d="m -1079.154,-321.48532 c -2.0011,-4.28 -3.8641,-8.65334 -5.6184,-13.06667 1.7543,4.41333 3.6172,8.77333 5.6184,13.06667" /><path
     id="path246"
     style="fill:#211c1d;fill-opacity:1;fill-rule:nonzero;stroke:none;stroke-width:0.133333"
     d="m -690.3521,-475.07199 c 0.592,-6.30666 1.1374,-12.36 1.632,-18.05333 -5.648,6.56 -13.3306,17.62667 -18.7066,28.05333 -6.7494,13.09334 -42.068,79.13334 -116.036,79.13334 -1.0627,0 -2.1387,-0.0133 -3.216,-0.04 -68.9494,-1.76 -101.5067,-53.76 -100.2747,-104.77334 0.7387,-30.67999 16.5867,-101.14666 121.32,-109.41333 h 2.0787 c 30.1346,1.77334 44.3746,10.92 52.212,20.01334 7.5586,8.76 11.5346,20.01333 10.64,30.09333 -1.6747,18.81333 -21.1027,33.01333 -45.192,33.01333 l -1.5107,-0.0133 c -37.0347,1.2 -53.492,11.38666 -53.0067,36.82666 0.48,24.98667 26.6694,34.25334 42.7187,34.25334 2.956,0 5.7893,-0.28 8.416,-0.84 12.1267,-2.56 27.0787,-16.74667 42.9093,-31.76 15.4427,-14.64 33.6054,-27.52 51.932,-37.41333 -16.496,-46.72 -37.8066,-97.88 -118.412,-98.48 -143.652,-1.08003 -242.7711,89.06663 -270.3893,95.83997 -12.0672,28.93333 -18.7547,60.67999 -18.7547,93.98666 0,3.21333 0.1187,6.41333 0.2417,9.6 0.093,2.08 0.1916,4.17333 0.326,6.25333 0,0.0133 0,0.0267 0,0.04 0.3198,4.97334 0.8026,9.90667 1.4141,14.78667 0.046,0.37333 0.093,0.74667 0.1406,1.10667 1.951,15.04 5.2521,29.63999 9.8099,43.69333 0,0 0.01,0.0133 0.01,0.0133 1.4807,4.56 3.1093,9.06667 4.8464,13.50667 0.1427,0.36 0.2885,0.73333 0.4337,1.09333 1.7543,4.41333 3.6172,8.78667 5.6183,13.06667 0.01,0.0133 0.011,0.0267 0.018,0.04 6.1801,13.25333 13.5249,25.84 21.8828,37.66666 0.2328,0.33334 0.4651,0.65334 0.7005,0.98667 2.6964,3.77333 5.487,7.48 8.3891,11.08 0.042,0.0667 0.085,0.12 0.1265,0.17333 6.1142,7.58667 12.6694,14.81334 19.6329,21.62667 v 0 c 3.3359,3.25333 6.7744,6.41333 10.2921,9.48 0.3313,0.28 0.6646,0.57333 0.9964,0.85333 3.4698,3 7.0162,5.90667 10.6526,8.70667 0.088,0.0667 0.1693,0.13333 0.2573,0.2 11.4426,8.78666 23.6906,16.56 36.6036,23.22666 0.3824,0.2 0.7682,0.4 1.15,0.58667 4.1173,2.10667 8.2947,4.09333 12.5413,5.97333 0.116,0.04 0.228,0.0933 0.344,0.14667 9.032,3.96 18.3453,7.38667 27.9067,10.24 1.6253,-1.21333 2.6533,-2.04 2.6533,-2.04 -29.896,-28.69333 -35.3626,-65.17333 -31.968,-98 2.344,-22.66666 8.9853,-41.61333 16.1587,-39.82666 0,0 8.1827,-18.8 0.3467,-46.78667 13.4346,19.02667 16.7906,60.45333 9.892,95.93333 19.792,30.64 53.1373,26.54667 60.3426,30.42667 -7.4466,-8.6 -3.4013,-24.16 4.6187,-31.02667 8.0187,-6.88 26.2613,-10.93333 28.216,1.28 -6.3493,-9.28 -30.508,2.72 -28.216,22.2 2.2907,19.46667 40.6693,22.33333 43.5933,10.72 2.3947,-11.97333 29.94,-72.45333 37.724,-81.44 1.6414,-1.89333 3.2587,-3.48 4.8774,-4.89333 -8.656,-0.57333 -20.5574,-12.64 -21.8067,-18.62667 -1.3693,-6.54666 1.8227,-12.70666 8.2093,-13.86666 6.384,-1.16 13.6787,3.46666 9.5734,7.32 -1.3694,-3.85334 -10.9427,-4.24 -10.9427,3.46666 0,7.30667 6.9987,16.62667 15.8867,20.86667 5.7453,-4.78667 11.5759,-7.13333 18.7493,-9.82667 3.6706,-13.08 57.116,-66.59999 63.6733,-75.10666 0.6947,-6.13333 1.344,-12.06667 1.9613,-17.84 3.9187,-20.44 13.52,-46.04 27.2134,-45.49333 -1.5227,-4.05334 -14.2667,-0.74667 -23.4507,7.98666" /><path
     id="path248"
     style="fill:#211c1d;fill-opacity:1;fill-rule:nonzero;stroke:none;stroke-width:0.133333"
     d="m -787.6614,-439.19199 c -3.16,0.66667 -6.5347,1.01334 -10.0293,1.01334 -23.0627,0 -47.8547,-14.62667 -48.3734,-41.70667 -0.728,-37.93333 29.2267,-44.01333 58.6254,-44.96 l 1.544,0.0133 c 21.988,0 36.3,-13.17334 37.432,-25.92 0.7146,-8.02667 -2.568,-17.10667 -8.7787,-24.32 -6.8347,-7.92 -20.6947,-17.69334 -47.936,-19.36 -94.6373,7.58666 -110.2026,68.14666 -111.0573,103.59999 -1.0507,43.69334 21.824,95.33334 89.7533,97.06667 71.452,1.69333 107.7627,-61.61333 114.2427,-74.18667 6.9346,-13.45333 14.416,-23.57333 21.8626,-31.24 12.5107,-12.85333 24.9227,-18.73333 34.4707,-21.57333 -12.952,-1.24 -25.4733,2.73334 -37.4867,9.44 -16.988,9.48 -32.952,24.49333 -47.6146,38.4 -17.3747,16.48 -32.3774,30.70667 -46.6547,33.73333" /><path
     id="path250"
     style="fill:#211c1d;fill-opacity:1;fill-rule:nonzero;stroke:none;stroke-width:0.133333"
     d="m -999.7967,-574.17865 c 26.8677,-13.42667 108.5846,-36.93333 108.5846,-36.93333 -120.7508,23.25333 -137.3956,23.93333 -103.0163,-16.2 -22.1756,14.97333 -41.7292,33.53333 -57.9141,54.78666 -9.9771,13.73334 -17.9536,27 -22.6594,36.41334 6.7167,-2.24 48.1359,-24.62667 75.0052,-38.06667" /><path
     id="path252"
     style="fill:#211c1d;fill-opacity:1;fill-rule:nonzero;stroke:none;stroke-width:0.133333"
     d="m 53.848,-270.33866 c 0,-0.08 0,-0.14666 0,-0.22666 -0.5014,-0.90667 -0.7507,-1.41334 -0.7507,-1.41334 l 0.7467,1.64" /><path
     id="path254"
     style="fill:#211c1d;fill-opacity:1;fill-rule:nonzero;stroke:none;stroke-width:0.133333"
     d="m 195.1666,-224.09866 c 3.1054,-8.8 5.4014,-15.05333 5.7907,-25.09333 0.3893,-10.04 -4.2467,-24.70667 3.088,-49.02667 7.3347,-24.32 32.4293,-39 44.776,-42.08 12.36,-3.09333 32.0533,-6.18666 49.0267,-11.2 16.9866,-5.01333 19.6933,-18.92 22.0133,-36.67999 -5.0267,2.70666 -30.5067,6.17333 -37.0667,5.02666 -6.56,-1.16 -11.96,-5.8 -10.04,-10.81333 3.8666,-7.33333 3.8666,-23.16 3.0934,-26.25333 -0.7734,-3.09334 -2.7068,-7.33334 -6.1734,-12.36 -3.4801,-5.01334 -3.8666,-5.01334 -1.5466,-9.64 -1.5467,-3.48 0.3866,-5.4 0.3866,-8.49334 0,-3.09333 -6.5601,-5.02666 -13.1334,-7.72 -6.5599,-2.70666 -5.7866,-7.33333 -3.8533,-10.04 1.9334,-2.70666 18.5334,-26.25333 19.6934,-31.65333 1.16,-5.41333 -5.0268,-11.58666 -5.0268,-15.82666 0,-4.25334 5.0268,-29.34667 10.5734,-43.32 -15.1199,-31.70667 -50.4199,-39.88 -71.9839,-40.28 -12.74,-0.22667 -56.5161,3.82666 -72.1614,38.41333 -12.1946,26.94667 -11.416,45.05333 -12.0146,46.85333 -0.408,1.21334 4.124,4.64 5.6213,9.13333 0.6867,-0.04 1.3413,-0.0533 2.156,-0.14666 13.0707,-1.49334 21.4,-3.84 28.1293,-8.44 6.288,-4.30667 9.0587,-12.26667 6.592,-13.74667 -0.492,1.97334 -1.808,2.64 -3.2853,0.66667 -1.476,-1.97333 0.8827,-4.49333 4.3013,-3.8 3.312,0.66667 4.3054,8.6 1.16,12.24 -1.8813,2.17333 -7.604,7.65333 -15.9813,10.12 -5.5093,1.62666 -11.3267,3.22666 -16.4907,4.01333 1.0467,0.69333 3.8894,1.56 11.6214,0.93333 8.1093,-0.66666 12.7426,-3.48 13.5706,-5.46666 0.3307,0.66666 -0.9946,3.48 -3.6386,4.8 -14.5014,5.14666 -27.5187,0.2 -27.792,0.18666 0.3093,1.78667 0.077,3.70667 -1.1587,5.72 -4.8053,7.81334 -18.2907,27.82667 -19.824,30.02667 -4.1347,5.94667 5.7893,8.74667 11.684,10.29333 5.8933,1.54667 6.824,6.2 4.9613,8.37334 -1.8613,2.17333 0.6174,6.52 2.48,6.82666 1.8614,0.30667 27.608,-4.96 33.5014,1.24 5.8946,6.2 -0.3094,10.54667 -3.1,10.24 -1.2414,-2.48 -0.624,-3.73333 1.2373,-4.04 1.8627,-0.30666 0.928,-3.4 -1.8613,-5.26666 -2.7867,-1.86667 -17.676,-1.56 -25.1227,-0.30667 -7.4467,1.24 -7.4467,2.48 -7.4467,3.4 0,0.93333 4.6494,8.06667 6.8254,9.30667 2.1746,1.24 3.1,24.81333 -0.3094,33.50666 -1.8626,3.72 6.828,8.06667 22.336,6.2 15.5054,-1.86666 67.0507,-16.22666 78.4747,-39.08 0.1973,2.92 -11.0627,22.88 -45.8773,33.64 -5.12,2.04 -9.22,2.04 -9.22,2.04 0,0 0,17.92 -4.6054,28.66667 -4.6093,10.76 -28.6666,21 -50.1706,23.04 -21.3147,2.02666 -65.228,18.66666 -65.5054,68.32 33.7107,41.91999 80.9547,72.45333 135.116,85.01333 l 1.0027,-13.89334 c 0,0 2.8587,-17.01333 5.1773,-23.57333" /><path
     id="path256"
     style="fill:#211c1d;fill-opacity:1;fill-rule:nonzero;stroke:none;stroke-width:0.133333"
     d="m 483.5546,-374.19199 c -0.6266,-23.17333 -10.2934,-29.2 -20.4667,-22.08 -8.3199,5.82667 -2.5467,23.54667 9.7334,19.96 -2.04,13.30667 -27.64,17.4 -39.9333,5.62667 -12.2934,-11.76 -15.3467,-46.58667 -17.4,-67.06667 4.0933,-9.72 16.8932,-63.48 17.92,-77.81333 4.8933,-68.57333 -49.6667,-83.44 -78.9334,-83.98666 -12.7333,-0.22667 -56.5201,3.82666 -72.16,38.41333 -12.2,26.94667 -11.4133,45.05333 -12.0133,46.85333 -0.4133,1.21334 4.12,4.64 5.6133,9.13333 0.6934,-0.04 1.3467,-0.0533 2.16,-0.14666 13.0667,-1.49334 21.4,-3.84 28.1334,-8.44 6.2933,-4.30667 9.0533,-12.26667 6.5866,-13.74667 -0.4933,1.97334 -1.8,2.64 -3.28,0.66667 -1.48,-1.97333 0.88,-4.49333 4.2934,-3.8 3.32,0.66667 4.3066,8.6 1.16,12.24 -1.88,2.17333 -7.6,7.65333 -15.9734,10.12 -5.5066,1.62666 -11.3333,3.22666 -16.4933,4.01333 1.0533,0.69333 3.8933,1.56 11.6267,0.93333 8.1066,-0.66666 12.7333,-3.48 13.56,-5.46666 0.3333,0.66666 -0.9867,3.48 -3.6267,4.8 -14.5067,5.14666 -27.52,0.2 -27.8,0.18666 0.3067,1.78667 0.08,3.70667 -1.1601,5.72 -4.7999,7.81334 -18.2799,27.82667 -19.8266,30.02667 -4.1334,5.94667 5.8,8.74667 11.6934,10.29333 5.8933,1.54667 6.8266,6.2 4.96,8.37334 -1.8667,2.17333 0.6133,6.52 2.48,6.82666 1.8666,0.30667 27.6,-4.96 33.5066,1.24 5.8934,6.2 -0.32,10.54667 -3.1066,10.24 -1.24,-2.48 -0.6267,-3.73333 1.24,-4.04 1.8666,-0.30666 0.92,-3.4 -1.8667,-5.26666 -2.7867,-1.86667 -17.6667,-1.56 -25.12,-0.30667 -7.4401,1.24 -7.4401,2.48 -7.4401,3.4 0,0.93333 4.6401,8.06667 6.8134,9.30667 2.1734,1.24 3.1067,24.81333 -0.3066,33.50666 -1.8534,3.72 6.8266,8.06667 22.3333,6.2 15.5067,-1.86666 67.0533,-16.22666 78.48,-39.08 0.2,2.92 -11.0667,22.88 -45.88,33.64 -5.12,2.04 -9.2133,2.04 -9.2133,2.04 0,0 0,17.92 -4.6134,28.66667 -4.6,10.76 -28.6666,21 -50.16,23.04 -21.5066,2.05333 -66.0453,18.94666 -65.5346,69.62666 0.5106,7.68 2.04,35.32 -1.5387,41.46667 -3.2373,5.56 -8.74,30.30666 -8.2573,43.33333 16.3426,3.45333 33.28,5.29333 50.6506,5.29333 117.68,0 215.9067,-83.17333 239.16,-193.94666" /><path
     id="path258"
     style="fill:#211c1d;fill-opacity:1;fill-rule:nonzero;stroke:none;stroke-width:0.133333"
     d="m 89.3893,-339.53866 c 13.5093,-5.01333 35.5133,-6.56 35.5133,-6.56 -6.564,-11.96 -38.9866,-6.94666 -37.0573,-17.37333 1.9293,-10.41333 -5.0213,-23.16 -18.5307,-22.38666 -13.5106,0.77333 -13.1266,17.75999 -5.4066,15.05333 2.3133,0 8.108,2.70666 2.7026,10.04 -5.4067,7.33333 -26.6361,7.33333 -24.3186,-12.34667 2.3186,-19.69333 27.0226,-18.53333 31.2693,-28.57333 4.2453,-10.04 -6.9507,-38.21333 -20.0773,-33.2 0.7705,15.05333 -20.46,27.02667 -31.2654,10.04 -10.808,-16.98667 -3.0266,-50.97333 6.9453,-57.13333 21.2334,-13.13334 27.4094,8.49333 26.6401,14.66666 8.8772,-20.85333 -9.6534,-29.72 -16.9881,-29.34666 -7.3346,0.38666 -25.092,1.93333 -34.36,37.45333 -2.6839,10.29333 -4.0359,21.76 -4.4307,33.56 0,0.33333 -0.025,0.66667 -0.025,1 0,53.52 17.2453,102.97333 46.42,143.22666 1.4213,-4.18666 4.8586,-14.26666 7.8401,-22.6 3.8613,-10.8 21.6185,-30.49333 35.1292,-35.52" /><path
     id="path260"
     style="fill:#f9ba0f;fill-opacity:1;fill-rule:nonzero;stroke:none;stroke-width:0.133333"
     d="m -613.1961,244.40133 c 0,134.97609 -109.42,244.39339 -244.3986,244.39339 -134.9776,0 -244.3973,-109.4173 -244.3973,-244.39339 C -1101.992,109.42 -992.5723,0 -857.5947,0 c 134.9786,0 244.3986,109.42 244.3986,244.40133" /><path
     id="path262"
     style="fill:#100f0d;fill-opacity:1;fill-rule:nonzero;stroke:none;stroke-width:0.133333"
     d="m -822.6414,1.69734 c -0.2693,0.24533 -0.4813,0.49333 -0.7307,0.73733 0.2414,0.0333 0.4814,0.0587 0.7187,0.092 0.019,-0.28 -0.017,-0.544 0.012,-0.82933" /><path
     id="path264"
     style="fill:#100f0d;fill-opacity:1;fill-rule:nonzero;stroke:none;stroke-width:0.133333"
     d="m -839.0947,487.52012 -36.7107,-136.2267 c -31.9373,-21.2934 -51.7387,-64.77876 -49.6,-90.82276 4.3307,-52.74533 35.1827,-60.548 46.6333,-59.412 -24.1946,2.90267 -44.7333,33.52134 -34.6666,78.82 9.0053,40.52667 70.2746,62.65206 93.0066,57.52406 22.292,-5.0306 42.4227,22.2894 42.4227,22.2894 0,0 3.596,-2.1574 10.5307,-10.56 6.884,-8.3467 27.2013,-30.23079 27.2013,-30.23079 l -12.1947,2.78933 c 0,0 -10.1693,2.27733 -29.524,-13.20667 -19.3546,-15.484 -24.6066,-24.33066 -41.604,-17.04533 -10.0653,4.31333 -18.372,-1.876 -21.276,-11.55466 -2.904,-9.68 3.6787,-22.232 20.132,-28.04134 16.452,-5.80933 30.168,0.51067 45.6507,8.252 15.4853,7.74134 49.3573,30.968 49.3573,30.968 0,0 -7.7426,11.612 -19.356,16.45467 0,0 9.8587,3.37333 31.264,-11.184 0,0 26.804,-21.72133 44.2227,-49.78933 -6.7733,0.972 -17.4187,-9.67734 -18.388,-14.51467 -0.9693,-4.83733 5.8067,-7.74267 5.8067,-1.936 0,5.80667 13.548,12.58267 13.548,12.58267 0,0 12.5813,-7.74534 16.452,-12.58267 3.8706,-4.83733 -1.3,-19.86 -15.816,-20.82667 -13.492,-0.9 -61.784,-21.42 -64.648,-27.41866 -4.1654,-0.41467 -12.7867,-1.30934 -20.496,-2.34934 -16.02,-2.16266 -25.0307,-11.46266 -26.4347,-19.032 -1.4027,-7.57066 3.6053,-16.65599 13.4173,-16.87199 9.8134,-0.21734 11.0147,11.46266 7.8107,14.05866 -3.2013,2.59467 -4.204,-1.94666 -2.6053,-1.51333 -2.604,-9.084 -10.412,-4.75867 -11.2574,-1.81867 -2.0893,7.236 0.9254,12.932 13.8627,18.688 10.3293,4.59333 22.468,6.176 26.9533,6.628 5.48,-6.14 17.6307,-33.05333 8.7014,-37.72933 -14.6294,-7.66667 -47.032,-9.05867 -60.136,-29.88267 2.9026,-6.776 19.356,-33.86933 4.8386,-57.09866 -14.316,-22.90267 -41.912,-32.532 -40.6573,-52.4 -0.2373,-0.0333 -0.4773,-0.0587 -0.7187,-0.092 -9.5733,9.484 -3.816,19.92667 7.504,33.136 11.612,13.54933 17.3947,23.25066 11.588,40.672 -1.936,-18.388 -7.6346,-26.79734 -25.0533,-40.348 -16.84,-13.09733 -21.832,-24.484 -21.2747,-35.71733 C -852.9361,0.11204 -855.2507,0 -857.5947,0 c -42.1574,0 -81.82,10.676 -116.437,29.468 47.4356,12.35467 76.4663,37.78 76.4663,37.78 -28.2773,-17.53867 -63.2893,-27.02133 -88.4037,-30.81067 -48.1589,29.792 -85.1541,75.84 -103.4131,130.48933 30.7776,-50.11333 99.3032,-69.68266 121.0448,-66.87599 -47.6391,7.768 -114.0203,39.44 -131.9412,115.79866 -1.0916,9.37067 -1.7135,18.884 -1.7135,28.552 0,11.16 0.8167,22.124 2.2661,32.89067 14.8615,-39.08934 50.437,-98.06534 100.0746,-121.48933 -36.5724,19.01066 -86.9063,82.93466 -93.4402,153.92532 22.1959,80.17613 84.1651,143.81073 163.3835,168.24143 22.8827,6.072 56.1174,12.2387 90.6134,9.5507" /><path
     id="path266"
     style="fill:#211c1d;fill-opacity:1;fill-rule:nonzero;stroke:none;stroke-width:0.133333"
     d="m -132.81741,73.74533 c 4.28667,4.392 8.41734,8.93334 12.364,13.63734 -4.076,-5.012 -8.204,-9.55867 -12.364,-13.63734" /><path
     id="path268"
     style="fill:#211c1d;fill-opacity:1;fill-rule:nonzero;stroke:none;stroke-width:0.133333"
     d="m -444.70407,279.71333 c 50.152,6.44 106.816,4.70667 115.92267,-2.65733 0.27066,-0.292 0.608,-0.55067 0.84933,-0.86 -0.20533,0.296 -0.50267,0.58133 -0.84933,0.86 -12.66934,13.80933 -55.83333,12.35466 -124.7173,5.468 -70.3467,-7.03467 -88.2814,39.39466 -76.3227,62.25742 -2.46,-32.36009 58.3867,-52.05476 68.2347,-45.02009 -37.6347,8.79333 -42.5587,59.43879 -24.62,75.26679 -16.8814,-35.876 28.4893,-80.54146 97.77863,-65.06679 69.29067,15.47466 117.82933,-30.60133 116.07333,-38.33867 -10.55066,-9.144 -21.10533,-28.84533 -25.67866,-39.04266 -4.57334,-10.2 -6.68134,-33.06267 -6.32934,-42.56 0.35067,-9.49867 -4.22,-38.33867 -4.57333,-55.22133 -0.35467,-16.88267 6.332,-40.8 8.82,-44.14267 -13.95867,16.05333 -25.12533,46.75867 -22.33333,81.65466 2.792,34.89734 -8.91467,83.70267 -42.57067,91.42667 -85.14533,19.54267 -134.69863,-36.29067 -185.64533,-1.396 0,0 -0.296,0.93867 -0.4547,3.25733 1.336,15.52 4.124,30.61467 8.2227,45.16267 8.64,-22.116 48.1747,-37.47467 98.19333,-31.048" /><path
     id="path270"
     style="fill:#211c1d;fill-opacity:1;fill-rule:nonzero;stroke:none;stroke-width:0.133333"
     d="m -327.93207,276.196 c -0.24133,0.30933 -0.57867,0.568 -0.84933,0.86 0.34666,-0.27867 0.644,-0.564 0.84933,-0.86" /><path
     id="path272"
     style="fill:#211c1d;fill-opacity:1;fill-rule:nonzero;stroke:none;stroke-width:0.133333"
     d="m -158.17741,186.924 c -0.11733,-1.35067 -0.264,-2.05334 -0.264,-2.05334 0,0 0.11334,0.756 0.264,2.05334" /><path
     id="path274"
     style="fill:#211c1d;fill-opacity:1;fill-rule:nonzero;stroke:none;stroke-width:0.133333"
     d="m -158.17741,186.924 c -0.11733,-1.35067 -0.264,-2.05334 -0.264,-2.05334 0,0 0.11334,0.756 0.264,2.05334" /><path
     id="path276"
     style="fill:#211c1d;fill-opacity:1;fill-rule:nonzero;stroke:none;stroke-width:0.133333"
     d="m -196.12941,159.04933 c -6.97733,0 -23.02933,2.78933 -30.00933,6.97867 -6.97867,4.18933 -17.44933,9.07333 -17.44933,9.07333 0,0 18.148,-16.748 32.80266,-18.144 14.656,-1.396 18.844,-2.092 20.93734,-7.67733 1.39733,6.97867 0.69866,9.76933 -6.28134,9.76933 z m -51.64399,84.448 c -4.88534,4.188 -12.564,4.188 -16.052,0.70133 -3.488,-3.492 -10.30667,-0.976 -10.30667,-0.976 5.27867,-3.60133 5.41867,-7.39866 10.30667,-5.308 4.88666,2.09334 6.12,4.18934 10.44666,0.14667 5.52,-5.15733 10.31734,-0.59867 17.75734,4.31867 -6.28134,-0.69867 -7.268,-3.068 -12.152,1.11733 z M -92.8361,131.832 c -8.652,-18.03733 -17.98131,-32.60667 -27.61731,-44.44933 -3.94666,-4.704 -8.07733,-9.24534 -12.364,-13.63734 -9.09733,-8.924 -18.32133,-15.712 -27.37333,-20.96 -5.836,-5.71866 -18.02667,-14.89733 -39.344,-19.30666 -46.91333,-9.70667 -60.396,-8.628 -90.05466,1.61733 -26.10934,9.01867 -42.372,48.76933 -8.38134,58.94267 -4.68533,15.028 -8.736,34.30266 -7.73066,50.35466 0.472,7.54934 1.34266,13.80933 2.236,19.56267 4.02266,0.13866 22.004,1.34266 31.26533,11.844 0,0 -10.74533,-4.25334 -16.69733,-5.35067 -5.952,-1.096 -6.108,-2.036 -8.928,-3.75867 -2.44134,-1.49333 -3.74534,-1.936 -5.60267,-2.49066 1.73467,11.15466 3.52933,20.39333 2.61067,33.23466 -1.396,19.54 18.84533,76.072 62.11466,92.82134 27.916,-4.88667 64.90533,-41.17867 73.97733,-67 6.97734,-19.85467 6.93867,-31.83867 6.548,-36.332 -0.15066,-1.29734 -0.264,-2.05334 -0.264,-2.05334 0,0 0.14667,0.70267 0.264,2.05334 0.604,5.16933 1.82534,19.316 -0.96266,32.148 -3.488,16.05066 -18.572,46.70533 -48.312,62.74933 -200.71333,84.12279 -145.09467,180.45339 -129.62267,195.92409 4.484,4.484 11.824,8.1493 20.44667,10.8253 2.97067,0.1027 5.93733,0.224 8.93333,0.224 7.78267,0 15.47067,-0.4026 23.06667,-1.1146 -13.42667,-7.3934 -15.484,-24.34 31.104,-46.2947 80.456,-37.9093 133.83466,-93.6053 150.22,-128.09476 C -81.2961,266.964 -60.0374,200.22666 -92.8361,131.832" /><path
     id="path278"
     style="fill:#211c1d;fill-opacity:1;fill-rule:nonzero;stroke:none;stroke-width:0.133333"
     d="m -303.42807,164.2 c -0.0133,-0.08 -0.0267,-0.16267 -0.0373,-0.244 -0.52534,-0.0173 -0.84,-0.02 -0.84,-0.02 0.324,0.096 0.58933,0.17733 0.87733,0.264" /><path
     id="path280"
     style="fill:#211c1d;fill-opacity:1;fill-rule:nonzero;stroke:none;stroke-width:0.133333"
     d="m -349.45474,369.44012 c 27.07734,-44.09879 98.248,-73.49613 98.248,-73.49613 0,0 -0.77066,-0.76933 -6.188,-6.18399 -1.548,3.87199 -46.416,23.20799 -75.81333,34.81199 -29.396,11.60413 -70.39866,38.67743 -77.36133,80.45343 -6.17467,37.0573 11.944,66.0347 45.84533,77.012 4.41067,1.0507 8.86667,1.9773 13.364,2.792 -20.62266,-36.1733 -25.036,-71.512 1.90533,-115.3893" /><path
     id="path282"
     style="fill:#211c1d;fill-opacity:1;fill-rule:nonzero;stroke:none;stroke-width:0.133333"
     d="m -412.1174,378.72542 c 17.01867,-45.6413 152.72666,-77.77743 145.716,-95.03342 -80.88934,48.53212 -115.85067,29.79866 -155.30533,32.89066 -39.45467,3.09333 -43.79867,33.81076 -52.30667,53.92676 -8.5093,20.1147 -22.428,22.1373 -28.6173,-5.7107 -6.1894,-27.848 8.512,-51.05606 8.512,-51.05606 0,0 -27.6067,21.92676 -32.8134,38.68676 14.6347,29.6387 35.1054,55.8533 59.904,77.2053 6.4054,-5.3853 8.476,-28.8386 14.684,-50.9093 6.96403,-24.756 20.11337,-35.5867 34.0387,-34.812 -28.60267,15.0587 -33.5,80.1933 -32.32,98.676 14.32267,10.3453 29.792,19.1987 46.21067,26.2813 -14.37467,-19.2146 -23.95734,-46.5493 -7.70267,-90.1453" /><path
     id="path284"
     style="fill:#211c1d;fill-opacity:1;fill-rule:nonzero;stroke:none;stroke-width:0.133333"
     d="m -366.16407,244.32533 c -23.188,8.08533 -47.45466,5.93333 -92.21203,-8.62933 -44.7573,-14.56134 -89.5146,0.54 -92.7506,15.64 24.2666,-23.18534 105.69197,5.93066 126.72263,9.70666 21.032,3.77734 52.604,3.24 74.42,-11.86266 28.04,-19.416 25.88267,-68.48667 25.88267,-68.48667 0,0 -18.876,55.54267 -42.06267,63.632" /><path
     id="path286"
     style="fill:#f9ba0f;fill-opacity:1;fill-rule:nonzero;stroke:none;stroke-width:0.133333"
     d="m -364.91074,1151.0347 c -16.33066,-4.213 -33.40933,-10.1599 -50.11066,-18 15.81733,7.7469 32.60133,13.8 50.11066,18" /><path
     id="path288"
     style="fill:#f9ba0f;fill-opacity:1;fill-rule:nonzero;stroke:none;stroke-width:0.133333"
     d="m -548.4534,871.60802 c -2.3467,13.6 -3.64,27.56 -3.64,41.84 0,11.8134 0.8853,23.4134 2.5067,34.7734 -2.9374,-23.5467 -2.672,-48.9334 1.1333,-76.6134" /><path
     id="path290"
     style="fill:#211c1d;fill-opacity:1;fill-rule:nonzero;stroke:none;stroke-width:0.133333"
     d="m -293.50674,1156.4482 c -26.75466,-2.8802 -46.82,-28.6666 -41.088,-63.0666 5.732,-34.4 41.088,-63.5469 41.56534,-71.1869 0,5.2536 9.556,9.0801 21.5,7.64 -7.16534,-0.9599 -11.944,-13.8533 -6.212,-24.36 -0.95467,5.2533 3.34533,17.2 12.9,18.1467 9.55466,0.9602 9.492,3.6398 10.92666,9.8398 1.89467,-14.2132 -9.49466,-16.5198 -12.36133,-24.1732 -2.86533,-7.64 0.47067,-14.90658 5.964,-12.57328 9.60533,0.8 -3.73067,32.22678 31.51466,42.71998 0.952,13.3333 2.85734,39.0536 2.85734,39.0536 0,0 27.96266,-3.7604 46.70933,-6.7203 -1.208,-1.0136 -2.85067,-2.6 -4.35467,-4.813 -3.748,-5.5339 -1.14666,-16.04 7.25467,-16.8 -3.26933,1.8797 -7.404,5.7865 -5.84667,12.2661 1.248,5.2005 5.32534,7.4939 9.748,8.2272 5.09334,-0.8803 8.712,-1.6 9.56134,-2.0267 2.22533,-1.1066 12,-49.0269 23.036,-98.57358 -1.856,-1.6266 -8.152,-7.5333 -9.724,-14.5066 -1.85067,-8.2134 0.61733,-22.1067 8.43066,-25.2667 7.81067,-3.1467 8.42934,5.0533 5.14,4.8933 -0.412,-2.36 -4.52666,-1.8933 -6.58133,0.8 -2.056,2.68 -4.31733,11.0534 -1.23467,20.2 1.63867,4.8667 3.83867,7.64 5.56,9.2134 3.29867,-3.3734 14.996,-7.4534 15.67467,-10.52 6.63067,-29.9867 12.48267,-63.6134 13.676,-71.9734 2.85733,-20 -10.36,-51.12 -18.93333,-63.5066 -8.572,-12.3867 -4.76,-23.8267 1.908,-26.68 -14.28934,0.96 -16.19334,18.1066 -14.28934,22.8666 1.904,4.76 -1.90666,6.6667 -1.90666,6.6667 -9.52534,-63.8267 -65.728,-105.7333 -117.16933,-113.36 -51.44,-7.6267 -119.93333,13.48 -139.07867,86.68 -16.196,61.92 21.476,120.44 64.34267,131.8667 42.86666,11.4266 89.976,-17.5467 77.59333,-59.4667 -11.43067,20.96 -47.628,31.44 -70.492,2.8667 -22.86267,-28.5867 -20.65467,-104.7734 34.584,-104.5867 51.084,0.1867 56.86533,55.04 49.24667,67.4267 2.85733,-0.027 9.11066,7.6133 11.19466,19.4266 -4.16933,-10.4266 -6.94533,-15.9733 -31.95733,-28.4933 -25.01067,-12.5067 -52.8,-11.8133 -58.35733,-20.84 -3.47467,18.0667 -9.03067,45.8533 8.33733,57.6667 17.368,11.8133 31.956,10.4133 46.54533,2.08 -10.42,9.7333 -32.44933,10.44 -44.95466,4.88 -12.50534,-5.56 -19.47467,-19.48 -19.47467,-19.48 0,0 9.74533,32.32 34.71867,33.6533 24.97333,1.3333 36.12133,-15.1733 42.36533,-22.7467 12.488,29.88 0.89333,70.4667 -53.51467,74.92 -53.79066,4.4134 -73.58399,-25.4133 -90.08399,-55.2933 -4.77734,-0.96 -33.91734,-1.2533 -76.47067,-6.9067 -36.9467,-4.8933 -64.1987,-18.4933 -69.3653,-21.2133 -1.7427,6.6533 -3.1667,13.4267 -4.3507,20.2933 -3.8053,27.68 -4.0707,53.0667 -1.1333,76.6134 11.6106,81.45338 63.34,149.94658 134.5653,184.81328 16.70133,7.8401 33.78,13.787 50.11066,18 18.35867,4.4 37.50267,6.8 57.216,6.8 4.99467,0 9.94134,-0.2 14.86134,-0.4932 -0.59067,-0.4 -0.67334,-0.8933 -0.67334,-0.8933" /><path
     id="path292"
     style="fill:#211c1d;fill-opacity:1;fill-rule:nonzero;stroke:none;stroke-width:0.133333"
     d="m 339.1546,889.80802 c 4.5467,2.28 21.6667,-44.68 5.7467,-53.0133 -21.3333,-6.3467 -8.68,-25.2533 -29.2267,-67.64 -26.72,-55.1067 -84.1066,-54.3733 -96.996,-57.4 -12.884,-3.0267 -11.3613,-13.64 -24.2453,-14.4 -12.884,-0.76 -32.58,0.76 -60.6147,16.6667 -28.0373,15.92 -51.8253,54.92 -48.6133,63.4933 4.5467,12.12 10.732,-2.12 9.9733,49.4133 -0.756,51.52 30.3054,96.9734 56.0694,105.3067 25.7626,8.3333 50.004,7.5867 48.492,20.4667 -1.5107,12.88 3.7866,18.1866 15.1533,21.9733 11.3667,3.7867 26.5147,0 35.608,-14.4 -12.12,6.0667 -38.6387,19.7067 -30.3067,-17.4267 8.3347,-37.12 65.92,-90.16 95.4667,-95.4666 22.68,-4.08 30.3067,8.3333 23.4933,42.4266" /><path
     id="path294"
     style="fill:#211c1d;fill-opacity:1;fill-rule:nonzero;stroke:none;stroke-width:0.133333"
     d="m 227.7693,939.06142 -3.0307,8.3466 6.816,0.7467 c 0,0 18.1866,0.76 27.2799,11.3733 9.0935,10.6 0,59.85338 -32.58,62.87998 -32.5826,3.0403 -53.7946,-34.09328 -82.5866,-21.2133 -28.7934,12.88 -45.4587,33.3468 -70.4653,23.4931 -25.0066,-9.8531 -28.7934,-46.22638 -16.6707,-51.53308 16.6707,1.52 17.4267,-18.1733 -1.5159,-21.2133 -18.9441,-3.0267 -28.0361,14.4 -28.7934,27.28 -0.7561,12.88 5.3039,59.85338 46.2187,64.40018 40.916,4.5464 59.1027,-36.3602 88.6519,-23.4802 29.5494,12.8797 68.1881,32.5865 100.768,4.5464 32.5868,-28.03978 31.8268,-68.95978 0.76,-80.31978 -31.0667,-11.36 -34.8519,-5.3066 -34.8519,-5.3066" /><path
     id="path296"
     style="fill:#211c1d;fill-opacity:1;fill-rule:nonzero;stroke:none;stroke-width:0.133333"
     d="m 152.0013,1069.3816 c 36.368,-11.3605 53.7933,1.5198 90.1667,-6.0537 36.3599,-7.5735 50.76,-50.7599 50.76,-68.94648 0,18.17328 -25,43.94648 -47.7335,51.51998 -22.7346,7.5734 -49.2492,2.2666 -78.0425,-9.0932 -28.792,-11.3599 -40.9148,9.853 -59.0974,18.1864 -16.1106,7.387 -44.6573,9.587 -57.8106,6.827 8.2,10.7063 17.2693,20.7199 27.0946,29.9199 4.0267,3.4401 8.4174,7.0932 13.2894,10.9864 0.7626,-6.0667 25.0026,-21.9735 61.3733,-33.3463" /><path
     id="path298"
     style="fill:#211c1d;fill-opacity:1;fill-rule:nonzero;stroke:none;stroke-width:0.133333"
     d="m 404.3146,956.50142 c -12.88,-27.3734 -56.0666,-27.28 -80.32,-36.3734 -24.24,-9.0933 -35.6133,-39.4 -36.3734,-50.0133 -8.3332,0.76 -29.5466,21.9733 -29.5466,21.9733 0,0 21.9734,37.1334 43.1867,41.68 21.2267,4.5334 41.68,8.3334 51.5333,29.5467 9.84,21.2133 15.1467,39.39998 49.24,56.06668 33.9334,16.5866 23.92,31.6669 20.84,60.9336 28.1333,-30.0667 48.7466,-67.227 58.8666,-108.54698 -9.5866,12.64 -65.5866,9.9067 -77.4266,-15.2666" /><path
     id="path300"
     style="fill:#211c1d;fill-opacity:1;fill-rule:nonzero;stroke:none;stroke-width:0.133333"
     d="m 458.1013,879.20802 c -26.52,-9.84 -55.3067,21.2134 -76.52,31.8267 -17.8933,8.9467 -41.68,3.0267 -50.76,-6.0667 -9.0933,-9.0933 -9.8533,-34.8533 -4.5467,-49.2533 -12.1333,-0.7467 -26.52,4.5467 -31.8266,9.0933 0,0 5.3066,11.3734 16.6666,33.3467 11.3734,21.9733 45.4534,28.7867 62.88,27.28 17.4267,-1.52 46.9867,-7.5867 65.1734,-18.9467 14.8932,-9.32 38.2665,-0.3066 49.5599,9.5067 0.013,-0.8533 0.067,-1.6933 0.067,-2.5467 0,-9.4133 -0.5866,-18.68 -1.6133,-27.8 -2.7199,1.7334 -9.7732,0.7334 -29.08,-6.44" /><path
     id="path302"
     style="fill:#211c1d;fill-opacity:1;fill-rule:nonzero;stroke:none;stroke-width:0.133333"
     d="m 483.1013,936.03472 c 0,-7.5733 -6.0534,-19.6933 -18.9333,-23.4933 -12.8801,-3.7867 -24.24,0.76 -35.6134,7.5866 -11.3601,6.8134 -36.3733,12.88 -47.7333,9.8534 0,0 22.7333,10.6 45.4667,3.7866 22.72,-6.8266 26.5199,-11.3733 33.3332,0.7467 6.8268,12.1333 3.0267,28.8 3.0267,37.1333 21.9733,-3.7866 20.4534,-28.04 20.4534,-35.6133" /><path
     id="path304"
     style="fill:#211c1d;fill-opacity:1;fill-rule:nonzero;stroke:none;stroke-width:0.133333"
     d="m 331.568,887.54142 c 2.28,9.8533 10.6133,21.2133 31.0666,21.2133 20.4534,0 33.3467,-15.1467 48.4934,-28.7867 15.16,-13.64 31.0665,-16.6666 47.7333,-11.3733 16.6667,5.3067 19.6133,-13.7333 17.3333,-26.6133 -2.2666,-12.88 -8.24,-35.5067 -25.6666,-37.0267 -17.4268,-1.52 -26.52,25.0133 -14.4,30.3067 12.1333,5.3066 25.7733,-7.5734 21.2266,-12.12 15.1467,10.6 10.6,31.0666 3.0266,31.0666 -7.5733,0 -19.7066,-9.0933 -31.0666,-9.0933 -11.36,0 -20.4533,6.8133 -23.4933,15.9067 2.2799,-15.1467 -8.3333,-25.76 -20.4533,-21.2134 -12.12,4.5467 2.28,9.8534 3.7866,19.7067 1.52,9.8533 0.76,21.2 -12.12,28.7867 -12.88,7.5733 -20.4666,14.4 -31.0666,8.3333 -10.6,-6.0667 -14.4,-9.0933 -14.4,-9.0933" /><path
     id="path306"
     style="fill:#211c1d;fill-opacity:1;fill-rule:nonzero;stroke:none;stroke-width:0.133333"
     d="m 411.888,1038.3279 c -5.3067,-11.3729 -25,-13.6401 -43.1867,-28.0399 -18.1867,-14.39998 -15.9067,-28.03998 -28.8,-47.73328 -12.88,-19.6933 -29.5467,-18.9467 -49.2401,-23.4933 -19.7067,-4.5467 -38.6532,-38.64 -38.6532,-38.64 l -7.5734,9.0933 c 0,0 6.8267,11.3733 17.4266,23.4933 10.6133,12.12 21.2134,14.4 42.4401,21.9734 21.2133,7.5733 21.2133,21.2133 25,43.9466 3.7866,22.71998 12.12,27.26658 34.8533,35.61348 22.72,8.3333 22.7334,21.2 22.7334,33.3333 0,12.1198 -7.5867,29.5463 -18.9467,31.8266 3.7867,-5.3068 2.2667,-12.8798 -18.9468,-9.0932 -20.28,3.6265 -8.24,41.7197 1.4535,43.0796 21.8265,-10.5328 41.8265,-24.2266 59.4532,-40.4531 6.5468,-15.2531 6.8533,-44.4667 1.9868,-54.9068" /><path
     id="path308"
     style="fill:#211c1d;fill-opacity:1;fill-rule:nonzero;stroke:none;stroke-width:0.133333"
     d="m 232.3146,931.48802 24.24,3.7867 -12.16,-21.84 z" /><path
     id="path310"
     style="fill:#211c1d;fill-opacity:1;fill-rule:nonzero;stroke:none;stroke-width:0.133333"
     d="m 301.2613,970.88802 c 7.5867,10.6 1.52,26.52 1.52,44.70668 0,18.1869 8.3333,28.0269 25,32.5733 16.6667,4.547 18.9467,16.6667 16.6667,31.0667 5.3066,-4.5469 22.7333,0 21.2133,3.0401 8.3333,-1.5204 13.64,-14.4 7.5867,-29.5598 -6.0667,-15.147 -36.3734,-10.6 -46.9734,-25 -10.6133,-14.4003 -2.28,-24.2403 -10.6133,-49.25358 -8.3467,-25 -29.5467,-22.7334 -29.5467,-22.7334 0,0 7.5734,4.56 15.1467,15.16" /><path
     id="path312"
     style="fill:#211c1d;fill-opacity:1;fill-rule:nonzero;stroke:none;stroke-width:0.133333"
     d="m 313.3946,1103.4883 c 17.4267,-21.2135 -2.28,-47.7339 -11.3733,-57.5869 -12.72,-13.7864 -6.3733,-24.8534 -5.4267,-26.3334 -1.1866,1.8267 -12.32,19.6266 -4.4266,35.4266 8.3466,16.6666 9.8533,20.4537 -3.7867,35.6136 -13.64,15.1462 -31.8267,15.9068 -55.3067,29.5468 -18.7893,10.9198 -19.4746,28.9599 -18.9973,35.7464 9.94,1.2265 20.0507,1.9333 30.3173,1.9333 4.7466,0 9.4534,-0.1734 14.1467,-0.4401 5.44,-31.8 37.96,-33.3463 54.8533,-53.9063" /><path
     id="path314"
     style="fill:#211c1d;fill-opacity:1;fill-rule:nonzero;stroke:none;stroke-width:0.133333"
     d="m 296.5946,1019.568 c 0.067,-0.1066 0.1199,-0.1866 0.1199,-0.1866 0,0 -0.04,0.067 -0.1199,0.1866" /><path
     id="path316"
     style="fill:#211c1d;fill-opacity:1;fill-rule:nonzero;stroke:none;stroke-width:0.133333"
     d="m 322.4746,1123.9415 c -3.7866,-10.6136 10.6134,-25 13.64,-37.1199 3.04,-12.1202 -4.5467,-25 -10.6,-31.0672 0,0 3.0267,7.5735 3.7867,25.7606 0.7466,18.1864 -23.4933,37.1197 -43.1867,47.7333 -14.2133,7.6395 -16.3333,20.6265 -16.4266,27.2932 23.2266,-2.3865 45.4532,-8.0802 66.28,-16.5068 -2.5734,-1.6667 -10.3334,-7.2803 -13.4935,-16.0932" /><path
     id="path318"
     style="fill:#211c1d;fill-opacity:1;fill-rule:nonzero;stroke:none;stroke-width:0.133333"
     d="m 263.3813,1096.6612 c 21.9733,-4.5462 28.04,-17.4129 23.4933,-29.5462 -4.5466,-12.1204 -6.0666,-23.4803 -6.0666,-23.4803 0,0 -3.7867,12.8803 -5.3067,21.2136 -1.52,8.3333 4.5466,12.8796 -18.1867,16.6667 -22.72,3.7864 -31.06,11.3598 -63.6426,12.8796 -32.5827,1.5204 -48.492,22.7333 -53.04,40.1598 0,0 0.3145,0.2136 0.8466,0.5606 16.052,7.4666 33.04,13.2395 50.7574,17.0796 0.8946,-23.6 50.1186,-51.1735 71.1453,-55.5334" /><path
     id="path320"
     style="fill:#211c1d;fill-opacity:1;fill-rule:nonzero;stroke:none;stroke-width:0.133333"
     d="m 231.5546,1081.515 c 27.28,-2.2667 36.3734,-23.4939 36.3734,-23.4939 0,0 -13.64,9.8537 -21.9735,12.1339 -8.3333,2.2661 -21.2159,1.5062 -43.1893,1.5062 -21.9732,0 -46.9759,0.7599 -74.256,13.6402 -20.244,9.5598 -26.6972,20.2666 -28.684,25.1598 9.24,6.8 18.9693,12.9599 29.1374,18.4266 2.7026,-6.1463 10.208,-21.6531 21.52,-32.9728 14.3919,-14.4 53.7999,-12.1204 81.0719,-14.4" /><path
     id="path322"
     style="fill:#211c1d;fill-opacity:1;fill-rule:nonzero;stroke:none;stroke-width:0.133333"
     d="m 168.6706,983.76802 c -1.5186,14.4 23.4894,33.34668 56.068,31.82668 32.576,-1.5067 28.7893,-44.70668 28.7893,-44.70668 0,0 -11.3599,34.85338 -31.0639,35.61338 -19.6987,0.76 -27.2747,-18.18668 -25.7574,-31.81338 1.5174,-13.64 -26.52,-5.3066 -28.036,9.08" /><path
     id="path324"
     style="fill:#211c1d;fill-opacity:1;fill-rule:nonzero;stroke:none;stroke-width:0.133333"
     d="m 73.9586,1010.288 c 7.8134,6.4 14.396,6.8134 31.0654,0 16.6693,-6.8133 21.2132,-23.47998 35.608,-22.71998 14.3973,0.7467 23.8133,5.5067 23.8133,5.5067 l 1.0427,-6.2667 c -3.7907,-11.36 -10.4587,-19.7066 -30.1574,-19.7066 -19.7,0 -29.5533,11.36 -40.9173,15.9066 -11.3613,4.56 -15.1467,6.0667 -16.664,-0.7466 -11.3667,-3.8 -17.9707,16.4133 -3.7907,28.02658" /><path
     id="path326"
     style="fill:#211c1d;fill-opacity:1;fill-rule:nonzero;stroke:none;stroke-width:0.133333"
     d="m 430.1813,938.88802 c -13.5467,3.4667 -23.6133,3.12 -27.0933,2.08 0,0 10.4266,9.3734 17.3733,21.88 6.9467,12.5067 15.6267,10.4267 26.0533,10.08 10.4133,-0.3466 11.7999,-19.1066 10.0667,-25.7066 -1.7334,-6.6 -12.8533,-11.8134 -26.4,-8.3334" /></svg>
