<?xml version="1.0" encoding="UTF-8" standalone="no"?>
<svg
   viewBox="0 0 73.264 73.263999"
   height="73.264"
   width="73.264"
   xml:space="preserve"
   id="svg2"
   version="1.1"
   sodipodi:docname="Rabbit2.svg"
   inkscape:version="1.4.2 (ebf0e940, 2025-05-08)"
   xmlns:inkscape="http://www.inkscape.org/namespaces/inkscape"
   xmlns:sodipodi="http://sodipodi.sourceforge.net/DTD/sodipodi-0.dtd"
   xmlns="http://www.w3.org/2000/svg"
   xmlns:svg="http://www.w3.org/2000/svg"
   xmlns:rdf="http://www.w3.org/1999/02/22-rdf-syntax-ns#"
   xmlns:cc="http://creativecommons.org/ns#"
   xmlns:dc="http://purl.org/dc/elements/1.1/"><sodipodi:namedview
     id="namedview1"
     pagecolor="#ffffff"
     bordercolor="#000000"
     borderopacity="0.25"
     inkscape:showpageshadow="2"
     inkscape:pageopacity="0.0"
     inkscape:pagecheckerboard="0"
     inkscape:deskcolor="#d1d1d1"
     inkscape:zoom="1.7142857"
     inkscape:cx="107.33334"
     inkscape:cy="14.291667"
     inkscape:window-width="1208"
     inkscape:window-height="766"
     inkscape:window-x="0"
     inkscape:window-y="25"
     inkscape:window-maximized="0"
     inkscape:current-layer="svg2" /><metadata
     id="metadata8"><rdf:RDF><cc:Work
         rdf:about=""><dc:format>image/svg+xml</dc:format><dc:type
           rdf:resource="http://purl.org/dc/dcmitype/StillImage" /></cc:Work></rdf:RDF></metadata><defs
     id="defs6"><clipPath
       id="clipPath20"
       clipPathUnits="userSpaceOnUse"><path
         id="path18"
         d="M 5276.68,360 H 360 v 2920 h 4916.68 z" /></clipPath><linearGradient
       id="linearGradient54"
       spreadMethod="pad"
       gradientTransform="matrix(7040.3,-3912.56,-3912.56,-7040.3,540.151,3086.07)"
       gradientUnits="userSpaceOnUse"
       y2="0"
       x2="1"
       y1="0"
       x1="0"><stop
         id="stop22"
         offset="0"
         style="stop-opacity:1;stop-color:#e8d9a2" /><stop
         id="stop24"
         offset="0.0769231"
         style="stop-opacity:1;stop-color:#e8d9a2" /><stop
         id="stop26"
         offset="0.137363"
         style="stop-opacity:1;stop-color:#c4b788" /><stop
         id="stop28"
         offset="0.21978"
         style="stop-opacity:1;stop-color:#e8d9a2" /><stop
         id="stop30"
         offset="0.296703"
         style="stop-opacity:1;stop-color:#c4b788" /><stop
         id="stop32"
         offset="0.373626"
         style="stop-opacity:1;stop-color:#e8d9a2" /><stop
         id="stop34"
         offset="0.445055"
         style="stop-opacity:1;stop-color:#c4b788" /><stop
         id="stop36"
         offset="0.532967"
         style="stop-opacity:1;stop-color:#ebdead" /><stop
         id="stop38"
         offset="0.582418"
         style="stop-opacity:1;stop-color:#c4b788" /><stop
         id="stop40"
         offset="0.637363"
         style="stop-opacity:1;stop-color:#e8d9a2" /><stop
         id="stop42"
         offset="0.736264"
         style="stop-opacity:1;stop-color:#c4b788" /><stop
         id="stop44"
         offset="0.785714"
         style="stop-opacity:1;stop-color:#e8d9a2" /><stop
         id="stop46"
         offset="0.846154"
         style="stop-opacity:1;stop-color:#c4b788" /><stop
         id="stop48"
         offset="0.912088"
         style="stop-opacity:1;stop-color:#ebdead" /><stop
         id="stop50"
         offset="0.989011"
         style="stop-opacity:1;stop-color:#c4b788" /><stop
         id="stop52"
         offset="1"
         style="stop-opacity:1;stop-color:#c4b788" /></linearGradient></defs><g
     clip-path="url(#clipPath20)"
     id="g16"
     transform="matrix(0.13333333,0,0,-0.13333333,-431.72932,236.33333)"><path
       id="path56"
       style="fill:url(#linearGradient54);fill-opacity:1;fill-rule:nonzero;stroke:none"
       d="M 5276.68,360 H 360 V 3280 H 5276.68 V 360" /></g><path
     id="path58"
     style="fill:#2b1414;fill-opacity:1;fill-rule:nonzero;stroke:none;stroke-width:0.133333"
     d="m 23.86534,-101.87999 h -1.4 v -0.98534 h 3.98533 v 0.98534 h -1.416 v 4.20133 h -1.16933 v -4.20133" /><path
     id="path60"
     style="fill:#2b1414;fill-opacity:1;fill-rule:nonzero;stroke:none;stroke-width:0.133333"
     d="m 29.79067,-102.86533 v 5.18667 H 28.62 v -5.18667 h 1.17067" /><path
     id="path62"
     style="fill:#2b1414;fill-opacity:1;fill-rule:nonzero;stroke:none;stroke-width:0.133333"
     d="m 36.67733,-97.91599 c -0.36133,0.12266 -1.04666,0.292 -1.732,0.292 -0.94666,0 -1.63199,-0.23867 -2.10799,-0.69334 -0.47067,-0.45333 -0.732,-1.13066 -0.732,-1.89333 0.008,-1.724 1.26266,-2.708 2.96399,-2.708 0.66934,0 1.184,0.13067 1.43867,0.24533 l -0.24667,0.94667 c -0.28533,-0.13067 -0.63066,-0.22267 -1.2,-0.22267 -0.97733,0 -1.72399,0.54667 -1.72399,1.67734 0,1.07733 0.67733,1.70133 1.63866,1.70133 0.26267,0 0.47733,-0.0307 0.57067,-0.0693 v -1.09334 h -0.80133 v -0.916 h 1.93199 v 2.73334" /><path
     id="path64"
     style="fill:#2b1414;fill-opacity:1;fill-rule:nonzero;stroke:none;stroke-width:0.133333"
     d="m 42.216,-99.87199 h -1.908 v 1.232 h 2.132 v 0.96133 h -3.30133 v -5.18667 H 42.332 v 0.96134 h -2.024 v 1.07866 h 1.908 v 0.95334" /><path
     id="path66"
     style="fill:#2b1414;fill-opacity:1;fill-rule:nonzero;stroke:none;stroke-width:0.133333"
     d="m 45.94,-100.56399 h 0.46267 c 0.584,0 0.93066,-0.29334 0.93066,-0.74667 0,-0.46933 -0.32266,-0.716 -0.86266,-0.716 -0.284,0 -0.44534,0.016 -0.53067,0.0387 z m -1.16133,-2.232 c 0.37733,-0.0613 0.93066,-0.108 1.56133,-0.108 0.76933,0 1.30933,0.116 1.67867,0.408 0.31466,0.24666 0.484,0.616 0.484,1.09333 0,0.65333 -0.46934,1.108 -0.916,1.26933 v 0.0227 c 0.36266,0.14667 0.56266,0.48533 0.69333,0.96267 0.16133,0.592 0.316,1.26933 0.41467,1.46933 h -1.2 c -0.0773,-0.15333 -0.208,-0.56933 -0.35334,-1.208 -0.14666,-0.65333 -0.37066,-0.824 -0.85466,-0.83067 H 45.94 v 2.03867 h -1.16133 v -5.11733" /><path
     id="path68"
     style="fill:#2b1414;fill-opacity:1;fill-rule:nonzero;stroke:none;stroke-width:0.133333"
     d="m 109.09333,-99.66399 c -0.0227,-0.62267 -0.0453,-1.37734 -0.0453,-2.132 h -0.016 c -0.16933,0.66266 -0.38533,1.40133 -0.58533,2.00933 l -0.63067,2.024 h -0.916 l -0.55333,-2.00133 c -0.16934,-0.616 -0.33867,-1.35467 -0.47067,-2.032 h -0.0147 c -0.024,0.70133 -0.0547,1.50133 -0.0853,2.148 l -0.1,1.96933 h -1.08533 l 0.332,-5.18667 h 1.56133 l 0.50933,1.732 c 0.168,0.6 0.32267,1.24667 0.43734,1.85467 h 0.032 c 0.13733,-0.6 0.31466,-1.28533 0.492,-1.86267 l 0.54666,-1.724 h 1.53867 l 0.27733,5.18667 h -1.13866 l -0.0853,-1.98533" /><path
     id="path70"
     style="fill:#2b1414;fill-opacity:1;fill-rule:nonzero;stroke:none;stroke-width:0.133333"
     d="m 113.756,-100.26399 c 0,1.02266 0.476,1.73866 1.26133,1.73866 0.79334,0 1.24667,-0.75333 1.24667,-1.76133 0,-0.93867 -0.43867,-1.74 -1.24667,-1.74 -0.8,0 -1.26133,0.75467 -1.26133,1.76267 z m 3.74667,-0.0613 c 0,1.708 -1.02267,2.732 -2.54667,2.732 -1.532,0 -2.44,-1.16266 -2.44,-2.648 0,-1.55466 1.00133,-2.716 2.52533,-2.716 1.592,0 2.46134,1.192 2.46134,2.632" /><path
     id="path72"
     style="fill:#2b1414;fill-opacity:1;fill-rule:nonzero;stroke:none;stroke-width:0.133333"
     d="m 119.81067,-97.67866 v -5.18667 H 121.18 l 1.07733,1.90134 c 0.308,0.54666 0.608,1.192 0.84667,1.77733 h 0.016 c -0.0693,-0.68533 -0.092,-1.38533 -0.092,-2.17067 v -1.508 h 1.07733 v 5.18667 h -1.232 l -1.108,-2 c -0.308,-0.55467 -0.65466,-1.224 -0.9,-1.832 h -0.0307 c 0.0387,0.692 0.0533,1.424 0.0533,2.26933 v 1.56267 h -1.07733" /><path
     id="path74"
     style="fill:#2b1414;fill-opacity:1;fill-rule:nonzero;stroke:none;stroke-width:0.133333"
     d="m 126.65867,-102.86533 h 1.16266 v 2.29334 h 0.0147 c 0.116,-0.2 0.23867,-0.38534 0.36133,-0.56934 l 1.17067,-1.724 h 1.44667 l -1.716,2.20934 1.8,2.97733 h -1.36134 l -1.27866,-2.23867 -0.43734,0.54667 v 1.692 h -1.16266 v -5.18667" /><path
     id="path76"
     style="fill:#2b1414;fill-opacity:1;fill-rule:nonzero;stroke:none;stroke-width:0.133333"
     d="m 136.008,-99.87199 h -1.90933 v 1.232 h 2.132 v 0.96133 h -3.30134 v -5.18667 h 3.19334 v 0.96134 h -2.024 v 1.07866 h 1.90933 v 0.95334" /><path
     id="path78"
     style="fill:#2b1414;fill-opacity:1;fill-rule:nonzero;stroke:none;stroke-width:0.133333"
     d="m 139.77067,-97.67866 v -2.124 l -1.64,-3.06267 h 1.34666 l 0.524,1.24667 c 0.16134,0.37733 0.276,0.65467 0.4,0.99333 h 0.0147 c 0.116,-0.324 0.23867,-0.624 0.392,-0.99333 l 0.524,-1.24667 h 1.316 l -1.70933,3.02534 v 2.16133 h -1.168" /><path
     id="path80"
     style="fill:#2b1414;fill-opacity:1;fill-rule:nonzero;stroke:none;stroke-width:0.133333"
     d="m 194.78533,-98.56266 c 0.1,0.0227 0.26933,0.0227 0.408,0.0227 1.06933,0.008 1.77067,-0.57734 1.77067,-1.816 0,-1.07734 -0.632,-1.64667 -1.64667,-1.64667 -0.25467,0 -0.432,0.0227 -0.532,0.0453 z m -1.16933,-4.22533 c 0.43066,-0.0693 0.992,-0.116 1.57733,-0.116 0.99333,0 1.63867,0.184 2.132,0.55466 0.53867,0.4 0.87733,1.03867 0.87733,1.95467 0,0.992 -0.36266,1.67733 -0.85333,2.1 -0.548,0.45467 -1.38667,0.67067 -2.40267,0.67067 -0.608,0 -1.04666,-0.0387 -1.33066,-0.0773 v -5.08666" /><path
     id="path82"
     style="fill:#2b1414;fill-opacity:1;fill-rule:nonzero;stroke:none;stroke-width:0.133333"
     d="m 201.672,-100.56399 h 0.46133 c 0.58533,0 0.932,-0.29334 0.932,-0.74667 0,-0.46933 -0.324,-0.716 -0.86267,-0.716 -0.28533,0 -0.44666,0.016 -0.53066,0.0387 z m -1.16267,-2.232 c 0.37733,-0.0613 0.932,-0.108 1.56267,-0.108 0.76933,0 1.308,0.116 1.67733,0.408 0.316,0.24666 0.48533,0.616 0.48533,1.09333 0,0.65333 -0.46933,1.108 -0.916,1.26933 v 0.0227 c 0.36267,0.14667 0.56267,0.48533 0.69334,0.96267 0.16133,0.592 0.31466,1.26933 0.41466,1.46933 h -1.2 c -0.0773,-0.15333 -0.208,-0.56933 -0.35466,-1.208 -0.14534,-0.65333 -0.36934,-0.824 -0.85334,-0.83067 H 201.672 v 2.03867 h -1.16267 v -5.11733" /><path
     id="path84"
     style="fill:#2b1414;fill-opacity:1;fill-rule:nonzero;stroke:none;stroke-width:0.133333"
     d="m 209.20533,-99.88666 -0.324,-1.10133 c -0.092,-0.308 -0.184,-0.692 -0.26133,-1 h -0.016 c -0.0773,0.308 -0.15334,0.7 -0.23867,1 l -0.30667,1.10133 z m -1.31733,0.87733 -0.368,1.33067 h -1.20934 l 1.57734,-5.18667 h 1.54 l 1.616,5.18667 h -1.26934 l -0.4,-1.33067 H 207.888" /><path
     id="path86"
     style="fill:#2b1414;fill-opacity:1;fill-rule:nonzero;stroke:none;stroke-width:0.133333"
     d="m 217.408,-97.91599 c -0.36267,0.12266 -1.048,0.292 -1.732,0.292 -0.94667,0 -1.632,-0.23867 -2.10934,-0.69334 -0.46933,-0.45333 -0.73066,-1.13066 -0.73066,-1.89333 0.008,-1.724 1.26266,-2.708 2.96266,-2.708 0.66934,0 1.18534,0.13067 1.44,0.24533 l -0.24666,0.94667 c -0.28534,-0.13067 -0.632,-0.22267 -1.2,-0.22267 -0.97734,0 -1.72534,0.54667 -1.72534,1.67734 0,1.07733 0.67734,1.70133 1.64,1.70133 0.26134,0 0.47734,-0.0307 0.56934,-0.0693 v -1.09334 h -0.8 v -0.916 h 1.932 v 2.73334" /><path
     id="path88"
     style="fill:#2b1414;fill-opacity:1;fill-rule:nonzero;stroke:none;stroke-width:0.133333"
     d="m 220.86133,-100.26399 c 0,1.02266 0.47733,1.73866 1.26267,1.73866 0.792,0 1.24666,-0.75333 1.24666,-1.76133 0,-0.93867 -0.43866,-1.74 -1.24666,-1.74 -0.80134,0 -1.26267,0.75467 -1.26267,1.76267 z m 3.748,-0.0613 c 0,1.708 -1.024,2.732 -2.54667,2.732 -1.532,0 -2.44,-1.16266 -2.44,-2.648 0,-1.55466 1,-2.716 2.524,-2.716 1.59334,0 2.46267,1.192 2.46267,2.632" /><path
     id="path90"
     style="fill:#2b1414;fill-opacity:1;fill-rule:nonzero;stroke:none;stroke-width:0.133333"
     d="m 226.916,-97.67866 v -5.18667 h 1.37066 l 1.07734,1.90134 c 0.308,0.54666 0.608,1.192 0.84666,1.77733 h 0.0147 c -0.068,-0.68533 -0.092,-1.38533 -0.092,-2.17067 v -1.508 h 1.07733 v 5.18667 h -1.23066 l -1.10934,-2 c -0.308,-0.55467 -0.65333,-1.224 -0.9,-1.832 h -0.0307 c 0.0387,0.692 0.0533,1.424 0.0533,2.26933 v 1.56267 h -1.07733" /><path
     id="path92"
     style="fill:#2b1414;fill-opacity:1;fill-rule:nonzero;stroke:none;stroke-width:0.133333"
     d="m 24.03467,-12.30266 v 1.99333 h 1.932 v -1.99333 H 27.136 v 5.188 h -1.16933 v -2.17067 h -1.932 v 2.17067 h -1.16933 v -5.188 h 1.16933" /><path
     id="path94"
     style="fill:#2b1414;fill-opacity:1;fill-rule:nonzero;stroke:none;stroke-width:0.133333"
     d="m 30.69734,-9.70133 c 0,1.024 0.47733,1.73867 1.26266,1.73867 0.79334,0 1.24667,-0.75334 1.24667,-1.76134 0,-0.94 -0.43867,-1.74 -1.24667,-1.74 -0.8,0 -1.26266,0.75467 -1.26266,1.76267 z m 3.748,-0.0613 c 0,1.708 -1.02267,2.732 -2.54667,2.732 -1.532,0 -2.44,-1.16267 -2.44,-2.648 0,-1.55334 1.00133,-2.716 2.524,-2.716 1.59333,0 2.46267,1.19333 2.46267,2.632" /><path
     id="path96"
     style="fill:#2b1414;fill-opacity:1;fill-rule:nonzero;stroke:none;stroke-width:0.133333"
     d="m 37.91467,-10.00133 h 0.46266 c 0.58534,0 0.93067,-0.292 0.93067,-0.74667 0,-0.46933 -0.32267,-0.716 -0.86133,-0.716 -0.28534,0 -0.44667,0.016 -0.532,0.0387 z m -1.16134,-2.232 c 0.37734,-0.0613 0.93067,-0.108 1.56267,-0.108 0.76933,0 1.308,0.116 1.67733,0.408 0.31467,0.24667 0.484,0.616 0.484,1.09333 0,0.65334 -0.46933,1.108 -0.91466,1.26934 v 0.0227 c 0.36133,0.14667 0.56133,0.48534 0.692,0.96267 0.16133,0.592 0.316,1.27067 0.416,1.47067 h -1.20134 c -0.076,-0.15467 -0.20666,-0.57067 -0.35333,-1.20934 -0.14667,-0.65333 -0.36933,-0.82266 -0.85467,-0.83066 h -0.34666 v 2.04 h -1.16134 v -5.11867" /><path
     id="path98"
     style="fill:#2b1414;fill-opacity:1;fill-rule:nonzero;stroke:none;stroke-width:0.133333"
     d="m 42.89333,-8.324 c 0.308,0.16134 0.8,0.324 1.3,0.324 0.53867,0 0.824,-0.224 0.824,-0.56266 0,-0.32267 -0.24666,-0.508 -0.86933,-0.72267 -0.86267,-0.308 -1.432,-0.78533 -1.432,-1.54 0,-0.884 0.74667,-1.55467 1.96267,-1.55467 0.592,0 1.016,0.116 1.324,0.26267 l -0.26134,0.93867 c -0.20133,-0.1 -0.57866,-0.24667 -1.07866,-0.24667 -0.50667,0 -0.75334,0.23867 -0.75334,0.5 0,0.332 0.284,0.47733 0.96134,0.73067 0.916,0.33866 1.34,0.816 1.34,1.548 0,0.86933 -0.66267,1.608 -2.08534,1.608 -0.59333,0 -1.17866,-0.16134 -1.47066,-0.32267 L 42.89333,-8.324" /><path
     id="path100"
     style="fill:#2b1414;fill-opacity:1;fill-rule:nonzero;stroke:none;stroke-width:0.133333"
     d="m 51.63467,-9.308 h -1.90934 v 1.23067 h 2.132 v 0.96267 H 48.556 v -5.188 h 3.19333 V -11.34 h -2.024 v 1.07734 h 1.90934 V -9.308" /><path
     id="path102"
     style="fill:#2b1414;fill-opacity:1;fill-rule:nonzero;stroke:none;stroke-width:0.133333"
     d="m 118.788,-9.70133 c 0,1.024 0.47733,1.73867 1.26133,1.73867 0.79334,0 1.248,-0.75334 1.248,-1.76134 0,-0.94 -0.44,-1.74 -1.248,-1.74 -0.8,0 -1.26133,0.75467 -1.26133,1.76267 z m 3.748,-0.0613 c 0,1.708 -1.024,2.732 -2.548,2.732 -1.53067,0 -2.44,-1.16267 -2.44,-2.648 0,-1.55334 1,-2.716 2.52533,-2.716 1.592,0 2.46267,1.19333 2.46267,2.632" /><path
     id="path104"
     style="fill:#2b1414;fill-opacity:1;fill-rule:nonzero;stroke:none;stroke-width:0.133333"
     d="m 127.32133,-7.11466 -0.46933,-0.94 c -0.192,-0.36134 -0.316,-0.63067 -0.46267,-0.93067 h -0.0147 c -0.108,0.3 -0.23867,0.56933 -0.40934,0.93067 l -0.42133,0.94 h -1.34 l 1.50133,-2.62534 -1.448,-2.56266 h 1.34667 l 0.45467,0.94666 c 0.15466,0.316 0.26933,0.56934 0.392,0.86134 h 0.016 c 0.12266,-0.33067 0.22266,-0.56134 0.35466,-0.86134 l 0.43867,-0.94666 h 1.33867 l -1.46267,2.532 1.54,2.656 h -1.35467" /><path
     id="path106"
     style="fill:#2b1414;fill-opacity:1;fill-rule:nonzero;stroke:none;stroke-width:0.133333"
     d="m 205.93466,-9.87866 c 0.1,0.0227 0.216,0.0307 0.392,0.0307 0.624,0 1.008,-0.31466 1.008,-0.83866 0,-0.47734 -0.33066,-0.76134 -0.92266,-0.76134 -0.23067,0 -0.392,0.0147 -0.47734,0.0387 z m -1.16266,-2.35467 c 0.36133,-0.0613 0.86933,-0.108 1.58533,-0.108 0.724,0 1.24,0.13867 1.58533,0.416 0.34,0.26133 0.55467,0.69333 0.55467,1.20133 0,0.50667 -0.16267,0.94667 -0.47733,1.23067 -0.4,0.36933 -0.99334,0.54667 -1.68534,0.54667 -0.15333,0 -0.292,-0.008 -0.4,-0.0307 v 1.86267 H 204.772 v -5.11867" /><path
     id="path108"
     style="fill:#2b1414;fill-opacity:1;fill-rule:nonzero;stroke:none;stroke-width:0.133333"
     d="m 211.96,-12.30266 v 5.188 h -1.17067 v -5.188 H 211.96" /><path
     id="path110"
     style="fill:#2b1414;fill-opacity:1;fill-rule:nonzero;stroke:none;stroke-width:0.133333"
     d="m 218.84666,-7.35466 c -0.36133,0.124 -1.04666,0.29333 -1.732,0.29333 -0.94666,0 -1.632,-0.23867 -2.10933,-0.692 -0.468,-0.45467 -0.73067,-1.132 -0.73067,-1.89333 0.008,-1.724 1.26267,-2.70934 2.964,-2.70934 0.66934,0 1.184,0.13067 1.43867,0.24534 l -0.24667,0.94666 c -0.28533,-0.13066 -0.63066,-0.22266 -1.2,-0.22266 -0.97733,0 -1.724,0.54666 -1.724,1.67733 0,1.07733 0.67734,1.70133 1.63867,1.70133 0.26267,0 0.47733,-0.0307 0.56933,-0.0693 v -1.09333 h -0.8 v -0.91467 h 1.932 v 2.73067" /><path
     id="path112"
     style="fill:#2b1414;fill-opacity:1;fill-rule:nonzero;stroke:none;stroke-width:0.133333"
     d="m 24.02,81.78267 h 0.46134 c 0.58533,0 0.93066,-0.292 0.93066,-0.74667 0,-0.46933 -0.32266,-0.716 -0.86133,-0.716 -0.28533,0 -0.44667,0.016 -0.53067,0.04 z m -1.16266,-2.232 C 23.23467,79.48937 23.788,79.444 24.42,79.444 c 0.76934,0 1.308,0.11467 1.67734,0.408 0.31466,0.24533 0.484,0.616 0.484,1.092 0,0.65333 -0.46934,1.108 -0.91467,1.26933 v 0.024 c 0.36133,0.14534 0.56133,0.484 0.692,0.96134 0.16267,0.59333 0.316,1.27066 0.416,1.47066 h -1.2 c -0.0773,-0.15333 -0.208,-0.57066 -0.35467,-1.208 -0.14666,-0.65466 -0.36933,-0.824 -0.85466,-0.832 H 24.02 v 2.04 h -1.16266 v -5.11866" /><path
     id="path114"
     style="fill:#2b1414;fill-opacity:1;fill-rule:nonzero;stroke:none;stroke-width:0.133333"
     d="M 31.552,82.46133 31.22934,81.36 c -0.0933,-0.308 -0.18534,-0.69333 -0.26267,-1 h -0.0147 c -0.0773,0.30667 -0.15333,0.7 -0.23866,1 l -0.308,1.10133 z m -1.316,0.876 -0.36933,1.332 h -1.208 l 1.57733,-5.188 h 1.53867 l 1.61733,5.188 h -1.27066 l -0.4,-1.332 H 30.236" /><path
     id="path116"
     style="fill:#2b1414;fill-opacity:1;fill-rule:nonzero;stroke:none;stroke-width:0.133333"
     d="m 36.776,83.83733 c 0.116,0.016 0.25467,0.016 0.45467,0.016 0.53066,0 1,-0.208 1,-0.75466 0,-0.51467 -0.46934,-0.724 -1.05467,-0.724 h -0.4 z m 0,-2.30133 h 0.38533 c 0.62267,0 0.94667,-0.25333 0.94667,-0.63733 0,-0.39334 -0.3,-0.6 -0.832,-0.6 -0.26133,0 -0.408,0.0133 -0.5,0.0293 z m -1.16133,-1.98533 c 0.30666,-0.0533 0.92266,-0.10667 1.516,-0.10667 0.716,0 1.15333,0.0693 1.53866,0.292 0.36134,0.192 0.616,0.54667 0.616,1.02267 0,0.45466 -0.26933,0.87866 -0.85466,1.10133 v 0.0147 c 0.592,0.15333 1.032,0.608 1.032,1.26933 0,0.47867 -0.216,0.848 -0.54,1.108 -0.376,0.30133 -1.008,0.47067 -2.03867,0.47067 -0.57733,0 -1.008,-0.0373 -1.26933,-0.0773 v -5.09466" /><path
     id="path118"
     style="fill:#2b1414;fill-opacity:1;fill-rule:nonzero;stroke:none;stroke-width:0.133333"
     d="m 42.96267,83.83733 c 0.11466,0.016 0.25333,0.016 0.45333,0.016 0.532,0 1.00133,-0.208 1.00133,-0.75466 0,-0.51467 -0.46933,-0.724 -1.05466,-0.724 h -0.4 z m 0,-2.30133 H 43.348 c 0.62267,0 0.94667,-0.25333 0.94667,-0.63733 0,-0.39334 -0.30134,-0.6 -0.832,-0.6 -0.26134,0 -0.408,0.0133 -0.5,0.0293 z M 41.8,79.55067 c 0.308,-0.0533 0.924,-0.10667 1.516,-0.10667 0.716,0 1.15467,0.0693 1.54,0.292 0.36133,0.192 0.61467,0.54667 0.61467,1.02267 0,0.45466 -0.268,0.87866 -0.85334,1.10133 v 0.0147 c 0.592,0.15333 1.03067,0.608 1.03067,1.26933 0,0.47867 -0.21467,0.848 -0.53867,1.108 -0.37733,0.30133 -1.008,0.47067 -2.03866,0.47067 -0.57734,0 -1.008,-0.0373 -1.27067,-0.0773 v -5.09466" /><path
     id="path120"
     style="fill:#2b1414;fill-opacity:1;fill-rule:nonzero;stroke:none;stroke-width:0.133333"
     d="m 49.164,79.48133 v 5.188 h -1.17067 v -5.188 H 49.164" /><path
     id="path122"
     style="fill:#2b1414;fill-opacity:1;fill-rule:nonzero;stroke:none;stroke-width:0.133333"
     d="m 52.72667,80.468 h -1.4 V 79.48133 H 55.312 V 80.468 h -1.416 v 4.20133 H 52.72667 V 80.468" /><path
     id="path124"
     style="fill:#2b1414;fill-opacity:1;fill-rule:nonzero;stroke:none;stroke-width:0.133333"
     d="m 111.65467,79.48133 v 1.99334 h 1.932 v -1.99334 h 1.16933 v 5.188 h -1.16933 v -2.17066 h -1.932 v 2.17066 h -1.16934 v -5.188 h 1.16934" /><path
     id="path126"
     style="fill:#2b1414;fill-opacity:1;fill-rule:nonzero;stroke:none;stroke-width:0.133333"
     d="m 118.31867,82.084 c 0,1.02267 0.47733,1.73867 1.26133,1.73867 0.79333,0 1.24667,-0.75467 1.24667,-1.76267 0,-0.93867 -0.43867,-1.74 -1.24667,-1.74 -0.8,0 -1.26133,0.75467 -1.26133,1.764 z m 3.748,-0.0613 c 0,1.708 -1.024,2.73066 -2.548,2.73066 -1.532,0 -2.44,-1.16266 -2.44,-2.648 0,-1.55333 1,-2.716 2.52533,-2.716 1.592,0 2.46267,1.19334 2.46267,2.63334" /><path
     id="path128"
     style="fill:#2b1414;fill-opacity:1;fill-rule:nonzero;stroke:none;stroke-width:0.133333"
     d="m 125.53467,81.78267 h 0.46266 c 0.584,0 0.93067,-0.292 0.93067,-0.74667 0,-0.46933 -0.324,-0.716 -0.86133,-0.716 -0.28534,0 -0.44667,0.016 -0.532,0.04 z m -1.16134,-2.232 c 0.37734,-0.0613 0.93067,-0.10667 1.56267,-0.10667 0.76933,0 1.30667,0.11467 1.67733,0.408 0.316,0.24533 0.48534,0.616 0.48534,1.092 0,0.65333 -0.46934,1.108 -0.916,1.26933 v 0.024 c 0.36133,0.14534 0.56133,0.484 0.692,0.96134 0.16133,0.59333 0.316,1.27066 0.416,1.47066 h -1.20134 c -0.076,-0.15333 -0.208,-0.57066 -0.35333,-1.208 -0.14667,-0.65466 -0.36933,-0.824 -0.85467,-0.832 h -0.34666 v 2.04 h -1.16134 v -5.11866" /><path
     id="path130"
     style="fill:#2b1414;fill-opacity:1;fill-rule:nonzero;stroke:none;stroke-width:0.133333"
     d="m 130.51333,83.46133 c 0.308,0.16134 0.8,0.32267 1.3,0.32267 0.54,0 0.824,-0.224 0.824,-0.56133 0,-0.324 -0.24666,-0.508 -0.86933,-0.724 -0.86133,-0.308 -1.432,-0.78534 -1.432,-1.53867 0,-0.88533 0.74667,-1.55467 1.96267,-1.55467 0.592,0 1.016,0.11467 1.324,0.26134 L 133.36,80.60533 c -0.2,-0.1 -0.576,-0.24533 -1.07733,-0.24533 -0.508,0 -0.75334,0.23733 -0.75334,0.5 0,0.33067 0.284,0.47733 0.96267,0.72933 0.91467,0.34 1.33867,0.81734 1.33867,1.54934 0,0.868 -0.66267,1.608 -2.08667,1.608 -0.592,0 -1.17733,-0.16267 -1.46933,-0.324 l 0.23866,-0.96134" /><path
     id="path132"
     style="fill:#2b1414;fill-opacity:1;fill-rule:nonzero;stroke:none;stroke-width:0.133333"
     d="m 139.25467,82.47467 h -1.908 v 1.232 h 2.13066 v 0.96266 H 136.176 v -5.188 h 3.19467 V 80.444 h -2.024 v 1.07733 h 1.908 v 0.95334" /><path
     id="path134"
     style="fill:#2b1414;fill-opacity:1;fill-rule:nonzero;stroke:none;stroke-width:0.133333"
     d="m 205.16533,81.78267 h 0.46133 c 0.58534,0 0.932,-0.292 0.932,-0.74667 0,-0.46933 -0.324,-0.716 -0.86266,-0.716 -0.28534,0 -0.44667,0.016 -0.53067,0.04 z m -1.16267,-2.232 c 0.37734,-0.0613 0.932,-0.10667 1.56267,-0.10667 0.76933,0 1.308,0.11467 1.67733,0.408 0.316,0.24533 0.48534,0.616 0.48534,1.092 0,0.65333 -0.46934,1.108 -0.916,1.26933 v 0.024 c 0.36133,0.14534 0.56133,0.484 0.69333,0.96134 0.16133,0.59333 0.31467,1.27066 0.41467,1.47066 h -1.2 c -0.0773,-0.15333 -0.208,-0.57066 -0.35467,-1.208 -0.14667,-0.65466 -0.36933,-0.824 -0.85333,-0.832 h -0.34667 v 2.04 h -1.16267 v -5.11866" /><path
     id="path136"
     style="fill:#2b1414;fill-opacity:1;fill-rule:nonzero;stroke:none;stroke-width:0.133333"
     d="M 212.69733,82.46133 212.37466,81.36 c -0.092,-0.308 -0.18533,-0.69333 -0.26133,-1 h -0.016 c -0.076,0.30667 -0.15333,0.7 -0.23867,1 l -0.308,1.10133 z m -1.316,0.876 -0.368,1.332 H 209.804 l 1.57733,-5.188 h 1.54 l 1.616,5.188 H 213.268 l -0.40134,-1.332 h -1.48533" /><path
     id="path138"
     style="fill:#2b1414;fill-opacity:1;fill-rule:nonzero;stroke:none;stroke-width:0.133333"
     d="m 217.13066,80.468 h -1.40133 v -0.98667 h 3.98533 V 80.468 h -1.416 v 4.20133 h -1.168 V 80.468" /><path
     id="path140"
     style="fill:#2b1414;fill-opacity:1;fill-rule:nonzero;stroke:none;stroke-width:0.133333"
     d="m 22.12667,174.024 c 0.308,0.16146 0.8,0.32293 1.3,0.32293 0.53867,0 0.824,-0.22293 0.824,-0.56147 0,-0.32293 -0.24667,-0.5084 -0.86933,-0.724 -0.86267,-0.3084 -1.432,-0.78546 -1.432,-1.53906 0,-0.88494 0.74666,-1.55414 1.96266,-1.55414 0.592,0 1.016,0.1156 1.324,0.26094 l -0.26266,0.93906 c -0.2,-0.0989 -0.576,-0.24693 -1.07734,-0.24693 -0.508,0 -0.75333,0.24013 -0.75333,0.5 0,0.3308 0.284,0.47867 0.96133,0.73173 0.916,0.33907 1.33867,0.81627 1.33867,1.54694 0,0.8708 -0.66133,1.60786 -2.08533,1.60786 -0.592,0 -1.17734,-0.16093 -1.46934,-0.3224 l 0.23867,-0.96146" /><path
     id="path142"
     style="fill:#2b1414;fill-opacity:1;fill-rule:nonzero;stroke:none;stroke-width:0.133333"
     d="m 28.95867,170.04373 v 1.99373 h 1.932 v -1.99373 H 32.06 v 5.188 h -1.16933 v -2.17027 h -1.932 v 2.17027 h -1.16933 v -5.188 h 1.16933" /><path
     id="path144"
     style="fill:#2b1414;fill-opacity:1;fill-rule:nonzero;stroke:none;stroke-width:0.133333"
     d="m 37.708,173.03853 h -1.90933 v 1.2308 h 2.132 v 0.9624 h -3.30133 v -5.188 H 37.824 v 0.96307 h -2.02533 v 1.07706 H 37.708 v 0.95467" /><path
     id="path146"
     style="fill:#2b1414;fill-opacity:1;fill-rule:nonzero;stroke:none;stroke-width:0.133333"
     d="m 43.35467,173.03853 h -1.908 v 1.2308 h 2.132 v 0.9624 h -3.30134 v -5.188 h 3.19334 v 0.96307 h -2.024 v 1.07706 h 1.908 v 0.95467" /><path
     id="path148"
     style="fill:#2b1414;fill-opacity:1;fill-rule:nonzero;stroke:none;stroke-width:0.133333"
     d="m 47.07867,172.46933 c 0.1,0.0228 0.216,0.0307 0.39333,0.0307 0.62267,0 1.008,-0.31454 1.008,-0.84014 0,-0.476 -0.33067,-0.76146 -0.924,-0.76146 -0.23067,0 -0.392,0.0161 -0.47733,0.0391 z m -1.16134,-2.3548 c 0.36134,-0.0624 0.86934,-0.10773 1.58534,-0.10773 0.72266,0 1.23866,0.13693 1.58533,0.41453 0.33867,0.26253 0.55333,0.6932 0.55333,1.2016 0,0.50773 -0.16133,0.9464 -0.47733,1.23173 -0.4,0.36774 -0.992,0.54534 -1.68533,0.54534 -0.15334,0 -0.292,-0.008 -0.4,-0.0307 v 1.8624 h -1.16134 v -5.1172" /><path
     id="path150"
     style="fill:#2b1414;fill-opacity:1;fill-rule:nonzero;stroke:none;stroke-width:0.133333"
     d="m 106.25333,172.34693 h 0.46134 c 0.58533,0 0.932,-0.29387 0.932,-0.74853 0,-0.46774 -0.32267,-0.71454 -0.86267,-0.71454 -0.284,0 -0.44533,0.0145 -0.53067,0.0375 z m -1.16133,-2.2324 c 0.376,-0.0624 0.93067,-0.10773 1.56133,-0.10773 0.76934,0 1.30934,0.11453 1.67734,0.40773 0.316,0.24533 0.48533,0.61467 0.48533,1.09227 0,0.65466 -0.46933,1.10773 -0.916,1.27026 v 0.0229 c 0.36267,0.14693 0.56267,0.48546 0.69333,0.96146 0.16134,0.5932 0.316,1.2692 0.416,1.47027 H 107.808 c -0.0773,-0.15307 -0.208,-0.5692 -0.35333,-1.20773 -0.14667,-0.65467 -0.37067,-0.824 -0.85467,-0.8308 h -0.34667 v 2.03853 H 105.092 v -5.1172" /><path
     id="path152"
     style="fill:#2b1414;fill-opacity:1;fill-rule:nonzero;stroke:none;stroke-width:0.133333"
     d="m 112.16267,172.64533 c 0,1.024 0.47733,1.74013 1.26266,1.74013 0.792,0 1.24667,-0.7548 1.24667,-1.76146 0,-0.94014 -0.43867,-1.74014 -1.24667,-1.74014 -0.80133,0 -1.26266,0.75467 -1.26266,1.76147 z m 3.748,-0.0615 c 0,1.70934 -1.024,2.73227 -2.548,2.73227 -1.53067,0 -2.43867,-1.16147 -2.43867,-2.6468 0,-1.5548 1,-2.7172 2.524,-2.7172 1.59333,0 2.46267,1.1916 2.46267,2.63173" /><path
     id="path154"
     style="fill:#2b1414;fill-opacity:1;fill-rule:nonzero;stroke:none;stroke-width:0.133333"
     d="m 119.21867,172.64533 c 0,1.024 0.476,1.74013 1.26133,1.74013 0.79333,0 1.24667,-0.7548 1.24667,-1.76146 0,-0.94014 -0.43867,-1.74014 -1.24667,-1.74014 -0.8,0 -1.26133,0.75467 -1.26133,1.76147 z m 3.74666,-0.0615 c 0,1.70934 -1.02266,2.73227 -2.54666,2.73227 -1.532,0 -2.44,-1.16147 -2.44,-2.6468 0,-1.5548 1.00133,-2.7172 2.52533,-2.7172 1.59333,0 2.46133,1.1916 2.46133,2.63173" /><path
     id="path156"
     style="fill:#2b1414;fill-opacity:1;fill-rule:nonzero;stroke:none;stroke-width:0.133333"
     d="m 125.312,174.024 c 0.308,0.16146 0.8,0.32293 1.3,0.32293 0.53867,0 0.824,-0.22293 0.824,-0.56147 0,-0.32293 -0.24667,-0.5084 -0.86933,-0.724 -0.86267,-0.3084 -1.432,-0.78546 -1.432,-1.53906 0,-0.88494 0.74666,-1.55414 1.96266,-1.55414 0.592,0 1.016,0.1156 1.324,0.26094 l -0.26133,0.93906 c -0.2,-0.0989 -0.57733,-0.24693 -1.07867,-0.24693 -0.50666,0 -0.75333,0.24013 -0.75333,0.5 0,0.3308 0.284,0.47867 0.96133,0.73173 0.916,0.33907 1.34,0.81627 1.34,1.54694 0,0.8708 -0.66266,1.60786 -2.08533,1.60786 -0.59333,0 -1.17867,-0.16093 -1.47067,-0.3224 L 125.312,174.024" /><path
     id="path158"
     style="fill:#2b1414;fill-opacity:1;fill-rule:nonzero;stroke:none;stroke-width:0.133333"
     d="m 131.97467,171.0292 h -1.4 v -0.98547 h 3.98666 v 0.98547 h -1.416 v 4.20253 h -1.17066 v -4.20253" /><path
     id="path160"
     style="fill:#2b1414;fill-opacity:1;fill-rule:nonzero;stroke:none;stroke-width:0.133333"
     d="M 139.808,173.03853 H 137.9 v 1.2308 h 2.132 v 0.9624 h -3.30133 v -5.188 h 3.19333 v 0.96307 H 137.9 v 1.07706 h 1.908 v 0.95467" /><path
     id="path162"
     style="fill:#2b1414;fill-opacity:1;fill-rule:nonzero;stroke:none;stroke-width:0.133333"
     d="m 143.532,172.34693 h 0.46133 c 0.58534,0 0.932,-0.29387 0.932,-0.74853 0,-0.46774 -0.32266,-0.71454 -0.86133,-0.71454 -0.28533,0 -0.44667,0.0145 -0.532,0.0375 z m -1.16133,-2.2324 c 0.376,-0.0624 0.93066,-0.10773 1.56266,-0.10773 0.76934,0 1.308,0.11453 1.676,0.40773 0.316,0.24533 0.48534,0.61467 0.48534,1.09227 0,0.65466 -0.468,1.10773 -0.91467,1.27026 v 0.0229 c 0.36133,0.14693 0.56133,0.48546 0.692,0.96146 0.16133,0.5932 0.316,1.2692 0.416,1.47027 h -1.20133 c -0.0773,-0.15307 -0.208,-0.5692 -0.35334,-1.20773 -0.14666,-0.65467 -0.36933,-0.824 -0.85466,-0.8308 H 143.532 v 2.03853 h -1.16133 v -5.1172" /><path
     id="path164"
     style="fill:#2b1414;fill-opacity:1;fill-rule:nonzero;stroke:none;stroke-width:0.133333"
     d="m 197.50133,174.024 c 0.308,0.16146 0.8,0.32293 1.3,0.32293 0.53867,0 0.824,-0.22293 0.824,-0.56147 0,-0.32293 -0.24533,-0.5084 -0.86933,-0.724 -0.86267,-0.3084 -1.43067,-0.78546 -1.43067,-1.53906 0,-0.88494 0.74533,-1.55414 1.96133,-1.55414 0.59334,0 1.016,0.1156 1.324,0.26094 l -0.26133,0.93906 c -0.2,-0.0989 -0.57733,-0.24693 -1.07867,-0.24693 -0.50666,0 -0.75333,0.24013 -0.75333,0.5 0,0.3308 0.284,0.47867 0.96267,0.73173 0.91466,0.33907 1.33866,0.81627 1.33866,1.54694 0,0.8708 -0.66133,1.60786 -2.08666,1.60786 -0.592,0 -1.17734,-0.16093 -1.46934,-0.3224 l 0.23867,-0.96146" /><path
     id="path166"
     style="fill:#2b1414;fill-opacity:1;fill-rule:nonzero;stroke:none;stroke-width:0.133333"
     d="m 203.15733,175.23173 v -5.188 h 1.36933 l 1.07734,1.9016 c 0.308,0.5468 0.608,1.1932 0.84666,1.77707 h 0.0147 c -0.068,-0.68387 -0.092,-1.38387 -0.092,-2.16934 v -1.50933 h 1.07733 v 5.188 h -1.232 l -1.108,-2.00107 c -0.308,-0.5536 -0.65333,-1.22386 -0.9,-1.83226 h -0.0307 c 0.0387,0.69373 0.0547,1.424 0.0547,2.27093 v 1.5624 h -1.07733" /><path
     id="path168"
     style="fill:#2b1414;fill-opacity:1;fill-rule:nonzero;stroke:none;stroke-width:0.133333"
     d="m 212.52933,173.024 -0.324,-1.10267 c -0.092,-0.3068 -0.184,-0.69067 -0.26133,-1 h -0.0147 c -0.0773,0.30933 -0.15467,0.7016 -0.24,1 l -0.308,1.10267 z m -1.316,0.8776 -0.36933,1.33013 h -1.20934 l 1.57867,-5.188 h 1.53867 l 1.616,5.188 h -1.26934 l -0.40133,-1.33013 h -1.484" /><path
     id="path170"
     style="fill:#2b1414;fill-opacity:1;fill-rule:nonzero;stroke:none;stroke-width:0.133333"
     d="m 216.59066,170.04373 h 1.16134 v 2.2948 h 0.016 c 0.11466,-0.2 0.23866,-0.38547 0.36266,-0.5708 l 1.16934,-1.724 h 1.44666 l -1.716,2.20933 1.8,2.97867 h -1.36133 l -1.27867,-2.2396 -0.43866,0.5464 v 1.6932 h -1.16134 v -5.188" /><path
     id="path172"
     style="fill:#2b1414;fill-opacity:1;fill-rule:nonzero;stroke:none;stroke-width:0.133333"
     d="m 225.94,173.03853 h -1.908 v 1.2308 h 2.13066 v 0.9624 h -3.30133 v -5.188 h 3.19467 v 0.96307 h -2.024 v 1.07706 h 1.908 v 0.95467" /><path
     id="path174"
     style="fill:#b61d23;fill-opacity:1;fill-rule:nonzero;stroke:none;stroke-width:0.133333"
     d="m 154.49867,-131.50266 c 0.20533,-0.45733 0.40266,-0.92 0.588,-1.38933 -0.184,0.46933 -0.38267,0.932 -0.588,1.38933 z m -1.56,3.05733 c -0.26,0.44934 -0.532,0.89067 -0.812,1.32667 0.28,-0.436 0.552,-0.87733 0.812,-1.32667 z m 0.71333,-1.30666 c -0.21867,0.42133 -0.44533,0.83866 -0.68267,1.24933 0.23734,-0.41067 0.464,-0.828 0.68267,-1.24933 z m 0.68133,-1.39334 c -0.16133,0.352 -0.32933,0.7 -0.504,1.04534 0.17467,-0.34534 0.34267,-0.69334 0.504,-1.04534 z m -4.268,6.88667 c -3.872,0.056 -8.004,0.93867 -9.06,4.23867 0,0 -0.22533,1.51466 0.29334,3.38 -3.07467,1.84266 -6.47067,3.196 -10.08667,3.96 3.82133,-3.292 8.18133,-8.60134 9.26533,-16.236 0,0 3.34667,1.67333 4.14,2.81866 0,0 3.064,-2.36266 7.472,-0.96533 -0.628,0.97067 -1.30133,1.908 -2.024,2.804 z M 110.424,-146.71199 c 0,0 -1.736,2.00933 -3.41867,2.44266 0,0 -1.03333,-0.65066 -0.164,-1.03066 0,0 1.62934,-0.92267 2.11734,-1.52 z m 2.60533,-4.45067 c 0,0.56933 -0.46133,1.032 -1.03066,1.032 -0.56934,0 -1.032,-0.46267 -1.032,-1.032 0,-0.56933 0.46266,-1.03067 1.032,-1.03067 0.56933,0 1.03066,0.46134 1.03066,1.03067 z m 11.18267,-1.68267 c -3.636,-3.04 -5.048,1.412 -5.048,1.412 -0.38533,-3.352 0.136,-4.888 1.14,-5.37466 5.3,-2.56934 5.97067,3.25733 5.97067,3.25733 1.08533,5.428 -4.12534,6.07867 -4.12534,6.07867 3.256,-2.496 2.06267,-5.37334 2.06267,-5.37334 z m -2.968,40.744 c -4.752,-0.444 -9.20933,-1.89866 -13.16133,-4.14133 0.424,-0.65733 0.79733,-1.03333 0.79733,-1.03333 0.988,-0.18 0.76267,-0.988 0.76267,-0.988 l -0.17867,-2.696 c -0.36,-1.572 -2.336,-1.52667 -2.336,-1.52667 l -5.34533,1.25733 c -0.108,0.0147 -0.20667,0.032 -0.30934,0.0493 -6.24666,-6.00534 -10.13733,-14.44134 -10.13733,-23.79067 0,-18.236 14.78267,-33.02 33.02,-33.02 12.51067,0 23.388,6.96267 28.99067,17.22 -1.85867,3.564 -3.11734,9.044 0.34133,15.91333 0,0 1.404,2.80667 3.23467,5.296 -0.14534,0.87867 -0.32267,1.744 -0.536,2.59734 -4.80134,-5.448 -12.04,-10.668 -22.86667,-13.08934 l -2.90667,-2.73066 c 0,0 -1.49733,-18.05467 -17.968,-10.04 0,0 -6.95733,4.58 -5.196,13.564 0,0 -3.7,0.79066 -1.93733,5.284 0,0 -4.668,7.04533 2.46667,8.54266 l 7.74933,-5.988 -5.988,7.39734 c 0,0 10.216,3.34666 11.53733,-5.63734 0,0 4.40267,0.96934 7.30934,-4.22666 0,0 3.35866,1.21333 5.10933,5.02 2.484,5.40133 2.11067,15.14933 -12.452,26.76666 z m -14.39467,-4.88266 c 0.10667,0.0667 0.21334,0.13733 0.32134,0.20266 -0.108,-0.0653 -0.21467,-0.136 -0.32134,-0.20266 z m -0.96,-0.62534 c 0.13067,0.088 0.26,0.17867 0.39067,0.26534 -0.13067,-0.0867 -0.26,-0.17734 -0.39067,-0.26534 z m -0.90533,-0.63466 c 0.14267,0.104 0.284,0.208 0.42667,0.30933 -0.14267,-0.10133 -0.284,-0.20533 -0.42667,-0.30933 z m -0.87467,-0.656 c 0.152,0.11733 0.30134,0.236 0.45467,0.35066 -0.15333,-0.11466 -0.30267,-0.23333 -0.45467,-0.35066 z m -0.84266,-0.67867 c 0.156,0.13067 0.31333,0.26133 0.472,0.38933 -0.16,-0.128 -0.316,-0.25866 -0.472,-0.38933 z m -0.82134,-0.70533 c 0.16267,0.14533 0.32534,0.28933 0.492,0.432 -0.16666,-0.14267 -0.32933,-0.28667 -0.492,-0.432 z m -0.792,-0.72534 c 0.168,0.15867 0.336,0.316 0.50667,0.472 -0.17067,-0.156 -0.33867,-0.31333 -0.50667,-0.472 z m 55.17867,-29.88666 c -0.17867,-0.61334 -0.316,-1.24934 -0.39733,-1.892 0.152,0.624 0.28133,1.25466 0.39733,1.892 z m 0.23467,1.452 c -0.0613,-0.444 -0.132,-0.884 -0.20934,-1.32134 0.0773,0.43734 0.14934,0.87734 0.20934,1.32134 z M 124.356,-181.60266 c -20.232,0 -36.632,16.4 -36.632,36.632 0,20.23067 16.4,36.632 36.632,36.632 20.232,0 36.632,-16.40133 36.632,-36.632 0,-20.232 -16.4,-36.632 -36.632,-36.632 z m 6.96133,44.232 c -9.512,16.46933 -20.69733,14.61867 -20.69733,14.61867 l 0.352,4.40533 c 1.40933,1.67333 4.14,1.58533 4.14,1.58533 19.37733,-4.932 16.20533,-20.60933 16.20533,-20.60933" /><path
     id="path176"
     style="fill:#b61d23;fill-opacity:1;fill-rule:nonzero;stroke:none;stroke-width:0.133333"
     d="m 50.46533,-160.21733 c 0,0 4.46934,-4.01466 6.02,-1.91733 0,0 1.40267,1.964 -3.80533,5.92133 z m -3.96666,6.276 c 1.52933,10.528 -8.76267,7.46934 -8.76267,7.46934 7.88,-1.176 8.76267,-7.46934 8.76267,-7.46934 z m -9.46934,3.352 c 0,0 4.70534,0.52934 6.41067,-3.46933 0,0 0.824,3.29333 -4.29333,4.99867 0,0 -2.29334,-0.412 -2.11734,-1.52934 z m 4.82267,-4.76266 c 0,0.844 -0.868,1.52933 -1.94133,1.52933 -1.072,0 -1.94,-0.68533 -1.94,-1.52933 0,-0.84534 0.868,-1.53067 1.94,-1.53067 1.07333,0 1.94133,0.68533 1.94133,1.53067 z m -7.35466,-8.99334 c 2.17199,-2.98533 7.41999,-1.80933 7.41999,-1.80933 1.92667,0.24533 0.63334,0.452 0.63334,0.452 -2.53334,0.18133 -4.524,2.08133 -4.524,2.08133 -3.168,0.904 -3.52933,-0.724 -3.52933,-0.724 z m -3.81734,9.972 0.76,-2.60666 0.56534,-5.432 1.86933,2.25466 c 0,0 0.71867,0.71734 1.39066,0.28667 0,0 7.04534,-3.356 8.77067,-1.29467 l -8.916,4.41067 -1.94266,0.644 z m -3.584,-1.66666 c 0.27867,-0.448 0.84267,-1.444 1.028,-1.488 0.112,-0.0267 0.308,-0.068 0.41334,-0.04 0.56133,0.15866 0.80666,0.91333 0.78,1.45733 -0.032,0.64667 -0.648,1.14 -1.37734,1.104 -0.39866,-0.02 -0.74933,-0.196 -0.97866,-0.45467 -0.188,-0.21466 -0.0147,-0.33866 0.13466,-0.57866 z m 4.75867,7.44933 c 0,0 -1.11733,3.29467 -4.70533,1.41333 0,0 -3.11867,-1.11866 -2.412,-3.52933 0,0 5.82266,-0.11733 7.11733,2.116 z m 13.57466,35.44133 c -0.304,-3.17333 -0.41733,-5.50266 -0.41733,-5.50266 -0.40667,1.084 -3.64533,4.324 -6.024,6.608 -0.6,0.0427 -1.204,0.0693 -1.81333,0.08 3.88133,-2.91067 8.36933,-8.34534 10.90933,-18.46 0.236,-0.936 -5.408,5.57866 -11.72133,5.85333 -0.90267,0.04 12.708,-10.58667 12.852,-11.53867 0.38,-2.5 0.652,-5.22666 0.792,-8.20266 0,0 -0.14534,-1.15734 1.30266,-2.75067 0,0 3.184,-2.316 2.31734,-7.23867 l 0.26,-0.61733 c 5.564,-5.05333 4.03333,-8.37067 4.03333,-8.37067 -2.09333,-6.02266 -7.248,-2.24666 -7.248,-2.24666 -1.42933,1.27733 -2.49733,0.58533 -2.49733,0.58533 0,0 -9.24134,-5.292 -16.93067,0.98667 0,0 -2.468,2.60933 -3.17333,4.51466 0,0 -3.528,5.64267 -4.444,6.34934 l -1.552,1.904 c 0,0 -1.12933,4.16266 1.34,6.42 0,0 6.63067,8.81733 21.868,1.692 l 0.91733,0.56533 c 0,0 -6.164,6.57733 -21.552,4.15733 -0.57733,-0.0893 0.18667,10.22134 8.32134,14.39334 0.744,0.38133 0.58933,1.16266 0.46533,1.136 -14.82133,-3.38534 -12.37467,-16.22 -13.12667,-16.404 -0.96666,-0.23467 -1.924,-0.85867 -2.99733,-0.80934 -3.468,0.156 -5.03333,9.212 -5.816,16.47467 -1.09733,-1.288 -2.10133,-2.65867 -2.99333,-4.10667 0.57066,-3.872 2.216,-8.39333 5.85466,-13.27066 0.20667,-0.27867 -0.69733,-0.22667 -1.10133,-0.36 -0.944,-0.31467 -2.11067,-0.62267 -3.46667,-0.87334 -0.35733,-0.0667 -2.944,2.964 -5.14,5.452 -0.25866,-1.00666 -0.46266,-2.03333 -0.624,-3.07466 0.0467,0.30133 0.0973,0.60133 0.15334,0.90133 1.268,-1.98 2.45733,-3.716 2.228,-3.736 -0.848,-0.0747 -1.78,-0.29067 -2.73334,-0.404 -0.0373,-0.63867 -0.0613,-1.28 -0.0613,-1.928 0,-18.236 14.784,-33.02 33.02133,-33.02 18.236,0 33.02,14.784 33.02,33.02 0,15.188 -10.25867,27.96933 -24.22267,31.82133 z m -1.56533,0.39467 c 0.49467,-0.11067 0.984,-0.23467 1.46933,-0.36667 -0.48533,0.132 -0.97466,0.256 -1.46933,0.36667 z m -2.404,0.444 c 0.36,-0.0533 0.71733,-0.11333 1.07333,-0.17733 -0.356,0.064 -0.71333,0.124 -1.07333,0.17733 z m -1.14667,0.14533 c 0.38,-0.0427 0.76,-0.0893 1.136,-0.144 -0.376,0.0547 -0.756,0.10134 -1.136,0.144 z m -1.288,0.11867 c 0.36534,-0.0267 0.728,-0.06 1.09067,-0.0973 -0.36267,0.0373 -0.72533,0.0707 -1.09067,0.0973 z m 3.75734,-0.488 c 0.36,-0.068 0.71866,-0.13867 1.07466,-0.21867 -0.356,0.08 -0.71466,0.15067 -1.07466,0.21867 z M 16.04,-119.16933 c 0.18667,-3.32266 0.724,-6.496 2.052,-7.84533 0.204,-0.20667 0.0133,4.58933 -0.056,9.32933 -0.68666,-0.468 -1.34933,-0.96666 -1.996,-1.484 z m -1.02266,-0.856 c 0.31466,0.27334 0.63466,0.544 0.96133,0.80667 -0.32667,-0.26267 -0.64667,-0.532 -0.96133,-0.80667 z m -1.35467,-1.23466 c 0.36533,0.35466 0.74,0.7 1.12133,1.036 -0.38133,-0.33734 -0.756,-0.68134 -1.12133,-1.036 z M 36.632,-181.60266 c -20.232,0 -36.632,16.4 -36.632,36.632 0,20.23067 16.4,36.632 36.632,36.632 20.23067,0 36.632,-16.40133 36.632,-36.632 0,-20.232 -16.40133,-36.632 -36.632,-36.632 z m -9.19733,12.348 c 0,0 -2.54133,3.32 1.05733,7.12933 l 1.252,-2.004 4.928,-3.25733 c 0,0 -3.70933,-4.972 -7.23733,-1.868" /><path
     id="path178"
     style="fill:#b61d23;fill-opacity:1;fill-rule:nonzero;stroke:none;stroke-width:0.133333"
     d="m 190.38933,-146.41866 c -0.0213,0.312 -0.29467,0.54667 -0.60533,0.524 -0.31334,-0.024 -0.548,-0.296 -0.524,-0.608 0.0227,-0.312 0.29466,-0.54667 0.60533,-0.524 0.312,0.024 0.548,0.296 0.524,0.608 z m 2.196,0.22133 c -0.0307,0.43067 -0.40533,0.756 -0.83867,0.724 -0.43066,-0.032 -0.756,-0.40666 -0.724,-0.83866 0.0307,-0.432 0.408,-0.756 0.83867,-0.72534 0.432,0.032 0.756,0.408 0.724,0.84 z m 17.96667,-3.07066 c 0,0 -1.41467,1.84133 -3.46134,2.47066 0,0 -1.48933,0.612 -2.51866,-0.52 0,0 1.45733,-2.44933 5.98,-1.95066 z m 31.42533,15.53066 c -1.444,-1.632 -2.652,-3.38533 -3.16533,-5.08 0,0 0.54666,3.79334 2.09066,7.68267 -3.596,7.776 -10.12,13.916 -18.164,16.99867 -1.78533,-0.33867 -3.67466,-0.72667 -5.68933,-1.17334 0,0 -10.38,-3.88533 -4.26267,-16.796 0,0 6.92134,-9.18933 5.676,-14.236 0,0 3.19334,3.46534 -4.43066,14.86667 0,0 -3.07067,5.16133 -0.0267,10.66267 0,0 3.61467,8.02266 11.86533,4.20933 l -6.44133,-1.764 c 0,0 4.708,-1.05467 4.57333,-6.56 0,0 -5.84933,4.84933 -8.44666,-2.34267 0,0 -0.74134,-4.58 3.19466,-5.36933 0,0 2.41734,0.824 2.26,2.96667 l 0.48934,0.68266 c 0,0 1.428,-6.252 -0.70667,-10.932 0,0 3.29467,2.072 3.376,3.90934 0,0 0.46533,-7.83067 -3.49867,-12.53867 0,0 3.77734,-1.55333 5.21467,-0.58667 0,0 -2.02267,-3.27333 -5.444,-3.63066 0,0 12.50933,-8.99467 10.71067,-12.35867 0,0 -5.57867,7.024 -14.09067,9.956 0,0 0.52933,-4.26933 -1.77067,-6.70133 0,0 0.964,4.488 -2.824,7.65733 0,0 -0.55066,-4.24267 -3.51733,-6.39867 0,0 1.04533,6.32534 -0.228,7.52534 l 1.156,0.408 -0.88933,0.36533 c 0,0 -7.33067,-1.39867 -6.93734,4.98667 0,0 1.84267,1.32 0.84667,1.67733 0,0 -6.18,0.51733 -7.99733,-1.124 0,0 -0.504,-4.88533 -5.692,-1.71067 0,0 -2.51867,3.47867 0.11466,4.31867 0,0 -2.42666,3.7 1.04667,4.81733 0,0 -1.15067,5.40934 3.244,8.64134 l 0.268,-3.644 c 0,0 1.16667,3.20933 3.04667,3.99333 0,0 -0.108,-2.916 0.544,-4.484 0,0 1.42,2.68933 2.16133,2.85067 0,0 0.45067,-3.19867 1.94667,-4.48934 l 1.60933,3.02667 1.952,-4.59733 1.456,3.66133 c 0,0 1.58933,-2.57733 1.46133,-3.77067 0,0 6.86934,-1.11333 7.168,-5.18533 0,0 0.428,4.448 -5.24533,8.34133 0,0 -5.48533,3.50934 -7.444,11.36134 l -2.01733,-0.284 c 0.52666,-3.13467 1.31466,-5.304 1.31466,-5.304 l -1.27066,1.048 c -1.89734,5.76133 -2.31334,10.30933 -1.82134,13.90266 -12.20533,-4.84933 -20.83733,-16.75733 -20.83733,-30.68933 0,-18.236 14.784,-33.02 33.02,-33.02 18.10133,0 32.79467,14.56667 33.01067,32.61867 -0.844,0.912 -2.57334,2.984 -2.61734,4.69066 0,0 -1.244,-6.55466 0.32267,-8.81066 0,0 -2.99867,2.68933 -2.73467,4.97066 0,0 -2.93733,-5.49333 -1.78933,-9.396 0,0 -2.588,4.444 -2.06933,9.11467 0,0 -2.01734,-1.872 -2.02267,-3.27333 0,0 -0.64267,4.37066 1.10533,6.976 0,0 -0.58266,0.604 -1.94266,-1.43467 0,0 -0.74667,7.27067 7.07733,10.75333 0,0 -2.67467,-5.948 -0.792,-9.58 0,0 1.868,5.044 4.012,6.124 -0.156,0.50667 -0.32667,1.00534 -0.508,1.5 z m -41.516,19.56134 1.62667,0.13066 c 0.044,0.29867 0.096,0.60934 0.156,0.92667 -0.55867,-0.15333 -1.11467,-0.31333 -1.66267,-0.49333 -0.0413,-0.18934 -0.084,-0.376 -0.12,-0.564 z m 1.74,-7.876 c -0.20933,1.21066 -0.33733,2.50933 -0.34933,3.904 0,0 -0.0973,1.47866 0.16533,3.58533 l -1.66667,-0.23467 c -0.41466,-2.56666 -0.344,-5.14533 -0.08,-7.39866 z m 0.0907,-0.48534 -1.94134,-0.27466 c 0.0227,-0.16934 0.0467,-0.33734 0.072,-0.50267 l 1.99734,0.14933 c -0.0467,0.20534 -0.0867,0.41734 -0.128,0.628 z m 41.65466,-22.43333 c 0,2.87467 -0.37333,5.66133 -1.06533,8.32 -0.0373,-1.972 0.0693,-5.40933 1.06,-8.13467 0,-0.0627 0.005,-0.124 0.005,-0.18533 z m -33.02133,-36.632 c -20.23067,0 -36.63067,16.4 -36.63067,36.632 0,20.23067 16.4,36.632 36.63067,36.632 20.232,0 36.632,-16.40133 36.632,-36.632 0,-20.232 -16.4,-36.632 -36.632,-36.632 z m 6.856,22.49867 c -0.66933,1.78266 1.02133,2.22933 1.02133,2.22933 9.272,-8.90933 6.30134,-12.46667 6.30134,-12.46667 -0.73467,4.148 -7.32267,10.23734 -7.32267,10.23734" /><path
     id="path180"
     style="fill:#b61d23;fill-opacity:1;fill-rule:nonzero;stroke:none;stroke-width:0.133333"
     d="m -200.14933,149.71973 c -0.752,-0.0249 -1.50266,-0.0583 -2.252,-0.0943 0.74934,0.0371 1.5,0.0693 2.252,0.0943 z m -44.07199,-50.68506 c 0.108,-0.796 0.22,-1.58 0.33866,-2.35334 l 9.34267,0.696 c -0.21867,0.95867 -0.408,1.94934 -0.6,2.93467 z m 7.79866,38.568 -7.796,-1.09747 c -1.936,-11.99733 -1.60533,-24.05733 -0.36933,-34.59587 l 9.02533,0.67467 c -0.98133,5.66293 -1.57733,11.73213 -1.63733,18.2572 0,0 -0.45067,6.91187 0.77733,16.76147 z m -54.368,-148.95333 c -0.10533,1.45866 -1.37866,2.55333 -2.83733,2.448 -1.46133,-0.10667 -2.55733,-1.37734 -2.44933,-2.836 0.10533,-1.46 1.37733,-2.55734 2.836,-2.45067 1.45733,0.10667 2.55733,1.37867 2.45066,2.83867 z m 10.268,1.03333 c -0.148,2.01867 -1.90133,3.53733 -3.92133,3.38933 -2.02,-0.14933 -3.53733,-1.90533 -3.39067,-3.924 0.148,-2.01733 1.90667,-3.53466 3.92534,-3.388 2.01733,0.14934 3.53466,1.90667 3.38666,3.92267 z m 84.00267,-14.35467 c 0,0 -6.61067,8.61067 -16.18134,11.54667 0,0 -6.968,2.868 -11.77733,-2.42 0,0 6.816,-11.456 27.95867,-9.12667 z m 9.104,174.31213 c 1,-0.048 1.99733,-0.1068 2.99333,-0.17186 -0.996,0.0651 -1.99333,0.12386 -2.99333,0.17186 z m 3.236,-0.188 c 15.63733,-1.06826 30.62666,-4.47866 44.644,-9.85106 -8.348,-1.59174 -17.18267,-3.4052 -26.60134,-5.49174 0,0 -48.53733,-18.164 -19.93466,-78.53333 0,0 32.36666,-42.96666 26.53866,-66.56533 0,0 14.93334,16.20667 -20.71066,69.512 0,0 -14.36267,24.13733 -0.124,49.8628 0,0 16.89466,37.50773 55.47866,19.6796 l -30.12133,-8.25147 c 0,0 22.01867,-4.93333 21.388,-30.67227 0,0 -27.35467,22.6784 -39.496,-10.95333 0,0 -3.46933,-21.41333 14.93733,-25.10267 0,0 11.30134,3.84934 10.56534,13.87334 l 2.28666,3.18933 c 0,0 6.676,-29.232 -3.304,-51.12133 0,0 15.40934,9.692 15.78667,18.28533 0,0 2.18,-36.616 -16.35733,-58.62666 0,0 17.66,-7.268 24.38266,-2.748 0,0 -9.46133,-15.3 -25.45733,-16.976 0,0 58.492,-42.05867 50.07867,-57.788 0,0 -26.08534,32.84666 -65.88134,46.556 0,0 2.47467,-19.96934 -8.28133,-31.336 0,0 4.512,20.984 -13.20133,35.80533 0,0 -2.576,-19.836 -16.448,-29.91867 0,0 4.88933,29.57734 -1.064,35.18534 l 5.4,1.908 -4.15734,1.708 c 0,0 -34.27599,-6.54134 -32.43733,23.316 0,0 8.61733,6.17066 3.964,7.84533 0,0 -28.896,2.41733 -37.39866,-5.25867 0,0 -2.35734,-22.84133 -26.616,-7.99466 0,0 -11.76947,16.264 0.536,20.18933 0,0 -11.34454,17.30267 4.89733,22.524 0,0 -5.37867,25.296 15.172,40.404 l 1.25067,-17.036 c 0,0 5.45066,15.00933 14.24666,18.67733 0,0 -0.51066,-13.64 2.544,-20.972 0,0 6.636,12.57467 10.108,13.33333 0,0 2.104,-14.95866 9.09467,-20.99599 l 7.52666,14.15199 9.12934,-21.49599 6.808,17.12533 c 0,0 7.43066,-12.05067 6.83333,-17.63867 0,0 32.11867,-5.2 33.51333,-24.24133 0,0 1.99867,20.79733 -24.52266,39.00666 0,0 -25.652,16.40534 -34.808,53.12134 l -9.43467,-1.328 c 2.464,-14.65867 6.14667,-24.80134 6.14667,-24.80134 l -5.93733,4.9 c -8.872,26.93867 -10.81734,48.20387 -8.52134,65.0028 2.82934,1.124 5.696,2.16934 8.60267,3.1276 -0.19467,-0.87973 -0.396,-1.75573 -0.56667,-2.63586 l 7.61067,0.6176 c 0.20533,1.40626 0.44933,2.8636 0.732,4.36 10.55733,2.87026 21.556,4.67026 32.88133,5.23586 -81.69066,-4.0172 -146.68666,-71.516 -146.68666,-154.20133 0,-85.26933 69.124,-154.39466 154.39599,-154.39466 85.26934,0 154.396,69.12533 154.396,154.39466 0,81.71067 -63.476,148.5904 -143.80666,154.03213 z m -10.58934,-325.31346 c -94.59866,0 -171.28346,76.68667 -171.28346,171.28133 0,94.59733 76.6848,171.28267 171.28346,171.28267 94.59734,0 171.28267,-76.68534 171.28267,-171.28267 0,-94.59466 -76.68533,-171.28133 -171.28267,-171.28133 z m 140.17067,236 c 1.84,-3.97334 3.53866,-8.024 5.03866,-12.17334 -6.76133,-7.63466 -12.42,-15.84266 -14.82266,-23.77333 0,0 2.56133,17.75467 9.784,35.94667 z m 1.936,-44.65867 c 0,0 -5.81334,-30.65066 1.50933,-41.19733 0,0 -14.02,12.57333 -12.78667,23.24533 0,0 -13.73066,-25.69333 -8.36666,-43.936 0,0 -12.09867,20.77334 -9.672,42.612 0,0 -9.43467,-8.75066 -9.456,-15.30266 0,0 -3.00934,20.43333 5.164,32.61866 0,0 -2.72534,2.824 -9.07867,-6.70933 0,0 -3.496,33.99866 33.088,50.27866 0,0 -12.504,-27.80799 -3.70267,-44.79199 0,0 8.73334,23.58533 18.76134,28.63733 0.664,-2.15734 1.28266,-4.332 1.85333,-6.528 -0.184,-9.20133 0.304,-25.33467 4.952,-38.12 0.004,-0.28933 0.024,-0.576 0.024,-0.86667 0,-0.63066 -0.0413,-1.25066 -0.048,-1.87733 -3.944,4.26267 -12.03333,13.95867 -12.24133,21.93733 z m -110.05333,-86.144 c -3.12934,8.33334 4.77866,10.42667 4.77866,10.42667 43.35067,-41.65866 29.45867,-58.29066 29.45867,-58.29066 -3.43333,19.392 -34.23733,47.86399 -34.23733,47.86399" /><path
     id="path182"
     style="fill:#b61d23;fill-opacity:1;fill-rule:nonzero;stroke:none;stroke-width:0.133333"
     d="m 149.16533,-33.55066 c 0.22267,-0.252 0.44,-0.508 0.65467,-0.768 -0.21467,0.26 -0.432,0.516 -0.65467,0.768 z m -0.804,0.884 c 0.224,-0.236 0.44267,-0.476 0.66,-0.72 -0.21733,0.244 -0.436,0.484 -0.66,0.72 z m 1.57334,-1.79067 c 0.22133,-0.27067 0.43866,-0.54533 0.652,-0.824 -0.21334,0.27867 -0.43067,0.55333 -0.652,0.824 z m -2.41334,2.64933 c 0.22534,-0.22133 0.44667,-0.448 0.66667,-0.67733 -0.22,0.22933 -0.44133,0.456 -0.66667,0.67733 z m -0.87466,0.832 c 0.22933,-0.21066 0.45333,-0.42533 0.67733,-0.64133 -0.224,0.216 -0.448,0.43067 -0.67733,0.64133 z m -9.212,5.96667 c -0.18,0.0773 -0.36,0.15067 -0.54134,0.22533 0.18134,-0.0747 0.36134,-0.148 0.54134,-0.22533 z m 1.13866,-0.51733 c -0.17866,0.0853 -0.35866,0.16666 -0.53733,0.248 0.17867,-0.0813 0.35867,-0.16267 0.53733,-0.248 z M 139.688,-26.084 c -0.17733,0.0933 -0.35867,0.18134 -0.53867,0.272 0.18,-0.0907 0.36134,-0.17866 0.53867,-0.272 z m 1.092,-0.6 c -0.18267,0.104 -0.368,0.204 -0.552,0.30534 0.184,-0.10134 0.36933,-0.20134 0.552,-0.30534 z m 1.06667,-0.63866 c -0.19734,0.12266 -0.39867,0.24 -0.59734,0.35866 0.19867,-0.11866 0.4,-0.23466 0.59734,-0.35866 z m 2.776,-1.94534 c -0.824,0.64134 -1.68,1.24534 -2.56534,1.808 0.88534,-0.564 1.74134,-1.16666 2.56534,-1.808 z m 0.90266,-0.73066 c -0.24,0.2 -0.48,0.4 -0.72533,0.59466 0.24533,-0.19466 0.48533,-0.39466 0.72533,-0.59466 z m 0.908,-0.788 c -0.22933,0.20666 -0.46,0.412 -0.69466,0.612 0.23466,-0.2 0.46533,-0.40534 0.69466,-0.612 z m 4.884,-5.48534 c -0.21333,0.3 -0.432,0.59734 -0.65466,0.89067 0.22266,-0.29333 0.44133,-0.59067 0.65466,-0.89067 z m -19.44533,9.008 -0.276,1.932 -1.16,2.45734 c -1.972,0.36933 -4.00133,0.57066 -6.08,0.57066 -18.23733,0 -33.02,-14.78266 -33.02,-33.02 0,-18.236 14.78267,-33.02 33.02,-33.02 18.236,0 33.02,14.784 33.02,33.02 0,7.07734 -2.232,13.62934 -6.024,19.00267 3.668,-5.20133 5.87067,-11.512 6.00667,-18.32933 -1.064,0.436 -1.656,0.796 -1.656,0.796 -3.86534,1.564 -9.47867,0.18533 -9.47867,0.18533 -4.14,-1.28933 -9.752,-1.10533 -9.752,-1.10533 1.288,0.368 2.852,4.14 2.852,4.14 -1.564,2.024 -6.256,1.93333 -6.256,1.93333 0.368,2.024 -5.15333,7.268 -5.15333,7.268 0.0573,5.45333 4.88266,12.34133 8.56666,16.816 -0.536,0.212 -1.07733,0.41467 -1.62666,0.59867 C 133.37333,-25.604 131.872,-27.264 131.872,-27.264 Z m 1.32533,3.748 c 0.164,-0.0453 0.33067,-0.0893 0.49334,-0.13733 -0.16267,0.048 -0.32934,0.092 -0.49334,0.13733 z m -1.31866,0.33734 c 0.22,-0.0507 0.43866,-0.10267 0.656,-0.15734 -0.21734,0.056 -0.436,0.10667 -0.656,0.15734 z m -1.28267,0.27333 c 0.26533,-0.0507 0.52933,-0.104 0.792,-0.16133 -0.26267,0.0573 -0.52667,0.11066 -0.792,0.16133 z m -6.24,-69.05067 c -20.232,0 -36.632,16.40134 -36.632,36.632 0,20.232 16.4,36.632 36.632,36.632 20.232,0 36.632,-16.4 36.632,-36.632 0,-20.23066 -16.4,-36.632 -36.632,-36.632 z m -11.53067,28.80934 c 0.92,-4.60134 12.32934,-2.66934 12.32934,-2.66934 -1.472,-2.02266 -6.808,-2.944 -6.808,-2.944 -7.72934,-1.196 1.104,-8.74 1.104,-8.74 -5.42934,0.91867 -8.28134,5.336 -8.28134,5.336 -4.6,5.98 1.656,9.01734 1.656,9.01734 z m 12.42134,10.212 c -1.11734,0 -2.024,-0.90667 -2.024,-2.024 0,-1.11867 0.90666,-2.024 2.024,-2.024 1.11866,0 2.024,0.90533 2.024,2.024 0,1.11733 -0.90534,2.024 -2.024,2.024 z m -11.86934,9.75333 c -0.712,0 -1.288,-0.576 -1.288,-1.288 0,-0.712 0.576,-1.28933 1.288,-1.28933 0.712,0 1.288,0.57733 1.288,1.28933 0,0.712 -0.576,1.288 -1.288,1.288 z m 17.94267,-7.912 c 2.024,2.116 5.888,0.092 5.888,0.092 -2.576,-0.55333 -5.06133,-5.24533 -5.06133,-5.24533 24.29066,1.932 10.02933,-17.48134 10.02933,-17.48134 2.39333,15.27334 -14.07733,11.04 -14.07733,11.04 -3.68,-3.03466 -8.924,-1.748 -8.924,-1.748 -5.24534,-0.092 -7.72934,9.10934 -7.72934,9.10934 -0.92,2.208 -6.072,7.72933 -6.072,7.72933 -0.828,0.276 -0.73733,0.92 -0.73733,0.92 5.70533,13.70933 15.36667,2.392 15.36667,2.392 10.94933,3.68 11.31733,-6.808 11.31733,-6.808" /><path
     id="path184"
     style="fill:#b61d23;fill-opacity:1;fill-rule:nonzero;stroke:none;stroke-width:0.133333"
     d="m 25.744,-46.79866 c -0.0187,0.90266 -0.67333,1.62133 -1.46266,1.604 -0.78934,-0.0147 -1.41467,-0.76 -1.396,-1.66134 0.0187,-0.90266 0.67333,-1.62133 1.46266,-1.60533 0.78934,0.016 1.41467,0.76133 1.396,1.66267 z m 8.47867,-14.75467 c -0.63867,0.85867 -1.47067,1.31733 -1.86,1.028 -0.388,-0.288 -0.18533,-1.21867 0.45333,-2.076 0.63867,-0.85733 1.472,-1.316 1.86,-1.028 0.388,0.29067 0.18534,1.22 -0.45333,2.076 z m 27.06133,22.732 1.22533,-0.73467 c -5.556,-0.736 -10.70266,2.61467 -10.70266,2.61467 l -0.65334,-0.164 -0.98,-0.65333 c 1.71467,4.82 -1.844,8.34933 -1.844,8.34933 -2.924,-0.924 -5.81733,-10.204 -5.81733,-10.204 -1.552,0.984 -0.91733,4.95867 -0.91733,4.95867 -2.86534,-2.572 -3.21867,-5.912 -2.79067,-10.07867 0.0907,-0.892 0.16267,-2.11867 0.47733,-2.87067 2.556,-6.10533 2.564,-8.33866 2.564,-8.33866 0.73467,-14.54267 -8.50266,-14.57867 -8.50266,-14.57867 -0.396,-1.468 -1.60933,-2.54533 -2.32267,-3.07067 -0.31866,-0.23466 -0.53733,-0.36 -0.53733,-0.36 -1.89467,-0.396 -3.47733,-0.27333 -4.78267,0.11334 -3.53733,1.04933 -5.02133,4.05333 -5.02133,4.05333 1.06267,-0.16267 2.124,-0.244 2.124,-0.244 -3.59467,1.06133 -4.49333,5.47333 -4.49333,5.47333 4.004,-4.49466 9.56,-4.004 9.56,-4.004 -9.396,0.736 -7.02667,14.13467 -7.02667,14.13467 0.32667,0.65333 -0.164,1.30667 -0.164,1.30667 -3.34933,1.96133 -2.77733,4.49333 -2.77733,4.49333 -1.30667,5.88267 4.65733,7.51733 4.65733,7.51733 7.43467,0.16267 6.86267,-8.66133 6.86267,-8.66133 3.34933,-0.48933 8.33333,-3.59333 8.33333,-3.59333 -1.22667,3.104 -6.29067,4.084 -6.29067,4.084 -2.61466,6.78133 -2.288,21.324 -2.288,21.324 0.54,2.02533 1.21334,3.73333 1.964,5.18 C 15.52,-25.39066 3.61067,-38.96 3.61067,-55.324 c 0,-18.236 14.784,-33.02 33.02133,-33.02 18.236,0 33.02,14.784 33.02,33.02 0,6.264 -1.744,12.12 -4.772,17.10934 -1.94133,-0.68667 -3.596,-0.60667 -3.596,-0.60667 z M 36.632,-91.956 C 16.4,-91.956 0,-75.55466 0,-55.324 c 0,20.232 16.4,36.632 36.632,36.632 20.23067,0 36.632,-16.4 36.632,-36.632 0,-20.23066 -16.40133,-36.632 -36.632,-36.632 z m 3.77333,15.388 c 0,0 0.36,-5.284 -1.22133,-5.428 0,0 -1.90667,-0.50266 -6.47066,9.23867 l 0.89866,1.40133 1.90533,0.108 c 0,0 0.46667,-0.072 0.216,-0.50266 0,0 -0.36,-2.30134 1.86934,-4.20534 0,0 1.32933,-1.54533 1.00533,0.64667 0,0 0.108,2.336 -1.65333,4.02533 0,0 -0.684,0.53867 0.072,0.468 0,0 2.624,-1.11466 3.52133,-3.59466 0,0 0.72,-1.90534 -0.14267,-2.15734 z m 4.37334,29.97867 c 0,-5.86267 -1.932,-8.69867 -1.932,-8.69867 l -0.0573,-0.172 c 0.28534,5.856 -2.08533,6.32134 -2.136,10.00534 -0.0387,2.86133 0.14534,5.17466 0.14534,5.17466 0.0573,-1.82 2.9,-4.43466 2.9,-4.43466 -0.90934,6.19733 4.03733,13.02133 4.03733,13.02133 4.548,-5.684 -1.76267,-12.33733 -1.76267,-12.33733 -1.47866,-1.42134 -1.19466,-2.33067 -1.19466,-2.55867 z M 28.436,-76.064 c 0,0 -0.93466,-3.48666 -3.59466,-6.00266 0,0 -0.68267,-0.75467 -0.89867,1.796 0,0 -0.284,3.26933 -0.044,5.076 0.08,0.59733 0.216,1.036 0.44,1.14266 0,0 0.20933,-0.10266 0.54267,-0.248 0.996,-0.43066 3.09866,-1.24266 4.09333,-0.86666 0,0 -0.17867,-0.75467 -0.53867,-0.89734" /><path
     id="path186"
     style="fill:#b61d23;fill-opacity:1;fill-rule:nonzero;stroke:none;stroke-width:0.133333"
     d="m 203.992,-37.70933 c -0.36,0.128 -0.71867,0.22933 -1.07467,0.30667 -0.036,-0.0387 -0.0667,-0.0773 -0.092,-0.11867 -0.11867,-0.2 0.11067,-0.41733 1.16667,-0.188 z m 1.28266,1.012 c -0.48933,0.36933 -1.56133,0.89867 -3.908,1.41467 -1.068,0.23466 -2.47733,0.33866 -2.47733,0.33866 0,0 -3.16,-0.0547 -4.32267,-0.292 -0.63466,-0.12933 -4.00533,-1.29866 -3.06666,-3.424 0.11466,-0.26 0.75333,-0.284 1.61733,-0.15733 2.15333,0.31467 5.716,1.56667 6.112,2.428 0.0307,0.0693 0.036,0.13867 0.0333,0.20133 0.24,0.04 0.47734,0.072 0.712,0.096 1.99467,0.21467 3.78534,-0.088 5.3,-0.60533 z m 11.31467,-15.60133 c -0.88667,1.17466 -2.06667,1.78 -2.63467,1.35066 -0.57066,-0.42933 -0.31333,-1.73066 0.572,-2.90533 0.88534,-1.176 2.06667,-1.78133 2.63467,-1.35067 0.57067,0.428 0.31467,1.72934 -0.572,2.90534 z M 229.15333,-63.7 c 1.94533,-0.25066 2.13333,-1.004 2.13333,-1.004 -4.016,-2.32133 -12.108,-1.12933 -12.108,-1.12933 4.14,-3.82667 2.50934,-11.85733 2.50934,-11.85733 -6.02267,4.392 -7.716,13.74 -7.716,13.74 -10.97734,0.564 -12.60934,14.11466 -12.60934,14.11466 l -5.20533,6.83734 c -1.14533,-0.24134 -3.5,1.88666 -3.684,2.05466 -0.008,0.005 -0.0173,0.016 -0.0173,0.016 0,0 -0.716,0.20534 -1.25334,0.60934 -0.216,0.16133 -0.404,0.356 -0.504,0.58266 -0.348,0.79067 0.188,2.50934 0.188,2.50934 1.69334,4.07733 9.95067,2.66266 10.54,2.572 0.588,-0.092 5.10534,-1.85467 5.10534,-1.85467 24.50266,-3.604 18.74266,-19.55733 18.74266,-19.55733 6.51867,15.788 -11.91733,19.35333 -11.91733,19.35333 l 6.21333,0.61067 -7.232,13.65066 5.07867,-3.16933 1.32133,2.37467 c -2.50533,0.61066 -5.12,0.94266 -7.81333,0.94266 -18.236,0 -33.02,-14.78266 -33.02,-33.02 0,-18.236 14.784,-33.02 33.02,-33.02 18.23733,0 33.02133,14.784 33.02133,33.02 0,0.0693 -0.005,0.136 -0.007,0.20534 0,-0.0147 10e-4,-0.0293 10e-4,-0.044 -6.33333,-4.83867 -14.788,-8.53734 -14.788,-8.53734 z m 9.04533,26.99067 c -0.456,0.66667 -0.944,1.308 -1.448,1.93733 -1.86133,-1.936 -2.144,-4.65066 -2.144,-4.65066 3.51334,-9.66 8.02934,-7.90534 8.02934,-7.90534 -6.76667,4.168 -5.36934,8.796 -4.43734,10.61867 z m -3.80266,4.59733 -0.91734,-0.74 -1.69866,1.10667 -0.78134,2.63333 c -3.228,2.47467 -6.924,4.364 -10.93466,5.51734 l 6.70133,-11.93867 3.512,-0.188 5.14133,2.53867 c -0.332,0.36533 -0.67466,0.72 -1.02266,1.07066 z M 231,-29.11333 c 0.52666,-0.404 1.03866,-0.82533 1.53866,-1.25733 -0.5,0.43333 -1.012,0.85333 -1.53866,1.25733 z m -12.12534,5.836 c 0.39734,-0.0987 0.79467,-0.204 1.188,-0.31733 -0.39333,0.11333 -0.79066,0.21733 -1.188,0.31733 z M 210.92533,-91.956 c -20.23067,0 -36.63067,16.40134 -36.63067,36.632 0,20.232 16.4,36.632 36.63067,36.632 20.232,0 36.632,-16.4 36.632,-36.632 0,-20.23066 -16.4,-36.632 -36.632,-36.632 z m -14.78267,54.94534 c -0.392,0 -0.708,0.316 -0.708,0.70666 0,0.392 0.316,0.708 0.708,0.708 0.39067,0 0.708,-0.316 0.708,-0.708 0,-0.39066 -0.31733,-0.70666 -0.708,-0.70666 z m -2.60533,-0.79334 c -0.39067,0 -0.708,0.31734 -0.708,0.708 0,0.39067 0.31733,0.70667 0.708,0.70667 0.39067,0 0.70667,-0.316 0.70667,-0.70667 0,-0.39066 -0.316,-0.708 -0.70667,-0.708 z m 19.38133,-27.98133 c 0,0 -0.0653,-8.864 -3.32533,-12.124 0,0 -6.06133,13.16667 3.32533,12.124 z m -3.21066,41.99067 4.74133,-10.592 -5.952,0.20133 0.30267,0.808 -4.54,10.39067 3.83333,-2.52267 1.61467,1.71467" /><path
     id="path188"
     style="fill:#b61d23;fill-opacity:1;fill-rule:nonzero;stroke:none;stroke-width:0.133333"
     d="m 153.796,51.58 c -0.22533,0.44267 -0.46267,0.87733 -0.708,1.308 0.244,-0.43067 0.48267,-0.86533 0.708,-1.308 z m -0.88267,1.612 C 152.66,53.62933 152.4,54.06133 152.128,54.484 c 0.272,-0.42267 0.532,-0.85467 0.78533,-1.292 z m -3.448,4.87067 c 0.66267,-0.776 1.28667,-1.58534 1.876,-2.42 -0.58933,0.83466 -1.212,1.644 -1.876,2.42 z m -2.224,2.35866 c 0.764,-0.73466 1.49467,-1.50666 2.18534,-2.31333 -0.69067,0.80667 -1.42,1.57867 -2.18534,2.31333 z M 144.82,62.536 c 0.77067,-0.61067 1.51467,-1.25333 2.228,-1.92933 -0.71467,0.676 -1.45733,1.31866 -2.228,1.92933 z M 102.79467,31.964 c -0.65734,0.56134 -1.904,0.568 -2.7,-0.364 -0.796,-0.932 -0.572,-2.18533 0.0853,-2.74666 0.65733,-0.56134 1.05867,-0.004 1.85333,0.92533 0.79467,0.932 1.41867,1.624 0.76134,2.18533 z m 18.64933,-3.06 c -0.944,0.308 -1.87733,0.0453 -2.08533,-0.588 -0.20667,-0.63333 0.39066,-1.39733 1.33466,-1.70666 0.944,-0.308 1.87734,-0.0453 2.084,0.58666 0.208,0.63467 -0.38933,1.39867 -1.33333,1.708 z m 12.56533,3.368 -0.96666,0.828 0.41466,-2.89866 L 132.21467,31.72 131.8,29.64934 130.83467,29.788 c 0,0 6.072,-1.932 8.004,-13.524 0,0 -8.41467,3.31334 -10.48534,6.48667 0,0 -4.14,-2.62133 -6.76133,-3.17333 0,0 -5.93333,-1.10534 -8.69333,3.17333 0,0 -5.244,4.14 -13.10934,4.416 0,0 -1.932,1.24133 -1.38,2.20667 0,0 -0.59333,0.39733 -0.80266,1.81466 -0.136,0.916 -0.108,2.264 0.34666,4.208 0.0133,0.0627 0.0267,0.12267 0.0427,0.188 0,0 0.828,3.448 3.72533,2.896 0,0 7.72667,-0.552 13.10934,1.104 0,0 4.00133,1.24133 8.83066,-1.656 l 0.552,0.13867 c 0,0 4.276,-3.448 5.24267,-4.416 0,0 -0.828,5.38133 -10.62533,8.14266 l 2.89866,9.244 c 0,0 -1.07066,11.61334 2.64267,18.61334 -0.005,0 -0.0107,10e-4 -0.016,10e-4 -18.23733,0 -33.02,-14.784 -33.02,-33.02 0,-18.23733 14.78267,-33.02133 33.02,-33.02133 18.236,0 33.02,14.784 33.02,33.02133 0,5.376 -1.29067,10.44667 -3.572,14.93067 -4.25333,0.14133 -9.12,-0.11867 -12.20533,-1.62934 0,0 -8.55467,-5.10533 -7.58934,-17.66133 z M 124.356,0 c -20.232,0 -36.632,16.4 -36.632,36.632 0,20.23067 16.4,36.632 36.632,36.632 20.232,0 36.632,-16.40133 36.632,-36.632 C 160.988,16.4 144.588,0 124.356,0 Z m -0.63067,19.01067 c 3.18,0.29467 4.91734,1.77467 4.91734,1.77467 1.96,-2.62667 -0.33334,-9.83734 -0.33334,-9.83734 0.0747,1.70267 -4.584,8.06267 -4.584,8.06267" /><path
     id="path190"
     style="fill:#b61d23;fill-opacity:1;fill-rule:nonzero;stroke:none;stroke-width:0.133333"
     d="m 68.84,29.38 c 0.0187,0.08 0.0347,0.16 0.052,0.24134 C 68.8747,29.54004 68.8587,29.46 68.84,29.38 Z m -2.03733,20.66533 c 0.38133,-0.852 0.724,-1.72533 1.032,-2.61333 -0.30667,0.88933 -0.652,1.76133 -1.032,2.61333 z M 65.36533,52.896 c 0.49067,-0.868 0.944,-1.76 1.35734,-2.67333 C 66.30933,51.13733 65.856,52.028 65.36533,52.896 Z M 62.716,56.86533 C 57.95467,47.71467 66.108,40.28 66.108,40.28 c -2.58133,4.75067 -1.736,9.63067 -0.744,12.61733 -0.788,1.38934 -1.67333,2.71467 -2.648,3.968 z m -13.93067,6.01734 9.35334,-1.208 C 55.14933,64.248 51.696,66.29733 47.91733,67.672 c 0.62667,-2.728 0.868,-4.78933 0.868,-4.78933 z M 39.18267,69.544 c 1.092,-0.0827 2.17066,-0.22133 3.23066,-0.40667 -1.06,0.18667 -2.13866,0.324 -3.23066,0.40667 z M 36.632,69.652 c -0.116,0 -0.23067,-0.008 -0.348,-0.009 C 37.58,66.211 35.42267,64.86166 35.42267,64.86166 33.44267,63.37633 30.308,67.667 30.308,67.667 30.02134,68.08566 29.764,68.483 29.52134,68.871 14.704,65.619 3.61067,52.42566 3.61067,36.63233 3.61067,18.395 18.39467,3.611 36.632,3.611 c 15.684,0 28.80133,10.94133 32.168,25.604 -15.03333,-4.004 -29.25333,8.92 -29.25333,8.92 7.424,11.54933 1.15466,20.292 1.15466,20.292 0.316,2.92533 -0.54266,7.32533 -1.52133,11.11733 -0.84267,0.0653 -1.68933,0.108 -2.548,0.108 z m -5.88666,-0.536 c 0.0413,0.007 0.0827,0.0173 0.124,0.0227 -0.0413,-0.005 -0.0827,-0.0147 -0.124,-0.0227 z M 36.632,0 C 16.4,0 0,16.4 0,36.632 0,56.86267 16.4,73.264 36.632,73.264 56.86267,73.264 73.264,56.86267 73.264,36.632 73.264,16.4 56.86267,0 36.632,0 Z M 31.91334,35.60267 C 33.724,29.672 36.61333,25.16934 38.55867,22.59067 39.764,20.99467 40.60667,20.136 40.60667,20.136 40.852,22.40267 40.06,25.02 38.92,27.47334 c -2.16533,4.66 -5.59066,8.736 -5.59066,8.736 z m -2.628,16.48 c -0.94934,0 -1.71867,-1.336 -1.71867,-2.98267 0,-1.64667 0.76933,-2.98267 1.71867,-2.98267 0.94933,0 1.71866,1.336 1.71866,2.98267 0,1.64667 -0.76933,2.98267 -1.71866,2.98267 z M 35.14933,38.43333 34.84534,37.524 c 4.27866,-2.348 6.82666,-6.156 8.34133,-10 0.41466,-1.052 0.75066,-2.108 1.024,-3.13733 1.396,-5.248 1.148,-9.81067 1.148,-9.81067 0,-1.87466 -0.61067,-2.74266 -1.316,-3.12 -0.97067,-0.51866 -2.12,-0.11466 -2.12,-0.11466 -0.64,0.42933 -1.244,0.88666 -1.81867,1.364 -3.79333,3.15733 -6.19466,7.26533 -7.712,11.14 -0.32,0.816 -0.6,1.62266 -0.84666,2.40666 -1.64934,5.25734 -1.75467,9.55334 -1.75467,9.55334 L 25.74667,35.3 c 1.272,-2.74533 1.84,-5.80533 2.004,-8.77466 0.13467,-2.42534 0,-4.788 -0.244,-6.87334 -0.5,-4.292 -1.45733,-7.40133 -1.45733,-7.40133 -2.324,-4.852 -3.63867,-0.404 -3.63867,-0.404 -4.54933,8.28933 0.50533,25.576 0.50533,25.576 -3.53866,1.92133 -6.064,6.77466 -6.064,6.77466 -5.25733,9.70534 0.40267,15.87067 0.40267,15.87067 12.63733,6.67333 20.11866,-2.22267 20.11866,-2.22267 8.39067,-9.504 -2.224,-19.412 -2.224,-19.412" /><path
     id="path192"
     style="fill:#b61d23;fill-opacity:1;fill-rule:nonzero;stroke:none;stroke-width:0.133333"
     d="m 242.54133,46.17333 c -1.71067,-1.45866 -2.776,-5.72 -2.776,-5.72 0.684,-3.60666 2.22133,-5.75866 4.024,-7.01199 0.10133,1.05066 0.15733,2.11333 0.15733,3.19066 0,0.504 -0.0173,1.004 -0.0413,1.50133 0.0173,-0.39466 0.0293,-0.792 0.032,-1.192 -0.76533,1.696 -0.74133,3.21334 -0.74133,3.21334 0.0707,0.69333 0.17066,1.328 0.29733,1.91466 -0.23333,1.4 -0.55067,2.76934 -0.952,4.104 z m -26.14,-3.492 c -0.87333,0.89467 -1.96933,1.23734 -2.448,0.76934 -0.48,-0.46934 -0.16133,-1.57334 0.71067,-2.46667 0.87333,-0.89467 1.97066,-1.23867 2.45066,-0.76933 0.48,0.46933 0.16,1.57333 -0.71333,2.46666 z m -5.476,26.97067 c -18.236,0 -33.02,-14.784 -33.02,-33.02 0,-18.23733 14.784,-33.02133 33.02,-33.02133 12.85067,0 23.97467,7.34667 29.43067,18.06267 -13.01067,-0.392 -25.66267,7.88533 -25.66267,7.88533 -4.776,-0.148 -6.268,2.68667 -6.268,2.68667 -3.284,-0.29867 -2.836,3.43333 -2.836,3.43333 -7.76,8.05866 -6.56667,19.24933 -6.56667,19.24933 19.40667,-1.492 27.31067,-11.48933 27.31067,-11.48933 v -4.612 c -0.60933,0.19466 -1.25733,0.30133 -1.93067,0.30133 -3.508,0 -6.352,-2.84266 -6.352,-6.34933 0,-3.508 2.844,-6.35067 6.352,-6.35067 3.50534,0 6.34934,2.84267 6.34934,6.35067 0,1.87867 -0.82134,3.564 -2.12,4.72666 0.46933,8.592 -5.88,17.872 -5.88,17.872 -3.13467,4.77467 2.388,2.53867 2.388,2.53867 3.88,-1.644 7.908,-10.3 7.908,-10.3 3.01733,0.34933 7.47333,-0.476 9.31066,-0.86 -4.276,13.28267 -16.72933,22.896 -31.43333,22.896 z M 241.008,23.02134 c -0.18667,-0.41467 -0.38534,-0.824 -0.58934,-1.22667 0.204,0.40267 0.40267,0.812 0.58934,1.22667 z M 210.92533,0 c -20.23067,0 -36.63067,16.4 -36.63067,36.632 0,20.23067 16.4,36.632 36.63067,36.632 20.232,0 36.632,-16.40133 36.632,-36.632 0,-20.232 -16.4,-36.632 -36.632,-36.632 z m -6.872,56.88133 c 2.74667,4.86667 3.29733,3.76667 3.29733,3.76667 -0.0787,-0.46933 -3.06266,-4.86667 -3.06266,-4.86667 -0.784,-0.472 -0.23467,1.1 -0.23467,1.1 z M 192.08266,48.176 c 0,0 -1.05866,0.62533 3.99067,3.024 0,0 1.604,0.43733 1.08,-0.312 0,0 -4.59467,-2.668 -5.07067,-2.712 z m 1.86534,-4.05067 c 0,0 -1.21467,0.184 2.56933,4.29734 0,0 1.324,1.00533 1.11733,0.11333 0,0 -3.26266,-4.192 -3.68666,-4.41067 z m 23.45066,8.28134 -3.21733,3.37466 c -2.04133,1.80534 -0.864,3.14134 -0.864,3.14134 1.09867,1.256 2.904,0.0773 2.904,0.0773 4.86667,-4.552 4.78933,-8.00533 4.78933,-8.00533 z m -10.676,4.08133 c 2.74667,4.868 3.29734,3.768 3.29734,3.768 -0.0787,-0.46933 -3.06267,-4.86533 -3.06267,-4.86533 -0.784,-0.47334 -0.23467,1.09733 -0.23467,1.09733 z m 7.56667,-28.14533 v -0.972 c 0,0 2.49467,-5.82 -4.02133,-4.15733 0,0 -4.99067,0.96933 -1.80267,7.34666 0,0 2.08133,-2.912 5.824,-2.21733 z m 14.23467,4.436 c 0,-2.27867 -1.84534,-4.124 -4.12134,-4.124 -2.27866,0 -4.124,1.84533 -4.124,4.124 0,2.276 1.84534,4.12266 4.124,4.12266 2.276,0 4.12134,-1.84666 4.12134,-4.12266" /><path
     id="path194"
     style="fill:#b61d23;fill-opacity:1;fill-rule:nonzero;stroke:none;stroke-width:0.133333"
     d="m 154.972,131.47187 c -8.28933,-3.87867 -9.456,6.83746 -9.456,6.83746 -1.296,-5.35626 1.684,-8.72133 1.684,-8.72133 3.68667,-4.288 7.344,-3.72293 10.14133,-1.988 -0.0693,1.77453 -0.27333,3.5136 -0.61333,5.2052 -0.996,-0.89587 -1.756,-1.33333 -1.756,-1.33333 z m -0.13467,7.5188 c 0.82267,-1.97187 1.46134,-4.0412 1.89067,-6.18547 -0.42933,2.14533 -1.068,4.2136 -1.89067,6.18547 z M 119.68,117.1588 c -0.98667,0.46413 -2.10667,0.31053 -2.50267,-0.3452 -0.39733,-0.65373 0.0813,-1.55787 1.06667,-2.02147 0.98533,-0.46293 2.10533,-0.30826 2.50133,0.3464 0.39734,0.65467 -0.08,1.55734 -1.06533,2.02027 z m 33.93067,24.43027 c -0.52667,-0.312 -1.104,-0.5812 -1.752,-0.78387 0,0 -1.612,-0.70933 -3.84267,1.25467 l -0.80533,0.32653 -0.496,3.38133 c 0,0 1.548,-0.436 2.84933,-0.38226 0.35467,0.0161 0.82267,0.16666 1.372,0.4744 -1.03867,1.40786 -2.19067,2.72653 -3.436,3.95053 -2.77733,-9.78493 -14.37733,-11.5968 -14.37733,-11.5968 l -0.95467,-1.53333 -4.02933,-7.0912 c 0,0 1.28933,-21.55307 -11.43867,-19.99174 0,0 -6.28533,1.13334 -5.31733,7.37454 0,0 -4.672,2.83493 -4.18934,6.52026 0,0 4.51067,-4.39626 9.66667,-0.42386 0,0 2.57867,1.4172 1.12933,10.06773 0,0 -10.63466,15.02907 2.25467,23.39467 0,0 -0.96667,-5.95467 0.484,-7.08947 0,0 0.16,2.26813 4.672,2.552 0,0 -5.24933,-9.49733 5.06667,-14.57347 l 0.37066,0.46054 0.45867,3.2156 c -1.33333,9.52133 2.98267,13.412 7.33333,14.96666 -1.12133,0.53747 -2.28133,1.00574 -3.46933,1.41454 0.49733,-0.17187 0.98933,-0.3516 1.47467,-0.5464 -9.728,-4.18947 -7.32,-16.9052 -7.32,-16.9052 -6.016,3.7516 -1.98134,13.80786 -1.98134,13.80786 l -5.55866,-0.536 c -0.76134,1.40534 0.304,4.624 0.304,4.624 0.81066,0.5068 1.59733,0.95987 2.36533,1.376 -0.0293,0.001 -0.0587,0.003 -0.088,0.003 -18.23733,0 -33.02,-14.78387 -33.02,-33.02133 0,-18.236 14.78267,-33.02 33.02,-33.02 15.78933,0 28.97733,11.08826 32.23467,25.89866 -7.86934,-4.61986 -13.65734,7.3588 -13.65734,7.3588 -4.71066,9.37974 0.44534,13.44787 0.44534,13.44787 0.60666,0.98387 0.53733,2.912 0.53733,2.912 0.55467,0.34373 2.22667,2.44013 2.22667,2.44013 l 0.34533,-2.9016 0.388,-2.6224 c 2.81867,-2.88173 5.60667,-2.41866 7.956,-0.788 -0.36933,0.88227 -0.78,1.74374 -1.22133,2.58494 z m -7.42134,9.45106 c 0.37867,-0.33226 0.74534,-0.67866 1.108,-1.02813 -0.36266,0.34947 -0.72933,0.6948 -1.108,1.02813 z m -1.368,1.14107 c 0.45067,-0.3588 0.89334,-0.72493 1.32667,-1.10413 -0.43333,0.38026 -0.876,0.74533 -1.32667,1.10413 z m -5.3,-2.90667 c 1.48,-0.0975 3.53334,1.38694 5.256,2.93907 -0.38533,0.3036 -0.77466,0.6 -1.17333,0.8864 -1.90133,-1.97187 -4.08267,-3.82547 -4.08267,-3.82547 z m -5.064,8.0828 c 0.18667,0.0615 0.39067,0.11347 0.604,0.15627 -0.0347,0.0119 -0.068,0.0239 -0.104,0.0359 -0.19333,-0.0735 -0.364,-0.13747 -0.5,-0.19214 z m -4.38666,1.43854 c 1.67466,-0.2932 3.308,-0.7104 4.88666,-1.24534 -1.58,0.53494 -3.212,0.9536 -4.88666,1.24534 z M 156.824,120.288 c -0.0347,-0.18533 -0.0733,-0.36827 -0.11067,-0.55053 0.0373,0.18226 0.076,0.3652 0.11067,0.55053 z M 124.356,89.64667 c -20.232,0 -36.632,16.4012 -36.632,36.632 0,20.23173 16.4,36.63333 36.632,36.63333 20.232,0 36.632,-16.4016 36.632,-36.63333 0,-20.2308 -16.4,-36.632 -36.632,-36.632 z m -13.984,13.34266 c 0,0 -2.17067,-0.412 -1.87733,0.3612 L 109.14,105.312 c 0,0 -4.69333,-0.77347 -6.864,2.63493 0,0 -1.17333,1.188 0,1.08374 0,0 4.51733,0.77453 5.16267,1.3412 0,0 -4.69334,2.5308 -6.04267,5.26666 0,0 -0.93867,2.9948 0.528,2.73747 0,0 0.64533,0.2068 1.11467,-0.87867 0,0 2.22933,-2.42546 4.576,-2.47853 l 0.352,-0.8256 1.52666,0.15627 c 0,0 1.23067,-4.54427 7.09867,-5.83494 0,0 -2.11333,-5.9892 -6.22,-5.5252 z m -2.99333,30.868 c 3.19866,0.6708 6.39866,-4.76 6.39866,-4.76 -2.58933,5.36414 0.83867,4.62507 0.83867,4.62507 3.04533,-2.81307 0.98933,-9.18227 0.98933,-9.18227 -0.38,-2.27866 -2.58933,0.0677 -2.58933,0.0677 -8.91067,7.57493 -5.63733,9.24946 -5.63733,9.24946" /><path
     id="path196"
     style="fill:#b61d23;fill-opacity:1;fill-rule:nonzero;stroke:none;stroke-width:0.133333"
     d="m 60.26267,149.33067 c -0.7,-0.12907 -1.45067,-0.21867 -2.26667,-0.24947 0,0 -12.276,1.18133 -15.08667,-6.952 l -0.73866,0.59213 c 0,0 -4.28934,-7.98533 -3.99334,-14.93746 l -1.33066,1.03333 -4.43733,6.95213 c 0,0 1.236,7.82654 0.496,11.52387 0,0 -3.384,5.6172 -2.552,11.4016 1.01066,0.19587 2.03733,0.34533 3.07866,0.4464 C 16.69734,157.53173 3.61067,143.436 3.61067,126.27867 c 0,-18.236 14.784,-33.02 33.02133,-33.02 18.236,0 33.02,14.784 33.02,33.02 0,8.97186 -3.58267,17.1016 -9.38933,23.052 z m -1.73467,1.6548 c 0.59733,-0.5292 1.176,-1.08027 1.73333,-1.65214 -0.55866,0.57187 -1.136,1.12294 -1.73333,1.65214 z M 33.72534,159.164 c 0.424,0.0376 0.85066,0.0735 1.27866,0.0933 -0.42933,-0.0199 -0.85466,-0.0557 -1.27866,-0.0933 z M 36.632,89.64667 C 16.4,89.64667 0,106.04787 0,126.27867 0,146.5104 16.4,162.912 36.632,162.912 c 20.23067,0 36.632,-16.4016 36.632,-36.63333 0,-20.2308 -16.40133,-36.632 -36.632,-36.632 z m -6.87466,47.77053 c -0.92934,2.94013 -3.64934,3.5 -3.64934,3.5 0.61734,0.8812 0.37867,5.92133 0.37867,5.92133 2.01067,-0.11973 2.79467,-4.4224 2.79467,-4.4224 0.528,0.7052 0.776,3.8224 0.776,3.8224 2.292,-1.14533 0.60133,-7.6812 0.60133,-7.6812 z M 30.124,125.13747 c -0.46133,0.9104 -1.404,1.36093 -2.108,1.0052 -0.70266,-0.35467 -0.89866,-1.3828 -0.43866,-2.2932 0.46133,-0.912 1.40533,-1.36147 2.108,-1.0068 0.70266,0.35573 0.89866,1.3828 0.43866,2.2948 z m -3.91866,11.8428 -0.86,1.52493 c -0.26,0.46147 -0.81867,0.5708 -1.20667,0.35213 l 0.003,0.003 c -0.38667,-0.21974 -0.88,-0.364 -0.62,-0.82494 0,0 0.0693,-0.2308 0.476,-0.11773 0.15066,0.0416 0.228,0.076 0.228,0.076 l 0.95733,-1.6344 c 0.26,-0.46147 0.404,-0.82813 0.792,-0.60827 0.38667,0.22027 0.49067,0.7692 0.23067,1.22974 z m 9.23199,-36.0656 c -9.31999,5.53586 -7.56799,14.716 -7.56799,14.716 -4.064,-0.4228 -5.956,2.2412 -5.956,2.2412 -2.944,3.924 -2.38267,14.36666 -2.38267,14.36666 0.21067,3.64267 3.43333,6.93747 3.43333,6.93747 0.56,0.6292 3.71467,0.14013 3.71467,0.14013 1.26,-0.7724 2.87333,-4.55626 2.87333,-4.55626 1.47067,-0.6292 7.568,-8.9692 7.568,-8.9692 l 0.56133,0.63066 c 0.14,-1.19066 -1.40266,-4.6948 -1.40266,-4.6948 3.99466,0.91094 5.74666,-2.5224 5.74666,-2.5224 -3.71333,-3.1536 -9.31999,-3.29373 -9.31999,-3.29373 -0.21067,-2.5224 2.73199,-14.99573 2.73199,-14.99573 z M 25.724,113.91453 c -1.212,-3.10093 1.14267,-14.4372 1.14267,-14.4372 -8.06,5.5508 -5.76533,17.1972 -5.76533,17.1972 0.52133,-1.07866 4.62266,-2.76 4.62266,-2.76" /><path
     id="path198"
     style="fill:#b61d23;fill-opacity:1;fill-rule:nonzero;stroke:none;stroke-width:0.133333"
     d="m 204.95066,123.60267 c 0,0 1.392,-5.45894 3.96,-7.49067 0,0 4.496,7.49067 -3.96,7.49067 z M 214.612,159.088 c 1.73866,-4.8896 4.78533,-8.73227 4.78533,-8.73227 3.21067,-4.70786 4.068,-6.95413 4.068,-6.95413 6.848,-17.44533 4.172,-26.96827 4.172,-26.96827 -0.24533,-0.83853 -0.58267,-1.54693 -0.98,-2.1588 -2.364,-5.08546 -9.32,-15.63986 -24.276,-8.3292 0,0 -10.488,3.85307 -10.38,14.66254 0,0 -0.21467,11.1296 2.676,11.34426 0,0 5.77867,1.7104 8.56133,-0.21466 l 6.74134,-5.4588 c 0,0 2.99733,-1.8188 2.99733,-5.77707 0,0 0.64133,-4.3896 0.428,-6.6376 l 0.428,0.85733 c 0,0 0.884,-4.24533 5.06933,-3.04266 1.34934,0.6896 2.39467,1.85986 3.12134,2.90413 -1.97467,2.976 -5.908,3.688 -5.908,3.688 2.25333,1.97973 5.63066,-0.6588 6.972,-1.87347 0.108,0.224 0.16266,0.35574 0.16266,0.35574 4.49467,14.34173 -5.244,30.28546 -5.244,30.28546 -4.11066,5.85734 -5.93866,9.81454 -6.74933,12.25214 -0.11067,0.001 -0.22,0.009 -0.332,0.009 -0.54,0 -1.076,-0.0161 -1.60933,-0.0412 0.69466,-0.3364 1.16,-0.64267 1.16,-0.64267 -2.71867,0.77707 -4.90667,-0.476 -5.84134,-1.16146 0.56934,-1.4052 1.16667,-2.8016 1.77334,-4.15054 3.19733,1.7652 6.23733,-0.41506 6.23733,-0.41506 -2.1,0.1364 -4.14133,-1.6276 -4.93867,-2.4104 0.592,-1.25214 1.17467,-2.44534 1.72934,-3.548 3.78666,1.25053 6.16,-0.37494 6.16,-0.37494 -2.384,-0.1224 -4.07467,-1.4052 -4.868,-2.1516 1.03733,-1.99373 1.864,-3.49213 2.27866,-4.23226 5.17867,0.96826 6.14667,-0.55734 6.14667,-0.55734 -3.124,0.2948 -4.484,-1.00933 -5.036,-1.87853 0.36267,-0.96667 0.63733,-1.8948 0.832,-2.7772 5.61467,-0.58173 5.93867,-3.23907 5.93867,-3.23907 -1.85467,1.16827 -4.52134,0.812 -5.552,0.6136 0.0667,-0.90786 0.056,-1.75053 -0.005,-2.5188 6.26667,-2.95466 7.29334,-7.64 7.29334,-7.64 -3.17867,4.03067 -7.18534,4.11347 -8.004,4.08694 -0.34667,-1.02547 -0.68,-1.5896 -0.68,-1.5896 1.39066,5.9932 -2.46134,14.23493 -2.46134,14.23493 -4.29733,6.988 -7.136,13.83173 -8.96666,19.29587 -14.15867,-3.72147 -24.60667,-16.59747 -24.60667,-31.924 0,-18.236 14.784,-33.02 33.02,-33.02 18.23733,0 33.02133,14.784 33.02133,33.02 0,16.98906 -12.83466,30.9744 -29.33466,32.80933 z m -1.65467,0.14373 c 0.54667,-0.0344 1.09067,-0.0812 1.63067,-0.14106 -0.54,0.0599 -1.084,0.10666 -1.63067,0.14106 z m -2.032,-69.58506 c -20.23067,0 -36.63067,16.4012 -36.63067,36.632 0,20.23173 16.4,36.63333 36.63067,36.63333 20.232,0 36.632,-16.4016 36.632,-36.63333 0,-20.2308 -16.4,-36.632 -36.632,-36.632 z m -15.5,50.4372 c 0.42933,1.6052 4.17467,3.20933 4.17467,3.20933 -2.248,-2.35467 -2.03467,-8.1344 -2.03467,-8.1344 -0.32133,-0.7468 -2.03333,-0.32027 -2.03333,-0.32027 -2.78267,1.1776 -1.49734,10.16667 -1.49734,10.16667 0,-0.42653 1.39067,-4.92133 1.39067,-4.92133" /><path
     id="path200"
     style="fill:none;stroke:#100f0d;stroke-width:0.666667;stroke-linecap:butt;stroke-linejoin:miter;stroke-miterlimit:4;stroke-dasharray:none;stroke-opacity:1"
     d="m -395.72932,188.33333 h -36" /><path
     id="path202"
     style="fill:none;stroke:#100f0d;stroke-width:0.666667;stroke-linecap:butt;stroke-linejoin:miter;stroke-miterlimit:4;stroke-dasharray:none;stroke-opacity:1"
     d="m -383.72932,200.33333 v 36" /><path
     id="path204"
     style="fill:none;stroke:#100f0d;stroke-width:0.666667;stroke-linecap:butt;stroke-linejoin:miter;stroke-miterlimit:4;stroke-dasharray:none;stroke-opacity:1"
     d="m -395.72932,-200.99999 h -36" /><path
     id="path206"
     style="fill:none;stroke:#100f0d;stroke-width:0.666667;stroke-linecap:butt;stroke-linejoin:miter;stroke-miterlimit:4;stroke-dasharray:none;stroke-opacity:1"
     d="m -383.72932,-212.99999 v -36" /><path
     id="path208"
     style="fill:none;stroke:#100f0d;stroke-width:0.666667;stroke-linecap:butt;stroke-linejoin:miter;stroke-miterlimit:4;stroke-dasharray:none;stroke-opacity:1"
     d="m 283.828,-200.99999 h 35.99999" /><path
     id="path210"
     style="fill:none;stroke:#100f0d;stroke-width:0.666667;stroke-linecap:butt;stroke-linejoin:miter;stroke-miterlimit:4;stroke-dasharray:none;stroke-opacity:1"
     d="m 271.828,-212.99999 v -36" /><path
     id="path212"
     style="fill:none;stroke:#100f0d;stroke-width:0.666667;stroke-linecap:butt;stroke-linejoin:miter;stroke-miterlimit:4;stroke-dasharray:none;stroke-opacity:1"
     d="m 283.828,188.33333 h 35.99999" /><path
     id="path214"
     style="fill:none;stroke:#100f0d;stroke-width:0.666667;stroke-linecap:butt;stroke-linejoin:miter;stroke-miterlimit:4;stroke-dasharray:none;stroke-opacity:1"
     d="m 271.828,200.33333 v 36" /></svg>
