<?xml version="1.0" encoding="UTF-8" standalone="no"?>
<svg
   xmlns:dc="http://purl.org/dc/elements/1.1/"
   xmlns:cc="http://creativecommons.org/ns#"
   xmlns:rdf="http://www.w3.org/1999/02/22-rdf-syntax-ns#"
   xmlns:svg="http://www.w3.org/2000/svg"
   xmlns="http://www.w3.org/2000/svg"
   viewBox="0 0 2141.8267 1831.5867"
   height="1831.5867"
   width="2141.8267"
   xml:space="preserve"
   id="svg2"
   version="1.1"><metadata
     id="metadata8"><rdf:RDF><cc:Work
         rdf:about=""><dc:format>image/svg+xml</dc:format><dc:type
           rdf:resource="http://purl.org/dc/dcmitype/StillImage" /></cc:Work></rdf:RDF></metadata><defs
     id="defs6" /><g
     transform="matrix(1.3333333,0,0,-1.3333333,0,1831.5867)"
     id="g10"><g
       transform="scale(0.1)"
       id="g12"><path
         id="path14"
         style="fill:#f9ba0f;fill-opacity:1;fill-rule:nonzero;stroke:none"
         d="M 11930.9,1832.9 C 11930.9,820.602 11110.3,0 10097.9,0 9085.58,0 8264.94,820.602 8264.94,1832.9 c 0,1012.4 820.64,1833 1832.96,1833 1012.4,0 1833,-820.6 1833,-1833" /><path
         id="path16"
         style="fill:#f9ba0f;fill-opacity:1;fill-rule:nonzero;stroke:none"
         d="M 7790.21,1832.9 C 7790.21,820.602 6969.57,0 5957.23,0 4944.9,0 4124.24,820.602 4124.24,1832.9 c 0,1012.4 820.66,1833 1832.99,1833 1012.34,0 1832.98,-820.6 1832.98,-1833" /><path
         id="path18"
         style="fill:#f9ba0f;fill-opacity:1;fill-rule:nonzero;stroke:none"
         d="m 7790.21,6850.75 c 0,-1012.32 -820.64,-1832.95 -1832.98,-1832.95 -1012.33,0 -1832.99,820.63 -1832.99,1832.95 0,1012.36 820.66,1833.01 1832.99,1833.01 1012.34,0 1832.98,-820.65 1832.98,-1833.01" /><path
         id="path20"
         style="fill:#f9ba0f;fill-opacity:1;fill-rule:nonzero;stroke:none"
         d="m 11930.9,11868.6 c 0,-1012.3 -820.6,-1833 -1833,-1833 -1012.32,0 -1832.96,820.7 -1832.96,1833 0,1012.3 820.64,1833 1832.96,1833 1012.4,0 1833,-820.7 1833,-1833" /><path
         id="path22"
         style="fill:#f9ba0f;fill-opacity:1;fill-rule:nonzero;stroke:none"
         d="m 3665.97,11868.6 c 0,-1012.3 -820.65,-1833 -1832.99,-1833 C 820.648,10035.6 0,10856.3 0,11868.6 c 0,1012.3 820.648,1833 1832.98,1833 1012.34,0 1832.99,-820.7 1832.99,-1833" /><path
         id="path24"
         style="fill:#f9ba0f;fill-opacity:1;fill-rule:nonzero;stroke:none"
         d="m 7790.21,11868.6 c 0,-1012.3 -820.64,-1833 -1832.98,-1833 -1012.33,0 -1832.99,820.7 -1832.99,1833 0,1012.3 820.66,1833 1832.99,1833 1012.34,0 1832.98,-820.7 1832.98,-1833" /><path
         id="path26"
         style="fill:#f9ba0f;fill-opacity:1;fill-rule:nonzero;stroke:none"
         d="M 3665.97,1832.9 C 3665.97,820.602 2845.32,0 1832.98,0 820.648,0 0,820.602 0,1832.9 c 0,1012.4 820.648,1833 1832.98,1833 1012.34,0 1832.99,-820.6 1832.99,-1833" /><path
         id="path28"
         style="fill:#f9ba0f;fill-opacity:1;fill-rule:nonzero;stroke:none"
         d="m 16063.7,11903.9 c 0,-1012.3 -820.6,-1833 -1832.9,-1833 -1012.4,0 -1833,820.7 -1833,1833 0,1012.4 820.6,1833 1833,1833 1012.3,0 1832.9,-820.6 1832.9,-1833" /><path
         id="path30"
         style="fill:#f9ba0f;fill-opacity:1;fill-rule:nonzero;stroke:none"
         d="m 11930.9,6850.75 c 0,-1012.32 -820.6,-1832.95 -1833,-1832.95 -1012.32,0 -1832.96,820.63 -1832.96,1832.95 0,1012.36 820.64,1833.01 1832.96,1833.01 1012.4,0 1833,-820.65 1833,-1833.01" /><path
         id="path32"
         style="fill:#f9ba0f;fill-opacity:1;fill-rule:nonzero;stroke:none"
         d="m 16063.7,6886.08 c 0,-1012.35 -820.6,-1832.96 -1832.9,-1832.96 -1012.4,0 -1833,820.61 -1833,1832.96 0,1012.33 820.6,1832.99 1833,1832.99 1012.3,0 1832.9,-820.66 1832.9,-1832.99" /><path
         id="path34"
         style="fill:#f9ba0f;fill-opacity:1;fill-rule:nonzero;stroke:none"
         d="m 16063.7,1868.2 c 0,-1012.302 -820.6,-1832.8992 -1832.9,-1832.8992 -1012.4,0 -1833,820.5972 -1833,1832.8992 0,1012.4 820.6,1833.1 1833,1833.1 1012.3,0 1832.9,-820.7 1832.9,-1833.1" /><path
         id="path36"
         style="fill:#100f0d;fill-opacity:1;fill-rule:nonzero;stroke:none"
         d="m 14237.5,11109.6 c -199.8,0 -409.2,0 -448.2,-102.3 -404.3,141.2 -750.2,414.1 -750.2,735.6 0,277.6 180.3,472.5 423.8,535.8 243.6,63.3 248.5,141.3 268,180.3 73,-92.6 238.6,-151.1 506.6,-151.1" /><path
         id="path38"
         style="fill:#100f0d;fill-opacity:1;fill-rule:nonzero;stroke:none"
         d="m 13036.6,12437.4 c 0,0 -136,-23.2 -243,-16 -17.9,232.4 394.8,1151 1379,966.6 -109.8,-17.1 -595.9,-197.6 -750.6,-395.8 -154.7,-198.3 -24.6,-262 34.1,-263.7 -74.3,37.8 -44.5,171.7 1.4,230.3 45.8,58.5 190.2,208.9 431.2,216.1 -177,-83.3 -204.1,-198.4 -206,-349.4 -1.3,-97.9 -79.6,-270.4 -297.4,-290 -217.9,-19.6 -378.2,37.7 -370.5,105.5 -69.5,-51 -61.5,-110.7 12.1,-153.4 73.6,-42.6 64.2,-34.6 64.2,-34.6 l -54.5,-15.6" /><path
         id="path40"
         style="fill:#100f0d;fill-opacity:1;fill-rule:nonzero;stroke:none"
         d="m 13112.8,11917.6 c 0,0 -180.2,80 -309.4,165.2 -116.1,76.5 -187.5,0.5 -192.4,-126.2 -4.9,-126.6 53.6,-297.2 19.5,-365.3 97.4,43.8 146.2,297.1 126.7,365.3 154.4,-103.5 336.1,-175.4 336.1,-175.4 l 19.5,136.4" /><path
         id="path42"
         style="fill:#100f0d;fill-opacity:1;fill-rule:nonzero;stroke:none"
         d="m 13099.4,11668.4 c 0,0 -218.8,-59.4 -357.9,-47 -63.1,5.6 -86,-108.7 -27,-191.7 44.1,-62 126.7,-165.6 136.4,-238.7 53.6,155.9 -15.7,264.2 -44.9,303.2 204.7,1.1 347,67 347,67 l -53.6,107.2" /><path
         id="path44"
         style="fill:#100f0d;fill-opacity:1;fill-rule:nonzero;stroke:none"
         d="m 13209.6,11450.6 c 0,0 -134.4,-135.9 -300.7,-262.6 -97.9,-74.6 183.8,-292.7 198.4,-390.2 63.3,155.9 -3.8,318.1 -62.2,342.4 183.3,85.9 241.3,216.7 241.3,216.7 l -76.8,93.7" /><path
         id="path46"
         style="fill:#100f0d;fill-opacity:1;fill-rule:nonzero;stroke:none"
         d="m 13556.5,11291.5 c 0,0 -121.4,-198 -276.7,-336.7 -64.7,-57.7 -155.4,-113.8 -5.7,-230.1 58.7,-45.6 199.9,-107.2 326.6,-180.2 126.6,-73.1 137.5,-74.5 148.9,-114.6 63,97.4 -31.5,135.9 -105.4,204.5 -73.5,68.3 -246.6,197 -285.6,187.3 167.5,150.2 327.3,388 327.3,388 l -129.4,81.8" /><path
         id="path48"
         style="fill:#100f0d;fill-opacity:1;fill-rule:nonzero;stroke:none"
         d="m 13075.5,12379.7 c 0,0 -147.8,-18.1 -223,-18.1 -75.3,0 -83,-41.5 -85.6,-64.9 23.3,28.6 51.9,36.3 101.1,10.4 49.3,-25.9 116.8,-166 329.5,-212.7 -2.7,49.3 57,85.6 98.5,96 -75.2,23.3 -217.9,121.9 -220.5,189.3" /><path
         id="path50"
         style="fill:#100f0d;fill-opacity:1;fill-rule:nonzero;stroke:none"
         d="m 14224,11109.6 c 199.8,0 409.2,0 448.2,-102.3 404.3,141.2 750.2,414.1 750.2,735.6 0,277.6 -180.3,472.5 -423.8,535.8 -243.6,63.3 -248.4,141.3 -268,180.3 -73,-92.6 -238.6,-151.1 -506.6,-151.1" /><path
         id="path52"
         style="fill:#100f0d;fill-opacity:1;fill-rule:nonzero;stroke:none"
         d="m 15424.9,12437.4 c 0,0 136,-23.2 243,-16 18,232.4 -394.8,1151 -1378.9,966.6 109.7,-17.1 595.8,-197.6 750.5,-395.8 154.7,-198.3 24.6,-262 -34,-263.7 74.2,37.8 44.4,171.7 -1.5,230.3 -45.8,58.5 -190.2,208.9 -431.2,216.1 177,-83.3 204.1,-198.4 206,-349.4 1.3,-97.9 79.6,-270.4 297.5,-290 217.8,-19.6 378.1,37.7 370.4,105.5 69.6,-51 61.5,-110.7 -12.1,-153.4 -73.6,-42.6 -64.2,-34.6 -64.2,-34.6 l 54.5,-15.6" /><path
         id="path54"
         style="fill:#100f0d;fill-opacity:1;fill-rule:nonzero;stroke:none"
         d="m 15348.8,11917.6 c 0,0 180.1,80 309.3,165.2 116.2,76.5 187.5,0.5 192.4,-126.2 4.9,-126.6 -53.6,-297.2 -19.5,-365.3 -97.4,43.8 -146.1,297.1 -126.7,365.3 -154.4,-103.5 -336.1,-175.4 -336.1,-175.4 l -19.4,136.4" /><path
         id="path56"
         style="fill:#100f0d;fill-opacity:1;fill-rule:nonzero;stroke:none"
         d="m 15362.1,11668.4 c 0,0 218.8,-59.4 358,-47 63,5.6 85.9,-108.7 26.9,-191.7 -44.1,-62 -126.7,-165.6 -136.4,-238.7 -53.6,155.9 15.7,264.2 44.9,303.2 -204.7,1.1 -347,67 -347,67 l 53.6,107.2" /><path
         id="path58"
         style="fill:#100f0d;fill-opacity:1;fill-rule:nonzero;stroke:none"
         d="m 15251.9,11450.6 c 0,0 134.4,-135.9 300.7,-262.6 97.9,-74.6 -183.7,-292.7 -198.4,-390.2 -63.3,155.9 3.8,318.1 62.3,342.4 -183.3,85.9 -241.3,216.7 -241.3,216.7 l 76.7,93.7" /><path
         id="path60"
         style="fill:#100f0d;fill-opacity:1;fill-rule:nonzero;stroke:none"
         d="m 14905,11291.5 c 0,0 121.4,-198 276.7,-336.7 64.7,-57.7 155.4,-113.8 5.7,-230.1 -58.7,-45.6 -199.9,-107.2 -326.6,-180.2 -126.6,-73.1 -137.4,-74.5 -148.9,-114.6 -63,97.4 31.5,135.9 105.4,204.5 73.5,68.3 246.7,197 285.6,187.3 -167.5,150.2 -327.3,388 -327.3,388 l 129.4,81.8" /><path
         id="path62"
         style="fill:#100f0d;fill-opacity:1;fill-rule:nonzero;stroke:none"
         d="m 15386,12379.7 c 0,0 147.9,-18.1 223.1,-18.1 75.2,0 82.9,-41.5 85.5,-64.9 -23.3,28.6 -51.8,36.3 -101.1,10.4 -49.3,-25.9 -116.7,-166 -329.4,-212.7 2.6,49.3 -57.1,85.6 -98.6,96 75.2,23.3 217.9,121.9 220.5,189.3" /><path
         id="path64"
         style="fill:#100f0d;fill-opacity:1;fill-rule:nonzero;stroke:none"
         d="m 14934.7,746 c -111.9,-19.699 -375.2,102 -378.5,250.199 -3.3,148.001 128.3,115.101 134.9,75.601 36.2,62.6 -105.3,171.2 -233.6,69.1 -91.4,-72.6 -131.7,-177.701 -138.3,-348.798 -4.9,-128.301 -95.4,-233.704 -164.5,-210.704 6.6,-52.597 325.8,-121.699 467.3,-78.898 52.8,16 266.6,167.801 312.7,243.5" /><path
         id="path66"
         style="fill:#100f0d;fill-opacity:1;fill-rule:nonzero;stroke:none"
         d="m 14771.5,1576.6 c 84.5,17.9 87.2,152.1 157.3,103.6 -111.2,147.8 -187.9,217.3 -257.4,339.3 0,0 -18.7,-66.8 17.2,-158 35.9,-91.2 139.4,-248.4 82.9,-284.9" /><path
         id="path68"
         style="fill:#100f0d;fill-opacity:1;fill-rule:nonzero;stroke:none"
         d="m 14734.7,3049.9 c -27.1,0 -49.2,22.1 -49.2,49.3 0,27.2 22.1,49.2 49.2,49.2 27.2,0 49.3,-22 49.3,-49.2 0,-27.2 -22.1,-49.3 -49.3,-49.3 z m 1266,-1110.4 c -73.6,14.5 -37.1,196.4 -131.4,425.1 -80,194.1 -246.3,310.4 -295.1,341.3 -303.1,562.8 -853.7,765.9 -1262.6,384.3 -0.4,-1 -0.7,-2 -1.1,-3 54.3,-11.9 184.7,-72 246.3,-170.1 65.4,-104.3 0,-200.4 -36.8,-206.6 -12.3,4.1 -14.3,-30.7 6.1,-40.9 20.4,-10.2 150,13.5 139.1,-49.1 2,36.8 -57.3,30.7 -102.3,22.5 -45,-8.2 -114.5,34.7 -92,87.9 67.5,22.6 73.6,102.3 53.2,153.5 -18.4,45.8 -140.3,149 -228.7,162.4 -78.2,-235.8 11.9,-467.3 159.5,-695.8 90.4,-77 282.8,-110.3 433.3,-82.9 222.6,40.5 323.8,313.8 222.6,455.4 -1.7,47.2 62,73.8 131.1,31.3 61.1,-37.6 130.4,-41.9 143.8,-25.9 0.7,2.5 1.9,4.5 2.3,7.3 0.3,-2.8 -0.6,-5.2 -2.3,-7.3 -13.6,-47.6 -82.4,-45.2 -127.8,-32.6 -47.8,13.3 -69.1,21.3 -69.1,21.3 53.1,-98.3 48.8,-376.2 -220.5,-467.6 -199.3,-67.5 -383.4,-14.9 -480.2,50.8 421.2,-617.7 1205.3,-1214 155.1,-1816.499 934.8,227 1213.6,881.799 1141.7,1530.699 75.3,-48.1 139.1,-70.7 215.8,-75.5" /><path
         id="path70"
         style="fill:#100f0d;fill-opacity:1;fill-rule:nonzero;stroke:none"
         d="m 13508.6,3023.9 c 112,19.8 375.3,-102 378.5,-250.1 3.3,-148.1 -128.3,-115.2 -134.9,-75.7 -36.2,-62.5 105.3,-171.2 233.7,-69.1 91.3,72.6 131.6,177.7 138.2,348.8 4.9,128.3 95.4,233.7 164.6,210.7 -6.6,52.6 -325.9,121.7 -467.4,79 -52.8,-16 -266.6,-167.9 -312.7,-243.6" /><path
         id="path72"
         style="fill:#100f0d;fill-opacity:1;fill-rule:nonzero;stroke:none"
         d="m 13671.8,2193.3 c -84.4,-17.8 -87.2,-152.1 -157.3,-103.6 111.2,-147.8 187.9,-217.2 257.4,-339.3 0,0 18.7,66.8 -17.2,158 -35.8,91.2 -139.4,248.5 -82.9,284.9" /><path
         id="path74"
         style="fill:#100f0d;fill-opacity:1;fill-rule:nonzero;stroke:none"
         d="m 13708.6,720 c 27.2,0 49.2,-22.102 49.2,-49.301 0,-27.199 -22,-49.199 -49.2,-49.199 -27.2,0 -49.3,22 -49.3,49.199 0,27.199 22.1,49.301 49.3,49.301 z m -1266,1110.4 c 73.6,-14.5 37.2,-196.4 131.4,-425.1 80,-194 246.4,-310.3 295.2,-341.3 303,-562.699 853.6,-765.801 1262.5,-384.301 0.4,1 0.7,2 1.1,3 -54.3,11.903 -184.7,72 -246.3,170.102 -65.4,104.301 0,200.499 36.8,206.599 12.3,-4.1 14.4,30.7 -6.1,40.9 -20.4,10.2 -150,-13.4 -139,49.1 -2.1,-36.8 57.2,-30.7 102.2,-22.5 45,8.2 114.5,-34.7 92.1,-87.9 -67.5,-22.5 -73.7,-102.301 -53.2,-153.398 18.3,-45.903 140.2,-149.102 228.7,-162.5 78.2,235.898 -12,467.398 -159.6,695.798 -90.4,77 -282.8,110.3 -433.2,83 -222.7,-40.6 -323.9,-313.8 -222.7,-455.5 1.7,-47.201 -62,-73.701 -131.1,-31.2 -61.1,37.5 -130.4,41.9 -143.7,25.8 -0.8,-2.5 -2,-4.5 -2.4,-7.2 -0.3,2.7 0.6,5.1 2.4,7.2 13.5,47.6 82.3,45.2 127.7,32.6 47.9,-13.3 69.1,-21.3 69.1,-21.3 -53.1,98.3 -48.7,376.3 220.5,467.6 199.3,67.6 383.4,14.9 480.2,-50.7 -421.1,617.6 -1205.3,1213.9 -155.1,1816.4 -934.8,-227 -1213.6,-881.8 -1141.7,-1530.7 -75.3,48.1 -139.1,70.7 -215.8,75.5" /><path
         id="path76"
         style="fill:#100f0d;fill-opacity:1;fill-rule:nonzero;stroke:none"
         d="m 2388.62,5934.28 c 0,63 -62.99,160.36 -171.84,177.55 -108.85,17.18 -200.5,-80.18 -200.5,-154.66 0,-74.47 17.21,-200.44 183.31,-280.66 166.11,-80.21 154.64,-211.95 114.56,-246.31 114.57,126.02 116.29,320.99 18.9,401.21 -97.38,80.22 55.57,102.87 55.57,102.87" /><path
         id="path78"
         style="fill:#100f0d;fill-opacity:1;fill-rule:nonzero;stroke:none"
         d="m 9669.79,6510.33 c 0,0 17.99,-227.36 -155.57,-359.03 -173.55,-131.67 -406.92,-71.79 -406.92,-203.46 0,131.67 -233.37,71.79 -406.91,203.46 -173.56,131.67 -155.58,359.03 -155.58,359.03 h 1124.98" /><path
         id="path80"
         style="fill:#100f0d;fill-opacity:1;fill-rule:nonzero;stroke:none"
         d="m 9075.01,7220.28 c 0,0 -239.47,-79.17 -287.77,-314.78 -33.92,-165.5 -112.03,-337.95 -166.09,-365 -54.07,-27.06 -108.15,55.98 -40.56,94.61 -7.71,-36.68 21.28,-54.07 56.03,-17.38 34.72,36.68 76.08,142.24 119.7,307.08 52.16,196.98 241.43,310.93 334.12,310.93 -17.38,-13.52 -15.43,-15.46 -15.43,-15.46" /><path
         id="path82"
         style="fill:#100f0d;fill-opacity:1;fill-rule:nonzero;stroke:none"
         d="m 9107.84,7228.03 c 0,0 54.06,-86.94 46.34,-193.15 -7.71,-106.2 -44.43,-451.93 -21.24,-471.22 23.19,-19.3 -25.1,-23.16 -25.1,-23.16 0,0 -48.29,3.86 -25.11,23.16 23.2,19.29 -13.53,365.02 -21.24,471.22 -7.73,106.21 46.35,193.15 46.35,193.15" /><path
         id="path84"
         style="fill:#100f0d;fill-opacity:1;fill-rule:nonzero;stroke:none"
         d="m 9140.66,7220.28 c 0,0 239.48,-79.17 287.78,-314.78 33.93,-165.5 112.02,-337.95 166.1,-365 54.07,-27.06 108.13,55.98 40.53,94.61 7.74,-36.68 -21.27,-54.07 -56,-17.38 -34.74,36.68 -76.1,142.24 -119.72,307.08 -52.17,196.98 -241.43,310.93 -334.12,310.93 17.38,-13.52 15.43,-15.46 15.43,-15.46" /><path
         id="path86"
         style="fill:#100f0d;fill-opacity:1;fill-rule:nonzero;stroke:none"
         d="m 10092.9,7200.18 c -143.17,0 -154.64,-200.47 -68.7,-234.84 -40.09,-45.83 -85.94,-504.05 -28.65,-824.85 -74.47,-91.66 -45.82,-217.69 17.15,-263.51 -171.82,0 -183.25,-217.65 0,-217.65 0,0 -74.4,0 -183.25,0 -108.85,0 -183.33,-40.11 -183.33,-108.85 -97.36,0 -125.99,0 -194.73,0 -68.74,0 -126.02,-45.81 -126.02,-103.1 0,-57.29 337.95,-194.76 767.53,-194.76" /><path
         id="path88"
         style="fill:#100f0d;fill-opacity:1;fill-rule:nonzero;stroke:none"
         d="m 10097.2,7569.51 c 5.9,107.7 191.4,191.48 394.9,65.82 203.4,-125.66 380.7,-330.23 719.5,-277.92 113.9,17.59 184.4,92.2 189.4,132.05 0,0 -52.3,14.97 -49.9,72.26 84.7,97.17 74.8,171.91 79.8,194.34 57.3,-94.68 74.7,-221.76 48.5,-294.27 -67.5,-187.1 -323.1,-233.36 -508.6,-197.46 -185.5,35.89 -489.5,246.2 -597.2,222.27 0,-155.59 -155,-208.9 -280.7,-208.9 -125.65,0 -280.63,53.31 -280.63,208.9 -107.7,23.93 -411.76,-186.38 -597.27,-222.27 -185.49,-35.9 -441.04,10.36 -508.62,197.46 -26.17,72.51 -8.72,199.59 48.58,294.27 5,-22.43 -4.97,-97.17 79.73,-194.34 2.49,-57.29 -49.82,-72.26 -49.82,-72.26 4.97,-39.85 75.47,-114.46 189.35,-132.05 338.82,-52.31 516.07,152.26 719.53,277.92 203.46,125.66 388.95,41.88 394.95,-65.82" /><path
         id="path90"
         style="fill:#100f0d;fill-opacity:1;fill-rule:nonzero;stroke:none"
         d="m 10516.1,6510.33 c 0,0 -18,-227.36 155.5,-359.03 173.6,-131.67 406.9,-71.79 406.9,-203.46 0,131.67 233.4,71.79 407,203.46 173.5,131.67 155.5,359.03 155.5,359.03 h -1124.9" /><path
         id="path92"
         style="fill:#100f0d;fill-opacity:1;fill-rule:nonzero;stroke:none"
         d="m 11110.8,7220.28 c 0,0 239.5,-79.17 287.8,-314.78 33.9,-165.5 112,-337.95 166.1,-365 54.1,-27.06 108.1,55.98 40.5,94.61 7.8,-36.68 -21.2,-54.07 -56,-17.38 -34.7,36.68 -76.1,142.24 -119.7,307.08 -52.2,196.98 -241.4,310.93 -334.1,310.93 17.4,-13.52 15.4,-15.46 15.4,-15.46" /><path
         id="path94"
         style="fill:#100f0d;fill-opacity:1;fill-rule:nonzero;stroke:none"
         d="m 11078,7228.03 c 0,0 -54.1,-86.94 -46.4,-193.15 7.8,-106.2 44.5,-451.93 21.3,-471.22 -23.2,-19.3 25.1,-23.16 25.1,-23.16 0,0 48.3,3.86 25.1,23.16 -23.2,19.29 13.5,365.02 21.2,471.22 7.8,106.21 -46.3,193.15 -46.3,193.15" /><path
         id="path96"
         style="fill:#100f0d;fill-opacity:1;fill-rule:nonzero;stroke:none"
         d="m 11045.2,7220.28 c 0,0 -239.5,-79.17 -287.8,-314.78 -33.9,-165.5 -112,-337.95 -166.1,-365 -54.1,-27.06 -108.1,55.98 -40.5,94.61 -7.8,-36.68 21.2,-54.07 56,-17.38 34.7,36.68 76.1,142.24 119.7,307.08 52.1,196.98 241.4,310.93 334.1,310.93 -17.4,-13.52 -15.4,-15.46 -15.4,-15.46" /><path
         id="path98"
         style="fill:#100f0d;fill-opacity:1;fill-rule:nonzero;stroke:none"
         d="m 10092.9,7675.63 c 0,0 171.9,17.19 171.9,183.3 0,166.1 -171.9,320.76 -171.9,492.6 0,-171.84 -171.82,-326.5 -171.82,-492.6 0,-166.11 171.82,-183.3 171.82,-183.3" /><path
         id="path100"
         style="fill:#100f0d;fill-opacity:1;fill-rule:nonzero;stroke:none"
         d="m 10092.9,7200.18 c 143.2,0 154.7,-200.47 68.8,-234.84 40,-45.83 85.9,-504.05 28.6,-824.85 74.5,-91.66 45.8,-217.69 -17.2,-263.51 171.8,0 183.3,-217.65 0,-217.65 0,0 74.5,0 183.3,0 108.8,0 183.3,-40.11 183.3,-108.85 97.4,0 126,0 194.7,0 68.8,0 126.1,-45.81 126.1,-103.1 0,-57.29 -338,-194.76 -767.6,-194.76" /><path
         id="path102"
         style="fill:#100f0d;fill-opacity:1;fill-rule:nonzero;stroke:none"
         d="m 10161.7,7240.29 c 0,-37.96 -30.8,-68.74 -68.8,-68.74 -37.9,0 -68.7,30.78 -68.7,68.74 0,37.96 30.8,68.74 68.7,68.74 38,0 68.8,-30.78 68.8,-68.74" /><path
         id="path104"
         style="fill:#100f0d;fill-opacity:1;fill-rule:nonzero;stroke:none"
         d="m 6405.11,2476 c 0,0 -204.04,123.8 -341.17,133.8 26.77,53.5 -40.12,287.6 -66.89,297.7 200.67,26.8 474.95,-150.5 408.06,-431.5" /><path
         id="path106"
         style="fill:#100f0d;fill-opacity:1;fill-rule:nonzero;stroke:none"
         d="m 5505.39,3168.4 c -190.66,-33.5 -652.23,-351.2 -411.41,-986.7 16.71,-50.2 16.71,-50.2 16.71,-50.2 0,0 130.47,3.3 167.25,0 -96.99,140.5 -177.26,725.8 227.45,1036.9" /><path
         id="path108"
         style="fill:#100f0d;fill-opacity:1;fill-rule:nonzero;stroke:none"
         d="M 3377.05,1872.1 H 1358.94 v 36.7 l 2018,8.6 c 0,45.9 -51.97,118.3 -71.48,140.6 133.68,-52.9 359.23,-159.7 376.87,-163.4 -44.56,-23.2 -336.96,-176.3 -341.59,-179.1 34.33,57.5 41.97,144.3 36.31,156.6" /><path
         id="path110"
         style="fill:#100f0d;fill-opacity:1;fill-rule:nonzero;stroke:none"
         d="m 180.816,1749.8 c 24.707,-27.2 37.055,-126 182.801,-177.9 145.754,-51.9 241.488,38.5 444.028,97.8 202.535,59.2 217.975,60.3 277.245,50.4 0,0 -27.17,22.2 -34.57,42 -7.4,19.8 -12.35,64.2 4.93,91.4 0,0 -9.87,-37.1 4.94,-69.2 22.22,-71.6 98.81,-98.8 190.21,-71.6 91.38,27.2 190.19,93.9 200.08,113.6 9.88,19.8 22.23,61.8 22.23,61.8 0,0 19.76,2.4 29.64,12.3 9.89,9.9 7.42,39.6 0,42 -7.41,2.5 -229.72,84 -298.88,66.7 -69.15,-17.3 -234.669,-76.6 -234.669,-76.6 -153.156,-32.1 -337.078,-52.1 -447.555,-30.8 -148.937,28.6 -295.973,8.6 -350.308,-48.2 -54.344,-56.8 2.476,-71.7 9.878,-103.7" /><path
         id="path112"
         style="fill:#100f0d;fill-opacity:1;fill-rule:nonzero;stroke:none"
         d="m 3042.97,1943.2 c 0,0 128.95,-2.8 177.65,0 -25.78,120.3 -85.81,705.6 -279.25,915.1 -136.9,148.2 -323.63,315.1 -418.15,415.3 -94.5,100.2 -146.08,183.2 -114.56,220.5 -20.04,28.7 -60.13,0 -71.59,-43 -11.46,-42.9 2.85,-83 37.22,-117.4 34.37,-34.3 312.44,-325.8 403.83,-432.5 154.66,-180.4 235.34,-642.7 264.85,-958" /><path
         id="path114"
         style="fill:#100f0d;fill-opacity:1;fill-rule:nonzero;stroke:none"
         d="M 3167.61,1527.1 C 3110.94,1303.2 3010.58,1034 2941.37,933.602 2826.82,767.5 2617.74,618.5 2523.22,518.301 c -94.5,-100.199 -146.08,-183.203 -114.56,-220.5 -20.04,-28.703 -60.13,0 -71.59,43 -11.46,42.898 2.85,83 37.22,117.398 34.37,34.301 312.44,325.801 403.83,432.5 110.93,129.401 182.08,403.901 235.65,665.101 65.08,-29.3 153.84,-28.7 153.84,-28.7" /><path
         id="path116"
         style="fill:#100f0d;fill-opacity:1;fill-rule:nonzero;stroke:none"
         d="m 1735.6,1881.6 c 0,0 -91.63,-91.6 -97.37,-120.3 -28.64,8.6 -91.66,0 -91.66,0 l 54.42,77.4 -71.61,-74.5 c -45.81,0 -85.91,0 -85.91,0 l 80.19,100.2 c -37.23,-42.9 -111.69,-100.2 -111.69,-100.2 l -91.65,20 38.62,124.6 376.66,-27.2" /><path
         id="path118"
         style="fill:#100f0d;fill-opacity:1;fill-rule:nonzero;stroke:none"
         d="m 1735.6,1887.4 c 0,0 -91.63,91.6 -97.37,120.3 -28.64,-8.6 -91.66,0 -91.66,0 l 54.42,-77.4 -71.61,74.5 c -45.81,0 -85.91,0 -85.91,0 l 80.19,-100.2 c -37.23,42.9 -111.69,100.2 -111.69,100.2 l -91.65,-20 38.62,-124.6 376.66,27.2" /><path
         id="path120"
         style="fill:#100f0d;fill-opacity:1;fill-rule:nonzero;stroke:none"
         d="m 344.641,1948.8 c 126.867,9.2 207.324,-24.8 284.683,-34.1 12.586,-1.5 28.309,-2.1 45.895,-2 l 0.308,1.2 c 0,0 -55.484,166.5 -178.808,188.1 104.058,26 200,-135.1 211.558,-188.2 89.887,4.8 211.856,26.2 283.11,62.8 114.483,58.8 297.053,52.6 371.323,55.7 10.84,0.5 46.35,-10.3 54.9,-17.8 -1.08,7.5 6.38,13.9 14.22,20.3 79.21,2.6 178.42,3.7 206.28,-5.6 37.14,-12.4 105.22,-89.7 105.22,-89.7 l 498.8,-4.2 c -220.83,130.1 -388.95,76.8 -440.65,103.8 -60.15,31.5 -51.55,80.2 -197.62,131.8 -146.07,51.5 -283.54,-5.7 -346.36,-48.4 -17.57,10.1 -85.31,90.4 -108.67,134.5 0,0 -19.67,0 -44.24,9.8 -167.07,51.6 -221.074,147.4 -220.137,161.5 54.809,-109.7 302.157,-178.7 376.567,-187.6 74.39,-9 116.09,11.9 107.16,29.8 -16.34,41.6 -11.9,154.8 -1.48,160.7 10.43,6 32.75,40.2 32.75,44.7 0,4.4 0,10.4 -35.73,16.3 -35.74,6 -107.19,7.4 -120.54,-1.5 -13.39,-8.9 -17.89,-23.8 -8.95,-25.3 8.95,-1.5 11.9,-7.4 5.95,-19.3 -13.4,-1.5 -43.15,19.3 -14.89,49.1 28.29,29.8 151.82,4.4 160.78,6 8.92,1.4 20.81,22.3 11.88,32.7 -8.94,10.4 -4.46,32.7 23.8,40.2 28.29,7.4 75.92,20.8 56.09,49.4 -7.37,10.5 -72.06,106.6 -95.14,144.1 -5.92,9.6 -7.05,18.8 -5.57,27.4 -1.3,0 -63.76,-23.8 -133.34,0.9 -12.7,6.4 -19.04,19.9 -17.45,23 3.97,-9.5 26.18,-23 65.1,-26.2 37.12,-3 50.75,1.1 55.77,4.5 -24.77,3.7 -52.7,11.4 -79.13,19.3 -40.21,11.7 -67.68,38.1 -76.69,48.5 -15.09,17.5 -10.33,55.6 5.57,58.8 16.4,3.2 27.7,-8.8 20.64,-18.3 -7.1,-9.5 -13.41,-6.3 -15.75,3.2 -11.85,-7.1 1.44,-45.3 31.61,-66 32.31,-22 72.26,-33.3 134.98,-40.4 3.9,-0.5 7.04,-0.6 10.35,-0.8 7.18,21.6 28.93,38 26.99,43.9 -2.89,8.7 0.83,95.5 -57.67,224.8 -75.08,166 -285.14,185.4 -346.27,184.3 -103.473,-1.9 -257.207,-36.4 -339.762,-236.3 -23.996,-66.5 -54.035,-147.9 -26.566,-345.3 22.863,-164.3 52.613,-229 52.613,-229 -3.086,-27.9 -129.988,-108.4 -191.859,-136.2 -61.875,-27.8 -244.465,-15.4 -371.332,-182.5 -126.86369,-167.2 -12.379,-309.5 0,-325 -6.196,49.5 92.839,139.3 219.707,148.6" /><path
         id="path122"
         style="fill:#100f0d;fill-opacity:1;fill-rule:nonzero;stroke:none"
         d="m 971.5,1448.4 c -92.484,-64.8 -299.051,-181.9 -419.289,-120.3 -120.238,61.7 -101.727,83.3 -141.82,92.5 24.648,9.3 101.726,-33.9 160.316,-61.6 58.586,-27.8 203.457,6.1 342.207,89.4 138.746,83.2 221.986,95.5 255.896,77 0,0 -104.83,-12.3 -197.31,-77 z m 2294.25,247.7 c 18.98,9.5 18.96,52.2 0,78.3 23.72,11.8 11.85,66.4 -4.75,66.4 l -0.86,5 c 0,0 -176.91,35.4 -186.56,9.6 -9.65,-25.7 14.46,-59.5 38.6,-86.8 -9.65,-24.2 -1.62,-82 11.26,-103 -28.95,24.2 -28.96,70.8 -25.74,99.8 -25.75,11.2 -49.87,48.2 -43.07,73 -47.37,0.2 -93.18,-42.7 -98.92,-71.4 -20.06,31.6 22.9,65.9 22.9,65.9 l -2.87,11.5 H 1729.47 l -76.92,-106 c 0,0 -117.42,0 -163.25,2.9 -45.83,2.8 -140.33,-14.3 -140.33,-14.3 -77.33,-37.2 -103.11,-48.7 -234.86,-34.4 C 982.359,1707 810.512,1629.6 698.813,1589.5 587.117,1549.4 458.23,1489.3 355.133,1523.6 203.035,1574.4 140.32,1772.8 140.32,1772.8 163.227,1489.3 246.285,1085.4 587.117,698.801 927.949,312.102 1569.17,37 2168.08,126 c 0,0 232.77,46.301 287.5,139.699 -16.1,-29 -115.91,-35.5 -172.94,-28.101 -194.74,11.8 -44.56,178.504 -71.81,298.601 -17.93,79.102 -119.34,202.899 -194.95,135.199 135.26,-51.699 43.94,-271.3 -139.23,-198.898 -151.86,60 -70.84,412.699 -106.63,380.898 C 1614.86,606.699 1079.4,616 1021.26,723.199 c 254.62,-147.301 732.04,91.5 728.79,172.903 -122.85,84.296 -173.34,202.598 -176.38,313.198 -103.22,-87.2 -540.23,-139 -577.502,-41.5 261.222,-91.5 517.642,45 578.382,81.1 6.46,86.4 41.67,164.1 92.66,212.5 -28.79,-4.1 -60.36,1 -119.18,17.8 -86.33,24.7 -203.47,74 -258.97,67.8 21.58,46.3 92.5,18.5 154.15,-3.1 50.12,-17.5 165.35,-59.5 254.76,-54.7 111.35,100.4 108.97,177.1 155.06,220.6 -23.13,7.7 -87.58,27 -127.52,55.7 -5.87,3.2 -10.72,6.5 -12.82,10.1 3.81,-3.5 8.27,-6.8 12.82,-10.1 26.25,-14 83.31,-23.5 116.06,-32.8 40.11,-11.5 57.28,-48.7 163.26,-71.6 105.98,-22.9 343.68,-17.2 343.68,-17.2 177.57,-100.2 383.8,-20.1 492.62,-20.1 108.84,0 131.76,-17.2 182.65,-36.8 107.89,-41.7 191.25,-19 212.59,-11.8 21.35,7.1 55.45,42.6 22.24,54.5 14.23,4.7 18.99,42.7 7.14,66.4" /><path
         id="path124"
         style="fill:#100f0d;fill-opacity:1;fill-rule:nonzero;stroke:none"
         d="m 1725.51,1765.5 c -4.55,3.3 -9.01,6.6 -12.82,10.1 2.1,-3.6 6.95,-6.9 12.82,-10.1" /><path
         id="path126"
         style="fill:#100f0d;fill-opacity:1;fill-rule:nonzero;stroke:none"
         d="m 2300.37,3430.8 c 0,0 -7.32,-76.9 43.97,-109.9 51.28,-33 54.94,-58.6 54.94,-58.6 -14.66,-3.7 -783.9,-1069.6 -783.9,-1069.6 -21.99,14.6 -25.65,11 -25.65,11 76.93,117.2 714.31,1011 714.31,1043.9 0,33 -51.3,142.9 -3.67,183.2" /><path
         id="path128"
         style="fill:#100f0d;fill-opacity:1;fill-rule:nonzero;stroke:none"
         d="m 2421.25,547.898 c 0,0 -117.23,-120.898 -113.57,-157.5 -3.66,62.301 -7.33,91.602 14.65,120.903 21.99,29.301 -677.67,901.099 -677.67,901.099 l 21.98,11 754.61,-875.502" /><path
         id="path130"
         style="fill:#100f0d;fill-opacity:1;fill-rule:nonzero;stroke:none"
         d="m 13842.5,7333.83 c 0,0 -36.4,-55.16 -49.2,-163.99 16.2,-21.16 -249.8,44.76 -319.8,62.87 -70,18.12 -6.7,107.58 16.9,130.78 4.3,-44.46 35.8,-61.05 103.7,-39.41 68,21.67 230.8,9.9 248.4,9.75" /><path
         id="path132"
         style="fill:#100f0d;fill-opacity:1;fill-rule:nonzero;stroke:none"
         d="m 13471.9,7372.5 c 0,0 -65.4,-52.28 -65.4,-94.1 -60.1,41.82 -104.5,146.37 -86.2,203.86 49.6,65.35 117.6,67.96 117.6,67.96 -18.3,-28.75 -44.4,-44.43 -5.2,-78.41 39.2,-33.98 49.6,-54.88 39.2,-99.31" /><path
         id="path134"
         style="fill:#100f0d;fill-opacity:1;fill-rule:nonzero;stroke:none"
         d="m 13440.6,7570.78 c 0,0 -60.6,9.61 -94.1,-31.35 -58.3,-71.26 -62.3,3.69 -70.1,11.52 -7.9,7.84 -65.6,144.21 -47.3,319.3 18.2,175.11 220.7,496.7 553.9,492.48 -191.3,-39.14 -439.6,-259.9 -392.3,-606.79 35.4,-67.01 106.4,7.89 82.8,47.31 -23.7,39.42 -51.3,295.64 185.2,409.95 -201,-173.43 -70.9,-354.77 -55.1,-457.26 15.7,-102.49 -105.2,-181.1 -163,-185.16" /><path
         id="path136"
         style="fill:#100f0d;fill-opacity:1;fill-rule:nonzero;stroke:none"
         d="m 13828.2,5368.98 c 143.8,-38.2 198.9,-14.41 225.8,61.15 26.9,75.58 -89.2,143.88 -173.8,145.7 -84.5,1.71 -294.6,81.08 -223.1,249.91 -145.6,-66.63 -29.2,-403.6 171.1,-456.76" /><path
         id="path138"
         style="fill:#100f0d;fill-opacity:1;fill-rule:nonzero;stroke:none"
         d="m 14398.4,6137.6 c 3.6,40.45 -15.6,81.5 0,121.94 l -219,25.98 -141.1,-33.63 c 0.4,-1.65 -4.5,-4.23 -4,-5.91 13.7,-46.21 15.8,-99.21 35.4,-141.3 l 109.4,54.91 219.3,-21.99" /><path
         id="path140"
         style="fill:#100f0d;fill-opacity:1;fill-rule:nonzero;stroke:none"
         d="m 14132,5489.71 c -6.7,-5.11 -13.8,-9.81 -21.4,-14.04 l 46.2,-31.31 10.2,-46.96 c 35.6,10 67.1,24.24 94.4,41.72 l -37.8,47.63 -91.6,2.96" /><path
         id="path142"
         style="fill:#100f0d;fill-opacity:1;fill-rule:nonzero;stroke:none"
         d="m 14098.6,5469.53 c -11.3,-5.26 -23.3,-9.9 -36.4,-13.05 -57.6,-13.83 -32.6,-80.69 40.4,-72.09 17.8,2.07 34.4,5.43 50.5,9.32 l -17.5,45.78 -37,30.04" /><path
         id="path144"
         style="fill:#100f0d;fill-opacity:1;fill-rule:nonzero;stroke:none"
         d="m 14441.7,5836.05 c -5.3,43.76 -16.8,69.3 -24,107.46 l -184.6,10.68 -90.7,-47.63 c 10.5,-17.29 21.1,-34.74 32,-52.57 12.5,-20.27 22.1,-43.29 29.3,-67.52 l 111.3,59.2 126.7,-9.62" /><path
         id="path146"
         style="fill:#100f0d;fill-opacity:1;fill-rule:nonzero;stroke:none"
         d="m 14420.9,5969.19 c -9.3,46.78 -16.4,80.25 -22.5,115.48 -1.3,7.63 2,21.02 1.6,28.9 l -211.2,12.56 -113.2,-52.83 c 22.6,-45.11 26.6,-99.86 53.8,-145.26 l 98.9,47.62 192.6,-6.47" /><path
         id="path148"
         style="fill:#100f0d;fill-opacity:1;fill-rule:nonzero;stroke:none"
         d="m 14436.9,5691.68 c 2.7,20.85 4.4,33.19 3.2,52.93 -1.1,17.86 3.4,45.38 1.6,62.56 l -148.3,9.94 -85.1,-47.13 c 7.7,-31.61 33,-53.4 31.3,-86.32 16.9,5.88 63.8,18.06 76.6,18.06 11.8,0 97.7,-2.52 120.7,-10.04" /><path
         id="path150"
         style="fill:#100f0d;fill-opacity:1;fill-rule:nonzero;stroke:none"
         d="m 14306.5,5677.26 c -12.5,-2.49 -41,-8.76 -65.3,-16.05 -2.3,-20.41 -4.9,-48.44 -11.2,-67.39 l 72.2,-1.58 85,-48.13 c 20.7,35 39.4,81.35 46.5,118.71 -25.2,7.12 -114.3,17.02 -127.2,14.44" /><path
         id="path152"
         style="fill:#100f0d;fill-opacity:1;fill-rule:nonzero;stroke:none"
         d="m 14217.2,5572.97 c -10.2,-21.38 -49.6,-50.04 -66,-66.58 l 82.2,1.53 45.5,-57.26 c 27.3,20.04 68.8,37.56 87.4,62.97 l -95.4,55.44 -53.7,3.9" /><path
         id="path154"
         style="fill:#100f0d;fill-opacity:1;fill-rule:nonzero;stroke:none"
         d="m 14393.8,6280.35 c 27.2,66.55 58.8,126.23 63.2,161.24 2.6,21.31 -169.1,71.99 -234.1,132.81 0,0 -104.6,-78.91 -184.7,-107.41 -58.4,-20.74 -74.9,-57.59 -74.9,-57.59 0,0 27.6,-21.95 53.4,-126.13 28.4,11.34 84.9,31.61 151.9,31.61 69.8,0 196.1,-27.89 225.2,-34.53" /><path
         id="path156"
         style="fill:#100f0d;fill-opacity:1;fill-rule:nonzero;stroke:none"
         d="m 13840.3,7133.79 c 0,0 -199.2,-7.76 -212.2,-7.76 -12.9,0 -75,7.76 -75,7.76 0,0 -113.9,-119.06 -126.9,-119.06 -5.1,-51.75 -31,-163.03 -31,-163.03 46.6,64.69 72.5,163.03 72.5,163.03 72.4,12.95 125.1,50.85 125.1,50.85 l 269.2,-14.32 -11.3,87.7" /><path
         id="path158"
         style="fill:#100f0d;fill-opacity:1;fill-rule:nonzero;stroke:none"
         d="m 13866.2,7012.14 c 0,0 -196.6,-18.12 -263.9,2.59 -15.6,-25.88 -106.2,-85.4 -106.2,-85.4 -2.6,-62.11 -62.1,-183.76 -62.1,-183.76 64.7,28.46 113.9,160.47 113.9,160.47 62.1,18.12 100.9,49.16 100.9,49.16 80.3,-28.45 235.6,-5.17 235.6,-5.17 l -18.2,62.11" /><path
         id="path160"
         style="fill:#100f0d;fill-opacity:1;fill-rule:nonzero;stroke:none"
         d="m 13892.1,6859.45 c 0,0 -157.8,-2.58 -199.3,12.94 -23.2,-31.07 -98.3,-67.28 -113.8,-67.28 7.7,-56.96 -36.3,-176.04 -51.8,-188.96 80.2,5.2 106.1,137.21 106.1,147.54 49.2,-12.95 93.2,46.59 93.2,46.59 80.2,-28.46 173.4,-15.54 173.4,-15.54 l -7.8,64.71" /><path
         id="path162"
         style="fill:#100f0d;fill-opacity:1;fill-rule:nonzero;stroke:none"
         d="m 13918,6706.74 c 0,0 -124.2,-7.76 -150.1,18.12 -36.3,-25.88 -59.5,-54.37 -100.9,-59.54 -25.9,-49.17 -33.7,-132.01 -85.5,-165.64 101,36.25 126.8,116.51 126.8,126.84 49.3,5.17 77.7,38.8 77.7,38.8 54.3,-28.46 160.5,-25.88 160.5,-25.88 l -28.5,67.3" /><path
         id="path164"
         style="fill:#100f0d;fill-opacity:1;fill-rule:nonzero;stroke:none"
         d="m 14591.9,7333.83 c 0,0 36.3,-55.16 49.2,-163.99 -16.3,-21.16 249.7,44.76 319.7,62.87 70,18.12 6.7,107.58 -16.9,130.78 -4.3,-44.46 -35.7,-61.05 -103.7,-39.41 -67.9,21.67 -230.8,9.9 -248.3,9.75" /><path
         id="path166"
         style="fill:#100f0d;fill-opacity:1;fill-rule:nonzero;stroke:none"
         d="m 14962.5,7372.5 c 0,0 65.3,-52.28 65.3,-94.1 60.1,41.82 104.5,146.37 86.2,203.86 -49.6,65.35 -117.6,67.96 -117.6,67.96 18.3,-28.75 44.5,-44.43 5.3,-78.41 -39.2,-33.98 -49.7,-54.88 -39.2,-99.31" /><path
         id="path168"
         style="fill:#100f0d;fill-opacity:1;fill-rule:nonzero;stroke:none"
         d="m 14993.7,7570.78 c 0,0 60.6,9.61 94.1,-31.35 58.3,-71.26 62.3,3.69 70.2,11.52 7.8,7.84 65.5,144.21 47.3,319.3 -18.3,175.11 -220.8,496.7 -554,492.48 191.3,-39.14 439.7,-259.9 392.4,-606.79 -35.5,-67.01 -106.5,7.89 -82.8,47.31 23.6,39.42 51.2,295.64 -185.3,409.95 201,-173.43 70.9,-354.77 55.2,-457.26 -15.8,-102.49 105.1,-181.1 162.9,-185.16" /><path
         id="path170"
         style="fill:#100f0d;fill-opacity:1;fill-rule:nonzero;stroke:none"
         d="m 14213.5,6520.4 c 238.1,0 251.1,-88.01 315.8,-82.84 64.7,5.17 54.3,116.46 15.5,103.54 0,0 28.5,-12.95 18.2,-28.46 -31.1,-28.46 -64.7,7.76 -66.2,46.09 -1,27.48 13.6,49.8 45.3,149.42 31.7,99.61 68,430.14 68,430.14 l -22.7,163.02 c 0,0 -45.3,95.08 -86,113.19 -40.8,18.11 -284.2,63.38 -284.2,63.38 0,0 -243.5,-45.27 -284.2,-63.38 -40.8,-18.11 -86.1,-113.19 -86.1,-113.19 l -22.6,-163.02 c 0,0 36.2,-330.53 67.9,-430.14 31.7,-99.62 46.3,-121.94 45.3,-149.42 -1.4,-38.33 -35.1,-74.55 -66.1,-46.09 -10.4,15.51 18.1,28.46 18.1,28.46 -38.8,12.92 -49.2,-98.37 15.5,-103.54 64.7,-5.17 77.7,82.84 315.8,82.84" /><path
         id="path172"
         style="fill:#100f0d;fill-opacity:1;fill-rule:nonzero;stroke:none"
         d="m 14594,7133.79 c 0,0 199.2,-7.76 212.2,-7.76 13,0 75,7.76 75,7.76 0,0 113.9,-119.06 126.9,-119.06 5.1,-51.75 31,-163.03 31,-163.03 -46.6,64.69 -72.4,163.03 -72.4,163.03 -72.5,12.95 -125.2,50.85 -125.2,50.85 l -269.2,-14.32 11.3,87.7" /><path
         id="path174"
         style="fill:#100f0d;fill-opacity:1;fill-rule:nonzero;stroke:none"
         d="m 14568.1,7012.14 c 0,0 196.7,-18.12 264,2.59 15.5,-25.88 106.1,-85.4 106.1,-85.4 2.6,-62.11 62.1,-183.76 62.1,-183.76 -64.7,28.46 -113.9,160.47 -113.9,160.47 -62.1,18.12 -100.9,49.16 -100.9,49.16 -80.2,-28.45 -235.5,-5.17 -235.5,-5.17 l 18.1,62.11" /><path
         id="path176"
         style="fill:#100f0d;fill-opacity:1;fill-rule:nonzero;stroke:none"
         d="m 14542.2,6859.45 c 0,0 157.9,-2.58 199.3,12.94 23.3,-31.07 98.3,-67.28 113.9,-67.28 -7.8,-56.96 36.2,-176.04 51.8,-188.96 -80.3,5.2 -106.2,137.21 -106.2,147.54 -49.1,-12.95 -93.1,46.59 -93.1,46.59 -80.3,-28.46 -173.5,-15.54 -173.5,-15.54 l 7.8,64.71" /><path
         id="path178"
         style="fill:#100f0d;fill-opacity:1;fill-rule:nonzero;stroke:none"
         d="m 14516.3,6706.74 c 0,0 124.3,-7.76 150.1,18.12 36.3,-25.88 59.5,-54.37 101,-59.54 25.9,-49.17 33.6,-132.01 85.4,-165.64 -100.9,36.25 -126.8,116.51 -126.8,126.84 -49.2,5.17 -77.7,38.8 -77.7,38.8 -54.3,-28.46 -160.5,-25.88 -160.5,-25.88 l 28.5,67.3" /><path
         id="path180"
         style="fill:#100f0d;fill-opacity:1;fill-rule:nonzero;stroke:none"
         d="m 13979.4,7419.53 29.4,113.83 210,74.58 206.1,-54.96 33.4,-135.41 -290.5,-58.87 -188.4,60.83" /><path
         id="path182"
         style="fill:#100f0d;fill-opacity:1;fill-rule:nonzero;stroke:none"
         d="m 14087.3,7551.02 c 0,0 5.9,33.36 27.5,68.69 21.6,35.32 62.9,43.18 82.5,45.14 -23.6,-17.67 -29.5,-31.4 -31.5,-43.18 -1.9,-11.78 6,-27.47 6,-27.47 l 5.8,-11.78 -90.3,-31.4" /><path
         id="path184"
         style="fill:#100f0d;fill-opacity:1;fill-rule:nonzero;stroke:none"
         d="m 14358.2,7551.02 c 0,0 -5.9,33.36 -27.5,68.69 -21.6,35.32 -62.8,43.18 -82.4,45.14 23.5,-17.67 29.4,-31.4 31.4,-43.18 1.9,-11.78 -5.9,-27.47 -5.9,-27.47 l -5.9,-11.78 90.3,-31.4" /><path
         id="path186"
         style="fill:#100f0d;fill-opacity:1;fill-rule:nonzero;stroke:none"
         d="m 5391.67,12471.9 c -177.15,-13.3 -301.12,194.9 -270.13,358.7 30.99,163.9 163.86,283.4 234.71,336.6 70.84,53.1 97.41,101.8 97.41,132.8 61.99,-13.3 110.71,-270.1 75.28,-336.5 -35.42,-66.4 -99.89,-142 -57.57,-155 57.57,-17.7 110.71,-17.7 110.71,-17.7 l -190.41,-318.9" /><path
         id="path188"
         style="fill:#f9ba0f;fill-opacity:1;fill-rule:nonzero;stroke:none"
         d="m 5162.86,11012.7 c 0,0 88.1,27.5 143.16,22 55.06,-5.5 159.68,-71.6 159.68,-71.6 l -16.52,-66 -176.21,77 c 0,0 181.73,-165.1 198.25,-165.1 16.51,0 33.02,49.5 33.02,49.5 0,0 49.56,99.1 33.05,132.2 -16.52,33 -236.79,104.6 -264.32,104.6 -27.52,0 -110.11,-82.6 -110.11,-82.6" /><path
         id="path190"
         style="fill:#f9ba0f;fill-opacity:1;fill-rule:nonzero;stroke:none"
         d="m 5570.33,12169 c 49.55,-33 38.53,-93.6 -11.02,-165.2 -49.56,-71.6 -165.19,-148.6 -165.19,-148.6 77.1,-11 159.68,38.5 192.72,77.1 33.04,38.5 104.62,154.1 82.6,192.7 -22.01,38.5 -27.54,93.6 -99.11,44" /><path
         id="path192"
         style="fill:#100f0d;fill-opacity:1;fill-rule:nonzero;stroke:none"
         d="m 5586.84,11932.3 c -33.04,-38.6 -115.62,-88.1 -192.72,-77.1 0,0 115.63,77 165.19,148.6 49.55,71.6 60.57,132.2 11.02,165.2 71.57,49.6 77.1,-5.5 99.11,-44 22.02,-38.6 -49.56,-154.2 -82.6,-192.7 z m -49.55,-941.6 c 16.51,-33.1 -33.05,-132.2 -33.05,-132.2 0,0 -16.51,-49.5 -33.02,-49.5 -16.52,0 -198.25,165.1 -198.25,165.1 l 176.21,-77 16.52,66 c 0,0 -104.62,66.1 -159.68,71.6 -55.06,5.5 -143.16,-22 -143.16,-22 0,0 82.59,82.6 110.11,82.6 27.53,0 247.8,-71.6 264.32,-104.6 z m 2252.92,877.9 c 0,397.6 -127.01,765.4 -342.12,1065.7 -1.87,1.8 -3.73,3.9 -5.61,5.6 -178.11,-79.6 -308.36,-71.6 -308.36,-71.6 0,0 0,0 -77.07,-11 -26.41,-3.8 -98.69,-0.4 -192.47,8.3 23.91,-180.7 -38.18,-362.6 -174.25,-494.6 -85.38,-82.8 -271.4,-142.9 -442.33,-142.9 -158.15,0 -273.32,49.7 -324.3,139.9 -59.98,106.1 -62.91,220.8 -8.09,314.8 38.59,66.2 100.99,108.9 158.96,108.9 124.16,0 187.51,-13.7 233.76,-23.8 40.9,-8.8 70.89,-14.2 116.72,-7.5 62.23,9.3 73.5,69.7 71.5,152.9 -86.94,14.5 -170.15,30.9 -237.92,48.6 -253.29,66.1 -501.09,0 -583.66,-110.1 0,0 -192.73,-330.4 -258.81,-457 -34.19,-65.5 -110.11,-242.3 -126.64,-291.9 -16.53,-49.5 -33.02,-104.6 5.5,-154.1 38.53,-49.6 55.07,-104.7 66.07,-121.2 11.01,-16.5 -108.82,-529.3 -148.66,-622.2 -33.06,-77.1 -165.2,-231.3 -165.2,-231.3 0,0 330.36,-198.2 451.51,-231.2 121.14,-33 181.71,264.3 187.21,302.8 4.69,32.9 -94.18,125.2 -161.12,162.3 59.52,-27 184.34,-87.5 205.17,-129.2 27.54,-55.1 -38.53,-247.8 -60.56,-286.4 -22.03,-38.5 -44.05,-99.1 -44.05,-99.1 0,0 330.36,-77 352.39,-143.1 27.54,77.1 38.57,110.1 38.57,110.1 165.2,594.7 693.78,622.2 754.37,693.8 60.58,71.5 126.63,363.4 99.11,418.5 55.06,-132.2 -5.51,-313.9 -55.06,-435 155.44,-124.4 299.04,-666.3 196.14,-968.4 471.17,331.7 779.3,879.4 779.3,1499.4" /><path
         id="path194"
         style="fill:#211c1d;fill-opacity:1;fill-rule:nonzero;stroke:none"
         d="m 6432.6,12709.5 c -53.87,-8.1 -91.71,-1.4 -135.21,8.1 -46.41,10 -104.19,22.6 -222.82,22.6 -39.36,0 -85.34,-33.5 -114.44,-83.4 -21.44,-36.7 -63.57,-136 8.44,-263.4 55.92,-99 199.09,-113.7 279.43,-113.7 156.26,0 330.98,55.2 406.45,128.4 127.09,123.2 183.36,294.2 157.2,462.7 -4.72,30.3 -11.79,60.7 -21.95,90.6 -29.46,86.6 -54.69,145.6 -73.14,188.6 -18.29,42.8 -31.01,72.5 -32.86,97.8 -103.83,-30.9 -143.78,-166.3 -140.56,-237.1 0.52,-11.2 1.32,-23.1 2.15,-35.6 1.44,-21.6 2.97,-45.6 3.22,-70.2 0.9,-87 -15.12,-180.5 -115.91,-195.4" /><path
         id="path196"
         style="fill:#100f0d;fill-opacity:1;fill-rule:nonzero;stroke:none"
         d="m 340.797,10804.7 c -1.766,2.5 -3.508,4.9 -5.254,7.4 1.746,-2.5 3.488,-4.9 5.254,-7.4" /><path
         id="path198"
         style="fill:#100f0d;fill-opacity:1;fill-rule:nonzero;stroke:none"
         d="m 636.594,10480.6 c -2.489,2.1 -4.989,4.3 -7.473,6.4 2.484,-2.1 4.965,-4.3 7.473,-6.4" /><path
         id="path200"
         style="fill:#100f0d;fill-opacity:1;fill-rule:nonzero;stroke:none"
         d="m 4.25781,11749.5 c 0,0 0.01953,-0.1 0.01953,-0.1 0,0.1 -0.01953,0.2 -0.01953,0.3 0,-0.1 0,-0.1 0,-0.2" /><path
         id="path202"
         style="fill:#100f0d;fill-opacity:1;fill-rule:nonzero;stroke:none"
         d="m 15.9375,11630.2 c -0.3555,2.7 -0.707,5.5 -1.0547,8.3 0.3477,-2.8 0.6992,-5.6 1.0547,-8.3" /><path
         id="path204"
         style="fill:#100f0d;fill-opacity:1;fill-rule:nonzero;stroke:none"
         d="m 89.5273,11302.5 c 0,0 0.0196,-0.1 0.0196,-0.1 0,0 -0.0196,0.1 -0.0352,0.1 h 0.0156" /><path
         id="path206"
         style="fill:#100f0d;fill-opacity:1;fill-rule:nonzero;stroke:none"
         d="m 404.664,10720.3 c -0.312,0.4 -0.633,0.8 -0.949,1.3 0.316,-0.5 0.637,-0.9 0.949,-1.3" /><path
         id="path208"
         style="fill:#100f0d;fill-opacity:1;fill-rule:nonzero;stroke:none"
         d="m 129.148,11192.9 c -1.089,2.7 -2.183,5.5 -3.253,8.2 1.07,-2.7 2.164,-5.5 3.253,-8.2" /><path
         id="path210"
         style="fill:#100f0d;fill-opacity:1;fill-rule:nonzero;stroke:none"
         d="m 171.422,11094.6 c -0.051,0.1 -0.082,0.2 -0.137,0.3 0.055,-0.1 0.086,-0.3 0.137,-0.3" /><path
         id="path212"
         style="fill:#100f0d;fill-opacity:1;fill-rule:nonzero;stroke:none"
         d="m 551.93,10558.1 h -0.02 0.02" /><path
         id="path214"
         style="fill:#100f0d;fill-opacity:1;fill-rule:nonzero;stroke:none"
         d="m 1001.57,10235.2 c -2.863,1.4 -5.757,2.9 -8.625,4.4 2.868,-1.5 5.762,-3 8.625,-4.4" /><path
         id="path216"
         style="fill:#100f0d;fill-opacity:1;fill-rule:nonzero;stroke:none"
         d="m 1098.21,10189.3 c -0.87,0.4 -1.71,0.8 -2.58,1.1 0.87,-0.3 1.71,-0.7 2.58,-1.1" /><path
         id="path218"
         style="fill:#100f0d;fill-opacity:1;fill-rule:nonzero;stroke:none"
         d="m 1.8125,11796.6 c -0.921875,23.9 -1.8125,47.9 -1.8125,72 0,-24.1 0.765625,-48.1 1.8125,-72" /><path
         id="path220"
         style="fill:#100f0d;fill-opacity:1;fill-rule:nonzero;stroke:none"
         d="m 718.418,10413.8 c -0.66,0.5 -1.273,1 -1.93,1.5 0.657,-0.5 1.27,-1 1.93,-1.5" /><path
         id="path222"
         style="fill:#f9ba0f;fill-opacity:1;fill-rule:nonzero;stroke:none"
         d="m 551.91,10558.1 c -52.226,51.1 -101.39,105.3 -147.246,162.2 45.867,-56.9 95.008,-111.1 147.246,-162.2" /><path
         id="path224"
         style="fill:#f9ba0f;fill-opacity:1;fill-rule:nonzero;stroke:none"
         d="m 716.488,10415.3 c -27.273,21 -53.871,42.8 -79.894,65.3 26.023,-22.5 52.621,-44.3 79.894,-65.3" /><path
         id="path226"
         style="fill:#f9ba0f;fill-opacity:1;fill-rule:nonzero;stroke:none"
         d="m 629.121,10487 c -26.383,23 -52.172,46.7 -77.191,71.1 25.019,-24.4 50.808,-48.1 77.191,-71.1" /><path
         id="path228"
         style="fill:#f9ba0f;fill-opacity:1;fill-rule:nonzero;stroke:none"
         d="m 1095.63,10190.4 c -31.85,14.1 -63.18,29 -94.06,44.8 30.88,-15.8 62.21,-30.7 94.06,-44.8" /><path
         id="path230"
         style="fill:#f9ba0f;fill-opacity:1;fill-rule:nonzero;stroke:none"
         d="m 992.945,10239.6 c -96.847,50 -188.707,108.3 -274.527,174.2 85.84,-65.9 177.668,-124.2 274.527,-174.2" /><path
         id="path232"
         style="fill:#f9ba0f;fill-opacity:1;fill-rule:nonzero;stroke:none"
         d="m 125.895,11201.1 c -13.028,33.3 -25.243,67.1 -36.3481,101.3 11.1051,-34.2 23.3051,-67.9 36.3481,-101.3" /><path
         id="path234"
         style="fill:#f9ba0f;fill-opacity:1;fill-rule:nonzero;stroke:none"
         d="m 14.8828,11638.5 c -4.5859,36.6 -8.20702,73.6 -10.60546,110.9 2.39844,-37.3 6.01956,-74.3 10.60546,-110.9" /><path
         id="path236"
         style="fill:#f9ba0f;fill-opacity:1;fill-rule:nonzero;stroke:none"
         d="m 4.25781,11749.7 c -1.00781,15.6 -1.74609,31.3 -2.44531,46.9 0.60547,-15.7 1.4375,-31.3 2.44531,-46.9" /><path
         id="path238"
         style="fill:#f9ba0f;fill-opacity:1;fill-rule:nonzero;stroke:none"
         d="m 335.543,10812.1 c -62.684,88.7 -117.77,183.1 -164.121,282.5 46.367,-99.4 101.43,-193.8 164.121,-282.5" /><path
         id="path240"
         style="fill:#f9ba0f;fill-opacity:1;fill-rule:nonzero;stroke:none"
         d="m 89.5117,11302.5 c -34.1836,105.4 -58.9414,214.9 -73.5742,327.7 14.668,-112.8 39.3906,-222.3 73.5742,-327.7" /><path
         id="path242"
         style="fill:#f9ba0f;fill-opacity:1;fill-rule:nonzero;stroke:none"
         d="m 403.715,10721.6 c -21.766,27 -42.695,54.8 -62.918,83.1 20.223,-28.3 41.152,-56.1 62.918,-83.1" /><path
         id="path244"
         style="fill:#f9ba0f;fill-opacity:1;fill-rule:nonzero;stroke:none"
         d="m 171.285,11094.9 c -15.008,32.1 -28.98,64.9 -42.137,98 13.157,-33.1 27.129,-65.8 42.137,-98" /><path
         id="path246"
         style="fill:#211c1d;fill-opacity:1;fill-rule:nonzero;stroke:none"
         d="m 3087.3,12246.8 c 4.44,47.3 8.53,92.7 12.24,135.4 -42.36,-49.2 -99.98,-132.2 -140.3,-210.4 -50.62,-98.2 -315.51,-593.5 -870.27,-593.5 -7.97,0 -16.04,0.1 -24.12,0.3 -517.12,13.2 -761.3,403.2 -752.06,785.8 5.54,230.1 124.4,758.6 909.9,820.6 h 15.59 c 226.01,-13.3 332.81,-81.9 391.59,-150.1 56.69,-65.7 86.51,-150.1 79.8,-225.7 -12.56,-141.1 -158.27,-247.6 -338.94,-247.6 l -11.33,0.1 c -277.76,-9 -401.19,-85.4 -397.55,-276.2 3.6,-187.4 200.02,-256.9 320.39,-256.9 22.17,0 43.42,2.1 63.12,6.3 90.95,19.2 203.09,125.6 321.82,238.2 115.82,109.8 252.04,206.4 389.49,280.6 -123.72,350.4 -283.55,734.1 -888.09,738.6 -1077.39,8.1 -1820.783,-668 -2027.92,-718.8 C 50.1563,12356.5 0,12118.4 0,11868.6 c 0,-24.1 0.890625,-48.1 1.8125,-72 0.69922,-15.6 1.4375,-31.3 2.44531,-46.9 0,-0.1 0.01953,-0.2 0.01953,-0.3 2.39844,-37.3 6.01956,-74.3 10.60546,-110.9 0.3477,-2.8 0.6992,-5.6 1.0547,-8.3 14.6328,-112.8 39.3906,-222.3 73.5742,-327.7 0.0156,0 0.0352,-0.1 0.0352,-0.1 11.1051,-34.2 23.3201,-68 36.3481,-101.3 1.07,-2.7 2.164,-5.5 3.253,-8.2 13.157,-33.1 27.129,-65.9 42.137,-98 0.055,-0.1 0.086,-0.2 0.137,-0.3 46.351,-99.4 101.437,-193.8 164.121,-282.5 1.746,-2.5 3.488,-4.9 5.254,-7.4 20.223,-28.3 41.152,-56.1 62.918,-83.1 0.316,-0.5 0.637,-0.9 0.949,-1.3 45.856,-56.9 95.02,-111.1 147.246,-162.2 h 0.02 c 25.019,-24.4 50.808,-48.1 77.191,-71.1 2.484,-2.1 4.984,-4.3 7.473,-6.4 26.023,-22.5 52.621,-44.3 79.894,-65.3 0.657,-0.5 1.27,-1 1.93,-1.5 85.82,-65.9 177.68,-124.2 274.527,-174.2 2.868,-1.5 5.762,-3 8.625,-4.4 30.88,-15.8 62.21,-30.7 94.06,-44.8 0.87,-0.3 1.71,-0.7 2.58,-1.1 67.74,-29.7 137.59,-55.4 209.3,-76.8 12.19,9.1 19.9,15.3 19.9,15.3 -224.22,215.2 -265.22,488.8 -239.76,735 17.58,170 67.39,312.1 121.19,298.7 0,0 61.37,141 2.6,350.9 100.76,-142.7 125.93,-453.4 74.19,-719.5 148.44,-229.8 398.53,-199.1 452.57,-228.2 -55.85,64.5 -25.51,181.2 34.64,232.7 60.14,51.6 196.96,82 211.62,-9.6 -47.62,69.6 -228.81,-20.4 -211.62,-166.5 17.18,-146 305.02,-167.5 326.95,-80.4 17.96,89.8 224.55,543.4 282.93,610.8 12.31,14.2 24.44,26.1 36.58,36.7 -64.92,4.3 -154.18,94.8 -163.55,139.7 -10.27,49.1 13.67,95.3 61.57,104 47.88,8.7 102.59,-26 71.8,-54.9 -10.27,28.9 -82.07,31.8 -82.07,-26 0,-54.8 52.49,-124.7 119.15,-156.5 43.09,35.9 86.82,53.5 140.62,73.7 27.53,98.1 428.37,499.5 477.55,563.3 5.21,46 10.08,90.5 14.71,133.8 29.39,153.3 101.4,345.3 204.1,341.2 -11.42,30.4 -107,5.6 -175.88,-59.9" /><path
         id="path248"
         style="fill:#211c1d;fill-opacity:1;fill-rule:nonzero;stroke:none"
         d="m 2357.48,11977.7 c -23.7,-5 -49.01,-7.6 -75.22,-7.6 -172.97,0 -358.91,109.7 -362.8,312.8 -5.46,284.5 219.2,330.1 439.69,337.2 l 11.58,-0.1 c 164.91,0 272.25,98.8 280.74,194.4 5.36,60.2 -19.26,128.3 -65.84,182.4 -51.26,59.4 -155.21,132.7 -359.52,145.2 -709.78,-56.9 -826.52,-511.1 -832.93,-777 -7.88,-327.7 163.68,-715 673.15,-728 535.89,-12.7 808.22,462.1 856.82,556.4 52.01,100.9 108.12,176.8 163.97,234.3 93.83,96.4 186.92,140.5 258.53,161.8 -97.14,9.3 -191.05,-20.5 -281.15,-70.8 -127.41,-71.1 -247.14,-183.7 -357.11,-288 -130.31,-123.6 -242.83,-230.3 -349.91,-253" /><path
         id="path250"
         style="fill:#211c1d;fill-opacity:1;fill-rule:nonzero;stroke:none"
         d="m 766.465,12990.1 c 201.508,100.7 814.385,277 814.385,277 -905.631,-174.4 -1030.467,-179.5 -772.623,121.5 -166.317,-112.3 -312.969,-251.5 -434.356,-410.9 -74.828,-103 -134.652,-202.5 -169.945,-273.1 50.375,16.8 361.019,184.7 562.539,285.5" /><path
         id="path252"
         style="fill:#211c1d;fill-opacity:1;fill-rule:nonzero;stroke:none"
         d="m 8668.8,10711.3 c 0,0.6 0.03,1.1 0.03,1.7 -3.76,6.8 -5.63,10.6 -5.63,10.6 l 5.6,-12.3" /><path
         id="path254"
         style="fill:#211c1d;fill-opacity:1;fill-rule:nonzero;stroke:none"
         d="m 9728.69,10364.5 c 23.29,66 40.51,112.9 43.43,188.2 2.92,75.3 -31.85,185.3 23.16,367.7 55.01,182.4 243.22,292.5 335.82,315.6 92.7,23.2 240.4,46.4 367.7,84 127.4,37.6 147.7,141.9 165.1,275.1 -37.7,-20.3 -228.8,-46.3 -278,-37.7 -49.2,8.7 -89.7,43.5 -75.3,81.1 29,55 29,173.7 23.2,196.9 -5.8,23.2 -20.3,55 -46.3,92.7 -26.1,37.6 -29,37.6 -11.6,72.3 -11.6,26.1 2.9,40.5 2.9,63.7 0,23.2 -49.2,37.7 -98.5,57.9 -49.2,20.3 -43.4,55 -28.9,75.3 14.5,20.3 139,196.9 147.7,237.4 8.7,40.6 -37.7,86.9 -37.7,118.7 0,31.9 37.7,220.1 79.3,324.9 -113.4,237.8 -378.15,299.1 -539.88,302.1 -95.55,1.7 -423.87,-28.7 -541.21,-288.1 -91.46,-202.1 -85.62,-337.9 -90.11,-351.4 -3.06,-9.1 30.93,-34.8 42.16,-68.5 5.15,0.3 10.06,0.4 16.17,1.1 98.03,11.2 160.5,28.8 210.97,63.3 47.16,32.3 67.94,92 49.44,103.1 -3.69,-14.8 -13.56,-19.8 -24.64,-5 -11.07,14.8 6.62,33.7 32.26,28.5 24.84,-5 32.29,-64.5 8.7,-91.8 -14.11,-16.3 -57.03,-57.4 -119.86,-75.9 -41.32,-12.2 -84.95,-24.2 -123.68,-30.1 7.85,-5.2 29.17,-11.7 87.16,-7 60.82,5 95.57,26.1 101.78,41 2.48,-5 -7.46,-26.1 -27.29,-36 -108.76,-38.6 -206.39,-1.5 -208.44,-1.4 2.32,-13.4 0.58,-27.8 -8.69,-42.9 -36.04,-58.6 -137.18,-208.7 -148.68,-225.2 -31.01,-44.6 43.42,-65.6 87.63,-77.2 44.2,-11.6 51.18,-46.5 37.21,-62.8 -13.96,-16.3 4.63,-48.9 18.6,-51.2 13.96,-2.3 207.06,37.2 251.26,-9.3 44.21,-46.5 -2.32,-79.1 -23.25,-76.8 -9.31,18.6 -4.68,28 9.28,30.3 13.97,2.3 6.96,25.5 -13.96,39.5 -20.9,14 -132.57,11.7 -188.42,2.3 -55.85,-9.3 -55.85,-18.6 -55.85,-25.5 0,-7 34.87,-60.5 51.19,-69.8 16.31,-9.3 23.25,-186.1 -2.32,-251.3 -13.97,-27.9 51.21,-60.5 167.52,-46.5 116.29,14 502.88,121.7 588.56,293.1 1.48,-21.9 -82.97,-171.6 -344.08,-252.3 -38.4,-15.3 -69.15,-15.3 -69.15,-15.3 0,0 0.03,-134.4 -34.54,-215 -34.57,-80.7 -215,-157.5 -376.28,-172.8 -159.86,-15.2 -489.21,-140 -491.29,-512.4 252.83,-314.4 607.16,-543.4 1013.37,-637.6 l 7.52,104.2 c 0,0 21.44,127.6 38.83,176.8" /><path
         id="path256"
         style="fill:#211c1d;fill-opacity:1;fill-rule:nonzero;stroke:none"
         d="m 11891.6,11490.2 c -4.7,173.8 -77.2,219 -153.5,165.6 -62.4,-43.7 -19.1,-176.6 73,-149.7 -15.3,-99.8 -207.3,-130.5 -299.5,-42.2 -92.2,88.2 -115.1,349.4 -130.5,503 30.7,72.9 126.7,476.1 134.4,583.6 36.7,514.3 -372.5,625.8 -592,629.9 -95.5,1.7 -423.9,-28.7 -541.2,-288.1 -91.5,-202.1 -85.6,-337.9 -90.1,-351.4 -3.1,-9.1 30.9,-34.8 42.1,-68.5 5.2,0.3 10.1,0.4 16.2,1.1 98,11.2 160.5,28.8 211,63.3 47.2,32.3 67.9,92 49.4,103.1 -3.7,-14.8 -13.5,-19.8 -24.6,-5 -11.1,14.8 6.6,33.7 32.2,28.5 24.9,-5 32.3,-64.5 8.7,-91.8 -14.1,-16.3 -57,-57.4 -119.8,-75.9 -41.3,-12.2 -85,-24.2 -123.7,-30.1 7.9,-5.2 29.2,-11.7 87.2,-7 60.8,5 95.5,26.1 101.7,41 2.5,-5 -7.4,-26.1 -27.2,-36 -108.8,-38.6 -206.4,-1.5 -208.5,-1.4 2.3,-13.4 0.6,-27.8 -8.7,-42.9 -36,-58.6 -137.1,-208.7 -148.7,-225.2 -31,-44.6 43.5,-65.6 87.7,-77.2 44.2,-11.6 51.2,-46.5 37.2,-62.8 -14,-16.3 4.6,-48.9 18.6,-51.2 14,-2.3 207,37.2 251.3,-9.3 44.2,-46.5 -2.4,-79.1 -23.3,-76.8 -9.3,18.6 -4.7,28 9.3,30.3 14,2.3 6.9,25.5 -14,39.5 -20.9,14 -132.5,11.7 -188.4,2.3 -55.8,-9.3 -55.8,-18.6 -55.8,-25.5 0,-7 34.8,-60.5 51.1,-69.8 16.3,-9.3 23.3,-186.1 -2.3,-251.3 -13.9,-27.9 51.2,-60.5 167.5,-46.5 116.3,14 502.9,121.7 588.6,293.1 1.5,-21.9 -83,-171.6 -344.1,-252.3 -38.4,-15.3 -69.1,-15.3 -69.1,-15.3 0,0 0,-134.4 -34.6,-215 -34.5,-80.7 -215,-157.5 -376.2,-172.8 -161.3,-15.4 -495.34,-142.1 -491.51,-522.2 3.83,-57.6 15.3,-264.9 -11.54,-311 -24.28,-41.7 -65.55,-227.3 -61.93,-325 122.57,-25.9 249.6,-39.7 379.88,-39.7 882.6,0 1619.3,623.8 1793.7,1454.6" /><path
         id="path258"
         style="fill:#211c1d;fill-opacity:1;fill-rule:nonzero;stroke:none"
         d="m 8935.36,11230.3 c 101.32,37.6 266.35,49.2 266.35,49.2 -49.23,89.7 -292.4,52.1 -277.93,130.3 14.47,78.1 -37.66,173.7 -138.98,167.9 -101.33,-5.8 -98.45,-133.2 -40.55,-112.9 17.35,0 60.81,-20.3 20.27,-75.3 -40.55,-55 -199.77,-55 -182.39,92.6 17.39,147.7 202.67,139 234.52,214.3 31.84,75.3 -52.13,286.6 -150.58,249 5.78,-112.9 -153.45,-202.7 -234.49,-75.3 -81.06,127.4 -22.7,382.3 52.09,428.5 159.25,98.5 205.57,-63.7 199.8,-110 66.58,156.4 -72.4,222.9 -127.41,220.1 -55.01,-2.9 -188.19,-14.5 -257.7,-280.9 -20.13,-77.2 -30.27,-163.2 -33.23,-251.7 -0.03,-2.5 -0.19,-5 -0.19,-7.5 0,-401.4 129.34,-772.3 348.15,-1074.2 10.66,31.4 36.44,107 58.8,169.5 28.96,81 162.14,228.7 263.47,266.4" /><path
         id="path260"
         style="fill:#f9ba0f;fill-opacity:1;fill-rule:nonzero;stroke:none"
         d="M 3665.97,6850.75 C 3665.97,5838.43 2845.32,5017.8 1832.98,5017.8 820.648,5017.8 0,5838.43 0,6850.75 c 0,1012.36 820.648,1833.01 1832.98,1833.01 1012.34,0 1832.99,-820.65 1832.99,-1833.01" /><path
         id="path262"
         style="fill:#100f0d;fill-opacity:1;fill-rule:nonzero;stroke:none"
         d="m 2095.13,8671.03 c -2.02,-1.84 -3.61,-3.7 -5.48,-5.53 1.81,-0.25 3.61,-0.44 5.39,-0.69 0.14,2.1 -0.13,4.08 0.09,6.22" /><path
         id="path264"
         style="fill:#100f0d;fill-opacity:1;fill-rule:nonzero;stroke:none"
         d="m 1971.73,5027.36 -275.33,1021.7 c -239.53,159.7 -388.04,485.84 -372,681.17 32.48,395.59 263.87,454.11 349.75,445.59 -181.46,-21.77 -335.5,-251.41 -260,-591.15 67.54,-303.95 527.06,-469.89 697.55,-431.43 167.19,37.73 318.17,-167.17 318.17,-167.17 0,0 26.97,16.18 78.98,79.2 51.63,62.6 204.01,226.73 204.01,226.73 l -91.46,-20.92 c 0,0 -76.27,-17.08 -221.43,99.05 -145.16,116.13 -184.55,182.48 -312.03,127.84 -75.49,-32.35 -137.79,14.07 -159.57,86.66 -21.78,72.6 27.59,166.74 150.99,210.31 123.39,43.57 226.26,-3.83 342.38,-61.89 116.14,-58.06 370.18,-232.26 370.18,-232.26 0,0 -58.07,-87.09 -145.17,-123.41 0,0 73.94,-25.3 234.48,83.88 0,0 201.03,162.91 331.67,373.42 -50.8,-7.29 -130.64,72.58 -137.91,108.86 -7.27,36.28 43.55,58.07 43.55,14.52 0,-43.55 101.61,-94.37 101.61,-94.37 0,0 94.36,58.09 123.39,94.37 29.03,36.28 -9.75,148.95 -118.62,156.2 -101.19,6.75 -463.38,160.65 -484.86,205.64 -31.24,3.11 -95.9,9.82 -153.72,17.62 -120.15,16.22 -187.73,85.97 -198.26,142.74 -10.52,56.78 27.04,124.92 100.63,126.54 73.6,1.63 82.61,-85.97 58.58,-105.44 -24.01,-19.46 -31.53,14.6 -19.54,11.35 -19.53,68.13 -78.09,35.69 -84.43,13.64 -15.67,-54.27 6.94,-96.99 103.97,-140.16 77.47,-34.45 168.51,-46.32 202.15,-49.71 41.1,46.05 132.23,247.9 65.26,282.97 -109.72,57.5 -352.74,67.94 -451.02,224.12 21.77,50.82 145.17,254.02 36.29,428.24 -107.37,171.77 -314.34,243.99 -304.93,393 -1.78,0.25 -3.58,0.44 -5.39,0.69 -71.8,-71.13 -28.62,-149.45 56.28,-248.52 87.09,-101.62 130.46,-174.38 86.91,-305.04 -14.52,137.91 -57.26,200.98 -187.9,302.61 -126.3,98.23 -163.74,183.63 -159.56,267.88 -17.46,0.49 -34.82,1.33 -52.4,1.33 -316.18,0 -613.65,-80.07 -873.277,-221.01 C 1315.47,8370.09 1533.2,8179.4 1533.2,8179.4 1321.12,8310.94 1058.53,8382.06 870.172,8410.48 508.98,8187.04 231.516,7841.68 94.5742,7431.81 325.406,7807.66 839.348,7954.43 1002.41,7933.38 645.117,7875.12 147.258,7637.58 12.8516,7064.89 4.66406,6994.61 0,6923.26 0,6850.75 0,6767.05 6.125,6684.82 16.9961,6604.07 128.457,6897.24 395.273,7339.56 767.555,7515.24 493.262,7372.66 115.758,6893.23 66.7539,6360.8 233.223,5759.48 697.992,5282.22 1292.13,5098.99 c 171.62,-45.54 420.88,-91.79 679.6,-71.63" /><path
         id="path266"
         style="fill:#211c1d;fill-opacity:1;fill-rule:nonzero;stroke:none"
         d="m 7268.81,8130.67 c 32.15,-32.94 63.13,-67 92.73,-102.28 -30.57,37.59 -61.53,71.69 -92.73,102.28" /><path
         id="path268"
         style="fill:#211c1d;fill-opacity:1;fill-rule:nonzero;stroke:none"
         d="m 4929.66,6585.91 c 376.14,-48.3 801.12,-35.3 869.42,19.93 2.03,2.19 4.56,4.13 6.37,6.45 -1.54,-2.22 -3.77,-4.36 -6.37,-6.45 -95.02,-103.57 -418.75,-92.66 -935.38,-41.01 -527.6,52.76 -662.11,-295.46 -572.42,-466.93 -18.45,242.7 437.9,390.41 511.76,337.65 -282.26,-65.95 -319.19,-445.79 -184.65,-564.5 -126.61,269.07 213.67,604.06 733.34,488 519.68,-116.06 883.72,229.51 870.55,287.54 -79.13,68.58 -158.29,216.34 -192.59,292.82 -34.3,76.5 -50.11,247.97 -47.47,319.2 2.63,71.24 -31.65,287.54 -34.3,414.16 -2.66,126.62 47.49,306 66.15,331.07 -104.69,-120.4 -188.44,-350.69 -167.5,-612.41 20.94,-261.73 -66.86,-627.77 -319.28,-685.7 -638.59,-146.57 -1010.24,272.18 -1392.34,10.47 0,0 -2.22,-7.04 -3.41,-24.43 10.02,-116.4 30.93,-229.61 61.67,-338.72 64.8,165.87 361.31,281.06 736.45,232.86" /><path
         id="path270"
         style="fill:#211c1d;fill-opacity:1;fill-rule:nonzero;stroke:none"
         d="m 5805.45,6612.29 c -1.81,-2.32 -4.34,-4.26 -6.37,-6.45 2.6,2.09 4.83,4.23 6.37,6.45" /><path
         id="path272"
         style="fill:#211c1d;fill-opacity:1;fill-rule:nonzero;stroke:none"
         d="m 7078.61,7281.83 c -0.88,10.13 -1.98,15.4 -1.98,15.4 0,0 0.85,-5.67 1.98,-15.4" /><path
         id="path274"
         style="fill:#211c1d;fill-opacity:1;fill-rule:nonzero;stroke:none"
         d="m 7078.61,7281.83 c -0.88,10.13 -1.98,15.4 -1.98,15.4 0,0 0.85,-5.67 1.98,-15.4" /><path
         id="path276"
         style="fill:#211c1d;fill-opacity:1;fill-rule:nonzero;stroke:none"
         d="m 6793.97,7490.89 c -52.33,0 -172.72,-20.92 -225.07,-52.34 -52.34,-31.42 -130.87,-68.05 -130.87,-68.05 0,0 136.11,125.61 246.02,136.08 109.92,10.47 141.33,15.69 157.03,57.58 10.48,-52.34 5.24,-73.27 -47.11,-73.27 z m -387.33,-633.36 c -36.64,-31.41 -94.23,-31.41 -120.39,-5.26 -26.16,26.19 -77.3,7.32 -77.3,7.32 39.59,27.01 40.64,55.49 77.3,39.81 36.65,-15.7 45.9,-31.42 78.35,-1.1 41.4,38.68 77.38,4.49 133.18,-32.39 -47.11,5.24 -54.51,23.01 -91.14,-8.38 z m 1162.03,837.49 c -64.89,135.28 -134.86,244.55 -207.13,333.37 -29.6,35.28 -60.58,69.34 -92.73,102.28 -68.23,66.93 -137.41,117.84 -205.3,157.2 -43.77,42.89 -135.2,111.73 -295.08,144.8 -351.85,72.8 -452.97,64.71 -675.41,-12.13 -195.82,-67.64 -317.79,-365.77 -62.86,-442.07 -35.14,-112.71 -65.52,-257.27 -57.98,-377.66 3.54,-56.62 10.07,-103.57 16.77,-146.72 30.17,-1.04 165.03,-10.07 234.49,-88.83 0,0 -80.59,31.9 -125.23,40.13 -44.64,8.22 -45.81,15.27 -66.96,28.19 -18.31,11.2 -28.09,14.52 -42.02,18.68 13.01,-83.66 26.47,-152.95 19.58,-249.26 -10.47,-146.55 141.34,-570.54 465.86,-696.16 209.37,36.65 486.79,308.84 554.83,502.5 52.33,148.91 52.04,238.79 49.11,272.49 -1.13,9.73 -1.98,15.4 -1.98,15.4 0,0 1.1,-5.27 1.98,-15.4 4.53,-38.77 13.69,-144.87 -7.22,-241.11 C 7045.23,6920.34 6932.1,6690.43 6709.05,6570.1 5203.7,5939.18 5620.84,5216.7 5736.88,5100.67 c 33.63,-33.63 88.68,-61.12 153.35,-81.19 22.28,-0.77 44.53,-1.68 67,-1.68 58.37,0 116.03,3.02 173,8.36 -100.7,55.45 -116.13,182.55 233.28,347.21 603.42,284.32 1003.76,702.04 1126.65,960.71 165.06,347.45 324.5,847.98 78.51,1360.94" /><path
         id="path278"
         style="fill:#211c1d;fill-opacity:1;fill-rule:nonzero;stroke:none"
         d="m 5989.23,7452.26 c -0.1,0.6 -0.2,1.22 -0.28,1.83 -3.94,0.13 -6.3,0.15 -6.3,0.15 2.43,-0.72 4.42,-1.33 6.58,-1.98" /><path
         id="path280"
         style="fill:#211c1d;fill-opacity:1;fill-rule:nonzero;stroke:none"
         d="m 5644.03,5912.96 c 203.08,330.74 736.86,551.22 736.86,551.22 0,0 -5.78,5.77 -46.41,46.38 -11.61,-29.04 -348.12,-174.06 -568.6,-261.09 -220.47,-87.03 -527.99,-290.08 -580.21,-603.4 -46.31,-277.93 89.58,-495.26 343.84,-577.59 33.08,-7.88 66.5,-14.83 100.23,-20.94 -154.67,271.3 -187.77,536.34 14.29,865.42" /><path
         id="path282"
         style="fill:#211c1d;fill-opacity:1;fill-rule:nonzero;stroke:none"
         d="m 5174.06,5843.32 c 127.64,342.31 1145.45,583.33 1092.87,712.75 -606.67,-363.99 -868.88,-223.49 -1164.79,-246.68 -295.91,-23.2 -328.49,-253.58 -392.3,-404.45 -63.82,-150.86 -168.21,-166.03 -214.63,42.83 -46.42,208.86 63.84,382.92 63.84,382.92 0,0 -207.05,-164.45 -246.1,-290.15 109.76,-222.29 263.29,-418.9 449.28,-579.04 48.04,40.39 63.57,216.29 110.13,381.82 52.23,185.67 150.85,266.9 255.29,261.09 -214.52,-112.94 -251.25,-601.45 -242.4,-740.07 107.42,-77.59 223.44,-143.99 346.58,-197.11 -107.81,144.11 -179.68,349.12 -57.77,676.09" /><path
         id="path284"
         style="fill:#211c1d;fill-opacity:1;fill-rule:nonzero;stroke:none"
         d="m 5518.71,6851.32 c -173.91,-60.64 -355.91,-44.5 -691.59,64.72 -335.68,109.21 -671.36,-4.05 -695.63,-117.3 182,173.89 792.69,-44.48 950.42,-72.8 157.74,-28.33 394.53,-24.3 558.15,88.97 210.3,145.62 194.12,513.65 194.12,513.65 0,0 -141.57,-416.57 -315.47,-477.24" /><path
         id="path286"
         style="fill:#f9ba0f;fill-opacity:1;fill-rule:nonzero;stroke:none"
         d="M 5528.11,51 C 5405.63,82.5977 5277.54,127.199 5152.28,186 5270.91,127.898 5396.79,82.5 5528.11,51" /><path
         id="path288"
         style="fill:#f9ba0f;fill-opacity:1;fill-rule:nonzero;stroke:none"
         d="m 4151.54,2146.7 c -17.6,-102 -27.3,-206.7 -27.3,-313.8 0,-88.6 6.64,-175.6 18.8,-260.8 -22.03,176.6 -20.04,367 8.5,574.6" /><path
         id="path290"
         style="fill:#211c1d;fill-opacity:1;fill-rule:nonzero;stroke:none"
         d="M 6063.64,10.3984 C 5862.98,32 5712.49,225.398 5755.48,483.398 c 42.99,258 308.16,476.602 311.74,533.902 0,-39.402 71.67,-68.101 161.25,-57.3 -53.74,7.199 -89.58,103.9 -46.59,182.7 -7.16,-39.4 25.09,-129 96.75,-136.1 71.66,-7.202 71.19,-27.299 81.95,-73.799 14.21,106.599 -71.21,123.899 -92.71,181.299 -21.49,57.3 3.53,111.8 44.73,94.3 72.04,-6 -27.98,-241.701 236.36,-320.4 7.14,-100 21.43,-292.902 21.43,-292.902 0,0 209.72,28.203 350.32,50.402 -9.06,7.602 -21.38,19.5 -32.66,36.098 -28.11,41.504 -8.6,120.3 54.41,126 -24.52,-14.098 -55.53,-43.399 -43.85,-91.996 9.36,-39.004 39.94,-56.204 73.11,-61.704 38.2,6.602 65.34,12 71.71,15.2 16.69,8.3 90,367.702 172.77,739.302 -13.92,12.2 -61.14,56.5 -72.93,108.8 -13.88,61.6 4.63,165.8 63.23,189.5 58.58,23.6 63.22,-37.9 38.55,-36.7 -3.09,17.7 -33.95,14.2 -49.36,-6 -15.42,-20.1 -32.38,-82.9 -9.26,-151.5 12.29,-36.5 28.79,-57.3 41.7,-69.1 24.74,25.3 112.47,55.9 117.56,78.9 49.73,224.9 93.62,477.1 102.57,539.8 21.43,150 -77.7,383.4 -142,476.3 -64.29,92.9 -35.7,178.7 14.31,200.1 -107.17,-7.2 -121.45,-135.8 -107.17,-171.5 14.28,-35.7 -14.3,-50 -14.3,-50 -71.44,478.7 -492.96,793 -878.77,850.2 -385.8,57.2 -899.5,-101.1 -1043.09,-650.1 -121.47,-464.4 161.07,-903.3 482.57,-989 321.5,-85.7 674.82,131.6 581.95,446 -85.73,-157.2 -357.21,-235.8 -528.69,-21.5 -171.47,214.4 -154.91,785.8 259.38,784.4 383.13,-1.4 426.49,-412.8 369.35,-505.7 21.43,0.2 68.33,-57.1 83.96,-145.7 -31.27,78.2 -52.09,119.8 -239.68,213.7 -187.58,93.8 -396,88.6 -437.68,156.3 -26.06,-135.5 -67.73,-343.9 62.53,-432.5 130.26,-88.6 239.67,-78.1 349.09,-15.6 -78.15,-73 -243.37,-78.3 -337.16,-36.6 -93.79,41.7 -146.06,146.1 -146.06,146.1 0,0 73.09,-242.4 260.39,-252.4 187.3,-10 270.91,113.8 317.74,170.6 93.66,-224.1 6.7,-528.5 -401.36,-561.9 -403.43,-33.1 -551.88,190.6 -675.63,414.7 -35.83,7.2 -254.38,9.4 -573.53,51.8 -277.1,36.7 -481.49,138.7 -520.24,159.1 -13.07,-49.9 -23.75,-100.7 -32.63,-152.2 -28.54,-207.6 -30.53,-398 -8.5,-574.6 C 4230.12,961.199 4618.09,447.5 5152.28,186 5277.54,127.199 5405.63,82.5977 5528.11,51 5665.8,18 5809.38,0 5957.23,0 c 37.46,0 74.56,1.5 111.46,3.69922 -4.43,3 -5.05,6.69918 -5.05,6.69918" /><path
         id="path292"
         style="fill:#211c1d;fill-opacity:1;fill-rule:nonzero;stroke:none"
         d="m 10808.6,2010.2 c 34.1,-17.1 162.5,335.1 43.1,397.6 -160,47.6 -65.1,189.4 -219.2,507.3 -200.4,413.3 -630.8,407.8 -727.47,430.5 -96.63,22.7 -85.21,102.3 -181.84,108 -96.63,5.7 -244.35,-5.7 -454.61,-125 -210.28,-119.4 -388.69,-411.9 -364.6,-476.2 34.1,-90.9 80.49,15.9 74.8,-370.6 -5.67,-386.4 227.29,-727.3 420.52,-789.8 193.22,-62.5 375.03,-56.9 363.69,-153.5 -11.33,-96.6 28.4,-136.4 113.65,-164.8 85.25,-28.4 198.86,0 267.06,108 -90.9,-45.5 -289.79,-147.8 -227.3,130.7 62.51,278.4 494.4,676.2 716,716 170.1,30.6 227.3,-62.5 176.2,-318.2" /><path
         id="path294"
         style="fill:#211c1d;fill-opacity:1;fill-rule:nonzero;stroke:none"
         d="m 9973.21,1640.8 -22.73,-62.6 51.12,-5.6 c 0,0 136.4,-5.7 204.6,-85.3 68.2,-79.5 0,-448.9 -244.35,-471.6 -244.37,-22.802 -403.46,255.7 -619.4,159.1 -215.95,-96.6 -340.94,-250.101 -528.49,-176.198 -187.55,73.898 -215.95,346.698 -125.03,386.498 125.03,-11.4 130.7,136.3 -11.37,159.1 -142.08,22.7 -210.27,-108 -215.95,-204.6 -5.67,-96.6 39.78,-448.901 346.64,-483.002 306.87,-34.098 443.27,272.702 664.89,176.102 221.62,-96.598 511.41,-244.399 755.76,-34.098 244.4,210.298 238.7,517.198 5.7,602.398 -233,85.2 -261.39,39.8 -261.39,39.8" /><path
         id="path296"
         style="fill:#211c1d;fill-opacity:1;fill-rule:nonzero;stroke:none"
         d="m 9404.95,663.398 c 272.76,85.204 403.45,-11.398 676.25,45.403 272.7,56.801 380.7,380.699 380.7,517.099 0,-136.3 -187.5,-329.599 -358,-386.4 -170.51,-56.801 -369.37,-17 -585.32,68.199 -215.94,85.199 -306.86,-73.898 -443.23,-136.398 -120.83,-55.403 -334.93,-71.903 -433.58,-51.203 61.5,-80.297 129.52,-155.399 203.21,-224.399 30.2,-25.801 63.13,-53.199 99.67,-82.398 5.72,45.5 187.52,164.801 460.3,250.097" /><path
         id="path298"
         style="fill:#211c1d;fill-opacity:1;fill-rule:nonzero;stroke:none"
         d="m 11297.3,1510 c -96.6,205.3 -420.5,204.6 -602.4,272.8 -181.8,68.2 -267.1,295.5 -272.8,375.1 -62.5,-5.7 -221.6,-164.8 -221.6,-164.8 0,0 164.8,-278.5 323.9,-312.6 159.2,-34 312.6,-62.5 386.5,-221.6 73.8,-159.1 113.6,-295.5 369.3,-420.5 254.5,-124.4 179.4,-237.502 156.3,-457.002 211,225.5 365.6,504.202 441.5,814.102 -71.9,-94.8 -491.9,-74.3 -580.7,114.5" /><path
         id="path300"
         style="fill:#211c1d;fill-opacity:1;fill-rule:nonzero;stroke:none"
         d="m 11700.7,2089.7 c -198.9,73.8 -414.8,-159.1 -573.9,-238.7 -134.2,-67.1 -312.6,-22.7 -380.7,45.5 -68.2,68.2 -73.9,261.4 -34.1,369.4 -91,5.6 -198.9,-34.1 -238.7,-68.2 0,0 39.8,-85.3 125,-250.1 85.3,-164.8 340.9,-215.9 471.6,-204.6 130.7,11.4 352.4,56.9 488.8,142.1 111.7,69.9 287,2.3 371.7,-71.3 0.1,6.4 0.5,12.7 0.5,19.1 0,70.6 -4.4,140.1 -12.1,208.5 -20.4,-13 -73.3,-5.5 -218.1,48.3" /><path
         id="path302"
         style="fill:#211c1d;fill-opacity:1;fill-rule:nonzero;stroke:none"
         d="m 11888.2,1663.5 c 0,56.8 -45.4,147.7 -142,176.2 -96.6,28.4 -181.8,-5.7 -267.1,-56.9 -85.2,-51.1 -272.8,-96.6 -358,-73.9 0,0 170.5,-79.5 341,-28.4 170.4,51.2 198.9,85.3 250,-5.6 51.2,-91 22.7,-216 22.7,-278.5 164.8,28.4 153.4,210.3 153.4,267.1" /><path
         id="path304"
         style="fill:#211c1d;fill-opacity:1;fill-rule:nonzero;stroke:none"
         d="m 10751.7,2027.2 c 17.1,-73.9 79.6,-159.1 233,-159.1 153.4,0 250.1,113.6 363.7,215.9 113.7,102.3 233,125 358,85.3 125,-39.8 147.1,103 130,199.6 -17,96.6 -61.8,266.3 -192.5,277.7 -130.7,11.4 -198.9,-187.6 -108,-227.3 91,-39.8 193.3,56.8 159.2,90.9 113.6,-79.5 79.5,-233 22.7,-233 -56.8,0 -147.8,68.2 -233,68.2 -85.2,0 -153.4,-51.1 -176.2,-119.3 17.1,113.6 -62.5,193.2 -153.4,159.1 -90.9,-34.1 17.1,-73.9 28.4,-147.8 11.4,-73.9 5.7,-159 -90.9,-215.9 -96.6,-56.8 -153.5,-108 -233,-62.5 -79.5,45.5 -108,68.2 -108,68.2" /><path
         id="path306"
         style="fill:#211c1d;fill-opacity:1;fill-rule:nonzero;stroke:none"
         d="m 11354.1,896.301 c -39.8,85.297 -187.5,102.301 -323.9,210.299 -136.4,108 -119.3,210.3 -216,358 -96.6,147.7 -221.6,142.1 -369.3,176.2 -147.8,34.1 -289.9,289.8 -289.9,289.8 l -56.8,-68.2 c 0,0 51.2,-85.3 130.7,-176.2 79.6,-90.9 159.1,-108 318.3,-164.8 159.1,-56.8 159.1,-159.1 187.5,-329.6 28.4,-170.4 90.9,-204.499 261.4,-267.101 170.4,-62.5 170.5,-159 170.5,-250 0,-90.898 -56.9,-221.597 -142.1,-238.699 28.4,39.801 17,96.598 -142.1,68.199 -152.1,-27.199 -61.8,-312.898 10.9,-323.097 163.7,78.996 313.7,181.699 445.9,303.398 49.1,114.398 51.4,333.5 14.9,411.801" /><path
         id="path308"
         style="fill:#211c1d;fill-opacity:1;fill-rule:nonzero;stroke:none"
         d="m 10007.3,1697.6 181.8,-28.4 -91.2,163.8 z" /><path
         id="path310"
         style="fill:#211c1d;fill-opacity:1;fill-rule:nonzero;stroke:none"
         d="m 10524.4,1402.1 c 56.9,-79.5 11.4,-198.9 11.4,-335.3 0,-136.402 62.5,-210.202 187.5,-244.3 125,-34.102 142.1,-125 125,-233 39.8,34.102 170.5,0 159.1,-22.801 62.5,11.403 102.3,108 56.9,221.699 -45.5,113.602 -272.8,79.5 -352.3,187.5 -79.6,108.002 -17.1,181.802 -79.6,369.402 -62.6,187.5 -221.6,170.5 -221.6,170.5 0,0 56.8,-34.2 113.6,-113.7" /><path
         id="path312"
         style="fill:#211c1d;fill-opacity:1;fill-rule:nonzero;stroke:none"
         d="m 10615.4,407.598 c 130.7,159.101 -17.1,358.004 -85.3,431.902 -95.4,103.398 -47.8,186.4 -40.7,197.5 -8.9,-13.7 -92.4,-147.199 -33.2,-265.699 62.6,-125 73.9,-153.403 -28.4,-267.102 C 10325.5,390.602 10189.1,384.898 10013,282.598 9872.08,200.699 9866.94,65.3984 9870.52,14.5 9945.07,5.30078 10020.9,0 10097.9,0 c 35.6,0 70.9,1.30078 106.1,3.30078 40.8,238.50022 284.7,250.09722 411.4,404.29722" /><path
         id="path314"
         style="fill:#211c1d;fill-opacity:1;fill-rule:nonzero;stroke:none"
         d="m 10489.4,1037 c 0.5,0.8 0.9,1.4 0.9,1.4 0,0 -0.3,-0.5 -0.9,-1.4" /><path
         id="path316"
         style="fill:#211c1d;fill-opacity:1;fill-rule:nonzero;stroke:none"
         d="m 10683.5,254.199 c -28.4,79.602 79.6,187.5 102.3,278.399 22.8,90.902 -34.1,187.5 -79.5,233.004 0,0 22.7,-56.801 28.4,-193.204 5.6,-136.398 -176.2,-278.398 -323.9,-358 -106.6,-57.296 -122.5,-154.6988 -123.2,-204.69878 174.2,17.89848 340.9,60.60158 497.1,123.80078 -19.3,12.5 -77.5,54.602 -101.2,120.699" /><path
         id="path318"
         style="fill:#211c1d;fill-opacity:1;fill-rule:nonzero;stroke:none"
         d="m 10240.3,458.801 c 164.8,34.097 210.3,130.597 176.2,221.597 -34.1,90.903 -45.5,176.102 -45.5,176.102 0,0 -28.4,-96.602 -39.8,-159.102 -11.4,-62.5 34.1,-96.597 -136.4,-125 -170.4,-28.398 -232.95,-85.199 -477.32,-96.597 -244.37,-11.403 -363.69,-170.5 -397.8,-301.199 0,0 2.36,-1.602 6.35,-4.204 120.39,-56 247.8,-99.2964 380.68,-128.0972 6.71,177.0002 375.89,383.8012 533.59,416.5002" /><path
         id="path320"
         style="fill:#211c1d;fill-opacity:1;fill-rule:nonzero;stroke:none"
         d="m 10001.6,572.398 c 204.6,17 272.8,176.204 272.8,176.204 0,0 -102.3,-73.903 -164.8,-91.004 -62.5,-16.996 -159.12,-11.297 -323.92,-11.297 -164.8,0 -352.32,-5.699 -556.92,-102.301 -151.83,-71.699 -200.23,-152 -215.13,-188.699 69.3,-51 142.27,-97.199 218.53,-138.199 20.27,46.097 76.56,162.398 161.4,247.296 107.94,108 403.5,90.903 608.04,108" /><path
         id="path322"
         style="fill:#211c1d;fill-opacity:1;fill-rule:nonzero;stroke:none"
         d="m 9529.97,1305.5 c -11.39,-108 176.17,-250.1 420.51,-238.7 244.32,11.3 215.92,335.3 215.92,335.3 0,0 -85.2,-261.4 -232.98,-267.1 -147.74,-5.7 -204.56,136.4 -193.18,238.6 11.38,102.3 -198.9,39.8 -210.27,-68.1" /><path
         id="path324"
         style="fill:#211c1d;fill-opacity:1;fill-rule:nonzero;stroke:none"
         d="m 8819.63,1106.6 c 58.6,-48 107.97,-51.1 232.99,0 125.02,51.1 159.1,176.1 267.06,170.4 107.98,-5.6 178.6,-41.3 178.6,-41.3 l 7.82,47 c -28.43,85.2 -78.44,147.8 -226.18,147.8 -147.75,0 -221.65,-85.2 -306.88,-119.3 -85.21,-34.2 -113.6,-45.5 -124.98,5.6 -85.25,28.5 -134.78,-123.1 -28.43,-210.2" /><path
         id="path326"
         style="fill:#211c1d;fill-opacity:1;fill-rule:nonzero;stroke:none"
         d="m 11491.3,1642.1 c -101.6,-26 -177.1,-23.4 -203.2,-15.6 0,0 78.2,-70.3 130.3,-164.1 52.1,-93.8 117.2,-78.2 195.4,-75.6 78.1,2.6 88.5,143.3 75.5,192.8 -13,49.5 -96.4,88.6 -198,62.5" /></g></g></svg>