<?xml version="1.0" encoding="UTF-8" standalone="no"?>
<svg
   xmlns:dc="http://purl.org/dc/elements/1.1/"
   xmlns:cc="http://creativecommons.org/ns#"
   xmlns:rdf="http://www.w3.org/1999/02/22-rdf-syntax-ns#"
   xmlns:svg="http://www.w3.org/2000/svg"
   xmlns="http://www.w3.org/2000/svg"
   viewBox="0 0 751.56 485.33334"
   height="485.33334"
   width="751.56"
   xml:space="preserve"
   id="svg2"
   version="1.1"><metadata
     id="metadata8"><rdf:RDF><cc:Work
         rdf:about=""><dc:format>image/svg+xml</dc:format><dc:type
           rdf:resource="http://purl.org/dc/dcmitype/StillImage" /></cc:Work></rdf:RDF></metadata><defs
     id="defs6"><clipPath
       id="clipPath20"
       clipPathUnits="userSpaceOnUse"><path
         id="path18"
         d="M 5276.68,360 H 360 v 2920 h 4916.68 z" /></clipPath><linearGradient
       id="linearGradient54"
       spreadMethod="pad"
       gradientTransform="matrix(7040.3,-3912.56,-3912.56,-7040.3,540.151,3086.07)"
       gradientUnits="userSpaceOnUse"
       y2="0"
       x2="1"
       y1="0"
       x1="0"><stop
         id="stop22"
         offset="0"
         style="stop-opacity:1;stop-color:#e8d9a2" /><stop
         id="stop24"
         offset="0.0769231"
         style="stop-opacity:1;stop-color:#e8d9a2" /><stop
         id="stop26"
         offset="0.137363"
         style="stop-opacity:1;stop-color:#c4b788" /><stop
         id="stop28"
         offset="0.21978"
         style="stop-opacity:1;stop-color:#e8d9a2" /><stop
         id="stop30"
         offset="0.296703"
         style="stop-opacity:1;stop-color:#c4b788" /><stop
         id="stop32"
         offset="0.373626"
         style="stop-opacity:1;stop-color:#e8d9a2" /><stop
         id="stop34"
         offset="0.445055"
         style="stop-opacity:1;stop-color:#c4b788" /><stop
         id="stop36"
         offset="0.532967"
         style="stop-opacity:1;stop-color:#ebdead" /><stop
         id="stop38"
         offset="0.582418"
         style="stop-opacity:1;stop-color:#c4b788" /><stop
         id="stop40"
         offset="0.637363"
         style="stop-opacity:1;stop-color:#e8d9a2" /><stop
         id="stop42"
         offset="0.736264"
         style="stop-opacity:1;stop-color:#c4b788" /><stop
         id="stop44"
         offset="0.785714"
         style="stop-opacity:1;stop-color:#e8d9a2" /><stop
         id="stop46"
         offset="0.846154"
         style="stop-opacity:1;stop-color:#c4b788" /><stop
         id="stop48"
         offset="0.912088"
         style="stop-opacity:1;stop-color:#ebdead" /><stop
         id="stop50"
         offset="0.989011"
         style="stop-opacity:1;stop-color:#c4b788" /><stop
         id="stop52"
         offset="1"
         style="stop-opacity:1;stop-color:#c4b788" /></linearGradient></defs><g
     transform="matrix(1.3333333,0,0,-1.3333333,0,485.33333)"
     id="g10"><g
       transform="scale(0.1)"
       id="g12"><g
         id="g14"><g
           clip-path="url(#clipPath20)"
           id="g16"><path
             id="path56"
             style="fill:url(#linearGradient54);fill-opacity:1;fill-rule:nonzero;stroke:none"
             d="M 5276.68,360 H 360 V 3280 H 5276.68 V 360" /></g></g><path
         id="path58"
         style="fill:#2b1414;fill-opacity:1;fill-rule:nonzero;stroke:none"
         d="m 3416.96,2536.6 h -10.5 v 7.39 h 29.89 v -7.39 h -10.62 v -31.51 h -8.77 v 31.51" /><path
         id="path60"
         style="fill:#2b1414;fill-opacity:1;fill-rule:nonzero;stroke:none"
         d="m 3461.4,2543.99 v -38.9 h -8.78 v 38.9 h 8.78" /><path
         id="path62"
         style="fill:#2b1414;fill-opacity:1;fill-rule:nonzero;stroke:none"
         d="m 3513.05,2506.87 c -2.71,-0.92 -7.85,-2.19 -12.99,-2.19 -7.1,0 -12.24,1.79 -15.81,5.2 -3.53,3.4 -5.49,8.48 -5.49,14.2 0.06,12.93 9.47,20.31 22.23,20.31 5.02,0 8.88,-0.98 10.79,-1.84 l -1.85,-7.1 c -2.14,0.98 -4.73,1.67 -9,1.67 -7.33,0 -12.93,-4.1 -12.93,-12.58 0,-8.08 5.08,-12.76 12.29,-12.76 1.97,0 3.58,0.23 4.28,0.52 v 8.2 h -6.01 v 6.87 h 14.49 v -20.5" /><path
         id="path64"
         style="fill:#2b1414;fill-opacity:1;fill-rule:nonzero;stroke:none"
         d="m 3554.59,2521.54 h -14.31 v -9.24 h 15.99 v -7.21 h -24.76 v 38.9 h 23.95 v -7.21 h -15.18 v -8.09 h 14.31 v -7.15" /><path
         id="path66"
         style="fill:#2b1414;fill-opacity:1;fill-rule:nonzero;stroke:none"
         d="m 3582.52,2526.73 h 3.47 c 4.38,0 6.98,2.2 6.98,5.6 0,3.52 -2.42,5.37 -6.47,5.37 -2.13,0 -3.34,-0.12 -3.98,-0.29 z m -8.71,16.74 c 2.83,0.46 6.98,0.81 11.71,0.81 5.77,0 9.82,-0.87 12.59,-3.06 2.36,-1.85 3.63,-4.62 3.63,-8.2 0,-4.9 -3.52,-8.31 -6.87,-9.52 v -0.17 c 2.72,-1.1 4.22,-3.64 5.2,-7.22 1.21,-4.44 2.37,-9.52 3.11,-11.02 h -9 c -0.58,1.15 -1.56,4.27 -2.65,9.06 -1.1,4.9 -2.78,6.18 -6.41,6.23 h -2.6 v -15.29 h -8.71 v 38.38" /><path
         id="path68"
         style="fill:#2b1414;fill-opacity:1;fill-rule:nonzero;stroke:none"
         d="m 4056.17,2519.98 c -0.17,4.67 -0.34,10.33 -0.34,15.99 h -0.12 c -1.27,-4.97 -2.89,-10.51 -4.39,-15.07 l -4.73,-15.18 h -6.87 l -4.15,15.01 c -1.27,4.62 -2.54,10.16 -3.53,15.24 h -0.11 c -0.18,-5.26 -0.41,-11.26 -0.64,-16.11 l -0.75,-14.77 h -8.14 l 2.49,38.9 h 11.71 l 3.82,-12.99 c 1.26,-4.5 2.42,-9.35 3.28,-13.91 h 0.24 c 1.03,4.5 2.36,9.64 3.69,13.97 l 4.1,12.93 h 11.54 l 2.08,-38.9 h -8.54 l -0.64,14.89" /><path
         id="path70"
         style="fill:#2b1414;fill-opacity:1;fill-rule:nonzero;stroke:none"
         d="m 4091.14,2524.48 c 0,-7.67 3.57,-13.04 9.46,-13.04 5.95,0 9.35,5.65 9.35,13.21 0,7.04 -3.29,13.05 -9.35,13.05 -6,0 -9.46,-5.66 -9.46,-13.22 z m 28.1,0.46 c 0,-12.81 -7.67,-20.49 -19.1,-20.49 -11.49,0 -18.3,8.72 -18.3,19.86 0,11.66 7.51,20.37 18.94,20.37 11.94,0 18.46,-8.94 18.46,-19.74" /><path
         id="path72"
         style="fill:#2b1414;fill-opacity:1;fill-rule:nonzero;stroke:none"
         d="m 4136.55,2505.09 v 38.9 h 10.27 l 8.08,-14.26 c 2.31,-4.1 4.56,-8.94 6.35,-13.33 h 0.12 c -0.52,5.14 -0.69,10.39 -0.69,16.28 v 11.31 h 8.08 v -38.9 h -9.24 l -8.31,15 c -2.31,4.16 -4.91,9.18 -6.75,13.74 h -0.23 c 0.29,-5.19 0.4,-10.68 0.4,-17.02 v -11.72 h -8.08" /><path
         id="path74"
         style="fill:#2b1414;fill-opacity:1;fill-rule:nonzero;stroke:none"
         d="m 4187.91,2543.99 h 8.72 v -17.2 h 0.11 c 0.87,1.5 1.79,2.89 2.71,4.27 l 8.78,12.93 h 10.85 l -12.87,-16.57 13.5,-22.33 h -10.21 l -9.59,16.79 -3.28,-4.1 v -12.69 h -8.72 v 38.9" /><path
         id="path76"
         style="fill:#2b1414;fill-opacity:1;fill-rule:nonzero;stroke:none"
         d="m 4258.03,2521.54 h -14.32 v -9.24 h 15.99 v -7.21 h -24.76 v 38.9 h 23.95 v -7.21 h -15.18 v -8.09 h 14.32 v -7.15" /><path
         id="path78"
         style="fill:#2b1414;fill-opacity:1;fill-rule:nonzero;stroke:none"
         d="m 4286.25,2505.09 v 15.93 l -12.3,22.97 h 10.1 l 3.93,-9.35 c 1.21,-2.83 2.07,-4.91 3,-7.45 h 0.11 c 0.87,2.43 1.79,4.68 2.94,7.45 l 3.93,9.35 h 9.87 l -12.82,-22.69 v -16.21 h -8.76" /><path
         id="path80"
         style="fill:#2b1414;fill-opacity:1;fill-rule:nonzero;stroke:none"
         d="m 4698.86,2511.72 c 0.75,-0.17 2.02,-0.17 3.06,-0.17 8.02,-0.06 13.28,4.33 13.28,13.62 0,8.08 -4.74,12.35 -12.35,12.35 -1.91,0 -3.24,-0.17 -3.99,-0.34 z m -8.77,31.69 c 3.23,0.52 7.44,0.87 11.83,0.87 7.45,0 12.29,-1.38 15.99,-4.16 4.04,-3 6.58,-7.79 6.58,-14.66 0,-7.44 -2.72,-12.58 -6.4,-15.75 -4.11,-3.41 -10.4,-5.03 -18.02,-5.03 -4.56,0 -7.85,0.29 -9.98,0.58 v 38.15" /><path
         id="path82"
         style="fill:#2b1414;fill-opacity:1;fill-rule:nonzero;stroke:none"
         d="m 4750.51,2526.73 h 3.46 c 4.39,0 6.99,2.2 6.99,5.6 0,3.52 -2.43,5.37 -6.47,5.37 -2.14,0 -3.35,-0.12 -3.98,-0.29 z m -8.72,16.74 c 2.83,0.46 6.99,0.81 11.72,0.81 5.77,0 9.81,-0.87 12.58,-3.06 2.37,-1.85 3.64,-4.62 3.64,-8.2 0,-4.9 -3.52,-8.31 -6.87,-9.52 v -0.17 c 2.72,-1.1 4.22,-3.64 5.2,-7.22 1.21,-4.44 2.36,-9.52 3.11,-11.02 h -9 c -0.58,1.15 -1.56,4.27 -2.66,9.06 -1.09,4.9 -2.77,6.18 -6.4,6.23 h -2.6 v -15.29 h -8.72 v 38.38" /><path
         id="path84"
         style="fill:#2b1414;fill-opacity:1;fill-rule:nonzero;stroke:none"
         d="m 4807.01,2521.65 -2.43,8.26 c -0.69,2.31 -1.38,5.19 -1.96,7.5 h -0.12 c -0.58,-2.31 -1.15,-5.25 -1.79,-7.5 l -2.3,-8.26 z m -9.88,-6.58 -2.76,-9.98 h -9.07 l 11.83,38.9 h 11.55 l 12.12,-38.9 h -9.52 l -3,9.98 h -11.15" /><path
         id="path86"
         style="fill:#2b1414;fill-opacity:1;fill-rule:nonzero;stroke:none"
         d="m 4868.53,2506.87 c -2.72,-0.92 -7.86,-2.19 -12.99,-2.19 -7.1,0 -12.24,1.79 -15.82,5.2 -3.52,3.4 -5.48,8.48 -5.48,14.2 0.06,12.93 9.47,20.31 22.22,20.31 5.02,0 8.89,-0.98 10.8,-1.84 l -1.85,-7.1 c -2.14,0.98 -4.74,1.67 -9,1.67 -7.33,0 -12.94,-4.1 -12.94,-12.58 0,-8.08 5.08,-12.76 12.3,-12.76 1.96,0 3.58,0.23 4.27,0.52 v 8.2 h -6 v 6.87 h 14.49 v -20.5" /><path
         id="path88"
         style="fill:#2b1414;fill-opacity:1;fill-rule:nonzero;stroke:none"
         d="m 4894.43,2524.48 c 0,-7.67 3.58,-13.04 9.47,-13.04 5.94,0 9.35,5.65 9.35,13.21 0,7.04 -3.29,13.05 -9.35,13.05 -6.01,0 -9.47,-5.66 -9.47,-13.22 z m 28.11,0.46 c 0,-12.81 -7.68,-20.49 -19.1,-20.49 -11.49,0 -18.3,8.72 -18.3,19.86 0,11.66 7.5,20.37 18.93,20.37 11.95,0 18.47,-8.94 18.47,-19.74" /><path
         id="path90"
         style="fill:#2b1414;fill-opacity:1;fill-rule:nonzero;stroke:none"
         d="m 4939.84,2505.09 v 38.9 h 10.28 l 8.08,-14.26 c 2.31,-4.1 4.56,-8.94 6.35,-13.33 h 0.11 c -0.51,5.14 -0.69,10.39 -0.69,16.28 v 11.31 h 8.08 v -38.9 h -9.23 l -8.32,15 c -2.31,4.16 -4.9,9.18 -6.75,13.74 h -0.23 c 0.29,-5.19 0.4,-10.68 0.4,-17.02 v -11.72 h -8.08" /><path
         id="path92"
         style="fill:#2b1414;fill-opacity:1;fill-rule:nonzero;stroke:none"
         d="m 3418.23,1864.77 v -14.95 h 14.49 v 14.95 h 8.77 v -38.91 h -8.77 v 16.28 h -14.49 v -16.28 h -8.77 v 38.91 h 8.77" /><path
         id="path94"
         style="fill:#2b1414;fill-opacity:1;fill-rule:nonzero;stroke:none"
         d="m 3468.2,1845.26 c 0,-7.68 3.58,-13.04 9.47,-13.04 5.95,0 9.35,5.65 9.35,13.21 0,7.05 -3.29,13.05 -9.35,13.05 -6,0 -9.47,-5.66 -9.47,-13.22 z m 28.11,0.46 c 0,-12.81 -7.67,-20.49 -19.1,-20.49 -11.49,0 -18.3,8.72 -18.3,19.86 0,11.65 7.51,20.37 18.93,20.37 11.95,0 18.47,-8.95 18.47,-19.74" /><path
         id="path96"
         style="fill:#2b1414;fill-opacity:1;fill-rule:nonzero;stroke:none"
         d="m 3522.33,1847.51 h 3.47 c 4.39,0 6.98,2.19 6.98,5.6 0,3.52 -2.42,5.37 -6.46,5.37 -2.14,0 -3.35,-0.12 -3.99,-0.29 z m -8.71,16.74 c 2.83,0.46 6.98,0.81 11.72,0.81 5.77,0 9.81,-0.87 12.58,-3.06 2.36,-1.85 3.63,-4.62 3.63,-8.2 0,-4.9 -3.52,-8.31 -6.86,-9.52 v -0.17 c 2.71,-1.1 4.21,-3.64 5.19,-7.22 1.21,-4.44 2.37,-9.53 3.12,-11.03 h -9.01 c -0.57,1.16 -1.55,4.28 -2.65,9.07 -1.1,4.9 -2.77,6.17 -6.41,6.23 h -2.6 v -15.3 h -8.71 v 38.39" /><path
         id="path98"
         style="fill:#2b1414;fill-opacity:1;fill-rule:nonzero;stroke:none"
         d="m 3559.67,1834.93 c 2.31,-1.21 6,-2.43 9.75,-2.43 4.04,0 6.18,1.68 6.18,4.22 0,2.42 -1.85,3.81 -6.52,5.42 -6.47,2.31 -10.74,5.89 -10.74,11.55 0,6.63 5.6,11.66 14.72,11.66 4.44,0 7.62,-0.87 9.93,-1.97 l -1.96,-7.04 c -1.51,0.75 -4.34,1.85 -8.09,1.85 -3.8,0 -5.65,-1.79 -5.65,-3.75 0,-2.49 2.13,-3.58 7.21,-5.48 6.87,-2.54 10.05,-6.12 10.05,-11.61 0,-6.52 -4.97,-12.06 -15.64,-12.06 -4.45,0 -8.84,1.21 -11.03,2.42 l 1.79,7.22" /><path
         id="path100"
         style="fill:#2b1414;fill-opacity:1;fill-rule:nonzero;stroke:none"
         d="m 3625.23,1842.31 h -14.32 v -9.23 h 15.99 v -7.22 h -24.76 v 38.91 h 23.95 v -7.22 h -15.18 v -8.08 h 14.32 v -7.16" /><path
         id="path102"
         style="fill:#2b1414;fill-opacity:1;fill-rule:nonzero;stroke:none"
         d="m 4128.88,1845.26 c 0,-7.68 3.58,-13.04 9.46,-13.04 5.95,0 9.36,5.65 9.36,13.21 0,7.05 -3.3,13.05 -9.36,13.05 -6,0 -9.46,-5.66 -9.46,-13.22 z m 28.11,0.46 c 0,-12.81 -7.68,-20.49 -19.11,-20.49 -11.48,0 -18.3,8.72 -18.3,19.86 0,11.65 7.5,20.37 18.94,20.37 11.94,0 18.47,-8.95 18.47,-19.74" /><path
         id="path104"
         style="fill:#2b1414;fill-opacity:1;fill-rule:nonzero;stroke:none"
         d="m 4192.88,1825.86 -3.52,7.05 c -1.44,2.71 -2.37,4.73 -3.47,6.98 h -0.11 c -0.81,-2.25 -1.79,-4.27 -3.07,-6.98 l -3.16,-7.05 h -10.05 l 11.26,19.69 -10.86,19.22 h 10.1 l 3.41,-7.1 c 1.16,-2.37 2.02,-4.27 2.94,-6.46 h 0.12 c 0.92,2.48 1.67,4.21 2.66,6.46 l 3.29,7.1 h 10.04 l -10.97,-18.99 11.55,-19.92 h -10.16" /><path
         id="path106"
         style="fill:#2b1414;fill-opacity:1;fill-rule:nonzero;stroke:none"
         d="m 4782.48,1846.59 c 0.75,-0.17 1.62,-0.23 2.94,-0.23 4.68,0 7.56,2.36 7.56,6.29 0,3.58 -2.48,5.71 -6.92,5.71 -1.73,0 -2.94,-0.11 -3.58,-0.29 z m -8.72,17.66 c 2.71,0.46 6.52,0.81 11.89,0.81 5.43,0 9.3,-1.04 11.89,-3.12 2.55,-1.96 4.16,-5.2 4.16,-9.01 0,-3.8 -1.22,-7.1 -3.58,-9.23 -3,-2.77 -7.45,-4.1 -12.64,-4.1 -1.15,0 -2.19,0.06 -3,0.23 v -13.97 h -8.72 v 38.39" /><path
         id="path108"
         style="fill:#2b1414;fill-opacity:1;fill-rule:nonzero;stroke:none"
         d="m 4827.67,1864.77 v -38.91 h -8.78 v 38.91 h 8.78" /><path
         id="path110"
         style="fill:#2b1414;fill-opacity:1;fill-rule:nonzero;stroke:none"
         d="m 4879.32,1827.66 c -2.71,-0.93 -7.85,-2.2 -12.99,-2.2 -7.1,0 -12.24,1.79 -15.82,5.19 -3.51,3.41 -5.48,8.49 -5.48,14.2 0.06,12.93 9.47,20.32 22.23,20.32 5.02,0 8.88,-0.98 10.79,-1.84 l -1.85,-7.1 c -2.14,0.98 -4.73,1.67 -9,1.67 -7.33,0 -12.93,-4.1 -12.93,-12.58 0,-8.08 5.08,-12.76 12.29,-12.76 1.97,0 3.58,0.23 4.27,0.52 v 8.2 h -6 v 6.86 h 14.49 v -20.48" /><path
         id="path112"
         style="fill:#2b1414;fill-opacity:1;fill-rule:nonzero;stroke:none"
         d="m 3418.12,1159.13 h 3.46 c 4.39,0 6.98,2.19 6.98,5.6 0,3.52 -2.42,5.37 -6.46,5.37 -2.14,0 -3.35,-0.12 -3.98,-0.3 z m -8.72,16.74 c 2.83,0.46 6.98,0.8 11.72,0.8 5.77,0 9.81,-0.86 12.58,-3.06 2.36,-1.84 3.63,-4.62 3.63,-8.19 0,-4.9 -3.52,-8.31 -6.86,-9.52 v -0.18 c 2.71,-1.09 4.21,-3.63 5.19,-7.21 1.22,-4.45 2.37,-9.53 3.12,-11.03 h -9 c -0.58,1.15 -1.56,4.28 -2.66,9.06 -1.1,4.91 -2.77,6.18 -6.41,6.24 h -2.59 v -15.3 h -8.72 v 38.39" /><path
         id="path114"
         style="fill:#2b1414;fill-opacity:1;fill-rule:nonzero;stroke:none"
         d="m 3474.61,1154.04 -2.42,8.26 c -0.7,2.31 -1.39,5.2 -1.97,7.5 h -0.11 c -0.58,-2.3 -1.15,-5.25 -1.79,-7.5 l -2.31,-8.26 z m -9.87,-6.57 -2.77,-9.99 h -9.06 l 11.83,38.91 h 11.54 l 12.13,-38.91 h -9.53 l -3,9.99 h -11.14" /><path
         id="path116"
         style="fill:#2b1414;fill-opacity:1;fill-rule:nonzero;stroke:none"
         d="m 3513.79,1143.72 c 0.87,-0.12 1.91,-0.12 3.41,-0.12 3.98,0 7.5,1.56 7.5,5.66 0,3.86 -3.52,5.43 -7.91,5.43 h -3 z m 0,17.26 h 2.89 c 4.67,0 7.1,1.9 7.1,4.78 0,2.95 -2.25,4.5 -6.24,4.5 -1.96,0 -3.06,-0.1 -3.75,-0.22 z m -8.71,14.89 c 2.3,0.4 6.92,0.8 11.37,0.8 5.37,0 8.65,-0.52 11.54,-2.19 2.71,-1.44 4.62,-4.1 4.62,-7.67 0,-3.41 -2.02,-6.59 -6.41,-8.26 v -0.11 c 4.44,-1.15 7.74,-4.56 7.74,-9.52 0,-3.59 -1.62,-6.36 -4.05,-8.31 -2.82,-2.26 -7.56,-3.53 -15.29,-3.53 -4.33,0 -7.56,0.28 -9.52,0.58 v 38.21" /><path
         id="path118"
         style="fill:#2b1414;fill-opacity:1;fill-rule:nonzero;stroke:none"
         d="m 3560.19,1143.72 c 0.86,-0.12 1.9,-0.12 3.4,-0.12 3.99,0 7.51,1.56 7.51,5.66 0,3.86 -3.52,5.43 -7.91,5.43 h -3 z m 0,17.26 h 2.89 c 4.67,0 7.1,1.9 7.1,4.78 0,2.95 -2.26,4.5 -6.24,4.5 -1.96,0 -3.06,-0.1 -3.75,-0.22 z m -8.72,14.89 c 2.31,0.4 6.93,0.8 11.37,0.8 5.37,0 8.66,-0.52 11.55,-2.19 2.71,-1.44 4.61,-4.1 4.61,-7.67 0,-3.41 -2.01,-6.59 -6.4,-8.26 v -0.11 c 4.44,-1.15 7.73,-4.56 7.73,-9.52 0,-3.59 -1.61,-6.36 -4.04,-8.31 -2.83,-2.26 -7.56,-3.53 -15.29,-3.53 -4.33,0 -7.56,0.28 -9.53,0.58 v 38.21" /><path
         id="path120"
         style="fill:#2b1414;fill-opacity:1;fill-rule:nonzero;stroke:none"
         d="m 3606.7,1176.39 v -38.91 h -8.78 v 38.91 h 8.78" /><path
         id="path122"
         style="fill:#2b1414;fill-opacity:1;fill-rule:nonzero;stroke:none"
         d="m 3633.42,1168.99 h -10.5 v 7.4 h 29.89 v -7.4 h -10.62 v -31.51 h -8.77 v 31.51" /><path
         id="path124"
         style="fill:#2b1414;fill-opacity:1;fill-rule:nonzero;stroke:none"
         d="m 4075.38,1176.39 v -14.95 h 14.49 v 14.95 h 8.77 v -38.91 h -8.77 v 16.28 h -14.49 v -16.28 h -8.77 v 38.91 h 8.77" /><path
         id="path126"
         style="fill:#2b1414;fill-opacity:1;fill-rule:nonzero;stroke:none"
         d="m 4125.36,1156.87 c 0,-7.67 3.58,-13.04 9.46,-13.04 5.95,0 9.35,5.66 9.35,13.22 0,7.04 -3.29,13.05 -9.35,13.05 -6,0 -9.46,-5.66 -9.46,-13.23 z m 28.11,0.46 c 0,-12.81 -7.68,-20.48 -19.11,-20.48 -11.49,0 -18.3,8.72 -18.3,19.86 0,11.65 7.5,20.37 18.94,20.37 11.94,0 18.47,-8.95 18.47,-19.75" /><path
         id="path128"
         style="fill:#2b1414;fill-opacity:1;fill-rule:nonzero;stroke:none"
         d="m 4179.48,1159.13 h 3.47 c 4.38,0 6.98,2.19 6.98,5.6 0,3.52 -2.43,5.37 -6.46,5.37 -2.14,0 -3.35,-0.12 -3.99,-0.3 z m -8.71,16.74 c 2.83,0.46 6.98,0.8 11.72,0.8 5.77,0 9.8,-0.86 12.58,-3.06 2.37,-1.84 3.64,-4.62 3.64,-8.19 0,-4.9 -3.52,-8.31 -6.87,-9.52 v -0.18 c 2.71,-1.09 4.21,-3.63 5.19,-7.21 1.21,-4.45 2.37,-9.53 3.12,-11.03 h -9.01 c -0.57,1.15 -1.56,4.28 -2.65,9.06 -1.1,4.91 -2.77,6.18 -6.41,6.24 h -2.6 v -15.3 h -8.71 v 38.39" /><path
         id="path130"
         style="fill:#2b1414;fill-opacity:1;fill-rule:nonzero;stroke:none"
         d="m 4216.82,1146.54 c 2.31,-1.21 6,-2.42 9.75,-2.42 4.05,0 6.18,1.68 6.18,4.21 0,2.43 -1.85,3.81 -6.52,5.43 -6.46,2.31 -10.74,5.89 -10.74,11.54 0,6.64 5.6,11.66 14.72,11.66 4.44,0 7.62,-0.86 9.93,-1.96 l -1.97,-7.04 c -1.5,0.75 -4.32,1.84 -8.08,1.84 -3.81,0 -5.65,-1.78 -5.65,-3.75 0,-2.48 2.13,-3.58 7.22,-5.47 6.86,-2.55 10.04,-6.13 10.04,-11.62 0,-6.51 -4.97,-12.06 -15.65,-12.06 -4.44,0 -8.83,1.22 -11.02,2.43 l 1.79,7.21" /><path
         id="path132"
         style="fill:#2b1414;fill-opacity:1;fill-rule:nonzero;stroke:none"
         d="m 4282.38,1153.94 h -14.31 v -9.24 h 15.98 v -7.22 h -24.76 v 38.91 h 23.96 v -7.22 h -15.18 v -8.08 h 14.31 v -7.15" /><path
         id="path134"
         style="fill:#2b1414;fill-opacity:1;fill-rule:nonzero;stroke:none"
         d="m 4776.71,1159.13 h 3.46 c 4.39,0 6.99,2.19 6.99,5.6 0,3.52 -2.43,5.37 -6.47,5.37 -2.14,0 -3.35,-0.12 -3.98,-0.3 z m -8.72,16.74 c 2.83,0.46 6.99,0.8 11.72,0.8 5.77,0 9.81,-0.86 12.58,-3.06 2.37,-1.84 3.64,-4.62 3.64,-8.19 0,-4.9 -3.52,-8.31 -6.87,-9.52 v -0.18 c 2.71,-1.09 4.21,-3.63 5.2,-7.21 1.21,-4.45 2.36,-9.53 3.11,-11.03 h -9 c -0.58,1.15 -1.56,4.28 -2.66,9.06 -1.1,4.91 -2.77,6.18 -6.4,6.24 h -2.6 v -15.3 h -8.72 v 38.39" /><path
         id="path136"
         style="fill:#2b1414;fill-opacity:1;fill-rule:nonzero;stroke:none"
         d="m 4833.2,1154.04 -2.42,8.26 c -0.69,2.31 -1.39,5.2 -1.96,7.5 h -0.12 c -0.57,-2.3 -1.15,-5.25 -1.79,-7.5 l -2.31,-8.26 z m -9.87,-6.57 -2.76,-9.99 h -9.07 l 11.83,38.91 h 11.55 l 12.12,-38.91 h -9.52 l -3.01,9.99 h -11.14" /><path
         id="path138"
         style="fill:#2b1414;fill-opacity:1;fill-rule:nonzero;stroke:none"
         d="m 4866.45,1168.99 h -10.51 v 7.4 h 29.89 v -7.4 h -10.62 v -31.51 h -8.76 v 31.51" /><path
         id="path140"
         style="fill:#2b1414;fill-opacity:1;fill-rule:nonzero;stroke:none"
         d="m 3403.92,467.32 c 2.31,-1.211 6,-2.422 9.75,-2.422 4.04,0 6.18,1.672 6.18,4.211 0,2.422 -1.85,3.813 -6.52,5.43 -6.47,2.313 -10.74,5.891 -10.74,11.543 0,6.637 5.6,11.656 14.72,11.656 4.44,0 7.62,-0.867 9.93,-1.957 l -1.97,-7.043 c -1.5,0.742 -4.32,1.852 -8.08,1.852 -3.81,0 -5.65,-1.801 -5.65,-3.75 0,-2.481 2.13,-3.59 7.21,-5.488 6.87,-2.543 10.04,-6.122 10.04,-11.602 0,-6.531 -4.96,-12.059 -15.64,-12.059 -4.44,0 -8.83,1.207 -11.02,2.418 l 1.79,7.211" /><path
         id="path142"
         style="fill:#2b1414;fill-opacity:1;fill-rule:nonzero;stroke:none"
         d="m 3455.16,497.172 v -14.953 h 14.49 v 14.953 h 8.77 v -38.91 h -8.77 v 16.277 h -14.49 v -16.277 h -8.77 v 38.91 h 8.77" /><path
         id="path144"
         style="fill:#2b1414;fill-opacity:1;fill-rule:nonzero;stroke:none"
         d="m 3520.78,474.711 h -14.32 v -9.231 h 15.99 v -7.218 h -24.76 v 38.91 h 23.96 v -7.223 h -15.19 v -8.078 h 14.32 v -7.16" /><path
         id="path146"
         style="fill:#2b1414;fill-opacity:1;fill-rule:nonzero;stroke:none"
         d="m 3563.13,474.711 h -14.31 v -9.231 h 15.99 v -7.218 h -24.76 v 38.91 H 3564 v -7.223 h -15.18 v -8.078 h 14.31 v -7.16" /><path
         id="path148"
         style="fill:#2b1414;fill-opacity:1;fill-rule:nonzero;stroke:none"
         d="m 3591.06,478.98 c 0.75,-0.171 1.62,-0.23 2.95,-0.23 4.67,0 7.56,2.359 7.56,6.301 0,3.57 -2.48,5.711 -6.93,5.711 -1.73,0 -2.94,-0.121 -3.58,-0.293 z m -8.71,17.661 c 2.71,0.468 6.52,0.808 11.89,0.808 5.42,0 9.29,-1.027 11.89,-3.109 2.54,-1.969 4.15,-5.199 4.15,-9.012 0,-3.808 -1.21,-7.098 -3.58,-9.238 -3,-2.758 -7.44,-4.09 -12.64,-4.09 -1.15,0 -2.19,0.059 -3,0.23 v -13.968 h -8.71 v 38.379" /><path
         id="path150"
         style="fill:#2b1414;fill-opacity:1;fill-rule:nonzero;stroke:none"
         d="m 4034.87,479.898 h 3.46 c 4.39,0 6.99,2.204 6.99,5.614 0,3.508 -2.42,5.359 -6.47,5.359 -2.13,0 -3.34,-0.109 -3.98,-0.281 z m -8.71,16.743 c 2.82,0.468 6.98,0.808 11.71,0.808 5.77,0 9.82,-0.859 12.58,-3.058 2.37,-1.84 3.64,-4.61 3.64,-8.192 0,-4.91 -3.52,-8.308 -6.87,-9.527 V 476.5 c 2.72,-1.102 4.22,-3.641 5.2,-7.211 1.21,-4.449 2.37,-9.519 3.12,-11.027 h -9.01 c -0.58,1.148 -1.56,4.269 -2.65,9.058 -1.1,4.91 -2.78,6.18 -6.41,6.231 h -2.6 v -15.289 h -8.71 v 38.379" /><path
         id="path152"
         style="fill:#2b1414;fill-opacity:1;fill-rule:nonzero;stroke:none"
         d="m 4079.19,477.66 c 0,-7.68 3.58,-13.051 9.47,-13.051 5.94,0 9.35,5.661 9.35,13.211 0,7.051 -3.29,13.051 -9.35,13.051 -6.01,0 -9.47,-5.66 -9.47,-13.211 z m 28.11,0.461 c 0,-12.82 -7.68,-20.492 -19.11,-20.492 -11.48,0 -18.29,8.711 -18.29,19.851 0,11.661 7.5,20.379 18.93,20.379 11.95,0 18.47,-8.937 18.47,-19.738" /><path
         id="path154"
         style="fill:#2b1414;fill-opacity:1;fill-rule:nonzero;stroke:none"
         d="m 4132.11,477.66 c 0,-7.68 3.57,-13.051 9.46,-13.051 5.95,0 9.35,5.661 9.35,13.211 0,7.051 -3.29,13.051 -9.35,13.051 -6,0 -9.46,-5.66 -9.46,-13.211 z m 28.1,0.461 c 0,-12.82 -7.67,-20.492 -19.1,-20.492 -11.49,0 -18.3,8.711 -18.3,19.851 0,11.661 7.51,20.379 18.94,20.379 11.95,0 18.46,-8.937 18.46,-19.738" /><path
         id="path156"
         style="fill:#2b1414;fill-opacity:1;fill-rule:nonzero;stroke:none"
         d="m 4177.81,467.32 c 2.31,-1.211 6,-2.422 9.75,-2.422 4.04,0 6.18,1.672 6.18,4.211 0,2.422 -1.85,3.813 -6.52,5.43 -6.47,2.313 -10.74,5.891 -10.74,11.543 0,6.637 5.6,11.656 14.72,11.656 4.44,0 7.62,-0.867 9.93,-1.957 l -1.96,-7.043 c -1.5,0.742 -4.33,1.852 -8.09,1.852 -3.8,0 -5.65,-1.801 -5.65,-3.75 0,-2.481 2.13,-3.59 7.21,-5.488 6.87,-2.543 10.05,-6.122 10.05,-11.602 0,-6.531 -4.97,-12.059 -15.64,-12.059 -4.45,0 -8.84,1.207 -11.03,2.418 l 1.79,7.211" /><path
         id="path158"
         style="fill:#2b1414;fill-opacity:1;fill-rule:nonzero;stroke:none"
         d="m 4227.78,489.781 h -10.5 v 7.391 h 29.9 v -7.391 h -10.62 v -31.519 h -8.78 v 31.519" /><path
         id="path160"
         style="fill:#2b1414;fill-opacity:1;fill-rule:nonzero;stroke:none"
         d="m 4286.53,474.711 h -14.31 v -9.231 h 15.99 v -7.218 h -24.76 v 38.91 h 23.95 v -7.223 h -15.18 v -8.078 h 14.31 v -7.16" /><path
         id="path162"
         style="fill:#2b1414;fill-opacity:1;fill-rule:nonzero;stroke:none"
         d="m 4314.46,479.898 h 3.46 c 4.39,0 6.99,2.204 6.99,5.614 0,3.508 -2.42,5.359 -6.46,5.359 -2.14,0 -3.35,-0.109 -3.99,-0.281 z m -8.71,16.743 c 2.82,0.468 6.98,0.808 11.72,0.808 5.77,0 9.81,-0.859 12.57,-3.058 2.37,-1.84 3.64,-4.61 3.64,-8.192 0,-4.91 -3.51,-8.308 -6.86,-9.527 V 476.5 c 2.71,-1.102 4.21,-3.641 5.19,-7.211 1.21,-4.449 2.37,-9.519 3.12,-11.027 h -9.01 c -0.58,1.148 -1.56,4.269 -2.65,9.058 -1.1,4.91 -2.77,6.18 -6.41,6.231 h -2.6 v -15.289 h -8.71 v 38.379" /><path
         id="path164"
         style="fill:#2b1414;fill-opacity:1;fill-rule:nonzero;stroke:none"
         d="m 4719.23,467.32 c 2.31,-1.211 6,-2.422 9.75,-2.422 4.04,0 6.18,1.672 6.18,4.211 0,2.422 -1.84,3.813 -6.52,5.43 -6.47,2.313 -10.73,5.891 -10.73,11.543 0,6.637 5.59,11.656 14.71,11.656 4.45,0 7.62,-0.867 9.93,-1.957 l -1.96,-7.043 c -1.5,0.742 -4.33,1.852 -8.09,1.852 -3.8,0 -5.65,-1.801 -5.65,-3.75 0,-2.481 2.13,-3.59 7.22,-5.488 6.86,-2.543 10.04,-6.122 10.04,-11.602 0,-6.531 -4.96,-12.059 -15.65,-12.059 -4.44,0 -8.83,1.207 -11.02,2.418 l 1.79,7.211" /><path
         id="path166"
         style="fill:#2b1414;fill-opacity:1;fill-rule:nonzero;stroke:none"
         d="m 4761.65,458.262 v 38.91 h 10.27 L 4780,482.91 c 2.31,-4.101 4.56,-8.949 6.35,-13.328 h 0.11 c -0.51,5.129 -0.69,10.379 -0.69,16.27 v 11.32 h 8.08 v -38.91 h -9.24 l -8.31,15.008 c -2.31,4.152 -4.9,9.179 -6.75,13.742 h -0.23 c 0.29,-5.203 0.41,-10.68 0.41,-17.032 v -11.718 h -8.08" /><path
         id="path168"
         style="fill:#2b1414;fill-opacity:1;fill-rule:nonzero;stroke:none"
         d="m 4831.94,474.82 -2.43,8.27 c -0.69,2.301 -1.38,5.18 -1.96,7.5 h -0.11 c -0.58,-2.32 -1.16,-5.262 -1.8,-7.5 l -2.31,-8.27 z m -9.87,-6.582 -2.77,-9.976 h -9.07 l 11.84,38.91 h 11.54 l 12.12,-38.91 h -9.52 l -3.01,9.976 h -11.13" /><path
         id="path170"
         style="fill:#2b1414;fill-opacity:1;fill-rule:nonzero;stroke:none"
         d="m 4862.4,497.172 h 8.71 v -17.211 h 0.12 c 0.86,1.5 1.79,2.891 2.72,4.281 l 8.77,12.93 h 10.85 l -12.87,-16.57 13.5,-22.34 h -10.21 l -9.59,16.797 -3.29,-4.098 v -12.699 h -8.71 v 38.91" /><path
         id="path172"
         style="fill:#2b1414;fill-opacity:1;fill-rule:nonzero;stroke:none"
         d="m 4932.52,474.711 h -14.31 v -9.231 h 15.98 v -7.218 h -24.76 v 38.91 h 23.96 v -7.223 h -15.18 v -8.078 h 14.31 v -7.16" /><path
         id="path174"
         style="fill:#b61d23;fill-opacity:1;fill-rule:nonzero;stroke:none"
         d="m 4396.71,2758.77 c 1.54,3.43 3.02,6.9 4.41,10.42 -1.38,-3.52 -2.87,-6.99 -4.41,-10.42 z m -11.7,-22.93 c -1.95,-3.37 -3.99,-6.68 -6.09,-9.95 2.1,3.27 4.14,6.58 6.09,9.95 z m 5.35,9.8 c -1.64,-3.16 -3.34,-6.29 -5.12,-9.37 1.78,3.08 3.48,6.21 5.12,9.37 z m 5.11,10.45 c -1.21,-2.64 -2.47,-5.25 -3.78,-7.84 1.31,2.59 2.57,5.2 3.78,7.84 z m -32.01,-51.65 c -29.04,-0.42 -60.03,-7.04 -67.95,-31.79 0,0 -1.69,-11.36 2.2,-25.35 -23.06,-13.82 -48.53,-23.97 -75.65,-29.7 28.66,24.69 61.36,64.51 69.49,121.77 0,0 25.1,-12.55 31.05,-21.14 0,0 22.98,17.72 56.04,7.24 -4.71,-7.28 -9.76,-14.31 -15.18,-21.03 z m -297.31,168.4 c 0,0 -13.02,-15.07 -25.64,-18.32 0,0 -7.75,4.88 -1.23,7.73 0,0 12.22,6.92 15.88,11.4 z m 19.54,33.38 c 0,-4.27 -3.46,-7.74 -7.73,-7.74 -4.27,0 -7.74,3.47 -7.74,7.74 0,4.27 3.47,7.73 7.74,7.73 4.27,0 7.73,-3.46 7.73,-7.73 z m 83.87,12.62 c -27.27,22.8 -37.86,-10.59 -37.86,-10.59 -2.89,25.14 1.02,36.66 8.55,40.31 39.75,19.27 44.78,-24.43 44.78,-24.43 8.14,-40.71 -30.94,-45.59 -30.94,-45.59 24.42,18.72 15.47,40.3 15.47,40.3 z m -22.26,-305.58 c -35.64,3.33 -69.07,14.24 -98.71,31.06 3.18,4.93 5.98,7.75 5.98,7.75 7.41,1.35 5.72,7.41 5.72,7.41 l -1.34,20.22 c -2.7,11.79 -17.52,11.45 -17.52,11.45 l -40.09,-9.43 c -0.81,-0.11 -1.55,-0.24 -2.32,-0.37 -46.85,45.04 -76.03,108.31 -76.03,178.43 0,136.77 110.87,247.65 247.65,247.65 93.83,0 175.41,-52.22 217.43,-129.15 -13.94,-26.73 -23.38,-67.83 2.56,-119.35 0,0 10.53,-21.05 24.26,-39.72 -1.09,-6.59 -2.42,-13.08 -4.02,-19.48 -36.01,40.86 -90.3,80.01 -171.5,98.17 l -21.8,20.48 c 0,0 -11.23,135.41 -134.76,75.3 0,0 -52.18,-34.35 -38.97,-101.73 0,0 -27.75,-5.93 -14.53,-39.63 0,0 -35.01,-52.84 18.5,-64.07 l 58.12,44.91 -44.91,-55.48 c 0,0 76.62,-25.1 86.53,42.28 0,0 33.02,-7.27 54.82,31.7 0,0 25.19,-9.1 38.32,-37.65 18.63,-40.51 15.83,-113.62 -93.39,-200.75 z m -107.96,36.62 c 0.8,-0.5 1.6,-1.03 2.41,-1.52 -0.81,0.49 -1.61,1.02 -2.41,1.52 z m -7.2,4.69 c 0.98,-0.66 1.95,-1.34 2.93,-1.99 -0.98,0.65 -1.95,1.33 -2.93,1.99 z m -6.79,4.76 c 1.07,-0.78 2.13,-1.56 3.2,-2.32 -1.07,0.76 -2.13,1.54 -3.2,2.32 z m -6.56,4.92 c 1.14,-0.88 2.26,-1.77 3.41,-2.63 -1.15,0.86 -2.27,1.75 -3.41,2.63 z m -6.32,5.09 c 1.17,-0.98 2.35,-1.96 3.54,-2.92 -1.2,0.96 -2.37,1.94 -3.54,2.92 z m -6.16,5.29 c 1.22,-1.09 2.44,-2.17 3.69,-3.24 -1.25,1.07 -2.47,2.15 -3.69,3.24 z m -5.94,5.44 c 1.26,-1.19 2.52,-2.37 3.8,-3.54 -1.28,1.17 -2.54,2.35 -3.8,3.54 z m 413.84,224.15 c -1.34,4.6 -2.37,9.37 -2.98,14.19 1.14,-4.68 2.11,-9.41 2.98,-14.19 z m 1.76,-10.89 c -0.46,3.33 -0.99,6.63 -1.57,9.91 0.58,-3.28 1.12,-6.58 1.57,-9.91 z m -245.33,241.19 c -151.74,0 -274.74,-123 -274.74,-274.74 0,-151.73 123,-274.74 274.74,-274.74 151.74,0 274.74,123.01 274.74,274.74 0,151.74 -123,274.74 -274.74,274.74 z m 52.21,-331.74 c -71.34,-123.52 -155.23,-109.64 -155.23,-109.64 l 2.64,-33.04 c 10.57,-12.55 31.05,-11.89 31.05,-11.89 145.33,36.99 121.54,154.57 121.54,154.57" /><path
         id="path176"
         style="fill:#b61d23;fill-opacity:1;fill-rule:nonzero;stroke:none"
         d="m 3616.46,2974.13 c 0,0 33.52,30.11 45.15,14.38 0,0 10.52,-14.73 -28.54,-44.41 z m -29.75,-47.07 c 11.47,-78.96 -65.72,-56.02 -65.72,-56.02 59.1,8.82 65.72,56.02 65.72,56.02 z m -71.02,-25.14 c 0,0 35.29,-3.97 48.08,26.02 0,0 6.18,-24.7 -32.2,-37.49 0,0 -17.2,3.09 -15.88,11.47 z m 36.17,35.72 c 0,-6.33 -6.51,-11.47 -14.56,-11.47 -8.04,0 -14.55,5.14 -14.55,11.47 0,6.34 6.51,11.48 14.55,11.48 8.05,0 14.56,-5.14 14.56,-11.48 z m -55.16,67.45 c 16.29,22.39 55.65,13.57 55.65,13.57 14.45,-1.84 4.75,-3.39 4.75,-3.39 -19,-1.36 -33.93,-15.61 -33.93,-15.61 -23.76,-6.78 -26.47,5.43 -26.47,5.43 z m -28.63,-74.79 5.7,19.55 4.24,40.74 14.02,-16.91 c 0,0 5.39,-5.38 10.43,-2.15 0,0 52.84,25.17 65.78,9.71 l -66.87,-33.08 -14.57,-4.83 z m -26.88,12.5 c 2.09,3.36 6.32,10.83 7.71,11.16 0.84,0.2 2.31,0.51 3.1,0.3 4.21,-1.19 6.05,-6.85 5.85,-10.93 -0.24,-4.85 -4.86,-8.55 -10.33,-8.28 -2.99,0.15 -5.62,1.47 -7.34,3.41 -1.41,1.61 -0.11,2.54 1.01,4.34 z m 35.69,-55.87 c 0,0 -8.38,-24.71 -35.29,-10.6 0,0 -23.39,8.39 -18.09,26.47 0,0 43.67,0.88 53.38,-15.87 z m 101.81,-265.81 c -2.28,23.8 -3.13,41.27 -3.13,41.27 -3.05,-8.13 -27.34,-32.43 -45.18,-49.56 -4.5,-0.32 -9.03,-0.52 -13.6,-0.6 29.11,21.83 62.77,62.59 81.82,138.45 1.77,7.02 -40.56,-41.84 -87.91,-43.9 -6.77,-0.3 95.31,79.4 96.39,86.54 2.85,18.75 4.89,39.2 5.94,61.52 0,0 -1.09,8.68 9.77,20.63 0,0 23.88,17.37 17.38,54.29 l 1.95,4.63 c 41.73,37.9 30.25,62.78 30.25,62.78 -15.7,45.17 -54.36,16.85 -54.36,16.85 -10.72,-9.58 -18.73,-4.39 -18.73,-4.39 0,0 -69.31,39.69 -126.98,-7.4 0,0 -18.51,-19.57 -23.8,-33.86 0,0 -26.46,-42.32 -33.33,-47.62 l -11.64,-14.28 c 0,0 -8.47,-31.22 10.05,-48.15 0,0 49.73,-66.13 164.01,-12.69 l 6.88,-4.24 c 0,0 -46.23,-49.33 -161.64,-31.18 -4.33,0.67 1.4,-76.66 62.41,-107.95 5.58,-2.86 4.42,-8.72 3.49,-8.52 -111.16,25.39 -92.81,121.65 -98.45,123.03 -7.25,1.76 -14.43,6.44 -22.48,6.07 -26.01,-1.17 -37.75,-69.09 -43.62,-123.56 -8.23,9.66 -15.76,19.94 -22.45,30.8 4.28,29.04 16.62,62.95 43.91,99.53 1.55,2.09 -5.23,1.7 -8.26,2.7 -7.08,2.36 -15.83,4.67 -26,6.55 -2.68,0.5 -22.08,-22.23 -38.55,-40.89 -1.94,7.55 -3.47,15.25 -4.68,23.06 0.35,-2.26 0.73,-4.51 1.15,-6.76 9.51,14.85 18.43,27.87 16.71,28.02 -6.36,0.56 -13.35,2.18 -20.5,3.03 -0.28,4.79 -0.46,9.6 -0.46,14.46 0,136.77 110.88,247.65 247.66,247.65 136.77,0 247.65,-110.88 247.65,-247.65 0,-113.91 -76.94,-209.77 -181.67,-238.66 z m -11.74,-2.96 c 3.71,0.83 7.38,1.76 11.02,2.75 -3.64,-0.99 -7.31,-1.92 -11.02,-2.75 z m -18.03,-3.33 c 2.7,0.4 5.38,0.85 8.05,1.33 -2.67,-0.48 -5.35,-0.93 -8.05,-1.33 z m -8.6,-1.09 c 2.85,0.32 5.7,0.67 8.52,1.08 -2.82,-0.41 -5.67,-0.76 -8.52,-1.08 z m -9.66,-0.89 c 2.74,0.2 5.46,0.45 8.18,0.73 -2.72,-0.28 -5.44,-0.53 -8.18,-0.73 z m 28.18,3.66 c 2.7,0.51 5.39,1.04 8.06,1.64 -2.67,-0.6 -5.36,-1.13 -8.06,-1.64 z m -200.57,49.76 c 1.4,24.92 5.43,48.72 15.39,58.84 1.53,1.55 0.1,-34.42 -0.42,-69.97 -5.15,3.51 -10.12,7.25 -14.97,11.13 z m -7.67,6.42 c 2.36,-2.05 4.76,-4.08 7.21,-6.05 -2.45,1.97 -4.85,3.99 -7.21,6.05 z m -10.16,9.26 c 2.74,-2.66 5.55,-5.25 8.41,-7.77 -2.86,2.53 -5.67,5.11 -8.41,7.77 z m 172.27,452.57 c -151.74,0 -274.74,-123 -274.74,-274.74 0,-151.73 123,-274.74 274.74,-274.74 151.73,0 274.74,123.01 274.74,274.74 0,151.74 -123.01,274.74 -274.74,274.74 z m -68.98,-92.61 c 0,0 -19.06,-24.9 7.93,-53.47 l 9.39,15.03 36.96,24.43 c 0,0 -27.82,37.29 -54.28,14.01" /><path
         id="path178"
         style="fill:#b61d23;fill-opacity:1;fill-rule:nonzero;stroke:none"
         d="m 4665.89,2870.64 c -0.16,-2.34 -2.21,-4.1 -4.54,-3.93 -2.35,0.18 -4.11,2.22 -3.93,4.56 0.17,2.34 2.21,4.1 4.54,3.93 2.34,-0.18 4.11,-2.22 3.93,-4.56 z m 16.47,-1.66 c -0.23,-3.23 -3.04,-5.67 -6.29,-5.43 -3.23,0.24 -5.67,3.05 -5.43,6.29 0.23,3.24 3.06,5.67 6.29,5.44 3.24,-0.24 5.67,-3.06 5.43,-6.3 z m 134.75,23.03 c 0,0 -10.61,-13.81 -25.96,-18.53 0,0 -11.17,-4.59 -18.89,3.9 0,0 10.93,18.37 44.85,14.63 z m 235.69,-116.48 c -10.83,12.24 -19.89,25.39 -23.74,38.1 0,0 4.1,-28.45 15.68,-57.62 -26.97,-58.32 -75.9,-104.37 -136.23,-127.49 -13.39,2.54 -27.56,5.45 -42.67,8.8 0,0 -77.85,29.14 -31.97,125.97 0,0 51.91,68.92 42.57,106.77 0,0 23.95,-25.99 -33.23,-111.5 0,0 -23.03,-38.71 -0.2,-79.97 0,0 27.11,-60.17 88.99,-31.57 l -48.31,13.23 c 0,0 35.31,7.91 34.3,49.2 0,0 -43.87,-36.37 -63.35,17.57 0,0 -5.56,34.35 23.96,40.27 0,0 18.13,-6.18 16.95,-22.25 l 3.67,-5.12 c 0,0 10.71,46.89 -5.3,81.99 0,0 24.71,-15.54 25.32,-29.32 0,0 3.49,58.73 -26.24,94.04 0,0 28.33,11.65 39.11,4.4 0,0 -15.17,24.55 -40.83,27.23 0,0 93.82,67.46 80.33,92.69 0,0 -41.84,-52.68 -105.68,-74.67 0,0 3.97,32.02 -13.28,50.26 0,0 7.23,-33.66 -21.18,-57.43 0,0 -4.13,31.82 -26.38,47.99 0,0 7.84,-47.44 -1.71,-56.44 l 8.67,-3.06 -6.67,-2.74 c 0,0 -54.98,10.49 -52.03,-37.4 0,0 13.82,-9.9 6.35,-12.58 0,0 -46.35,-3.88 -59.98,8.43 0,0 -3.78,36.64 -42.69,12.83 0,0 -18.89,-26.09 0.86,-32.39 0,0 -18.2,-27.75 7.85,-36.13 0,0 -8.63,-40.57 24.33,-64.81 l 2.01,27.33 c 0,0 8.75,-24.07 22.85,-29.95 0,0 -0.81,21.87 4.08,33.63 0,0 10.65,-20.17 16.21,-21.38 0,0 3.38,23.99 14.6,33.67 l 12.07,-22.7 14.64,34.48 10.92,-27.46 c 0,0 11.92,19.33 10.96,28.28 0,0 51.52,8.35 53.76,38.89 0,0 3.21,-33.36 -39.34,-62.56 0,0 -41.14,-26.32 -55.83,-85.21 l -15.13,2.13 c 3.95,23.51 9.86,39.78 9.86,39.78 l -9.53,-7.86 c -14.23,-43.21 -17.35,-77.32 -13.66,-104.27 -91.54,36.37 -156.28,125.68 -156.28,230.17 0,136.77 110.88,247.65 247.65,247.65 135.76,0 245.96,-109.25 247.58,-244.64 -6.33,-6.84 -19.3,-22.38 -19.63,-35.18 0,0 -9.33,49.16 2.42,66.08 0,0 -22.49,-20.17 -20.51,-37.28 0,0 -22.03,41.2 -13.42,70.47 0,0 -19.41,-33.33 -15.52,-68.36 0,0 -15.13,14.04 -15.17,24.55 0,0 -4.82,-32.78 8.29,-52.32 0,0 -4.37,-4.53 -14.57,10.76 0,0 -5.6,-54.53 53.08,-80.65 0,0 -20.06,44.61 -5.94,71.85 0,0 14.01,-37.83 30.09,-45.93 -1.17,-3.8 -2.45,-7.54 -3.81,-11.25 z m -311.37,-146.71 12.2,-0.98 c 0.33,-2.24 0.72,-4.57 1.17,-6.95 -4.19,1.15 -8.36,2.35 -12.47,3.7 -0.31,1.42 -0.63,2.82 -0.9,4.23 z m 13.05,59.07 c -1.57,-9.08 -2.53,-18.82 -2.62,-29.28 0,0 -0.73,-11.09 1.24,-26.89 l -12.5,1.76 c -3.11,19.25 -2.58,38.59 -0.6,55.49 z m 0.68,3.64 -14.56,2.06 c 0.17,1.27 0.35,2.53 0.54,3.77 l 14.98,-1.12 c -0.35,-1.54 -0.65,-3.13 -0.96,-4.71 z m 312.41,168.25 c 0,-21.56 -2.8,-42.46 -7.99,-62.4 -0.28,14.79 0.52,40.57 7.95,61.01 0,0.47 0.04,0.93 0.04,1.39 z m -247.66,274.74 c -151.73,0 -274.73,-123 -274.73,-274.74 0,-151.73 123,-274.74 274.73,-274.74 151.74,0 274.74,123.01 274.74,274.74 0,151.74 -123,274.74 -274.74,274.74 z m 51.42,-168.74 c -5.02,-13.37 7.66,-16.72 7.66,-16.72 69.54,66.82 47.26,93.5 47.26,93.5 -5.51,-31.11 -54.92,-76.78 -54.92,-76.78" /><path
         id="path180"
         style="fill:#b61d23;fill-opacity:1;fill-rule:nonzero;stroke:none"
         d="m 1736.85,649.602 c -5.64,0.187 -11.27,0.437 -16.89,0.707 5.62,-0.278 11.25,-0.52 16.89,-0.707 z m -330.54,380.138 c 0.81,5.97 1.65,11.85 2.54,17.65 l 70.07,-5.22 c -1.64,-7.19 -3.06,-14.62 -4.5,-22.01 z m 58.49,-289.26 -58.47,8.231 c -14.52,89.98 -12.04,180.43 -2.77,259.469 l 67.69,-5.06 c -7.36,-42.472 -11.83,-87.991 -12.28,-136.929 0,0 -3.38,-51.839 5.83,-125.711 z m -407.76,1117.15 c -0.79,-10.94 -10.34,-19.15 -21.28,-18.36 -10.96,0.8 -19.18,10.33 -18.37,21.27 0.79,10.95 10.33,19.18 21.27,18.38 10.93,-0.8 19.18,-10.34 18.38,-21.29 z m 77.01,-7.75 c -1.11,-15.14 -14.26,-26.53 -29.41,-25.42 -15.15,1.12 -26.53,14.29 -25.43,29.43 1.11,15.13 14.3,26.51 29.44,25.41 15.13,-1.12 26.51,-14.3 25.4,-29.42 z m 630.02,107.66 c 0,0 -49.58,-64.58 -121.36,-86.6 0,0 -52.26,-21.51 -88.33,18.15 0,0 51.12,85.92 209.69,68.45 z m 68.28,-1307.341 c 7.5,0.36 14.98,0.801 22.45,1.289 -7.47,-0.488 -14.95,-0.929 -22.45,-1.289 z m 24.27,1.41 c 117.28,8.012 229.7,33.59 334.83,73.883 -62.61,11.938 -128.87,25.539 -199.51,41.188 0,0 -364.03,136.23 -149.51,589 0,0 242.75,322.25 199.04,499.24 0,0 112,-121.55 -155.33,-521.34 0,0 -107.72,-181.03 -0.93,-373.971 0,0 126.71,-281.308 416.09,-147.597 l -225.91,61.886 c 0,0 165.14,37 160.41,230.042 0,0 -205.16,-170.088 -296.22,82.15 0,0 -26.02,160.6 112.03,188.27 0,0 84.76,-28.87 79.24,-104.05 l 17.15,-23.92 c 0,0 50.07,219.24 -24.78,383.41 0,0 115.57,-72.69 118.4,-137.14 0,0 16.35,274.62 -122.68,439.7 0,0 132.45,54.51 182.87,20.61 0,0 -70.96,114.75 -190.93,127.32 0,0 438.69,315.44 375.59,433.41 0,0 -195.64,-246.35 -494.11,-349.17 0,0 18.56,149.77 -62.11,235.02 0,0 33.84,-157.38 -99.01,-268.54 0,0 -19.32,148.77 -123.36,224.39 0,0 36.67,-221.83 -7.98,-263.89 l 40.5,-14.31 -31.18,-12.81 c 0,0 -257.07,49.06 -243.28,-174.87 0,0 64.63,-46.28 29.73,-58.84 0,0 -216.72,-18.13 -280.49,39.44 0,0 -17.68,171.31 -199.62,59.96 0,0 -88.271,-121.98 4.02,-151.42 0,0 -85.084,-129.77 36.73,-168.93 0,0 -40.34,-189.72 113.79,-303.03 l 9.38,127.77 c 0,0 40.88,-112.57 106.85,-140.08 0,0 -3.83,102.3 19.08,157.29 0,0 49.77,-94.31 75.81,-100 0,0 15.78,112.19 68.21,157.47 l 56.45,-106.14 68.47,161.22 51.06,-128.44 c 0,0 55.73,90.38 51.25,132.29 0,0 240.89,39 251.35,181.81 0,0 14.99,-155.98 -183.92,-292.55 0,0 -192.39,-123.04 -261.06,-398.41 l -70.76,9.96 c 18.48,109.94 46.1,186.01 46.1,186.01 l -44.53,-36.75 c -66.54,-202.04 -81.13,-361.529 -63.91,-487.521 21.22,-8.43 42.72,-16.27 64.52,-23.457 -1.46,6.598 -2.97,13.168 -4.25,19.769 l 57.08,-4.632 c 1.54,-10.547 3.37,-21.477 5.49,-32.7 79.18,-21.527 161.67,-35.027 246.61,-39.269 -612.68,30.129 -1100.15,536.37 -1100.15,1156.51 0,639.52 518.43,1157.96 1157.97,1157.96 639.52,0 1157.97,-518.44 1157.97,-1157.96 0,-612.83 -476.07,-1114.428 -1078.55,-1155.241 z M 1777.2,3091.46 c -709.49,0 -1284.626,-575.15 -1284.626,-1284.61 0,-709.48 575.136,-1284.62 1284.626,-1284.62 709.48,0 1284.62,575.14 1284.62,1284.62 0,709.46 -575.14,1284.61 -1284.62,1284.61 z m 1051.28,-1770 c 13.8,29.8 26.54,60.18 37.79,91.3 -50.71,57.26 -93.15,118.82 -111.17,178.3 0,0 19.21,-133.16 73.38,-269.6 z M 2843,1656.4 c 0,0 -43.6,229.88 11.32,308.98 0,0 -105.15,-94.3 -95.9,-174.34 0,0 -102.98,192.7 -62.75,329.52 0,0 -90.74,-155.8 -72.54,-319.59 0,0 -70.76,65.63 -70.92,114.77 0,0 -22.57,-153.25 38.73,-244.64 0,0 -20.44,-21.18 -68.09,50.32 0,0 -26.22,-254.99 248.16,-377.09 0,0 -93.78,208.56 -27.77,335.94 0,0 65.5,-176.89 140.71,-214.78 4.98,16.18 9.62,32.49 13.9,48.96 -1.38,69.01 2.28,190.01 37.14,285.9 0.03,2.17 0.18,4.32 0.18,6.5 0,4.73 -0.31,9.38 -0.36,14.08 -29.58,-31.97 -90.25,-104.69 -91.81,-164.53 z m -825.4,646.08 c -23.47,-62.5 35.84,-78.2 35.84,-78.2 325.13,312.44 220.94,437.18 220.94,437.18 -25.75,-145.44 -256.78,-358.98 -256.78,-358.98" /><path
         id="path182"
         style="fill:#b61d23;fill-opacity:1;fill-rule:nonzero;stroke:none"
         d="m 4356.71,2024.13 c 1.67,1.89 3.3,3.81 4.91,5.76 -1.61,-1.95 -3.24,-3.87 -4.91,-5.76 z m -6.03,-6.63 c 1.68,1.77 3.32,3.57 4.95,5.4 -1.63,-1.83 -3.27,-3.63 -4.95,-5.4 z m 11.8,13.43 c 1.66,2.03 3.29,4.09 4.89,6.18 -1.6,-2.09 -3.23,-4.15 -4.89,-6.18 z m -18.1,-19.87 c 1.69,1.66 3.35,3.36 5,5.08 -1.65,-1.72 -3.31,-3.42 -5,-5.08 z m -6.56,-6.24 c 1.72,1.58 3.4,3.19 5.08,4.81 -1.68,-1.62 -3.36,-3.23 -5.08,-4.81 z m -69.09,-44.75 c -1.35,-0.58 -2.7,-1.13 -4.06,-1.69 1.36,0.56 2.71,1.11 4.06,1.69 z m 8.54,3.88 c -1.34,-0.64 -2.69,-1.25 -4.03,-1.86 1.34,0.61 2.69,1.22 4.03,1.86 z m 8.36,4.18 c -1.33,-0.7 -2.69,-1.36 -4.04,-2.04 1.35,0.68 2.71,1.34 4.04,2.04 z m 8.19,4.5 c -1.37,-0.78 -2.76,-1.53 -4.14,-2.29 1.38,0.76 2.77,1.51 4.14,2.29 z m 8,4.79 c -1.48,-0.92 -2.99,-1.8 -4.48,-2.69 1.49,0.89 3,1.76 4.48,2.69 z m 20.82,14.59 c -6.18,-4.81 -12.6,-9.34 -19.24,-13.56 6.64,4.23 13.06,8.75 19.24,13.56 z m 6.77,5.48 c -1.8,-1.5 -3.6,-3 -5.44,-4.46 1.84,1.46 3.64,2.96 5.44,4.46 z m 6.81,5.91 c -1.72,-1.55 -3.45,-3.09 -5.21,-4.59 1.76,1.5 3.49,3.04 5.21,4.59 z m 36.63,41.14 c -1.6,-2.25 -3.24,-4.48 -4.91,-6.68 1.67,2.2 3.31,4.43 4.91,6.68 z m -145.84,-67.56 -2.07,-14.49 -8.7,-18.43 c -14.79,-2.77 -30.01,-4.28 -45.6,-4.28 -136.78,0 -247.65,110.87 -247.65,247.65 0,136.77 110.87,247.65 247.65,247.65 136.77,0 247.65,-110.88 247.65,-247.65 0,-53.08 -16.74,-102.22 -45.18,-142.52 27.51,39.01 44.03,86.34 45.05,137.47 -7.98,-3.27 -12.42,-5.97 -12.42,-5.97 -28.99,-11.73 -71.09,-1.39 -71.09,-1.39 -31.05,9.67 -73.14,8.29 -73.14,8.29 9.66,-2.76 21.39,-31.05 21.39,-31.05 -11.73,-15.18 -46.92,-14.5 -46.92,-14.5 2.76,-15.18 -38.65,-54.51 -38.65,-54.51 0.43,-40.9 36.62,-92.56 64.25,-126.12 -4.02,-1.59 -8.08,-3.11 -12.2,-4.49 -11.11,11.89 -22.37,24.34 -22.37,24.34 z m 9.94,-28.11 c 1.23,0.34 2.48,0.67 3.7,1.03 -1.22,-0.36 -2.47,-0.69 -3.7,-1.03 z m -9.89,-2.53 c 1.65,0.38 3.29,0.77 4.92,1.18 -1.63,-0.42 -3.27,-0.8 -4.92,-1.18 z m -9.62,-2.05 c 1.99,0.38 3.97,0.78 5.94,1.21 -1.97,-0.43 -3.95,-0.83 -5.94,-1.21 z m -46.8,517.88 c -151.74,0 -274.74,-123.01 -274.74,-274.74 0,-151.74 123,-274.74 274.74,-274.74 151.74,0 274.74,123 274.74,274.74 0,151.73 -123,274.74 -274.74,274.74 z m -86.48,-216.07 c 6.9,34.51 92.47,20.02 92.47,20.02 -11.04,15.17 -51.06,22.08 -51.06,22.08 -57.97,8.97 8.28,65.55 8.28,65.55 -40.72,-6.89 -62.11,-40.02 -62.11,-40.02 -34.5,-44.85 12.42,-67.63 12.42,-67.63 z m 93.16,-76.59 c -8.38,0 -15.18,6.8 -15.18,15.18 0,8.39 6.8,15.18 15.18,15.18 8.39,0 15.18,-6.79 15.18,-15.18 0,-8.38 -6.79,-15.18 -15.18,-15.18 z m -89.02,-73.15 c -5.34,0 -9.66,4.32 -9.66,9.66 0,5.34 4.32,9.67 9.66,9.67 5.34,0 9.66,-4.33 9.66,-9.67 0,-5.34 -4.32,-9.66 -9.66,-9.66 z m 134.57,59.34 c 15.18,-15.87 44.16,-0.69 44.16,-0.69 -19.32,4.15 -37.96,39.34 -37.96,39.34 182.18,-14.49 75.22,131.11 75.22,131.11 17.95,-114.55 -105.58,-82.8 -105.58,-82.8 -27.6,22.76 -66.93,13.11 -66.93,13.11 -39.34,0.69 -57.97,-68.32 -57.97,-68.32 -6.9,-16.56 -45.54,-57.97 -45.54,-57.97 -6.21,-2.07 -5.53,-6.9 -5.53,-6.9 42.79,-102.82 115.25,-17.94 115.25,-17.94 82.12,-27.6 84.88,51.06 84.88,51.06" /><path
         id="path184"
         style="fill:#b61d23;fill-opacity:1;fill-rule:nonzero;stroke:none"
         d="m 3431.05,2123.49 c -0.14,-6.77 -5.05,-12.16 -10.97,-12.03 -5.92,0.11 -10.61,5.7 -10.47,12.46 0.14,6.77 5.05,12.16 10.97,12.04 5.92,-0.12 10.61,-5.71 10.47,-12.47 z m 63.59,110.66 c -4.79,-6.44 -11.03,-9.88 -13.95,-7.71 -2.91,2.16 -1.39,9.14 3.4,15.57 4.79,6.43 11.04,9.87 13.95,7.71 2.91,-2.18 1.39,-9.15 -3.4,-15.57 z m 202.96,-170.49 9.19,5.51 c -41.67,5.52 -80.27,-19.61 -80.27,-19.61 l -4.9,1.23 -7.35,4.9 c 12.86,-36.15 -13.83,-62.62 -13.83,-62.62 -21.93,6.93 -43.63,76.53 -43.63,76.53 -11.64,-7.38 -6.88,-37.19 -6.88,-37.19 -21.49,19.29 -24.14,44.34 -20.93,75.59 0.68,6.69 1.22,15.89 3.58,21.53 19.17,45.79 19.23,62.54 19.23,62.54 5.51,109.07 -63.77,109.34 -63.77,109.34 -2.97,11.01 -12.07,19.09 -17.42,23.03 -2.39,1.76 -4.03,2.7 -4.03,2.7 -14.21,2.97 -26.08,2.05 -35.87,-0.85 -26.53,-7.87 -37.66,-30.4 -37.66,-30.4 7.97,1.22 15.93,1.83 15.93,1.83 -26.96,-7.96 -33.7,-41.05 -33.7,-41.05 30.03,33.71 71.7,30.03 71.7,30.03 -70.47,-5.52 -52.7,-106.01 -52.7,-106.01 2.45,-4.9 -1.23,-9.8 -1.23,-9.8 -25.12,-14.71 -20.83,-33.7 -20.83,-33.7 -9.8,-44.12 34.93,-56.38 34.93,-56.38 55.76,-1.22 51.47,64.96 51.47,64.96 25.12,3.67 62.5,26.95 62.5,26.95 -9.2,-23.28 -47.18,-30.63 -47.18,-30.63 -19.61,-50.86 -17.16,-159.93 -17.16,-159.93 4.05,-15.19 9.1,-28 14.73,-38.85 -117.15,19.62 -206.47,121.39 -206.47,244.12 0,136.77 110.88,247.65 247.66,247.65 136.77,0 247.65,-110.88 247.65,-247.65 0,-46.98 -13.08,-90.9 -35.79,-128.32 -14.56,5.15 -26.97,4.55 -26.97,4.55 z m -184.89,398.51 c -151.74,0 -274.74,-123.01 -274.74,-274.74 0,-151.74 123,-274.74 274.74,-274.74 151.73,0 274.74,123 274.74,274.74 0,151.73 -123.01,274.74 -274.74,274.74 z m 28.3,-115.41 c 0,0 2.7,39.63 -9.16,40.71 0,0 -14.3,3.77 -48.53,-69.29 l 6.74,-10.51 14.29,-0.81 c 0,0 3.5,0.54 1.62,3.77 0,0 -2.7,17.26 14.02,31.54 0,0 9.97,11.59 7.54,-4.85 0,0 0.81,-17.52 -12.4,-30.19 0,0 -5.13,-4.04 0.54,-3.51 0,0 19.68,8.36 26.41,26.96 0,0 5.4,14.29 -1.07,16.18 z m 32.8,-224.84 c 0,43.97 -14.49,65.24 -14.49,65.24 l -0.43,1.29 c 2.14,-43.92 -15.64,-47.41 -16.02,-75.04 -0.29,-21.46 1.09,-38.81 1.09,-38.81 0.43,13.65 21.75,33.26 21.75,33.26 -6.82,-46.48 30.28,-97.66 30.28,-97.66 34.11,42.63 -13.22,92.53 -13.22,92.53 -11.09,10.66 -8.96,17.48 -8.96,19.19 z m -122.57,221.06 c 0,0 -7.01,26.15 -26.96,45.02 0,0 -5.12,5.66 -6.74,-13.47 0,0 -2.13,-24.52 -0.33,-38.07 0.6,-4.48 1.62,-7.77 3.3,-8.57 0,0 1.57,0.77 4.07,1.86 7.47,3.23 23.24,9.32 30.7,6.5 0,0 -1.34,5.66 -4.04,6.73" /><path
         id="path186"
         style="fill:#b61d23;fill-opacity:1;fill-rule:nonzero;stroke:none"
         d="m 4767.91,2055.32 c -2.7,-0.96 -5.39,-1.72 -8.06,-2.3 -0.27,0.29 -0.5,0.58 -0.69,0.89 -0.89,1.5 0.83,3.13 8.75,1.41 z m 9.62,-7.59 c -3.67,-2.77 -11.71,-6.74 -29.31,-10.61 -8.01,-1.76 -18.58,-2.54 -18.58,-2.54 0,0 -23.7,0.41 -32.42,2.19 -4.76,0.97 -30.04,9.74 -23,25.68 0.86,1.95 5.65,2.13 12.13,1.18 16.15,-2.36 42.87,-11.75 45.84,-18.21 0.23,-0.52 0.27,-1.04 0.25,-1.51 1.8,-0.3 3.58,-0.54 5.34,-0.72 14.96,-1.61 28.39,0.66 39.75,4.54 z m 84.86,117.01 c -6.65,-8.81 -15.5,-13.35 -19.76,-10.13 -4.28,3.22 -2.35,12.98 4.29,21.79 6.64,8.82 15.5,13.36 19.76,10.13 4.28,-3.21 2.36,-12.97 -4.29,-21.79 z m 94.23,85.51 c 14.59,1.88 16,7.53 16,7.53 -30.12,17.41 -90.81,8.47 -90.81,8.47 31.05,28.7 18.82,88.93 18.82,88.93 -45.17,-32.94 -57.87,-103.05 -57.87,-103.05 -82.33,-4.23 -94.57,-105.86 -94.57,-105.86 l -39.04,-51.28 c -8.59,1.81 -26.25,-14.15 -27.63,-15.41 -0.06,-0.04 -0.13,-0.12 -0.13,-0.12 0,0 -5.37,-1.54 -9.4,-4.57 -1.62,-1.21 -3.03,-2.67 -3.78,-4.37 -2.61,-5.93 1.41,-18.82 1.41,-18.82 12.7,-30.58 74.63,-19.97 79.05,-19.29 4.41,0.69 38.29,13.91 38.29,13.91 183.77,27.03 140.57,146.68 140.57,146.68 48.89,-118.41 -89.38,-145.15 -89.38,-145.15 l 46.6,-4.58 -54.24,-102.38 38.09,23.77 9.91,-17.81 c -18.79,-4.58 -38.4,-7.07 -58.6,-7.07 -136.77,0 -247.65,110.87 -247.65,247.65 0,136.77 110.88,247.65 247.65,247.65 136.78,0 247.66,-110.88 247.66,-247.65 0,-0.52 -0.04,-1.02 -0.05,-1.54 0,0.11 0.01,0.22 0.01,0.33 -47.5,36.29 -110.91,64.03 -110.91,64.03 z m 67.84,-202.43 c -3.42,-5 -7.08,-9.81 -10.86,-14.53 -13.96,14.52 -16.08,34.88 -16.08,34.88 26.35,72.45 60.22,59.29 60.22,59.29 -50.75,-31.26 -40.27,-65.97 -33.28,-79.64 z m -28.52,-34.48 -6.88,5.55 -12.74,-8.3 -5.86,-19.75 c -24.21,-18.56 -51.93,-32.73 -82.01,-41.38 l 50.26,89.54 26.34,1.41 38.56,-19.04 c -2.49,-2.74 -5.06,-5.4 -7.67,-8.03 z m -25.47,-22.49 c 3.95,3.03 7.79,6.19 11.54,9.43 -3.75,-3.25 -7.59,-6.4 -11.54,-9.43 z m -90.94,-43.77 c 2.98,0.74 5.96,1.53 8.91,2.38 -2.95,-0.85 -5.93,-1.63 -8.91,-2.38 z m -59.62,515.09 c -151.73,0 -274.73,-123.01 -274.73,-274.74 0,-151.74 123,-274.74 274.73,-274.74 151.74,0 274.74,123 274.74,274.74 0,151.73 -123,274.74 -274.74,274.74 z m -110.87,-412.09 c -2.94,0 -5.31,-2.37 -5.31,-5.3 0,-2.94 2.37,-5.31 5.31,-5.31 2.93,0 5.31,2.37 5.31,5.31 0,2.93 -2.38,5.3 -5.31,5.3 z m -19.54,5.95 c -2.93,0 -5.31,-2.38 -5.31,-5.31 0,-2.93 2.38,-5.3 5.31,-5.3 2.93,0 5.3,2.37 5.3,5.3 0,2.93 -2.37,5.31 -5.3,5.31 z m 145.36,209.86 c 0,0 -0.49,66.48 -24.94,90.93 0,0 -45.46,-98.75 24.94,-90.93 z m -24.08,-314.93 35.56,79.44 -44.64,-1.51 2.27,-6.06 -34.05,-77.93 28.75,18.92 12.11,-12.86" /><path
         id="path188"
         style="fill:#b61d23;fill-opacity:1;fill-rule:nonzero;stroke:none"
         d="m 4391.44,1385.65 c -1.69,-3.32 -3.47,-6.58 -5.31,-9.81 1.83,3.23 3.62,6.49 5.31,9.81 z m -6.62,-12.09 c -1.9,-3.28 -3.85,-6.52 -5.89,-9.69 2.04,3.17 3.99,6.41 5.89,9.69 z m -25.86,-36.53 c 4.97,5.82 9.65,11.89 14.07,18.15 -4.42,-6.26 -9.09,-12.33 -14.07,-18.15 z m -16.68,-17.69 c 5.73,5.51 11.21,11.3 16.39,17.35 -5.18,-6.05 -10.65,-11.84 -16.39,-17.35 z m -18.16,-15.86 c 5.78,4.58 11.36,9.4 16.71,14.47 -5.36,-5.07 -10.93,-9.89 -16.71,-14.47 z m -315.19,229.29 c -4.93,-4.21 -14.28,-4.26 -20.25,2.73 -5.97,6.99 -4.29,16.39 0.64,20.6 4.93,4.21 7.94,0.03 13.9,-6.94 5.96,-6.99 10.64,-12.18 5.71,-16.39 z m 139.87,22.95 c -7.08,-2.31 -14.08,-0.34 -15.64,4.41 -1.55,4.75 2.93,10.48 10.01,12.8 7.08,2.31 14.08,0.34 15.63,-4.4 1.56,-4.76 -2.92,-10.49 -10,-12.81 z m 94.24,-25.26 -7.25,-6.21 3.11,21.74 -9.32,-11.39 -3.11,15.53 -7.24,-1.04 c 0,0 45.54,14.49 60.03,101.43 0,0 -63.11,-24.85 -78.64,-48.65 0,0 -31.05,19.66 -50.71,23.8 0,0 -44.5,8.29 -65.2,-23.8 0,0 -39.33,-31.05 -98.32,-33.12 0,0 -14.49,-9.31 -10.35,-16.55 0,0 -4.45,-2.98 -6.02,-13.61 -1.02,-6.87 -0.81,-16.98 2.6,-31.56 0.1,-0.47 0.2,-0.92 0.32,-1.41 0,0 6.21,-25.86 27.94,-21.72 0,0 57.95,4.14 98.32,-8.28 0,0 30.01,-9.31 66.23,12.42 l 4.14,-1.04 c 0,0 32.07,25.86 39.32,33.12 0,0 -6.21,-40.36 -79.69,-61.07 l 21.74,-69.33 c 0,0 -8.03,-87.1 19.82,-139.6 -0.04,0 -0.08,-0.01 -0.12,-0.01 -136.78,0 -247.65,110.88 -247.65,247.65 0,136.78 110.87,247.66 247.65,247.66 136.77,0 247.65,-110.88 247.65,-247.66 0,-40.32 -9.68,-78.35 -26.79,-111.98 -31.9,-1.06 -68.4,0.89 -91.54,12.22 0,0 -64.16,38.29 -56.92,132.46 z m -72.4,242.04 c -151.74,0 -274.74,-123 -274.74,-274.74 0,-151.73 123,-274.74 274.74,-274.74 151.74,0 274.74,123.01 274.74,274.74 0,151.74 -123,274.74 -274.74,274.74 z m -4.73,-142.58 c 23.85,-2.21 36.88,-13.31 36.88,-13.31 14.7,19.7 -2.5,73.78 -2.5,73.78 0.56,-12.77 -34.38,-60.47 -34.38,-60.47" /><path
         id="path190"
         style="fill:#b61d23;fill-opacity:1;fill-rule:nonzero;stroke:none"
         d="m 3754.27,1552.15 c 0.14,-0.6 0.26,-1.2 0.39,-1.81 -0.13,0.61 -0.25,1.21 -0.39,1.81 z m -15.28,-154.99 c 2.86,6.39 5.43,12.94 7.74,19.6 -2.3,-6.67 -4.89,-13.21 -7.74,-19.6 z m -10.78,-21.38 c 3.68,6.51 7.08,13.2 10.18,20.05 -3.1,-6.86 -6.5,-13.54 -10.18,-20.05 z m -19.87,-29.77 c -35.71,68.63 25.44,124.39 25.44,124.39 -19.36,-35.63 -13.02,-72.23 -5.58,-94.63 -5.91,-10.42 -12.55,-20.36 -19.86,-29.76 z m -104.48,-45.13 70.15,9.06 c -22.42,-19.3 -48.32,-34.67 -76.66,-44.98 4.7,20.46 6.51,35.92 6.51,35.92 z m -72.02,-49.96 c 8.19,0.62 16.28,1.66 24.23,3.05 -7.95,-1.4 -16.04,-2.43 -24.23,-3.05 z m -19.13,-0.81 c -0.87,0 -1.73,0.06 -2.61,0.07 9.72,25.74 -6.46,35.86 -6.46,35.86 -14.85,11.14 -38.36,-21.04 -38.36,-21.04 -2.15,-3.14 -4.08,-6.12 -5.9,-9.03 -111.13,24.39 -194.33,123.34 -194.33,241.79 0,136.78 110.88,247.66 247.66,247.66 117.63,0 216.01,-82.06 241.26,-192.03 -112.75,30.03 -219.4,-66.9 -219.4,-66.9 55.68,-86.62 8.66,-152.19 8.66,-152.19 2.37,-21.94 -4.07,-54.94 -11.41,-83.38 -6.32,-0.49 -12.67,-0.81 -19.11,-0.81 z m -44.15,4.02 c 0.31,-0.05 0.62,-0.13 0.93,-0.17 -0.31,0.04 -0.62,0.11 -0.93,0.17 z m 44.15,518.37 c -151.74,0 -274.74,-123 -274.74,-274.74 0,-151.73 123,-274.74 274.74,-274.74 151.73,0 274.74,123.01 274.74,274.74 0,151.74 -123.01,274.74 -274.74,274.74 z m -35.39,-267.02 c 13.58,44.48 35.25,78.25 49.84,97.59 9.04,11.97 15.36,18.41 15.36,18.41 1.84,-17 -4.1,-36.63 -12.65,-55.03 -16.24,-34.95 -41.93,-65.52 -41.93,-65.52 z m -19.71,-123.6 c -7.12,0 -12.89,10.02 -12.89,22.37 0,12.35 5.77,22.37 12.89,22.37 7.12,0 12.89,-10.02 12.89,-22.37 0,-12.35 -5.77,-22.37 -12.89,-22.37 z m 43.98,102.37 -2.28,6.82 c 32.09,17.61 51.2,46.17 62.56,75 3.11,7.89 5.63,15.81 7.68,23.53 10.47,39.36 8.61,73.58 8.61,73.58 0,14.06 -4.58,20.57 -9.87,23.4 -7.28,3.89 -15.9,0.86 -15.9,0.86 -4.8,-3.22 -9.33,-6.65 -13.64,-10.23 -28.45,-23.68 -46.46,-54.49 -57.84,-83.55 -2.4,-6.12 -4.5,-12.17 -6.35,-18.05 -12.37,-39.43 -13.16,-71.65 -13.16,-71.65 l -30.33,3.79 c 9.54,20.59 13.8,43.54 15.03,65.81 1.01,18.19 0,35.91 -1.83,51.55 -3.75,32.19 -10.93,55.51 -10.93,55.51 -17.43,36.39 -27.29,3.03 -27.29,3.03 -34.12,-62.17 3.79,-191.82 3.79,-191.82 -26.54,-14.41 -45.48,-50.81 -45.48,-50.81 -39.43,-72.79 3.02,-119.03 3.02,-119.03 94.78,-50.05 150.89,16.67 150.89,16.67 62.93,71.28 -16.68,145.59 -16.68,145.59" /><path
         id="path192"
         style="fill:#b61d23;fill-opacity:1;fill-rule:nonzero;stroke:none"
         d="m 5057.03,1426.2 c -12.83,10.94 -20.82,42.9 -20.82,42.9 5.13,27.05 16.66,43.19 30.18,52.59 0.76,-7.88 1.18,-15.85 1.18,-23.93 0,-3.78 -0.13,-7.53 -0.31,-11.26 0.13,2.96 0.22,5.94 0.24,8.94 -5.74,-12.72 -5.56,-24.1 -5.56,-24.1 0.53,-5.2 1.28,-9.96 2.23,-14.36 -1.75,-10.5 -4.13,-20.77 -7.14,-30.78 z m -196.05,26.19 c -6.55,-6.71 -14.77,-9.28 -18.36,-5.77 -3.6,3.52 -1.21,11.8 5.33,18.5 6.55,6.71 14.78,9.29 18.38,5.77 3.6,-3.52 1.2,-11.8 -5.35,-18.5 z m -41.07,-202.28 c -136.77,0 -247.65,110.88 -247.65,247.65 0,136.78 110.88,247.66 247.65,247.66 96.38,0 179.81,-55.1 220.73,-135.47 -97.58,2.94 -192.47,-59.14 -192.47,-59.14 -35.82,1.11 -47.01,-20.15 -47.01,-20.15 -24.63,2.24 -21.27,-25.75 -21.27,-25.75 -58.2,-60.44 -49.25,-144.37 -49.25,-144.37 145.55,11.19 204.83,86.17 204.83,86.17 v 34.59 c -4.57,-1.46 -9.43,-2.26 -14.48,-2.26 -26.31,0 -47.64,21.32 -47.64,47.62 0,26.31 21.33,47.63 47.64,47.63 26.29,0 47.62,-21.32 47.62,-47.63 0,-14.09 -6.16,-26.73 -15.9,-35.45 3.52,-64.44 -44.1,-134.04 -44.1,-134.04 -23.51,-35.81 17.91,-19.04 17.91,-19.04 29.1,12.33 59.31,77.25 59.31,77.25 22.63,-2.62 56.05,3.57 69.83,6.45 -32.07,-99.62 -125.47,-171.72 -235.75,-171.72 z m 225.62,349.73 c -1.4,3.11 -2.89,6.18 -4.42,9.2 1.53,-3.02 3.02,-6.09 4.42,-9.2 z m -225.62,172.66 c -151.73,0 -274.73,-123 -274.73,-274.74 0,-151.73 123,-274.74 274.73,-274.74 151.74,0 274.74,123.01 274.74,274.74 0,151.74 -123,274.74 -274.74,274.74 z m -51.54,-426.61 c 20.6,-36.5 24.73,-28.25 24.73,-28.25 -0.59,3.52 -22.97,36.5 -22.97,36.5 -5.88,3.54 -1.76,-8.25 -1.76,-8.25 z m -89.78,65.29 c 0,0 -7.94,-4.69 29.93,-22.68 0,0 12.03,-3.28 8.1,2.34 0,0 -34.46,20.01 -38.03,20.34 z m 13.99,30.38 c 0,0 -9.11,-1.38 19.27,-32.23 0,0 9.93,-7.54 8.38,-0.85 0,0 -24.47,31.44 -27.65,33.08 z m 175.88,-62.11 -24.13,-25.31 c -15.31,-13.54 -6.48,-23.56 -6.48,-23.56 8.24,-9.42 21.78,-0.58 21.78,-0.58 36.5,34.14 35.92,60.04 35.92,60.04 z m -80.07,-30.61 c 20.6,-36.51 24.73,-28.26 24.73,-28.26 -0.59,3.52 -22.97,36.49 -22.97,36.49 -5.88,3.55 -1.76,-8.23 -1.76,-8.23 z m 56.75,211.09 v 7.29 c 0,0 18.71,43.65 -30.16,31.18 0,0 -37.43,-7.27 -13.52,-55.1 0,0 15.61,21.84 43.68,16.63 z m 106.76,-33.27 c 0,17.09 -13.84,30.93 -30.91,30.93 -17.09,0 -30.93,-13.84 -30.93,-30.93 0,-17.07 13.84,-30.92 30.93,-30.92 17.07,0 30.91,13.85 30.91,30.92" /><path
         id="path194"
         style="fill:#b61d23;fill-opacity:1;fill-rule:nonzero;stroke:none"
         d="m 4400.26,786.461 c -62.17,29.09 -70.92,-51.281 -70.92,-51.281 -9.72,40.172 12.63,65.41 12.63,65.41 27.65,32.16 55.08,27.922 76.06,14.91 -0.52,-13.309 -2.05,-26.352 -4.6,-39.039 -7.47,6.719 -13.17,10 -13.17,10 z m -1.01,-56.391 c 6.17,14.789 10.96,30.309 14.18,46.391 -3.22,-16.09 -8.01,-31.602 -14.18,-46.391 z m -263.68,163.739 c -7.4,-3.481 -15.8,-2.329 -18.77,2.589 -2.98,4.903 0.61,11.684 8,15.161 7.39,3.472 15.79,2.312 18.76,-2.598 2.98,-4.91 -0.6,-11.68 -7.99,-15.152 z m 254.48,-183.227 c -3.95,2.34 -8.28,4.359 -13.14,5.879 0,0 -12.09,5.32 -28.82,-9.41 l -6.04,-2.449 -3.72,-25.36 c 0,0 11.61,3.27 21.37,2.867 2.66,-0.121 6.17,-1.25 10.29,-3.558 -7.79,-10.559 -16.43,-20.449 -25.77,-29.629 -20.83,73.387 -107.83,86.976 -107.83,86.976 l -7.16,11.5 -30.22,53.184 c 0,0 9.67,161.648 -85.79,149.938 0,0 -47.14,-8.5 -39.88,-55.309 0,0 -35.04,-21.262 -31.42,-48.902 0,0 33.83,32.972 72.5,3.179 0,0 19.34,-10.629 8.47,-75.508 0,0 -79.76,-112.718 16.91,-175.46 0,0 -7.25,44.66 3.63,53.171 0,0 1.2,-17.011 35.04,-19.14 0,0 -39.37,71.23 38,109.301 l 2.78,-3.454 3.44,-24.117 c -10,-71.41 22.37,-100.59 55,-112.25 -8.41,-4.031 -17.11,-7.543 -26.02,-10.609 3.73,1.289 7.42,2.637 11.06,4.098 -72.96,31.421 -54.9,126.789 -54.9,126.789 -45.12,-28.137 -14.86,-103.559 -14.86,-103.559 l -41.69,4.02 c -5.71,-10.54 2.28,-34.68 2.28,-34.68 6.08,-3.801 11.98,-7.199 17.74,-10.32 -0.22,-0.008 -0.44,-0.02 -0.66,-0.02 -136.78,0 -247.65,110.879 -247.65,247.66 0,136.77 110.87,247.65 247.65,247.65 118.42,0 217.33,-83.162 241.76,-194.24 -59.02,34.649 -102.43,-55.191 -102.43,-55.191 -35.33,-70.348 3.34,-100.859 3.34,-100.859 4.55,-7.379 4.03,-21.84 4.03,-21.84 4.16,-2.578 16.7,-18.301 16.7,-18.301 l 2.59,21.762 2.91,19.668 c 21.14,21.613 42.05,18.14 59.67,5.91 -2.77,-6.617 -5.85,-13.078 -9.16,-19.387 z m -55.66,-70.883 c 2.84,2.492 5.59,5.09 8.31,7.711 -2.72,-2.621 -5.47,-5.211 -8.31,-7.711 z m -10.26,-8.558 c 3.38,2.691 6.7,5.437 9.95,8.281 -3.25,-2.852 -6.57,-5.59 -9.95,-8.281 z m -39.75,21.8 c 11.1,0.731 26.5,-10.402 39.42,-22.043 -2.89,-2.277 -5.81,-4.5 -8.8,-6.648 -14.26,14.789 -30.62,28.691 -30.62,28.691 z M 4246.4,592.32 c 1.4,-0.461 2.93,-0.851 4.53,-1.172 -0.26,-0.089 -0.51,-0.179 -0.78,-0.269 -1.45,0.551 -2.73,1.031 -3.75,1.441 z m -32.9,-10.789 c 12.56,2.199 24.81,5.328 36.65,9.34 -11.85,-4.012 -24.09,-7.152 -36.65,-9.34 z m 200.65,288.809 c -0.26,1.39 -0.55,2.762 -0.83,4.129 0.28,-1.367 0.57,-2.739 0.83,-4.129 z m -243.51,229.81 c -151.74,0 -274.74,-123.009 -274.74,-274.74 0,-151.738 123,-274.75 274.74,-274.75 151.74,0 274.74,123.012 274.74,274.75 0,151.731 -123,274.74 -274.74,274.74 z m -104.88,-100.07 c 0,0 -16.28,3.09 -14.08,-2.709 l 4.84,-14.711 c 0,0 -35.2,5.801 -51.48,-19.762 0,0 -8.8,-8.91 0,-8.128 0,0 33.88,-5.809 38.72,-10.059 0,0 -35.2,-18.981 -45.32,-39.5 0,0 -7.04,-22.461 3.96,-20.531 0,0 4.84,-1.551 8.36,6.59 0,0 16.72,18.191 34.32,18.589 l 2.64,6.192 11.45,-1.172 c 0,0 9.23,34.082 53.24,43.762 0,0 -15.85,44.919 -46.65,41.439 z m -22.45,-231.51 c 23.99,-5.031 47.99,35.7 47.99,35.7 -19.42,-40.231 6.29,-34.688 6.29,-34.688 22.84,21.098 7.42,68.867 7.42,68.867 -2.85,17.09 -19.42,-0.508 -19.42,-0.508 -66.83,-56.812 -42.28,-69.371 -42.28,-69.371" /><path
         id="path196"
         style="fill:#b61d23;fill-opacity:1;fill-rule:nonzero;stroke:none"
         d="m 3689.94,652.52 c -5.25,0.968 -10.88,1.64 -17,1.871 0,0 -92.07,-8.86 -113.15,52.14 l -5.54,-4.441 c 0,0 -32.17,59.89 -29.95,112.031 l -9.98,-7.75 -33.28,-52.141 c 0,0 9.27,-58.699 3.72,-86.429 0,0 -25.38,-42.129 -19.14,-85.512 7.58,-1.469 15.28,-2.59 23.09,-3.348 -125.51,12.071 -223.66,117.789 -223.66,246.469 0,136.77 110.88,247.65 247.66,247.65 136.77,0 247.65,-110.88 247.65,-247.65 0,-67.289 -26.87,-128.262 -70.42,-172.89 z m -13.01,-12.411 c 4.48,3.969 8.82,8.102 13,12.391 -4.19,-4.289 -8.52,-8.422 -13,-12.391 z M 3490.91,578.77 c 3.18,-0.282 6.38,-0.551 9.59,-0.7 -3.22,0.149 -6.41,0.418 -9.59,0.7 z m 21.8,521.38 c -151.74,0 -274.74,-123.009 -274.74,-274.74 0,-151.738 123,-274.75 274.74,-274.75 151.73,0 274.74,123.012 274.74,274.75 0,151.731 -123.01,274.74 -274.74,274.74 z m -51.56,-358.279 c -6.97,-22.051 -27.37,-26.25 -27.37,-26.25 4.63,-6.609 2.84,-44.41 2.84,-44.41 15.08,0.898 20.96,33.168 20.96,33.168 3.96,-5.289 5.82,-28.668 5.82,-28.668 17.19,8.59 4.51,57.609 4.51,57.609 z m 2.75,92.098 c -3.46,-6.828 -10.53,-10.207 -15.81,-7.539 -5.27,2.66 -6.74,10.371 -3.29,17.199 3.46,6.84 10.54,10.211 15.81,7.551 5.27,-2.668 6.74,-10.371 3.29,-17.211 z m -29.39,-88.821 -6.45,-11.437 c -1.95,-3.461 -6.14,-4.281 -9.05,-2.641 l 0.02,-0.019 c -2.9,1.648 -6.6,2.73 -4.65,6.187 0,0 0.52,1.731 3.57,0.883 1.13,-0.312 1.71,-0.57 1.71,-0.57 l 7.18,12.258 c 1.95,3.461 3.03,6.211 5.94,4.562 2.9,-1.652 3.68,-5.769 1.73,-9.223 z m 69.24,270.492 c -69.9,-41.519 -56.76,-110.37 -56.76,-110.37 -30.48,3.171 -44.67,-16.809 -44.67,-16.809 -22.08,-29.43 -17.87,-107.75 -17.87,-107.75 1.58,-27.32 25.75,-52.031 25.75,-52.031 4.2,-4.719 27.86,-1.051 27.86,-1.051 9.45,5.793 21.55,34.172 21.55,34.172 11.03,4.719 56.76,67.269 56.76,67.269 l 4.21,-4.73 c 1.05,8.93 -10.52,35.211 -10.52,35.211 29.96,-6.832 43.1,18.918 43.1,18.918 -27.85,23.652 -69.9,24.703 -69.9,24.703 -1.58,18.918 20.49,112.468 20.49,112.468 z m -72.85,-97.499 c -9.09,23.257 8.57,108.279 8.57,108.279 -60.45,-41.631 -43.24,-128.979 -43.24,-128.979 3.91,8.09 34.67,20.7 34.67,20.7" /><path
         id="path198"
         style="fill:#b61d23;fill-opacity:1;fill-rule:nonzero;stroke:none"
         d="m 4775.1,845.48 c 0,0 10.44,40.942 29.7,56.18 0,0 33.72,-56.18 -29.7,-56.18 z m 72.46,-266.14 c 13.04,36.672 35.89,65.492 35.89,65.492 24.08,35.309 30.51,52.156 30.51,52.156 51.36,130.84 31.29,202.262 31.29,202.262 -1.84,6.289 -4.37,11.602 -7.35,16.191 -17.73,38.141 -69.9,117.299 -182.07,62.469 0,0 -78.66,-28.898 -77.85,-109.969 0,0 -1.61,-83.472 20.07,-85.082 0,0 43.34,-12.828 64.21,1.61 l 50.56,40.941 c 0,0 22.48,13.641 22.48,43.328 0,0 4.81,32.922 3.21,49.782 l 3.21,-6.43 c 0,0 6.63,31.84 38.02,22.82 10.12,-5.172 17.96,-13.949 23.41,-21.781 -14.81,-22.32 -44.31,-27.66 -44.31,-27.66 16.9,-14.848 42.23,4.941 52.29,14.051 0.81,-1.68 1.22,-2.668 1.22,-2.668 33.71,-107.563 -39.33,-227.141 -39.33,-227.141 -30.83,-43.93 -44.54,-73.609 -50.62,-91.891 -0.83,-0.011 -1.65,-0.07 -2.49,-0.07 -4.05,0 -8.07,0.121 -12.07,0.309 5.21,2.523 8.7,4.82 8.7,4.82 -20.39,-5.828 -36.8,3.57 -43.81,8.711 4.27,10.539 8.75,21.012 13.3,31.129 23.98,-13.239 46.78,3.113 46.78,3.113 -15.75,-1.023 -31.06,12.207 -37.04,18.078 4.44,9.391 8.81,18.34 12.97,26.61 28.4,-9.379 46.2,2.812 46.2,2.812 -17.88,0.918 -30.56,10.539 -36.51,16.137 7.78,14.953 13.98,26.191 17.09,31.742 38.84,-7.262 46.1,4.18 46.1,4.18 -23.43,-2.211 -33.63,7.57 -37.77,14.089 2.72,7.25 4.78,14.211 6.24,20.829 42.11,4.363 44.54,24.293 44.54,24.293 -13.91,-8.762 -33.91,-6.09 -41.64,-4.602 0.5,6.809 0.42,13.129 -0.04,18.891 47,22.16 54.7,57.3 54.7,57.3 -23.84,-30.23 -53.89,-30.851 -60.03,-30.652 -2.6,7.691 -5.1,11.922 -5.1,11.922 10.43,-44.949 -18.46,-106.762 -18.46,-106.762 -32.23,-52.41 -53.52,-103.738 -67.25,-144.719 -106.19,27.911 -184.55,124.481 -184.55,239.43 0,136.77 110.88,247.65 247.65,247.65 136.78,0 247.66,-110.88 247.66,-247.65 0,-127.418 -96.26,-232.308 -220.01,-246.07 z m -12.41,-1.078 c 4.1,0.258 8.18,0.609 12.23,1.058 -4.05,-0.449 -8.13,-0.8 -12.23,-1.058 z m -15.24,521.888 c -151.73,0 -274.73,-123.009 -274.73,-274.74 0,-151.738 123,-274.75 274.73,-274.75 151.74,0 274.74,123.012 274.74,274.75 0,151.731 -123,274.74 -274.74,274.74 z M 4703.66,721.871 c 3.22,-12.039 31.31,-24.07 31.31,-24.07 -16.86,17.66 -15.26,61.008 -15.26,61.008 -2.41,5.601 -15.25,2.402 -15.25,2.402 -20.87,-8.832 -11.23,-76.25 -11.23,-76.25 0,3.199 10.43,36.91 10.43,36.91" /><path
         id="path200"
         style="fill:none;stroke:#100f0d;stroke-width:5;stroke-linecap:butt;stroke-linejoin:miter;stroke-miterlimit:4;stroke-dasharray:none;stroke-opacity:1"
         d="M 270,360 H 0" /><path
         id="path202"
         style="fill:none;stroke:#100f0d;stroke-width:5;stroke-linecap:butt;stroke-linejoin:miter;stroke-miterlimit:4;stroke-dasharray:none;stroke-opacity:1"
         d="M 360,270 V 0" /><path
         id="path204"
         style="fill:none;stroke:#100f0d;stroke-width:5;stroke-linecap:butt;stroke-linejoin:miter;stroke-miterlimit:4;stroke-dasharray:none;stroke-opacity:1"
         d="M 270,3280 H 0" /><path
         id="path206"
         style="fill:none;stroke:#100f0d;stroke-width:5;stroke-linecap:butt;stroke-linejoin:miter;stroke-miterlimit:4;stroke-dasharray:none;stroke-opacity:1"
         d="m 360,3370 v 270" /><path
         id="path208"
         style="fill:none;stroke:#100f0d;stroke-width:5;stroke-linecap:butt;stroke-linejoin:miter;stroke-miterlimit:4;stroke-dasharray:none;stroke-opacity:1"
         d="m 5366.68,3280 h 270" /><path
         id="path210"
         style="fill:none;stroke:#100f0d;stroke-width:5;stroke-linecap:butt;stroke-linejoin:miter;stroke-miterlimit:4;stroke-dasharray:none;stroke-opacity:1"
         d="m 5276.68,3370 v 270" /><path
         id="path212"
         style="fill:none;stroke:#100f0d;stroke-width:5;stroke-linecap:butt;stroke-linejoin:miter;stroke-miterlimit:4;stroke-dasharray:none;stroke-opacity:1"
         d="m 5366.68,360 h 270" /><path
         id="path214"
         style="fill:none;stroke:#100f0d;stroke-width:5;stroke-linecap:butt;stroke-linejoin:miter;stroke-miterlimit:4;stroke-dasharray:none;stroke-opacity:1"
         d="M 5276.68,270 V 0" /></g></g></svg>