<?xml version="1.0" encoding="UTF-8" standalone="no"?>
<svg
   xmlns:dc="http://purl.org/dc/elements/1.1/"
   xmlns:cc="http://creativecommons.org/ns#"
   xmlns:rdf="http://www.w3.org/1999/02/22-rdf-syntax-ns#"
   xmlns:svg="http://www.w3.org/2000/svg"
   xmlns="http://www.w3.org/2000/svg"
   viewBox="0 0 1066.6667 800"
   height="800"
   width="1066.6667"
   xml:space="preserve"
   id="svg2"
   version="1.1"><metadata
     id="metadata8"><rdf:RDF><cc:Work
         rdf:about=""><dc:format>image/svg+xml</dc:format><dc:type
           rdf:resource="http://purl.org/dc/dcmitype/StillImage" /></cc:Work></rdf:RDF></metadata><defs
     id="defs6" /><g
     transform="matrix(1.3333333,0,0,-1.3333333,0,800)"
     id="g10"><g
       transform="scale(0.1)"
       id="g12"><path
         id="path14"
         style="fill:#ffffff;fill-opacity:1;fill-rule:nonzero;stroke:none"
         d="m 7061.49,1203.5 c 0,-371.77 -301.38,-673.148 -673.16,-673.148 -371.77,0 -673.15,301.378 -673.15,673.148 0,371.77 301.38,673.15 673.15,673.15 371.78,0 673.16,-301.38 673.16,-673.15" /><path
         id="path16"
         style="fill:#000000;fill-opacity:1;fill-rule:nonzero;stroke:none"
         d="m 6388.34,1859.01 c -361.46,0 -655.52,-294.06 -655.52,-655.51 0,-361.449 294.06,-655.508 655.52,-655.508 361.44,0 655.5,294.059 655.5,655.508 0,361.45 -294.06,655.51 -655.5,655.51 z m 0,-1346.299 c -380.91,0 -690.79,309.891 -690.79,690.789 0,380.91 309.88,690.79 690.79,690.79 380.9,0 690.78,-309.88 690.78,-690.79 0,-380.898 -309.88,-690.789 -690.78,-690.789" /><path
         id="path18"
         style="fill:#000000;fill-opacity:1;fill-rule:nonzero;stroke:none"
         d="m 6886.44,1271.43 c -12.63,25.06 -6.31,56.2 -29.53,76.65 -7.08,6.24 -15.6,10.61 -24.68,14.03 -5.72,11.38 -21.41,19.64 -30.39,26.8 -18.14,14.48 -37.58,28.96 -58.28,39.58 -19.26,9.88 -40.27,15.21 -61.86,16.44 -11.5,0.65 -23.68,1.1 -35.79,0.7 -5.96,2.23 -11.89,4.52 -18.07,6.16 -12.31,3.28 -25.13,5.24 -37.6,7.85 -25.54,5.33 -51.08,4.48 -76.88,7.12 -23.91,2.44 -46.51,4.99 -70.45,3.65 -25.59,12.98 -52.88,23.34 -81.19,27.54 -18,2.68 -35.12,1.04 -51.62,-3.33 -17.45,1.76 -36.59,-5.24 -52.08,-11.09 -30.86,-11.66 -62.32,-21.14 -92.74,-33.97 -19.33,-8.16 -51.65,-5.66 -66.76,-22.4 -0.44,0.48 -0.92,0.91 -1.25,1.03 -9.39,3.42 -21.13,9.6 -30.16,1.93 -7.26,-6.16 -11.2,-17.52 -15.4,-26.51 -0.54,0.35 -1.08,0.56 -1.17,0.27 -2.8,-8.46 -14.16,-10.35 -21.49,-13.35 -6.5,-2.66 -12.89,-6.52 -17.71,-11.7 -9.08,-9.75 -9.98,-24.24 -9.6,-37.54 -0.08,-0.05 -0.16,-0.11 -0.19,-0.21 -2.91,-9.56 -2.72,-19.04 -0.3,-27.97 -13.77,-12.87 -17.51,-39.4 -23.97,-55.46 -2.15,-5.33 -2.76,-9.87 -2.38,-14.24 -0.18,-0.01 -0.22,-0.13 0.04,-0.4 0.1,-0.97 0.25,-1.93 0.44,-2.89 -1.01,-1.66 -3.58,-3.41 -4.87,-5.2 -2.02,-2.84 -3.45,-6.05 -4.89,-9.2 -3.81,-8.28 -6.88,-16 -14.25,-21.72 -7.22,-5.6 -13.14,-9.24 -17.22,-17.82 -4.69,-9.86 -8.39,-17.3 -15.95,-25.17 -7.23,-7.53 -8.14,-12.89 -9.89,-22.92 -0.47,-2.66 -1.19,-4.89 -2.14,-6.84 -11.08,4.72 -23,8.41 -34.31,10.7 -0.94,0.19 -1.99,-0.97 -1.35,-1.82 6.39,-8.48 14.72,-15.31 23.84,-20.87 -0.4,-0.28 -0.8,-0.56 -1.22,-0.84 -7.92,-5.48 -16.12,-11.29 -18.04,-20 -11.06,-8.88 -1.04,-26.34 9.98,-35.35 7.55,-6.19 18.76,-13.9 29.07,-12.88 1.47,0.14 2.89,0.49 4.26,0.98 5.83,-2.46 12.18,-3.88 18.73,-4.15 13,-0.54 25.43,3.33 37.58,7.52 13.69,4.73 27.49,8.01 41.37,12.02 14.55,4.2 29.28,8.6 43.63,13.42 13.12,4.41 24.97,11.66 37.6,17.21 10.5,4.63 22.2,6.34 32.82,10.54 39.22,-8.6 79.39,-13.45 119.4,-11.12 0.17,-0.81 0.34,-1.62 0.48,-2.45 3.25,-18.54 4.14,-36.01 2.7,-54.68 -0.72,-9.22 -5.59,-33.59 -4.78,-34.06 -3.15,-10.041 -25.21,-32.908 -32.78,-40.6 -1.73,-1.172 -3.07,-2.218 -4.1,-4.32 -0.97,-2 -1.43,-4.148 -1.57,-6.359 -0.02,-0.321 1.7,-4.11 2.75,-4.172 8.44,-0.5 18.17,-4.778 26.57,-2.438 14.05,-0.441 40.58,21.981 41.1,21.699 0.01,-0.109 0.01,-0.218 0.02,-0.328 0.03,-0.754 6.47,-4.64 7.83,-4.203 2.84,0.93 2.06,7.223 1.79,9.84 -0.01,0.172 2.11,43.941 6.67,65.311 2.03,9.5 6.35,28.03 6.38,28.47 0.11,1.8 0.35,3.55 0.66,5.27 2.44,-5.7 4.25,-11.82 5.43,-18.52 3.25,-18.53 4.14,-36.01 2.69,-54.68 -0.71,-9.21 -5.58,-33.589 -4.78,-34.05 -3.15,-10.039 -25.2,-32.91 -32.78,-40.61 -1.73,-1.171 -3.07,-2.21 -4.09,-4.32 -0.97,-2 -1.44,-4.14 -1.58,-6.359 -0.01,-0.309 1.7,-4.102 2.75,-4.16 8.44,-0.5 18.17,-4.789 26.58,-2.442 14.05,-0.437 40.58,21.973 41.1,21.703 0,-0.113 0.01,-0.222 0.01,-0.332 0.03,-0.761 6.47,-4.64 7.83,-4.199 2.84,0.918 2.07,7.211 1.8,9.84 -0.02,0.16 2.1,43.93 6.67,65.309 2.02,9.49 6.34,28.02 6.37,28.46 1.46,22.51 19.81,37.66 13.2,61.19 -2.96,10.53 -7.15,20.69 -11.91,30.64 0.32,0.07 0.65,0.14 0.97,0.21 2.52,-0.51 5,-1.04 7.4,-1.65 18.05,-4.58 35.93,-10.07 54.29,-13.35 19.22,-3.43 38.83,-3.91 58.31,-3.11 37.69,1.56 74.72,6.3 111.4,15.06 10.03,2.39 20.07,4.72 30.18,6.51 11.37,-11.86 18.25,-25.12 21.21,-42 3.25,-18.53 4.14,-36.01 2.7,-54.67 -0.72,-9.22 -5.59,-33.599 -4.78,-34.06 -3.15,-10.039 -25.21,-32.91 -32.78,-40.609 -1.73,-1.172 -3.07,-2.211 -4.1,-4.321 -0.97,-2 -1.43,-4.14 -1.57,-6.351 -0.02,-0.321 1.7,-4.11 2.75,-4.168 8.44,-0.5 18.17,-4.781 26.57,-2.442 14.05,-0.437 40.58,21.973 41.1,21.7 0.01,-0.11 0.01,-0.219 0.02,-0.329 0.03,-0.761 6.47,-4.64 7.83,-4.199 2.84,0.918 2.06,7.219 1.79,9.84 -0.01,0.16 2.11,43.929 6.67,65.309 2.03,9.49 6.35,28.03 6.38,28.46 1.12,17.36 12.28,30.35 14.3,46.17 0.19,-0.17 0.39,-0.33 0.58,-0.51 14.79,-13.27 23.45,-27.96 26.88,-47.48 3.25,-18.53 4.14,-36.01 2.69,-54.68 -0.71,-9.21 -5.58,-33.589 -4.78,-34.05 -3.15,-10.039 -25.2,-32.91 -32.77,-40.61 -1.74,-1.171 -3.08,-2.21 -4.1,-4.32 -0.97,-2 -1.44,-4.14 -1.58,-6.359 -0.01,-0.309 1.7,-4.102 2.75,-4.16 8.44,-0.5 18.17,-4.789 26.58,-2.442 14.05,-0.437 40.58,21.973 41.1,21.703 0,-0.113 0.01,-0.222 0.01,-0.332 0.03,-0.761 6.47,-4.64 7.83,-4.199 2.84,0.918 2.07,7.211 1.8,9.84 -0.02,0.16 2.1,43.93 6.67,65.309 2.02,9.49 6.34,28.02 6.37,28.46 1.46,22.51 19.81,37.66 13.2,61.19 -0.66,2.36 -1.41,4.7 -2.19,7.03 0.42,-0.23 0.84,-0.34 1.03,-0.17 0.63,0.57 1.18,1.19 1.71,1.84 0.67,0.04 1.34,0.04 2.01,0.09 0.41,0.04 -0.14,0.88 -0.83,1.54 4.59,7.14 4.63,17.57 5,25.53 0.54,11.35 -0.15,22.75 1.36,34.04 1.24,9.31 2.43,19.25 2.57,29.13 12.17,21.79 22.29,45.49 25.95,69.53 3.23,21.19 3.1,45.9 -5.14,66.49 5.48,-2.6 10.52,-6.24 14.99,-11.96 8.62,-11.05 15.22,-24.28 17.75,-38.14 -0.78,0.43 -1.6,0.71 -1.3,0.1 5.26,-10.87 -0.58,-22.1 2.02,-33.3 1.24,-5.37 4.5,-10.33 7.64,-14.77 4.02,-5.69 12.71,-17.44 21.07,-13.84 0.2,0.09 0.11,0.29 -0.11,0.52 15.97,12.33 -1.29,42.76 -13.5,57.35" /><path
         id="path20"
         style="fill:#ffffff;fill-opacity:1;fill-rule:nonzero;stroke:none"
         d="m 2321.27,1236.56 c 0,-371.771 -301.38,-673.15 -673.15,-673.15 -371.78,0 -673.155,301.379 -673.155,673.15 0,371.77 301.375,673.15 673.155,673.15 371.77,0 673.15,-301.38 673.15,-673.15" /><path
         id="path22"
         style="fill:#000000;fill-opacity:1;fill-rule:nonzero;stroke:none"
         d="m 1648.12,1892.07 c -361.46,0 -655.518,-294.06 -655.518,-655.51 0,-361.451 294.058,-655.521 655.518,-655.521 361.44,0 655.51,294.07 655.51,655.521 0,361.45 -294.07,655.51 -655.51,655.51 z m 0,-1346.3 c -380.91,0 -690.796,309.878 -690.796,690.79 0,380.9 309.886,690.79 690.796,690.79 380.9,0 690.78,-309.89 690.78,-690.79 0,-380.912 -309.88,-690.79 -690.78,-690.79" /><path
         id="path24"
         style="fill:#000000;fill-opacity:1;fill-rule:nonzero;stroke:none"
         d="m 2180.38,1424.14 c -4.82,12.12 -13.27,22.41 -22.07,32.02 -30.39,33.2 -68.13,61.63 -112.03,71.51 -43.9,9.89 -94.45,-1.94 -122.6,-37.05 -23.34,-29.12 -28.3,-69.57 -22.21,-106.39 6.09,-36.83 21.97,-71.18 36.81,-105.43 14.84,-34.24 28.97,-69.66 31.17,-106.92 2.65,-44.62 -12.82,-90.05 -42.14,-123.79 -29.33,-33.74 -72.16,-55.379 -116.72,-58.981 -10.06,-0.808 -20.51,-0.847 -30.9,-1.109 6.05,13.11 10.27,29.15 11.95,48.69 1.41,16.48 0.41,31.21 -4.96,53.73 -5.36,31.11 -17.79,75.89 -39.96,140.09 -19.25,55.72 -44.68,149.06 -108.19,198.72 -47.12,36.84 -80,58.77 -103.8,69.92 v 0.01 c 0.96,0.65 -55.35,60.63 -69.46,62.87 -22,16.25 -54.89,18.42 -84.23,0.56 -35.85,-7.21 -39.99,-20.62 -60.95,-47.63 -9.67,-12.45 -6.95,-23.92 1.67,-30.04 5.37,-3.81 10.5,-1.76 13.08,-12.11 2.08,-8.34 -1.08,-3 -11.37,-33.8 -9.5,-13.24 -5.4,-14.3 -1.81,-23.66 2.73,-7.13 7.73,-13.1 14.62,-13.29 1.19,-22.89 29.2,-21.21 50.49,-11.4 15.68,0.34 21.97,-6.47 24.75,-10.73 1.91,-12.16 7.23,-24.26 12.14,-33.26 -4.96,-10.35 -8.22,-22.52 -9.79,-31.49 -13.11,-14.51 -24.39,-30.55 -36.34,-46.11 -1.54,-2.01 -4.29,-4.63 -7.77,-7.59 -9.25,1.81 -15.9,3.22 -16.67,3.37 0.05,0.67 -108.92,31.3 -139.44,52.86 -3.9,6.2 -7.79,12.42 -11.72,18.6 -3.71,5.82 -7.65,11.57 -12.54,16.47 -4.75,4.75 -10.53,8.53 -17.19,9.85 -7.69,1.53 -16.09,0.04 -23.64,-1.7 -4.42,-1.03 -8.88,-2.74 -11.96,-5.88 -0.83,0.09 -1.66,0.14 -2.42,-0.06 -0.98,-0.27 -1.66,-1.01 -2.28,-1.77 -1.33,-1.62 -2.61,-3.28 -3.91,-4.92 -0.23,-0.02 -0.46,-0.02 -0.69,-0.05 -3.4,-0.51 -5.17,-3.96 -6.77,-6.62 -3.95,-6.57 -6.32,-11.37 -8.47,-18.71 -0.32,-1.06 1.3,-4.06 1.3,-4.06 -0.24,-2.91 0.2,-3.98 1.82,-4.84 -0.11,-2.01 0.49,-4.05 1.88,-5.53 3.09,-3.27 8.15,-2.6 11.63,-0.41 1.33,0.84 2.49,1.89 3.59,3.02 2.79,0.54 5.43,2.65 7.18,4.74 0.3,0.36 0.6,0.74 0.88,1.12 3.69,0 7.06,1.51 10.36,3.37 1.81,-1.69 3.63,-3.38 5.44,-5.07 1.32,-1.22 2.69,-2.4 3.94,-3.69 1.57,-1.62 1.96,-3.43 2.4,-5.56 1.11,-5.41 3.22,-10.56 6.2,-15.21 5.96,-9.32 15.39,-16.58 26.1,-19.5 1.89,-0.52 3.86,-0.85 5.85,-1.18 0.02,-0.58 39.72,-19.42 53.57,-35.88 3.55,-4.21 19.66,-19.47 23.52,-23.59 14.92,-15.93 88.09,-44.76 93.94,-45.11 0.03,0 0.09,0 0.12,0 3.68,-3.68 24.62,-1.22 24.62,-1.22 3.28,3.09 10.5,10.32 19.71,19.67 -3.05,-18.16 -6.39,-34.53 -6.62,-35.78 -0.69,0.04 -31.13,-112.21 -52.99,-143.76 -6.34,-4.07 -12.69,-8.118 -19,-12.22 -5.95,-3.859 -11.82,-7.96 -16.81,-13.039 -4.83,-4.921 -8.66,-10.89 -9.96,-17.742 -1.49,-7.918 0.12,-16.539 1.98,-24.277 1.09,-4.531 2.9,-9.102 6.15,-12.231 -0.08,-0.851 -0.13,-1.711 0.09,-2.492 0.28,-1 1.05,-1.687 1.83,-2.32 1.68,-1.348 3.4,-2.649 5.1,-3.969 0.02,-0.238 0.02,-0.48 0.06,-0.711 0.56,-3.488 4.11,-5.269 6.86,-6.898 6.78,-3.992 11.73,-6.379 19.3,-8.52 1.1,-0.312 4.16,1.379 4.16,1.379 2.99,-0.219 4.09,0.238 4.96,1.91 2.06,-0.101 4.15,0.539 5.66,1.989 3.33,3.191 2.59,8.402 0.31,11.941 -0.87,1.359 -1.97,2.551 -3.13,3.66 -0.59,2.871 -2.78,5.559 -4.95,7.34 -0.37,0.309 -0.76,0.602 -1.15,0.898 -0.04,3.782 -1.62,7.231 -3.56,10.602 1.71,1.879 3.44,3.762 5.16,5.641 1.24,1.359 2.44,2.789 3.75,4.078 1.65,1.633 3.5,2.051 5.69,2.523 5.55,1.188 10.81,3.406 15.57,6.508 9.52,6.211 16.89,15.969 19.79,27 0.51,1.941 0.83,3.98 1.15,6.02 0.6,0.031 19.58,40.99 36.36,55.38 4.29,3.68 19.82,20.38 24.01,24.38 16.23,15.48 45.16,90.93 45.46,96.94 0.1,1.94 0.1,6.36 0.04,12.54 7.03,-10.16 15.16,-21.06 24.91,-33.47 -6.99,-3.01 -12.49,-8.21 -15.95,-14.77 -0.3,-0.56 -0.52,-1.15 -0.79,-1.72 -10.69,-1.73 -19.02,-7.58 -23.67,-15.69 -5.29,-9.23 -5.47,-19.93 -8.66,-31.53 -14.91,-54.27 20.14,-98.369 8.73,-130.139 -0.42,-0.421 -0.85,-0.921 -1.28,-1.472 -0.13,0.011 -0.26,0.023 -0.4,0.043 -4.42,0.476 -18.32,4.367 -24,5.136 -34.02,4.602 -30.91,-2.75 -34.95,-3.937 -6.71,-1.973 -10.56,0.508 -17.58,-0.852 -10.29,-1.988 -12.65,-5.507 -18.47,-5.937 -9.66,-0.731 -18.24,-5.293 -16.26,-9.18 4.06,-7.972 37.67,3.238 33.7,-4.351 -3.17,-0.379 -7.57,-0.891 -12.06,-1.61 -11.35,-1.832 -23.17,-5 -16.34,-10.66 2.37,-1.961 22.91,-0.019 39.8,-2.062 -13.8,-1.278 -21.61,-2.59 -22.38,-4.25 -2.72,-5.95 4.69,-3.7 11.93,-4.477 25.32,-2.723 22.27,-5.25 38.78,-6.48 56.36,-5.43 76.89,-5.77 84.39,-5.102 14.89,-0.809 48.79,9.609 75.47,23.742 9.39,4.977 10.14,15.078 9.17,27.75 2.09,-1.492 4.09,-2.742 5.97,-3.66 18.72,-9.23 65.02,-19.543 103.18,-2.953 22.43,-8.359 46.28,-12.688 70.23,-13.117 46.19,-0.821 92.75,12.867 130.09,40.179 61.31,44.819 95.19,124.449 84.97,199.709 -8.56,63.07 -44.62,118.5 -67.52,177.89 -8.61,22.33 -15.47,46.25 -12.14,69.95 6.89,49.06 51.65,92.15 100.39,76.41 117.67,-37.99 125.5,-112.49 139.07,-107.85 6.28,11.42 5.5,25.73 0.67,37.84" /><path
         id="path26"
         style="fill:#ffffff;fill-opacity:1;fill-rule:nonzero;stroke:none"
         d="m 3901.34,1236.56 c 0,-371.771 -301.38,-673.15 -673.15,-673.15 -371.77,0 -673.15,301.379 -673.15,673.15 0,371.77 301.38,673.15 673.15,673.15 371.77,0 673.15,-301.38 673.15,-673.15" /><path
         id="path28"
         style="fill:#000000;fill-opacity:1;fill-rule:nonzero;stroke:none"
         d="m 3228.19,1892.07 c -361.45,0 -655.51,-294.06 -655.51,-655.51 0,-361.451 294.06,-655.521 655.51,-655.521 361.45,0 655.51,294.07 655.51,655.521 0,361.45 -294.06,655.51 -655.51,655.51 z m 0,-1346.3 c -380.9,0 -690.79,309.878 -690.79,690.79 0,380.9 309.89,690.79 690.79,690.79 380.9,0 690.79,-309.89 690.79,-690.79 0,-380.912 -309.89,-690.79 -690.79,-690.79" /><path
         id="path30"
         style="fill:#000000;fill-opacity:1;fill-rule:nonzero;stroke:none"
         d="m 3188.3,880.832 c 0,-0.113 0.05,-0.184 0.08,-0.273 -0.15,-0.879 -0.31,-1.77 -0.46,-2.649 -1.31,-7.789 -2.54,-15.59 -3.98,-23.359 -1.11,-6 -1.55,-19.629 -6.1,-24.129 -2.39,-2.371 -9.86,-3.524 -13.05,-5.012 -3.99,-1.871 -7.95,-3.949 -11.51,-6.551 -1.72,-1.257 -3.42,-2.64 -4.92,-4.168 -9.1,0.231 -19.5,-0.789 -28.59,-4.011 -4.89,11.73 -8.84,22.082 -7.75,35.16 0.92,11.07 3.89,21.871 5.36,32.871 2.32,17.391 4.52,34.648 7.07,51.91 2.13,4.359 4.48,8.609 7,12.77 5.5,5.289 22.23,33.488 26.56,40.918 15.79,-7.379 21.91,-24.68 27.32,-40.289 2.4,-6.938 5.7,-13.469 10.07,-18.071 -7.69,-12.687 -7.73,-34.027 -7.1,-45.117 z m 482.38,530.118 c -6.36,23.24 -5.92,48.78 -10.73,72.45 -23.53,115.89 -130.89,136.15 -133.45,136.73 -41.56,9.52 -89.63,-0.97 -125.53,-23.35 -37.12,-23.12 -66.3,-58.62 -92.41,-93.1 -14.09,-18.63 -27.18,-38.09 -38.21,-58.7 -10.05,-18.78 -17.18,-38.81 -26.36,-57.99 -10.28,-21.46 -23.27,-42.8 -43.42,-56.3 -24.34,-16.32 -46.06,-1.86 -68.61,8.92 -0.07,0.7 -0.13,1.4 -0.24,2.11 -2.96,18.26 -16.85,33.61 -27.35,48.04 -14.45,19.85 -23.81,42.56 -36.32,63.61 -7.92,13.33 -22.52,27.69 -29.33,43.11 1.34,0.3 2.65,1.59 2.21,2.94 -6.27,19.24 -23,33.43 -35.12,49.03 -13.79,17.73 -26.76,35.6 -42.99,51.27 -13.89,13.4 -33.55,29.98 -43.18,40.5 0.76,-0.56 1.53,-1.08 2.32,-1.5 10.31,-5.54 27.77,-8.57 38.9,-3.6 7.35,3.29 9.41,9.46 4.64,16.15 -7.79,10.91 -18.79,12.47 -30.15,14.28 6.35,5.31 12.55,10.81 18.63,16.43 1.26,1.17 0.55,2.77 -0.74,3.4 -8.98,4.41 -18.41,6.13 -28.39,5.14 -1.99,-0.2 -3.99,-0.51 -5.97,-0.92 3.76,7.42 8.99,14.16 14.12,21.52 0.65,0.92 0.11,2.45 -1.02,2.7 -20.75,4.7 -40.1,-3.18 -55.18,-16.63 0.77,5.07 3.61,10.15 7.05,13.53 1.5,1.47 0,3.2 -1.74,3.07 -16.01,-1.12 -24.79,-13.29 -31.6,-26.32 -0.03,2.62 0.16,5.33 0.06,7.73 -0.06,1.44 -1.72,1.81 -2.84,1.41 -8.34,-2.97 -13.57,-9.36 -16.36,-16.99 -2.53,2.9 -5.38,5.4 -9.06,6.73 -1.49,0.54 -3.37,-0.57 -3.42,-2.19 -0.26,-9.21 1.51,-18.33 2.62,-27.49 -1.73,1.47 -12.18,10.06 -13.07,8.89 -5.88,-7.74 -2.64,-28.82 -1.47,-40.03 0.04,-0.35 2.13,-5.88 2.35,-6.19 -19.19,20.06 -14.63,-20.67 -14.2,-23.24 1.63,-9.76 12.56,-25.55 24.02,-28.03 -6.87,-5.17 -38.88,-44.84 -40.34,-46.52 -1.67,-1.93 1.28,-3.32 2.73,-1.81 0.5,0.53 17.76,4.49 21.71,5.81 7.97,2.66 16.24,5.37 24.21,8.59 -11.92,-31 -46.72,-64.09 -21.05,-96.51 15.16,-19.14 41.87,-19.06 65.95,-11.46 0.41,-19.52 6.93,-39.31 6.98,-59 0.08,-35.37 -1.24,-70.74 -1.34,-106.11 -0.06,-20.5 -4.06,-48.84 8.36,-67.24 -0.46,-15.52 6.07,-29.61 15.61,-42.41 13.82,-18.53 30.54,-36.91 48.36,-51.63 19.68,-16.25 42.19,-28.39 63.99,-41.48 10.07,-6.04 20.19,-12.89 30.97,-17.65 -2.88,-13.05 -0.45,-28.38 3.16,-39.75 3.96,-12.521 11.9,-24.181 19.32,-34.861 7.58,-10.887 15.52,-22.199 24.17,-32.578 -2.24,-10.91 -2.12,-22.859 -1.7,-30.25 0.01,-0.109 0.06,-0.18 0.08,-0.281 -0.15,-0.879 -0.31,-1.758 -0.46,-2.641 -1.31,-7.789 -2.53,-15.598 -3.97,-23.359 -1.12,-6 -1.56,-19.629 -6.11,-24.129 -2.39,-2.371 -9.86,-3.52 -13.05,-5.012 -3.98,-1.867 -7.95,-3.949 -11.51,-6.547 -1.72,-1.273 -3.42,-2.652 -4.91,-4.172 -20.81,0.512 -48.35,-5.461 -51.74,-29.371 -0.25,-1.777 2.78,-1.277 3.37,-0.277 0.07,0.117 0.13,0.23 0.2,0.348 1.13,-0.118 1.49,0.48 3.22,1.242 8.65,3.828 12.89,10.918 23.9,9.859 5.14,-0.492 9.44,-2.531 13.8,-3.769 -0.91,-0.84 -1.75,-1.672 -2.46,-2.442 -7.38,-7.969 -14.72,-19.058 -16.22,-30.058 -0.35,-2.571 3.54,-3.122 4.49,-0.93 3.85,8.848 11.99,12.008 20.51,14.707 12.83,-7.508 36.89,7.801 48.42,22.391 1.45,-5.489 4.82,-10.872 9.11,-15.168 -5.32,-4.411 -9.15,-10.332 -10.27,-18.27 -0.26,-1.781 2.78,-1.281 3.37,-0.281 0.07,0.109 0.13,0.23 0.2,0.34 1.13,-0.121 1.49,0.488 3.22,1.25 6.1,2.691 10.02,7.007 15.66,8.949 0.92,-0.328 1.84,-0.621 2.76,-0.828 1.14,-0.25 3.24,0.597 3.44,1.84 0.65,0 1.33,-0.043 2.04,-0.102 5.14,-0.5 9.44,-2.531 13.79,-3.781 -0.91,-0.84 -1.74,-1.668 -2.45,-2.438 -7.38,-7.972 -14.72,-19.062 -16.22,-30.051 -0.35,-2.578 3.54,-3.128 4.49,-0.941 3.85,8.859 11.99,12.012 20.51,14.711 12.83,-7.512 36.89,7.813 48.42,22.391 2.92,-11.082 13.64,-21.68 24.05,-24 1.5,-0.332 4.64,1.218 3.01,3.07 -2.75,3.109 -4.42,6.539 -5.73,10.102 0.77,0.429 1.3,1.179 0.94,2.019 -5.02,12.027 -9.15,22.527 -8.04,35.887 0.91,11.07 3.89,21.863 5.36,32.863 3.07,23.008 5.92,45.777 9.71,68.617 14.47,9.211 25.57,26.25 31.35,41.66 5.18,13.832 4.33,29 7,43.391 0.01,0.04 0.02,0.08 0.02,0.13 3.79,1.56 7.47,3.9 11.02,6.66 14.15,-7.42 28.59,-13.3 44,-10.13 1.96,0.41 -8.56,19.6 -10.79,23.17 2.08,-0.75 10.1,-1.43 9.27,0.16 -1.86,3.52 -3.49,7.23 -5.13,10.95 14.57,-8.13 30.2,-11.11 44,0.59 0.65,0.55 -12.21,19.74 -19.1,28.07 0.69,0.87 1.26,1.81 1.72,2.82 11.03,-5.91 36.44,-6.58 36.57,-5.58 1.83,13.53 -1.83,27.05 -7.89,39.99 11.16,9.93 20.36,21.8 26.33,35.16 9.85,22.05 23.39,42.79 32.13,65.25 0.41,1.04 0.78,2.09 1.15,3.14 5.55,0.49 11.14,1.82 16.56,3.49 5.17,1.6 10.71,3.58 16.22,5.94 -4.52,-17.07 -15.47,-33.19 -20.06,-50.27 -0.73,-2.69 2.98,-2.79 4.34,-1.49 10.83,10.25 21.52,20.99 31.89,32.1 -1.47,-4.43 -2.99,-8.86 -4.54,-13.28 -7.13,-20.3 -14.59,-40.69 -26.18,-58.93 -1.4,-2.2 1.86,-3.46 3.46,-2.34 20.59,14.42 32.26,37.06 44.94,58.08 2.27,3.76 4.61,7.45 6.99,11.11 -0.5,-7.03 -0.97,-13.96 -2.25,-20.31 -2.77,-13.77 -7.17,-27.43 -14.67,-39.4 -6.49,-10.34 -14.88,-19.07 -18.45,-30.99 -0.63,-2.1 2.33,-2.86 3.69,-1.83 23.99,18.14 44.66,38.62 58.01,65.91 8.19,16.72 14.85,34.01 22.37,50.86 -0.07,-10.21 -1.43,-20.58 -2.2,-29.05 -1.3,-14.26 -20.01,-64.73 -26.33,-76.15 -1.41,-2.56 2.33,-3.44 3.88,-1.92 20.27,19.98 74.06,100.68 91.23,132.87 10.68,-25.25 -13.41,-87.36 -16.5,-101.31 0,-0.02 -0.01,-0.03 -0.01,-0.04 -0.17,-0.41 -0.05,-1 -0.05,-1 0.04,-0.1 0.07,-0.19 0.13,-0.27 0.62,-1.32 107.33,137.53 71.4,268.79" /><path
         id="path32"
         style="fill:#ffffff;fill-opacity:1;fill-rule:nonzero;stroke:none"
         d="m 5481.41,1236.56 c 0,-371.771 -301.38,-673.15 -673.15,-673.15 -371.77,0 -673.15,301.379 -673.15,673.15 0,371.77 301.38,673.15 673.15,673.15 371.77,0 673.15,-301.38 673.15,-673.15" /><path
         id="path34"
         style="fill:#000000;fill-opacity:1;fill-rule:nonzero;stroke:none"
         d="m 4808.26,1892.07 c -361.45,0 -655.51,-294.06 -655.51,-655.51 0,-361.451 294.06,-655.521 655.51,-655.521 361.45,0 655.51,294.07 655.51,655.521 0,361.45 -294.06,655.51 -655.51,655.51 z m 0,-1346.3 c -380.9,0 -690.79,309.878 -690.79,690.79 0,380.9 309.89,690.79 690.79,690.79 380.9,0 690.79,-309.89 690.79,-690.79 0,-380.912 -309.89,-690.79 -690.79,-690.79" /><path
         id="path36"
         style="fill:#000000;fill-opacity:1;fill-rule:nonzero;stroke:none"
         d="m 5243.94,1123.75 c -12.25,-2.28 -63.94,0.85 -34.27,7.74 33.27,7.72 -69.79,9.36 -96.59,31.06 -36.49,29.55 -62.76,69.78 -85.09,111.08 -8.58,15.88 -17.12,32.56 -31.44,43.53 -15,11.5 -34.36,15.23 -52.96,18.63 -58.58,10.71 -117.37,21.44 -176.86,24.28 -18.17,0.87 -36.64,1.04 -54.05,6.34 -49.28,14.98 -77.22,65.56 -100.1,111.7 -8.28,16.68 -16.56,33.36 -24.84,50.05 -3.48,7.02 -7,14.17 -8.3,21.9 -1.68,10.03 0.52,20.24 1.51,30.36 2.91,29.7 -4.96,60.34 -21.84,84.96 -23.61,-16.72 -40.89,-42.17 -47.72,-70.29 -4.98,-1.01 -9.95,-2.02 -14.93,-3.02 -4.18,-0.85 -39.05,48.79 -55.68,49.7 -26.43,1.44 -19.95,-48.2 -21.97,-70.03 -0.51,-5.48 1.46,-11.82 -1.53,-16.45 -12.78,-19.79 2.48,-34.25 0.73,-53.17 -7.1,0.54 -19.35,-4.02 -28.83,-10.89 -1.21,-0.22 -2.38,-0.5 -3.41,-0.73 -3.51,-0.8 -7.47,-1.87 -10.15,-4.43 -3.95,-3.78 -4.12,-13.2 -0.06,-17.38 0.09,-0.24 0.21,-0.45 0.35,-0.62 0.12,-11.41 1.26,-22.39 12.69,-29.53 26.23,-15.89 51.05,-0.65 68.15,-0.85 -16.89,-64.01 -2.18,-131.61 12.55,-196.15 4.97,-21.78 9.94,-43.55 14.92,-65.33 3.71,-16.3 7.76,-33.27 18.51,-46.08 4.92,-5.87 11.18,-10.75 14.74,-17.54 3.31,-6.32 3.94,-13.66 4.5,-20.78 4.04,-51 8.09,-102.009 12.13,-153.009 2.3,-29.012 3.78,-60.981 -13.89,-84.102 -4.87,-6.359 -2.07,-9.019 -18.76,-13.789 -7.7,-2.199 -17.87,-24.41 -8.65,-25.418 1.68,-0.191 4.44,-7.754 9.92,-4.902 0,0 3.01,-4.801 18.01,-1.949 20.56,3.918 49.08,-1.61 53.27,18.89 2.46,12.028 -5.91,25.078 -1.02,36.34 2.02,4.66 6.01,8.117 9.05,12.188 10.91,14.652 8.33,34.882 6.26,53.031 -7.04,61.441 -2.38,124.21 13.64,183.94 14.46,3.25 29.28,-6.78 36.34,-19.8 7.07,-13.02 8.13,-28.36 8.86,-43.16 2.2,-44.8 -1.8,-92.851 -3.19,-137.859 -0.39,-19.012 -3.66,-37.5 -14.5,-52.34 -4.65,-6.359 -1.97,-9.019 -17.91,-13.793 -7.37,-2.199 -16.43,-26.258 -6.08,-27.808 2.22,-0.329 1.83,-5.77 11,-3.059 5.18,1.539 1.91,-2.711 13.49,-1.402 19.89,2.261 46.89,-1.61 50.9,18.89 2.35,12.031 -5.64,25.082 -0.98,36.34 1.93,4.66 5.75,8.121 8.65,12.191 5.15,7.231 7.14,15.829 7.61,24.872 -0.08,0.007 -0.16,0.027 -0.23,0.039 8.81,57.55 15.77,115.549 24.88,173.019 0.8,5.08 1.76,10.48 5.28,14.23 3.3,3.5 8.21,4.87 12.86,6.09 27.16,7.11 39.48,10.34 66.64,17.45 11,-32.48 20.54,-40.72 36.31,-57.24 15.77,-16.51 34.92,-32.07 40.31,-54.26 5.69,-23.45 -5.71,-47.309 -16.78,-68.75 -8.62,-16.7 -17.23,-33.399 -25.85,-50.098 -4.43,-8.582 -9.3,-17.641 -17.71,-22.383 -0.77,-0.437 -1.6,-0.808 -2.42,-1.179 -3.43,-0.122 -7.04,0.421 -10.25,0.082 -5.58,-0.59 -10.36,-2.793 -13.3,-7.473 -5,-1.387 -9.81,-7.731 -12.11,-12.457 -0.31,-0.621 -0.27,-1.602 0.2,-2.113 0.76,-0.809 1.76,-1.809 2.87,-2.77 -0.64,-1.418 -1.23,-2.898 -1.76,-4.48 -0.38,-1.137 -0.06,-2.5 1.17,-2.438 4.55,0.25 7.51,-0.941 11.22,-3.379 -0.25,-1.32 -0.41,-2.652 -0.45,-3.961 -0.02,-0.742 0.42,-1.422 1.04,-1.551 4.36,-0.96 10.43,-2.289 15.64,-1.308 2.5,-0.852 23.69,2.058 30.38,4.391 13.75,1.296 26.33,5.218 28.47,17.929 0.8,4.77 -0.28,9.688 0.28,14.5 0.74,6.36 4.27,12 7.71,17.399 16.77,26.3 33.54,52.589 50.31,78.89 8.09,12.688 16.45,26.188 16.96,41.239 0.61,17.88 -7.12,51.58 -17.53,85.43 8.46,-5.63 17.51,-11.06 26.48,-16.92 26.73,-17.43 60.24,-24.67 82.72,-47.31 28.35,-28.54 31.27,-72.888 32.5,-113.099 0.19,-6.5 0.27,-13.449 -3.26,-18.91 -0.04,-0.063 -0.12,-0.121 -0.16,-0.18 -1.14,0.117 -2.26,0.188 -3.34,0.16 -5.61,-0.211 -10.52,-2.07 -13.79,-6.531 -5.08,-1.039 -10.32,-7.031 -12.95,-11.578 -0.34,-0.602 -0.38,-1.582 0.05,-2.121 0.71,-0.859 1.63,-1.93 2.67,-2.961 -0.74,-1.371 -1.43,-2.809 -2.07,-4.348 -0.46,-1.121 -0.23,-2.492 1.01,-2.511 4.55,-0.082 7.42,-1.469 10.95,-4.172 -0.34,-1.289 -0.6,-2.61 -0.72,-3.91 -0.07,-0.739 0.31,-1.438 0.92,-1.618 4.28,-1.269 10.24,-3.019 15.51,-2.402 2.76,-1.148 52.56,4.152 56.01,12.332 4.81,13.649 6.07,21.379 5.08,25.199 0.36,5.481 -0.05,11.352 -0.62,18.641 -3.53,45.129 -8.98,90.121 -16.34,134.789 3.36,-1.66 -61.93,55.98 -87.02,78.18 5.81,-2.04 11.49,-4.39 16.97,-7.11 0.63,-0.31 0.73,-0.77 0.65,-1.21 24.82,-9.06 113.72,-105.848 180.09,-59.51 -4.56,-0.13 -19.71,6.36 -22.38,10.05 19.07,-3.71 29.12,5.79 32.41,15.49 -12.59,1.36 -24.78,6.24 -34.82,13.95 15.49,-10.43 47.93,5.39 46.07,5.97 -12.87,4.04 -25.35,9.3 -37.23,15.68 14.98,-2.94 31.43,5.12 38.29,18.76" /><path
         id="path38"
         style="fill:#ffffff;fill-opacity:1;fill-rule:nonzero;stroke:none"
         d="m 2277.46,4778.58 c 0,-371.77 -301.38,-673.15 -673.15,-673.15 -371.78,0 -673.154,301.38 -673.154,673.15 0,371.77 301.374,673.15 673.154,673.15 371.77,0 673.15,-301.38 673.15,-673.15" /><path
         id="path40"
         style="fill:#000000;fill-opacity:1;fill-rule:nonzero;stroke:none"
         d="m 1604.31,5434.09 c -361.45,0 -655.517,-294.05 -655.517,-655.51 0,-361.45 294.067,-655.51 655.517,-655.51 361.44,0 655.51,294.06 655.51,655.51 0,361.46 -294.07,655.51 -655.51,655.51 z m 0,-1346.3 c -380.91,0 -690.794,309.89 -690.794,690.79 0,380.9 309.884,690.79 690.794,690.79 380.9,0 690.78,-309.89 690.78,-690.79 0,-380.9 -309.88,-690.79 -690.78,-690.79" /><path
         id="path42"
         style="fill:#000000;fill-opacity:1;fill-rule:nonzero;stroke:none"
         d="m 2059.36,4614.64 c -4.69,11.9 -14.59,21.42 -24.2,29.67 -12.08,10.38 -72.9,48.85 -74.8,49.04 0.25,2.55 0.4,5.17 0.48,7.86 0.63,22.4 3.06,45.28 -2.07,67.3 -11.19,48.05 -51.15,178.01 -141.35,218.14 -19.68,8.75 -42.25,16.19 -63.89,17.3 -90.68,4.61 -170.08,-35.24 -174.01,-38.76 -8.76,1.19 -17.6,1.54 -26.12,1.18 -19.54,-0.81 -39.12,-2.89 -58.65,-4.01 -11.46,-0.66 -21.98,-4.41 -32.58,-8.07 -4.73,6.17 -9.61,12.21 -15.31,17.57 -10.29,9.67 -21.72,18.02 -32.68,26.9 -0.31,0.25 -0.6,0.53 -0.91,0.78 1.1,1.81 2.09,3.66 2.96,5.59 4.62,10.3 5.4,21.82 12.84,30.76 2.13,2.56 -1.37,5.38 -3.9,4.86 -13.19,-2.66 -29.73,-5.56 -43.38,-12.17 -0.37,0.34 -0.72,0.69 -1.1,1.02 -5.72,5.08 -11.58,8.87 -17.63,11.67 2.43,7.26 4.31,14.86 4.27,22.52 -0.06,11.29 -4.11,22.1 -1.03,33.32 0.88,3.2 -3.47,4.32 -5.57,2.81 -17.53,-12.67 -42.73,-29.48 -45.87,-52.83 -0.04,-0.02 -0.05,-0.04 -0.08,-0.06 -13.32,-1.35 -27.05,-4.15 -39.48,-9.15 -1.52,-0.61 -2.93,-1.29 -4.29,-2.01 -26.78,1.09 -53.48,-17.3 -73.67,-35.02 -6.05,-0.83 -12.04,-2.72 -16.65,-4.57 -7.06,-2.84 -14.07,-7.03 -19.33,-12.66 -7.04,-2.99 -14.24,-7.9 -18.08,-12.36 -7.81,-9.07 0.06,-19.65 7.42,-26.36 2.46,-10.78 11.43,-22.96 18.77,-29.12 6.64,-5.57 14.74,-7.32 22.95,-6.75 5.7,-5.16 11.75,-9.92 18.52,-13.34 12.2,-6.16 26.05,-8.39 39.23,-11.53 12.86,-3.07 24.51,-6.92 35.51,-11.74 12.47,-21.02 19.55,-43.65 30.69,-65.97 5.36,-10.73 16.24,-31.13 16.14,-31.34 l -0.08,-0.18 c -0.3,-0.66 -0.14,-1.11 0.24,-1.41 6.47,-26.04 20.97,-57.96 43.31,-77.56 -14.84,-11.11 -24.69,-29.97 -39.02,-41.22 -1.35,-1.06 -3.56,-3.47 -3.34,-3.86 -7.89,-3.65 -17.28,0.07 -27.69,-1.94 -8.39,-1.63 -13.96,-5.98 -16.5,-14.05 -0.68,-2.15 1.14,-2.99 2.95,-2.78 1.02,-0.31 2.11,-0.49 3.24,-0.54 -2.19,-2.19 -3.28,-5.11 -2.06,-9.04 0.47,-1.54 2.73,-2.04 4.04,-1.41 3.48,1.68 6.89,2.33 10.52,2.41 -0.67,-1.49 -1.03,-3.19 -0.94,-5.22 0.08,-1.59 1.84,-2.63 3.31,-2.33 12.72,2.62 27,-0.84 38.98,5.15 1.86,0.93 3.61,2 5.3,3.16 3.61,0.68 7.21,1.49 10.79,2.38 7.41,1.84 14.96,2.98 22.46,4.32 -1.35,-3.89 -2.88,-7.54 -4.76,-10.75 -10.49,-17.93 -24.68,-8.42 -41.07,-11.59 -9.53,-1.84 -15.85,-6.78 -18.75,-15.95 -0.77,-2.44 1.3,-3.39 3.36,-3.16 1.16,-0.35 2.39,-0.55 3.68,-0.6 -2.5,-2.5 -3.73,-5.81 -2.35,-10.28 0.54,-1.74 3.11,-2.31 4.59,-1.6 3.96,1.91 7.83,2.65 11.95,2.74 -0.76,-1.69 -1.17,-3.63 -1.06,-5.93 0.08,-1.8 2.08,-2.99 3.76,-2.64 14.44,2.97 30.66,-0.96 44.26,5.84 10.36,5.18 17.77,13.97 27.52,19.91 24.9,4.41 48.49,19.13 67.56,35.07 11.31,9.46 20.5,20.99 31.04,31.23 0.42,0.4 0.85,0.78 1.26,1.17 14.69,-0.37 29.49,0.73 44.15,1.25 11.02,0.4 22.11,0.74 33.13,1.7 13.87,-5.31 29.54,2.49 44.64,-0.26 22.03,-4 42.21,-11.04 64.68,-13.36 22.72,-2.34 43.81,-5.5 65.26,-13.72 10.22,-3.91 19.78,-7.55 28.69,-14.02 2.42,-1.75 4.78,-3.45 7.17,-5.08 -17.58,-2.2 -38.52,3.07 -54.96,3.75 -12.12,0.5 -48.13,1.4 -39.63,-9.55 -10.71,-2.19 -21.38,-5.46 -31.92,-8.3 -8.32,-2.24 -20.02,-5.34 -27.7,-11.62 -12.83,-6.32 -8.6,-12.96 -7.47,-12.47 43.29,18.9 41.59,9.57 39.04,10.05 -11.68,-9.62 -16.3,-12.79 -24.61,-15.08 -2.57,-0.71 -2.94,-4.97 0.18,-4.96 3.08,0.01 4.17,0.03 6.47,0.31 0.2,-0.55 19.55,1.6 27.45,5.33 7.72,3.64 16.04,5.23 24.33,6.92 -1.65,-0.75 -3.29,-1.51 -4.88,-2.22 -8.95,-4.03 -17.74,-8.43 -26.35,-13.12 -3.3,-1.8 -0.49,-5.48 2.57,-4.57 4.84,-2.27 60.41,17.48 77.81,17.13 22.75,-0.45 44.96,2.68 67.63,3.11 12.35,0.23 29.13,-3.17 40.62,2.75 9.51,4.91 16.32,16.53 22.98,26.63 2.59,2.08 5.14,4.21 7.66,6.21 7.51,5.99 15.11,12.2 21.97,19.08 193.03,-50.78 46.84,-119.62 12.53,-125.18 -21.27,-3.45 -472.39,-32.32 -486.68,-35.85 -8.26,-2.04 -17.84,-3.85 -19.6,-12.32 -4.2,-20.22 258.93,-5.02 295.88,-3.61 77.28,2.94 243.39,19.91 249.18,21.67 6.99,2.12 122.17,22.92 80.13,129.59" /><path
         id="path44"
         style="fill:#ffffff;fill-opacity:1;fill-rule:nonzero;stroke:none"
         d="m 3857.53,4778.58 c 0,-371.77 -301.38,-673.15 -673.15,-673.15 -371.77,0 -673.15,301.38 -673.15,673.15 0,371.77 301.38,673.15 673.15,673.15 371.77,0 673.15,-301.38 673.15,-673.15" /><path
         id="path46"
         style="fill:#000000;fill-opacity:1;fill-rule:nonzero;stroke:none"
         d="m 3184.38,5434.09 c -361.45,0 -655.51,-294.05 -655.51,-655.51 0,-361.45 294.06,-655.51 655.51,-655.51 361.45,0 655.51,294.06 655.51,655.51 0,361.46 -294.06,655.51 -655.51,655.51 z m 0,-1346.3 c -380.91,0 -690.79,309.89 -690.79,690.79 0,380.9 309.88,690.79 690.79,690.79 380.9,0 690.79,-309.89 690.79,-690.79 0,-380.9 -309.89,-690.79 -690.79,-690.79" /><path
         id="path48"
         style="fill:#000000;fill-opacity:1;fill-rule:nonzero;stroke:none"
         d="m 3704.2,4650.88 c -4.91,21.74 -16.56,40.82 -27.39,60 -5.65,9.99 -21.75,37.51 -21.64,71.73 0.23,70.88 -32.93,149.19 -33.28,149.02 -1.88,8.47 -29.09,90.82 -71.93,98.95 -28.87,5.48 -57.6,12.96 -86.57,10.4 -14.78,-1.31 -62.17,-12.37 -71.75,-12.96 -11.22,-0.7 -22.4,0.73 -33.6,1.12 -10.26,0.37 -19.82,-1.99 -29.47,-5.26 -12.26,-4.17 -23.92,-7.47 -36.91,-8.34 -13.66,-0.91 -42.48,-1.47 -43.19,-1.54 -7.59,2.55 -71.66,27.29 -104.46,29.31 -16.95,1.04 -93.75,35.68 -186.3,-0.36 -5.4,3.05 -38.45,17.62 -61.59,15.84 7.4,23.57 -16.52,65.39 -30.05,81.96 -5.63,6.9 -9.67,0.04 -4.96,-22.72 2.17,-10.46 6.14,-23.9 10.1,-33.65 5.01,-12.34 -2.09,-20.73 -11.6,-29.8 -4.63,-4.42 -10.14,-7.92 -16.06,-9.96 0.54,2.17 0.87,4.39 0.89,6.65 0.03,4.93 -0.58,11.86 -5.24,14.78 -3.89,2.44 -20.71,-27.95 -24.53,-26.1 -18.18,8.75 -43.48,3.39 -49.14,-10.1 -12.49,4.86 -38.98,25.78 -43.86,38.7 -3.59,9.5 -3.59,19.8 -6.25,29.53 -2.77,10.16 -8.94,17.3 -18.33,22.02 -1.11,0.56 -2.87,-0.21 -2.4,-1.65 2.95,-9.22 3,-19.38 3.4,-28.96 0.52,-12.1 0.81,-24.25 2.47,-36.26 1.77,-12.68 6.14,-29.65 16.99,-37.8 -0.41,-0.9 -0.71,-1.84 -0.96,-2.8 -2.7,0.43 -5.39,0.91 -8.01,1.1 -3.34,0.24 -10.38,1.13 -12.17,-2.83 -2.3,-5.11 6.83,-11.5 9.98,-13.95 5.91,-4.6 13.56,-9.52 21.41,-10.89 0.22,-0.14 0.42,-0.31 0.64,-0.44 -5.22,-7.33 -16.13,-39.57 -19.96,-46.54 -2.48,-4.51 -30.02,-36.49 -33.19,-49.73 -6.49,-4.53 -11.9,-10.77 -12.75,-18.85 -0.95,-8.94 4.3,-17.04 10.79,-22.69 6.22,-5.43 14.25,-9.46 22.52,-10.81 1.37,-13.15 22.55,-20.4 36.15,-17.51 9.77,2.07 17.12,8.38 22.84,16.17 10.69,5.18 49.39,15.04 57.59,15.47 1.87,-9.77 8,-20.23 15.47,-30.08 0.08,-0.14 0.15,-0.28 0.23,-0.42 5.53,-9.71 -4.96,-20.11 3.12,-43.66 8.18,-23.84 28.94,-17.73 35.67,-55.87 6.3,-35.7 47.68,-79.58 47.87,-79.84 -0.03,-0.64 5.43,-17.58 10.1,-44.09 -0.15,0 -0.3,0.01 -0.46,0.01 1.29,-5.52 2.58,-11.04 3.83,-16.58 1.31,-9.8 3.28,-19.53 4.51,-28.57 2.95,-21.7 4.54,-43.38 -6.96,-62.98 -1.72,-2.92 -11.38,-15.48 -19.5,-27.94 -2.62,-1.33 -5.01,-2.88 -6.92,-4.54 -6.67,-5.79 -8.67,-13.73 -7.01,-21.67 -0.09,0.05 -0.18,0.09 -0.27,0.14 -0.26,0.15 -1.2,-5.87 -1.01,-6.19 0.39,-0.64 55.83,-2.74 60.02,2.04 4.96,5.66 5.2,19.44 9.92,25.44 6.11,7.75 15.77,11.8 21.43,19.97 4.59,6.62 5.91,14.78 6.28,22.67 0.51,10.58 -0.81,21.17 -0.09,31.75 0.93,13.48 3.36,26.87 5.12,40.26 0.75,5.71 1.39,11.36 1.79,17.01 -0.07,0.01 -0.15,0.03 -0.23,0.04 0.68,2.87 1.23,5.13 1.61,6.58 1.98,-8.72 4.05,-17.41 6.03,-26.12 1.3,-9.81 3.28,-19.54 4.51,-28.58 2.94,-21.7 4.53,-43.38 -6.96,-62.98 -1.72,-2.92 -11.39,-15.47 -19.5,-27.94 -2.63,-1.32 -5.01,-2.87 -6.92,-4.54 -6.67,-5.79 -11.69,-21.22 -10.03,-29.17 -0.09,0.06 3.22,0.33 3.41,0 0.39,-0.64 51.74,-3.5 55.93,1.28 4.95,5.66 7.62,21.66 12.34,27.66 6.1,7.75 15.77,11.8 21.43,19.96 4.59,6.63 5.91,14.78 6.28,22.67 0.5,10.58 -0.82,21.18 -0.09,31.75 0.93,13.48 3.36,26.88 5.11,40.26 1.67,12.71 2.86,25.16 1.92,37.88 3.28,4.07 4.43,27.21 42.06,42.09 16.94,-4.06 72.94,-3.12 87.9,3.97 1.14,0.54 2.21,1.04 3.32,1.56 0.6,-3.15 2.66,-6 6.82,-7.96 11.16,-5.28 26.57,6.05 35.59,11.58 14.28,8.77 28.7,17.2 43.23,25.53 6.8,1.42 13.81,3.05 22.46,5.88 6.2,2.02 66.6,23.42 89.93,18.11 15.43,-4.67 24.81,-20.97 27.11,-24.35 5.67,-8.35 10.65,-17.17 14.99,-26.29 8.31,-17.45 14.6,-36.26 16.92,-55.51 5.22,-43.33 -19.58,-83.07 -41.36,-118.35 -5.88,-9.52 -26.28,-14.85 -32.67,-24.01 -5.28,-7.58 -15.46,-12.74 -16.37,-28.2 -0.25,-4.4 52.5,1.33 66.39,0.91 5.99,-0.17 3.85,-2.05 4.83,3.58 0.55,3.16 1.37,6.15 2.36,9.04 8.29,1.04 16.43,3.71 21.94,9.94 5.07,5.74 6.38,13.55 8.18,20.74 2.73,10.95 5.31,22.04 9.98,32.36 8.85,19.54 22.13,38.09 35.83,54.49 6.24,7.46 13.1,14.5 18.4,22.7 4.59,7.11 5.11,13.88 3.92,22.1 -1.54,10.65 -2.49,21.26 -3.04,31.99 3.5,-2.18 7.11,-4.24 9.82,-6.87 10.61,-10.33 17.38,-25.71 24.19,-38.71 14.76,-28.19 21.75,-62.28 10.06,-92.82 -5.28,-13.81 -13.57,-25.95 -21.83,-38.1 -5.88,-8.63 -16.47,-19.32 -13.66,-29.66 2.69,-9.87 63.27,-6.39 66.59,3.09 1.64,4.67 1.78,9.6 1.44,14.6 3.44,-1.46 7.11,-2.52 10.27,-3.6 0.87,-0.29 2.22,0.22 2.34,1.25 0.68,5.82 0.4,11.56 0.14,17.4 -0.34,7.39 0.4,14.66 0.71,22.03 0.59,14.19 -0.05,28.39 0,42.59 0.03,7.51 0.52,14.82 1.94,22.2 1.25,6.55 2.81,13.1 2.87,19.8 0.12,11.07 -4.04,21.33 -7.13,31.77 -1.67,5.66 -2.96,11.47 -2.99,17.4 -0.03,5.61 1.56,11.11 1.45,16.72 -0.17,8.37 -5.65,14.26 -11.05,20.13 -9.21,10 -9.33,73.02 -30.87,113.4 -6.46,12.11 24.23,34.11 19.52,128.12 10.49,-14.58 35.75,-105.26 36.51,-115.13 0.65,-8.46 0.12,-17 0.42,-25.48 0.45,-12.9 2.35,-25.49 7.77,-37.3 6.25,-13.61 25.31,-23.4 25.26,-39.05 -0.04,-14.35 -14.61,-29.57 -19.74,-42.43 -6.27,-15.71 -5.71,-32.98 -3.42,-49.5 2.46,-17.78 7.73,-35.34 17.27,-50.63 0.84,-1.35 2.85,-0.29 3.19,0.88 6.17,21 18.18,39.46 26.77,59.45 8.4,19.56 11.99,39.68 7.23,60.69" /><path
         id="path50"
         style="fill:#ffffff;fill-opacity:1;fill-rule:nonzero;stroke:none"
         d="m 5437.6,4778.58 c 0,-371.77 -301.38,-673.15 -673.15,-673.15 -371.77,0 -673.15,301.38 -673.15,673.15 0,371.77 301.38,673.15 673.15,673.15 371.77,0 673.15,-301.38 673.15,-673.15" /><path
         id="path52"
         style="fill:#000000;fill-opacity:1;fill-rule:nonzero;stroke:none"
         d="m 4764.45,5434.09 c -361.45,0 -655.51,-294.05 -655.51,-655.51 0,-361.45 294.06,-655.51 655.51,-655.51 361.45,0 655.51,294.06 655.51,655.51 0,361.46 -294.06,655.51 -655.51,655.51 z m 0,-1346.3 c -380.9,0 -690.79,309.89 -690.79,690.79 0,380.9 309.89,690.79 690.79,690.79 380.9,0 690.79,-309.89 690.79,-690.79 0,-380.9 -309.89,-690.79 -690.79,-690.79" /><path
         id="path54"
         style="fill:#000000;fill-opacity:1;fill-rule:nonzero;stroke:none"
         d="m 5209.87,4829.85 c 15.24,-14.19 43.03,-9.26 50.7,-28.85 9.3,-23.71 -21.16,-48.65 -42.37,-46.73 -29.62,2.68 -56.35,54.59 -64.5,85.51 -11.64,44.2 1.08,72.74 -55.31,130.27 -14.19,14.47 -29.31,23.5 -40.64,25.63 -48.09,15.25 -193.53,28.16 -345.28,25.18 -0.01,-0.11 -0.05,-0.27 -0.13,-0.46 -12.1,2.24 -106.15,15.53 -184.66,-5.52 -6.96,5.05 -27.04,8.89 -70.46,11.72 -4.19,0.28 -17.81,-3.66 -31.86,-2.77 0,0 5.06,11.3 3.32,11.54 -27.63,3.83 -43.46,-8.75 -43.83,-8.77 -14.89,2.56 -18.32,-0.06 -34.42,-3.76 -42.59,-9.79 -49.59,-24.84 -49.59,-24.84 -13.61,-11.75 -11.35,-20.38 -30.04,-27.41 -5.19,-1.95 -5.52,-5.33 -8.33,-7.79 -0.32,-0.62 -10.48,-3.39 -15.41,-12 -8.05,-3.35 -7.9,-8.8 -8.05,-13.87 -0.15,-5.46 4.82,-11.23 9.65,-13.42 -0.18,-8.14 13.78,-22.09 17.26,-22.91 11.51,-2.7 -2.8,9.78 14.68,-23.58 0.72,-1.39 3.53,-1.49 4.4,1.63 0.99,-2.04 3.66,-1.25 4.19,-0.15 2.63,5.37 -2.6,9.66 0.32,21.53 5.32,0.66 24.89,-5.81 28.42,-7.59 3.79,-1.92 0.17,0.25 -1.62,-9.74 -3.5,-19.6 2.99,-5.2 -8.06,-15.14 -9.55,-8.58 -7.12,-5.93 -12.98,-0.69 -6.45,5.76 -10.18,10.74 -12.48,6.98 -6.85,3.58 -0.27,-15.57 2.96,-18.65 -5.57,-6.94 -5.72,-14.79 4.81,-22.78 8.37,-6.34 20.74,0.75 40.57,7.77 39.68,1.91 57.33,23.88 69.79,29.09 7.64,3.2 9.11,-7.52 24.88,-10.62 25.69,-5.07 8.05,-29.69 55.13,-90.63 18.17,-23.51 23.03,-53.85 16.99,-96.54 0,0 -10.06,-73.52 -34.71,-101.79 -3.12,-2.02 -7.53,2.18 -14.34,-6.84 -1.64,-2.18 -14.6,-7.06 -17.01,-7.2 -10.4,-0.61 -20.4,-35.22 -5.95,-32.17 12.9,2.72 4.87,-3.45 16.34,-2.27 14.92,1.53 31.53,0.86 45.61,0.86 16.36,0 11.87,10.63 18.11,28.46 2.59,7.41 36.21,64.03 46.27,73.52 9.01,8.86 36.5,73.44 51.56,105.17 22.16,-13.78 39.11,-45.4 37.96,-125.21 -9.95,-17.47 -9.35,-1.39 -19.28,-14.56 -1.58,-2.09 -7.66,-2.15 -9.93,-2.59 -23.93,-4.72 -22.26,-35.68 -15.23,-33.99 9.91,2.38 7.83,-4.43 18.81,-3.3 11.47,1.17 24.63,-0.28 41.43,0.83 22.06,-0.12 23.4,33.44 35.2,60.36 22.69,51.82 10.3,108.66 16.81,127.46 -0.51,1.06 -0.98,2.14 -1.47,3.2 24.1,-5.92 76.83,-11.3 169.59,9.9 5.98,1.36 10.19,2.85 13.27,3.59 14.55,-23.8 38.75,-57.74 42.06,-60.34 12.62,-15.33 3.85,-49.45 3.83,-51.61 -4.05,-9.57 -21.86,-39.2 -21.43,-40.26 -8.66,-11.83 -16.3,3.6 -24.62,-6.45 -3.61,-4.35 -6.7,2.65 -12.37,-7.04 -0.87,-1.5 -1.44,-3.57 -2.41,-5.4 -16.14,-3.33 -18.82,-26.37 -11.42,-24.59 4.96,1.18 6.3,-1.77 6.31,-1.78 25.3,-9.94 82.2,-9.44 83.86,17.21 0.64,10.24 59.01,81.26 59.01,107.18 0,16.5 -17.9,59.54 -22.27,87.19 30.66,-42.43 105.59,-86.58 110.56,-89.28 19.08,-18.51 34.35,-81.13 31.13,-92.19 -0.66,-2.27 -4.86,-10.42 -9.1,-15.78 -18.97,-2.67 -15.35,5.64 -27.48,-6.17 -3.39,-3.3 -11.08,3.61 -15.64,-12.4 -10.76,-2.26 -11.7,-17.81 -9.66,-20.19 2.67,-3.12 6.22,-1.34 7.75,-3.03 -4.26,-4.48 58.43,-16.82 82.95,-1.4 7.29,4.58 25.25,39.61 26.5,41.91 17.56,32.42 -17.51,87.29 -17.02,123.39 0.45,32.23 -11.84,21 -18.86,37.15 -11.42,26.28 -18.82,51.97 -23.94,76.73 -0.12,0.09 -0.21,0.2 -0.3,0.31 -0.24,1.63 -0.45,3.25 -0.68,4.87 0.51,-1.45 1.03,-2.91 1.55,-4.43 44.36,-127.09 150.36,-98.1 159.96,-24.55 10.51,80.51 -108.46,72.98 -79.36,45.88" /><path
         id="path56"
         style="fill:#ffffff;fill-opacity:1;fill-rule:nonzero;stroke:none"
         d="m 7017.67,4796.5 c 0,-371.77 -301.37,-673.15 -673.15,-673.15 -371.77,0 -673.15,301.38 -673.15,673.15 0,371.77 301.38,673.15 673.15,673.15 371.78,0 673.15,-301.38 673.15,-673.15" /><path
         id="path58"
         style="fill:#000000;fill-opacity:1;fill-rule:nonzero;stroke:none"
         d="m 6344.53,5452.01 c -361.46,0 -655.52,-294.06 -655.52,-655.51 0,-361.45 294.06,-655.52 655.52,-655.52 361.44,0 655.5,294.07 655.5,655.52 0,361.45 -294.06,655.51 -655.5,655.51 z m 0,-1346.3 c -380.91,0 -690.8,309.88 -690.8,690.79 0,380.91 309.89,690.79 690.8,690.79 380.89,0 690.78,-309.88 690.78,-690.79 0,-380.91 -309.89,-690.79 -690.78,-690.79" /><path
         id="path60"
         style="fill:#000000;fill-opacity:1;fill-rule:nonzero;stroke:none"
         d="m 6059.33,4483.02 c 0.54,-2.79 2.8,-5.44 5.81,-5.63 27.62,-1.82 54.84,-8.38 82.31,-5.8 2.65,-0.46 4.95,-0.12 6.92,0.86 0.97,0.15 1.94,0.27 2.91,0.45 0.71,-0.17 8.37,8.67 4.84,10.81 0.05,0.18 0.11,0.35 0.15,0.54 3.15,12.24 2.83,23.12 8.65,34.83 7.72,15.54 16.2,31 24.52,46.23 9.37,17.18 22.42,32.67 22.6,32.54 26.97,-19.55 72.14,-19.71 101.26,-35.67 13.26,-7.28 25.06,-15.26 37.49,-23.71 5.28,-3.6 18.83,-9.39 25.07,-16.23 -9.62,1.53 -19.39,1.56 -29.2,1.25 -12.78,-0.41 -25.76,0.02 -38.49,-0.7 -19.56,-1.11 -30.98,-24.11 -24.31,-42.06 5.07,-13.63 21.5,-15.08 33.97,-15.07 21.54,0.01 43.13,-0.69 64.66,-0.12 24.85,0.66 50.93,2.25 75.24,7.7 5.5,1.23 10.85,3.05 15.77,5.82 3.87,2.18 7.34,6.16 11.47,7.71 9.37,3.55 23.63,-7.98 32.31,-11.94 18.71,-8.53 35.81,-9.52 55.8,-6.16 14.77,2.49 35.28,6.16 42.45,21.22 41.88,88.01 -58.82,48.24 -56.14,53.95 17.21,36.66 22.65,45.57 27.04,68.8 5.98,31.71 -0.33,66.05 -10.3,96.34 -8.88,26.97 -22.74,52.37 -41.77,73.53 -21.14,23.5 -48.51,39.94 -77.78,51.39 -34.9,13.66 -72.29,12.53 -108.83,18.63 -17.9,2.99 -35.97,6.79 -53.46,11.67 -14.55,4.06 -30.02,9.55 -40.49,20.97 -20.82,22.7 -14.9,63.88 -0.74,88.24 9.17,15.8 20.4,28.28 33.94,40.34 11.69,10.4 19.92,22.78 23.29,38.23 3.53,16.14 1.73,32.81 1.21,49.15 -0.3,9.6 1.51,20.56 -10,23.83 -2.37,0.67 -4.1,0.04 -5.16,-1.18 -0.34,0.11 -0.67,0.19 -0.95,0.2 -11.43,0.44 -23.59,-11.27 -31.38,-18.3 -9.87,-8.89 -16.1,-20.61 -24.07,-30.98 -1.13,12.41 0.53,64.82 -19.75,50.53 -19.61,-13.82 -39.19,-41.37 -50.66,-62.75 -12.35,-23.03 -5.23,-48.35 -7.51,-73.03 -20.05,-0.83 -38.41,-10.55 -52.6,-24.72 -7.36,-7.36 -12.79,-15.82 -18.03,-24.73 -6.45,-10.99 -14.67,-19.53 -23.31,-28.75 -14.15,-15.12 -23.9,-34.65 -10.13,-53.65 7.78,-10.73 19.19,-16.54 31.5,-19.76 -14.3,-35.08 -20.19,-76.41 -4.8,-111.86 15.32,-35.26 51.67,-74.56 50.2,-98.1 -0.78,-12.49 -0.59,-36.74 -6.81,-47.6 -10.13,-17.65 -18,-34.54 -24.46,-53.76 -4.37,-12.97 -19.53,-8.52 -30.18,-13.84 -10.99,-5.49 -22.64,-16.25 -20.07,-29.66" /><path
         id="path62"
         style="fill:#ffffff;fill-opacity:1;fill-rule:nonzero;stroke:none"
         d="m 3898.89,2998.61 c 0,-371.77 -301.39,-673.15 -673.16,-673.15 -371.77,0 -673.15,301.38 -673.15,673.15 0,371.77 301.38,673.15 673.15,673.15 371.77,0 673.16,-301.38 673.16,-673.15" /><path
         id="path64"
         style="fill:#000000;fill-opacity:1;fill-rule:nonzero;stroke:none"
         d="m 3225.74,3654.12 c -361.46,0 -655.52,-294.06 -655.52,-655.51 0,-361.45 294.06,-655.51 655.52,-655.51 361.44,0 655.5,294.06 655.5,655.51 0,361.45 -294.06,655.51 -655.5,655.51 z m 0,-1346.3 c -380.91,0 -690.79,309.89 -690.79,690.79 0,380.91 309.88,690.79 690.79,690.79 380.9,0 690.78,-309.88 690.78,-690.79 0,-380.9 -309.88,-690.79 -690.78,-690.79" /><path
         id="path66"
         style="fill:#000000;fill-opacity:1;fill-rule:nonzero;stroke:none"
         d="m 3654.53,2947.51 c -20.5,23.11 -54.83,37.31 -86.74,36.39 -51.72,-1.49 -98.57,-28.69 -146.8,-47.42 -52.15,-20.25 -107.97,-30.99 -163.91,-31.54 -27.89,-0.27 -56.59,2.18 -81.62,14.5 -25.02,12.32 -45.81,36.22 -47.8,64.04 -2.51,35 24.87,66.14 56.44,81.43 31.58,15.3 67.31,18.88 101.54,26.59 61.1,13.76 126.12,50.1 137.59,111.68 10.51,56.45 -33.76,114.46 -89.58,127.91 -55.82,13.45 -116.52,-12.47 -153.6,-56.31 -26.83,-31.73 -45.18,-73.7 -82.79,-91.36 -39.54,-18.57 -93,-14.25 -126.1,14.26 -84.41,72.72 -157.78,54.53 -128.92,0.29 -20.99,1.06 -46.74,0.21 -63.88,-11.94 18.61,9.85 39.36,12.56 61.21,9.52 7.3,-1.02 -56.77,-16.24 -49.62,-14.87 54.48,10.47 53.49,15.1 53.75,14.37 0,0 -0.36,-1.07 2.66,-3.26 33.62,-24.41 48.96,-27.2 60.58,-33.33 78.72,-41.58 183.01,-58.41 251.7,-1.77 22.73,18.75 39.24,43.76 58.19,66.33 18.95,22.56 42.08,43.73 70.83,50.16 28.76,6.44 63.58,-6.96 72.38,-35.08 6.92,-22.09 -3.97,-46.77 -21.34,-62.06 -17.38,-15.29 -40.09,-22.9 -62.48,-28.76 -44.26,-11.59 -90.19,-17.93 -132.4,-35.58 -42.21,-17.66 -81.69,-49.49 -93.96,-93.57 -16.79,-60.34 24.56,-125.48 80.68,-153.32 56.11,-27.84 122.36,-25.82 184.13,-15.41 72.13,12.16 142.23,34.86 209.53,63.55 14.59,6.22 29.98,12.87 45.71,10.85 15.73,-2.01 31.01,-16.58 27.48,-32.03 -3.51,-15.38 -21.58,-21.64 -36.92,-25.29 -46.83,-11.16 -93.66,-22.31 -140.48,-33.46 -30.62,-7.29 -62.24,-15.05 -87.21,-34.2 -24.97,-19.16 -41.53,-53.04 -30.87,-82.65 10.2,-28.34 41.34,-43.82 71.12,-48.33 29.77,-4.51 60.31,-0.92 90.1,-5.27 6.19,18.03 -70.19,34.91 -89.19,36.44 -18.99,1.53 -40,15.92 -37.15,34.76 2.13,14.05 16.18,22.74 29.18,28.48 62.7,27.66 132.93,31.35 199.74,46.64 47.99,10.99 102.58,37.73 107.12,86.75 1.83,19.74 -5.57,37.52 -18.3,51.87" /><path
         id="path68"
         style="fill:#ffffff;fill-opacity:1;fill-rule:nonzero;stroke:none"
         d="m 5483.87,2998.61 c 0,-371.77 -301.38,-673.15 -673.15,-673.15 -371.78,0 -673.16,301.38 -673.16,673.15 0,371.77 301.38,673.15 673.16,673.15 371.77,0 673.15,-301.38 673.15,-673.15" /><path
         id="path70"
         style="fill:#000000;fill-opacity:1;fill-rule:nonzero;stroke:none"
         d="m 4810.72,3654.12 c -361.45,0 -655.52,-294.06 -655.52,-655.51 0,-361.45 294.07,-655.51 655.52,-655.51 361.44,0 655.51,294.06 655.51,655.51 0,361.45 -294.07,655.51 -655.51,655.51 z m 0,-1346.3 c -380.91,0 -690.79,309.89 -690.79,690.79 0,380.91 309.88,690.79 690.79,690.79 380.9,0 690.78,-309.88 690.78,-690.79 0,-380.9 -309.88,-690.79 -690.78,-690.79" /><path
         id="path72"
         style="fill:#000000;fill-opacity:1;fill-rule:nonzero;stroke:none"
         d="m 5233.24,2908.26 c -3.32,16.53 -14.55,31.17 -19.06,47.67 -9.45,34.64 -8.22,72.08 -23.83,105.01 -12.96,27.35 -37.36,51.58 -63,67.25 -13.17,8.04 -28.12,20.85 -43.79,21.45 -19.53,0.75 -29.71,-8.27 -30.01,-8.41 -11.23,11.94 -25.48,19.19 -43.36,22.45 -31.23,5.69 -64.84,12.46 -96.41,5.76 -21.36,-4.53 -40.59,-15.46 -62.17,-18.87 -20.88,-3.29 -42.21,-4.84 -63.34,-4.9 -7.8,-0.02 -32.25,-1.57 -43.66,4.95 -3.97,22.07 -23.47,34.96 -37.11,52.33 -0.3,0.38 -1.35,-0.13 -2.03,-0.74 -5.07,9.95 -12.62,18.76 -20.24,27.92 -2.99,7.8 -8.63,14.94 -17.96,21.03 -0.53,3.05 -1.37,6.03 -2.68,8.91 -7.41,16.32 -26.89,22.29 -36.26,37.32 -0.23,0.37 -0.97,0.12 -1.68,-0.33 -7.41,11.22 -16.05,21.67 -23.69,30.88 -0.21,0.25 -0.85,0.03 -1.43,-0.34 -7.58,6.53 -16.98,11.17 -26.41,16.88 -0.06,0.04 -0.16,0.04 -0.25,0.04 -11.02,9.17 -26.22,9.83 -40.56,9.07 -5.47,4.86 -12.25,7.31 -20.93,5.5 -3.9,6.74 -7.03,23.68 -17.57,27.11 -1.38,0.45 -13.74,-8.83 -12.52,-28.39 -9.74,-1.78 -19.05,-5.56 -23.23,-12.11 -2.99,2.77 -5.79,5.74 -8.65,9.11 -4.88,5.75 -9.85,10.85 -16.83,13.91 -1.54,0.68 -3.49,-2 -4.03,-3.13 -11.25,-23.52 2.53,-42.65 2.05,-41.77 l -22.96,-31.08 c -3.92,-3.85 -10.69,-11.08 -8.13,-17.28 2.1,-5.11 9.13,-6.4 14.7,-6.68 -0.19,-1.57 -0.35,-3.14 -0.48,-4.74 -1.43,-18.24 -4.22,-33.03 -11.24,-50.05 -5.55,-13.44 -11.64,-26.53 -14.96,-40.76 -0.09,-0.38 0.06,-0.54 0.32,-0.56 -4.82,-17.24 -2.1,-34.31 16.38,-40.9 0.16,-0.06 0.42,0 0.69,0.1 5.82,-2.09 11.27,2.44 15,8.08 0.6,0.5 1.19,1.02 1.75,1.6 3.48,-4.04 7.51,-7.6 11.91,-8.04 6.91,-0.69 13.84,6.56 17.89,11.14 7.72,8.72 10.44,19.06 11.15,29.96 6.16,6.8 12.23,14.13 17.09,22 10.72,1.45 19.29,6.9 27.04,15.4 2.84,-7.68 6.04,-15.31 7.69,-23.21 4.11,-19.79 2.77,-40.11 5.96,-59.99 1.31,-8.22 3.53,-16.34 6,-24.41 -6.79,-22.01 -11.28,-44.93 -12.13,-67.95 -1.13,-30.88 6.7,-70.51 34.2,-85.4 -11.45,-6.82 -23.16,-13.11 -34.93,-18.78 -13.08,-6.31 -28.82,-10.9 -39.53,-21.13 -6.42,-1.95 -12.32,-5.01 -17.05,-10.56 -8.89,-10.47 -10.94,-26.98 -7.31,-40.24 -0.16,-0.24 -0.28,-0.47 -0.23,-0.66 7.45,-32.33 3.8,-62.62 3.24,-95.1 -0.24,-13.81 1.14,-39.34 21.13,-34.91 0.23,0.05 5.44,1.24 7.62,1.86 10.56,-11.78 21.58,-24.05 34.92,-32.29 12.5,-7.72 17.93,-3.29 19.04,3.38 0.05,0.29 -1.99,42.74 -6.99,56.7 -0.18,0.51 -11.77,3.82 -19.43,-3.88 -3.43,3.55 -7.55,7.07 -11.89,9.4 0.98,3.64 0.16,6.92 -3.3,11.04 -10.68,12.75 -17.07,22.4 -16.07,40.04 0.79,13.8 5.55,29.76 5.57,44.65 7.68,7.01 13.24,17.38 17.47,27.71 25.75,-0.33 53.33,6.75 76.82,14.9 3.78,1.31 7.55,2.71 11.31,4.19 4.61,-12.35 12.41,-23.57 19.6,-34.58 8.12,-12.46 12.94,-26.98 20.34,-39.85 -0.48,-21.31 9.29,-44.07 20.13,-62.82 1.3,-17.43 4.43,-34.75 4.48,-52.29 0.04,-11.8 -1.25,-24.62 -0.89,-37.1 -5.7,-7.94 -6.49,-20.26 -6.42,-30.74 -12.7,-10.01 -26.67,-22.09 -27.76,-37.43 -0.63,-0.49 44.55,-1.96 45.64,-1.45 7.5,3.51 5.39,9.07 9.56,20.53 0.22,0.61 -5.56,5.77 -5.95,8.44 3.84,9.99 14.72,14.18 20.11,23.62 6.48,11.37 1.16,25.76 -2.02,37.33 -8.22,29.91 -2.32,63.27 -10.17,93.12 4.95,9.5 8.21,20.64 5.21,31.16 -1.41,4.95 -3.95,9.62 -7.01,14.04 1.72,23.35 0.63,50.48 -8.84,70.4 -0.31,3.27 -0.75,6.52 -1.32,9.74 23.29,-2.16 46.15,0.01 69.05,4.46 20.21,3.92 41.86,7.62 60.79,15.93 11.46,5.04 22.01,11.72 33.79,16.12 3.38,1.26 6.81,2.36 10.26,3.39 2.15,0.19 4.2,0.87 6.21,1.77 6.72,1.83 13.49,3.49 20.2,5.34 3.71,1.02 7.32,2.18 10.9,3.4 5.01,0.36 10.04,0.63 15.03,1.26 -0.58,-8.41 -0.83,-16.88 0.6,-25.09 3.19,-18.33 12.92,-34.98 18.84,-52.47 5.62,-16.58 11.09,-32.82 18.05,-48.93 5.39,-12.51 6.32,-23.95 7.2,-36.03 -3.22,-16.98 -11.48,-30.71 -24.13,-44.87 -12.35,-13.82 -23.73,-27.92 -37.64,-39.9 -12.75,-8.24 -25.98,-21.48 -22.09,-33.6 -3.56,-3.43 -7.01,-6.99 -10.25,-10.7 -2.98,-3.4 -18.21,-19.14 -14.27,-24.29 -0.03,-0.1 -0.07,-0.2 -0.08,-0.29 -2.4,-19.85 49.58,-10.04 47.83,2.23 2.86,9 4.85,17.88 7.44,26.44 0.61,0.09 1.23,0.2 1.85,0.37 2.2,0.63 4.06,1.82 5.9,3.18 5.08,3.76 9.44,8.55 13.61,13.26 0.73,0.83 31.2,42.2 47.46,62.13 8.33,10.2 17.18,19.45 26.41,28.81 4.68,4.76 9.54,9.86 12.28,16.07 8.24,18.63 -8.71,37.34 -12.06,55.39 -2.27,12.28 -1.33,25.05 1.53,37.56 11.16,-11.13 23.18,-21.5 34.94,-31.75 20.81,-18.13 41.14,-33.89 53.1,-59.41 7.37,-15.71 12.5,-33.25 14.15,-50.85 0.08,0 0.16,0 0.25,-0.01 0.38,-5.53 0.44,-11.06 0.08,-16.53 -1.29,-19.29 -9.93,-40.32 -7.22,-59.89 -1.14,-2.5 -2.18,-5.1 -2.82,-7.65 -1.08,-2.04 -2.16,-4.07 -3.3,-6.12 -3.71,-6.67 -9.38,-14.64 -10.01,-22.51 -19.35,-13.27 -27.85,-24.06 -12,-24.77 15.52,-0.69 30.83,-3.1 46.03,1.12 1.28,0.36 3.3,2.08 3.37,3.53 0.12,2.54 0.1,4.97 -0.28,7.3 0.56,2.22 0.94,4.47 1.24,6.86 1.09,8.4 2.75,14 8.22,20.65 2.2,2.67 9.27,7.04 9.88,8.59 9.09,23.25 0.96,49.17 -2.66,72.74 -0.88,5.73 -1.35,11.47 -1.56,17.22 0,0 -0.05,0 -0.07,0 -0.51,24.97 3.5,50.05 0.83,74.96 0.45,6.4 0.19,12.64 -1.57,17.78 0.52,0.63 0.85,1.29 0.73,1.78 -2.97,11.78 -15.6,19.61 -24.09,27.31 -12.66,11.47 -23.96,26.96 -30.4,42.81 -8.3,20.44 -2.85,42.77 5.78,62.2 5.11,11.49 21.38,53.33 22.84,62.23 3.98,24.16 -4.11,46.12 -14.99,67.12 8.16,-3.93 15.65,-8.08 21.9,-15.76 10.2,-12.52 17.05,-29.07 21.6,-44.42 9.61,-32.43 10.54,-67.4 13.32,-100.92 1.52,-18.46 -0.82,-53.18 24.16,-56.91 1.22,-0.18 -5.62,16.56 2.04,20.59 16.8,-10.1 13.8,-38.4 14.19,-39.16 0.5,-0.95 10.51,7 6.76,22.2 20.12,-25.5 2.01,-61.81 3.75,-70.56 0.3,-1.46 25.75,18.02 22.71,43.15 3.23,-8.72 5.96,-24.94 5.7,-27.47 0.98,2.52 14.58,26.61 8.43,48.14 5.24,-13.34 8.19,-27.11 3.77,-41.67 -0.58,-1.92 17.64,38.69 14.18,55.91" /><path
         id="path74"
         style="fill:#ffffff;fill-opacity:1;fill-rule:nonzero;stroke:none"
         d="m 2313.9,2998.61 c 0,-371.77 -301.38,-673.15 -673.15,-673.15 -371.77,0 -673.148,301.38 -673.148,673.15 0,371.77 301.378,673.15 673.148,673.15 371.77,0 673.15,-301.38 673.15,-673.15" /><path
         id="path76"
         style="fill:#000000;fill-opacity:1;fill-rule:nonzero;stroke:none"
         d="m 1640.75,3654.12 c -361.45,0 -655.512,-294.06 -655.512,-655.51 0,-361.45 294.062,-655.51 655.512,-655.51 361.45,0 655.51,294.06 655.51,655.51 0,361.45 -294.06,655.51 -655.51,655.51 z m 0,-1346.3 c -380.9,0 -690.785,309.89 -690.785,690.79 0,380.91 309.885,690.79 690.785,690.79 380.9,0 690.79,-309.88 690.79,-690.79 0,-380.9 -309.89,-690.79 -690.79,-690.79" /><path
         id="path78"
         style="fill:#000000;fill-opacity:1;fill-rule:nonzero;stroke:none"
         d="m 2160.13,2945.15 c -0.34,3.8 -1.53,7.29 -3.4,10.39 -0.1,0.71 0.03,8.53 -0.53,11.82 -0.66,3.91 -1.78,10.55 -5.26,13.6 0,0 -0.01,0 -0.01,0.01 3.15,9.85 -15.94,70.14 -34.77,77.17 -0.39,0.15 2.73,-10.66 2.8,-13.06 -3.86,4.82 -20.4,41.25 -31.47,41.61 -1.34,-9.15 -3.94,-4.14 -6.22,-2.47 -8.71,6.38 -32.42,29.87 -42.96,28.32 -0.29,-0.04 6.68,-7.73 9.86,-11.55 -10.55,5.46 -26.47,23.96 -42.36,25.72 -0.91,0.68 5.41,-11 -3.79,-5.33 -8.37,5.17 -31.08,18.4 -40.26,18.85 -0.48,0.02 0.64,-4.74 2.01,-6.72 -0.89,0.23 -1.78,0.45 -2.68,0.65 -13.79,3.09 -27.25,6.15 -38.71,14.93 -0.33,0.25 0.91,-6.5 3.42,-9.16 -7.1,1.4 -14.22,2.95 -21.06,5.1 -3.18,1.53 -6.36,3.03 -9.36,4.9 -5.7,3.55 -10.66,8.02 -14.06,13.85 -0.17,0.29 -0.74,0.07 -0.8,-0.21 -0.33,-1.55 -0.14,-3.73 0.48,-5.92 -0.25,-0.16 -0.25,-0.16 -0.49,-0.32 -3.24,2.6 -6.11,5.78 -8.49,9.3 -0.2,0.51 -0.38,1.03 -0.53,1.59 -0.93,3.57 -0.74,7.31 -0.43,10.95 0.51,6 0.48,14.76 4.59,19.6 0.36,0.42 -0.09,0.91 -0.57,0.7 -4.91,-2.12 -8.4,-5.6 -10.5,-10.09 -0.04,4.45 0.77,8.8 2.66,12.75 8.4,6.31 19.98,8.48 29.94,4.96 -0.75,4.05 -2.82,7.84 -5.82,10.67 6.59,0.91 13.57,-2.49 16.92,-8.23 4.4,-7.55 2.41,-17.13 4.51,-25.61 2.07,-8.33 8.39,-15.48 16.4,-18.56 0.27,5.92 -3.33,11.21 -5.3,16.79 -2.9,8.19 -2.2,17.59 1.89,25.25 17.06,-12.25 25.87,-34.99 21.53,-55.54 8.64,6.15 9.9,18.28 10.36,28.88 12.03,-9.25 24.07,-18.5 36.5,-27.22 6.27,-4.39 13.44,-8.85 21.01,-7.73 -2.19,5.19 -6.52,9.11 -9.91,13.61 -4.55,6.07 -7.38,13.22 -11.22,19.76 -1.96,3.32 -4.3,6.57 -7.07,9.25 12.38,-9.34 21.79,-23.04 34.91,-31.65 12.13,-7.96 26.82,-11.13 41.29,-12.02 4.14,-0.25 9.29,0.29 10.83,4.13 -26.6,1 -51.94,18.28 -62.58,42.69 17.8,-17.46 41.98,-28.26 66.86,-29.87 8.55,-0.56 17.42,0 25.16,3.67 7.75,3.67 14.18,10.95 14.99,19.48 v 0 c -9.2,-5.63 -18.94,-11.42 -29.72,-11.85 -12.33,-0.49 -23.81,6.15 -33.59,13.7 -9.78,7.54 -18.87,16.31 -30.16,21.32 8.04,-1.91 16.23,-3.84 24.47,-3.21 8.24,0.62 16.68,4.22 21.12,11.18 -10.04,-5.83 -22.88,-6.56 -33.52,-1.9 -11.84,5.19 -21.36,16.63 -34.28,17.19 5.05,2.7 9.85,5.89 14.29,9.5 -19.79,3.4 -40.23,-9.11 -59.62,-3.88 14.37,11.78 36.37,8.35 52.23,18.02 -2,2.84 -5.76,3.95 -9.23,3.79 -3.47,-0.17 -6.78,-1.4 -10.11,-2.35 -8.19,-2.35 -16.82,-3.11 -25.29,-2.23 -8.06,0.84 -16.59,3.07 -23.98,-0.27 -6.48,-2.94 -12.57,-10.05 -19.15,-7.36 10.37,7.42 21.79,13.38 33.81,17.66 -18.8,-1.77 -38.82,-4.02 -53.46,-15.96 -5.01,-4.08 -9.16,-9.15 -14.21,-13.18 -3.57,-2.84 -7.54,-5.14 -11.28,-7.75 4.84,8.9 10.49,20.43 13.7,24.09 -7.68,0.42 -15.01,-3.88 -20.09,-9.65 -5.08,-5.78 -11.39,-20.1 -14.53,-27.12 -0.72,7.68 0.18,16.17 4.19,22.76 -17.57,-7.75 -16.69,-50.59 -12.67,-62.28 -1.97,-0.06 -4.03,-5.81 -12.11,8.05 -2.09,3.6 -3.22,-9.99 -2.27,-12.76 2.23,-6.52 6.89,-11.36 12.9,-14.78 7.45,-4.23 18.26,-8.3 18.44,-16.87 -5.11,-1.8 -12.53,-5.17 -15.48,-9.72 13.16,3.15 25.58,2.02 37.14,-5.02 -8.62,1.35 -15.88,-3.34 -21.34,-10.14 31.62,5.5 51.79,0.24 75.45,-9.73 -5.08,-4.98 -10.44,-10.52 -11.3,-17.58 16.99,10.72 64.04,-2.77 66.96,-9.19 0,0 -22.92,7.45 -34.76,-9.74 -2.69,-3.9 21.32,13.25 78.83,-18.94 2.03,-1.13 3.26,-3.41 2.84,-5.69 -0.59,-3.21 -3.71,-3.46 -6.29,-3.43 -11.46,0.13 -31.58,1.11 -35.73,-16 30.64,12.34 66.67,-7.47 77.53,-16.58 2.72,-2.27 5.29,-5.38 4.98,-8.9 -0.51,-5.94 -8.08,-8.04 -14.04,-8.25 -14.53,-0.51 -37.88,4.72 -42.78,-9.04 37.18,7.84 60.98,-13.78 63.72,-21.95 2.75,-8.17 -3.04,-19.01 -11.65,-18.64 -7.24,0.31 -12.2,7.78 -13.41,14.92 -4.86,-12.01 9.49,-28.05 0.44,-37.33 -0.95,-0.97 -2.11,-1.68 -3.37,-2.18 -0.61,2.69 -27.52,-0.24 -4.6,14.43 8.15,5.21 -18.17,13.51 -42.9,5.84 -7.03,-2.18 -33.47,-11.33 -33.48,-11.33 -4.39,1.51 0,0 0.74,4.56 1.39,8.51 9.14,12.79 16.26,16.41 -2.87,4.71 -9.7,4.9 -14.98,3.34 -5.29,-1.57 -10.52,-4.35 -15.98,-3.6 -2.78,0.37 -5.38,2.33 -6.79,4.71 -0.18,1.46 0.34,2.82 0.88,4.22 3.98,10.34 18.59,8.79 16.23,11.43 -3.98,1.3 -12.87,3.7 -16.99,2.88 -4.11,-0.82 -8.52,-1.52 -12.38,0.11 -3.87,1.64 -6.61,6.57 -4.47,10.17 2.45,4.1 12.22,4.21 16.84,3.01 3.5,5.58 -6.59,11.89 -13.05,13.16 -6.68,1.31 -13.78,-0.6 -20.28,1.53 -0.95,0.31 -1.88,0.72 -2.63,1.39 -3.06,2.72 -1.2,6.72 1.15,9.29 5.81,6.36 15.11,9.31 23.52,7.47 -5.66,11.49 -18.93,18.75 -31.66,17.31 -5.31,-0.6 -12.15,-1.92 -14.42,3.4 -0.45,1.05 -0.55,2.23 -0.47,3.37 0.64,9.29 9.53,16.95 18.74,16.58 -1.03,6.2 -5.72,11.36 -11.31,14.23 -6.08,3.13 -13.13,3.88 -19.93,3.98 -1.01,0.01 -2.02,0.15 -2.95,0.54 -6.4,2.75 -2.5,10.84 2.15,14.66 11.13,9.14 25.65,14.05 40.05,13.53 -17.35,11.96 -40.48,8.18 -61.54,7.48 -6.8,-0.22 -14.03,0.05 -19.69,3.87 -6.11,4.12 -7.61,12.69 -3.5,18.8 3.48,5.18 5.84,8.56 12.96,12.35 -9.48,5.62 -18.39,0.01 -27.23,-1.75 -3.21,1.4 -6.85,2.14 -9.83,4.02 -8.11,5.09 -8.74,17.24 -4.38,25.76 3.45,6.75 9.1,11.94 14.69,17.14 1.47,1.37 10.9,9.16 10.31,9.47 -1.92,1 -9.18,1.91 -10.8,1.63 -17.02,-2.96 -32.9,-12.11 -43.99,-25.35 -2.81,-3.36 -5.82,-7.28 -10.68,-6.73 -3.13,0.35 -5.68,2.56 -7.03,5.4 -2.44,5.16 -1.12,10.81 0.39,16.06 3.76,13.11 8.74,25.86 14.86,38.05 -20.84,-8.64 -37.27,-27.33 -42.96,-49.2 -0.51,-1.96 -1.29,-3.86 -2.47,-5.5 -5.69,-7.88 -12.06,-4.92 -16.41,-1.01 -11.96,10.79 -13.68,31.1 -3.7,43.74 -8.73,-1.8 -15.29,-9.32 -18.88,-17.48 -3.59,-8.16 -4.84,-17.12 -7.1,-25.74 -1.66,-6.36 -5.17,-13.66 -11.72,-14.3 -2.6,-0.25 -5.17,0.66 -7.5,1.82 -13.83,6.85 -21.96,23.58 -18.82,38.69 -9.3,-4.19 -10.23,-16.99 -8.45,-27.02 1.77,-10.04 4.55,-21.43 -1.51,-29.62 -1.68,-2.28 -4.15,-4.22 -7.63,-2.88 -2.14,0.83 -3.75,2.65 -4.61,4.78 -2.05,5.13 -0.42,10.8 -1.9,15.97 -6.99,-2.59 -9.57,-11.14 -9.95,-18.58 -0.38,-7.44 0.33,-15.45 -3.6,-21.79 -1.44,-2.32 -3.79,-4.49 -7.23,-2.56 -1.15,0.64 -2.07,1.65 -2.72,2.8 -5.02,8.75 -8.29,18.49 -9.57,28.49 -11.45,-12.08 -14.25,-31.68 -6.05,-46.31 1.53,-2.74 1.95,-6.06 0.69,-8.93 -2.84,-6.43 -9.94,-3.94 -12.35,0.54 -1.85,3.44 -1.71,7.57 -1.51,11.47 -5.79,-1.73 -8.42,-8.58 -8.53,-14.62 -0.11,-6.67 1.8,-13.4 -0.01,-19.94 -0.4,-1.43 -1.16,-2.77 -2.32,-3.69 -4.91,-3.91 -10.89,2.58 -11.2,8.35 -0.3,5.47 1.82,11.13 0.12,16.34 -14.46,-8.45 -13.43,-29.55 -16.93,-45.37 -0.51,-2.31 -2.09,-4.33 -4.34,-5.07 -4.19,-1.4 -6.79,2.31 -8.46,5.59 -4.79,9.43 -8.25,19.54 -10.23,29.93 -5.41,-9.8 -2.83,-36.15 -3.97,-37.44 -0.47,-0.52 -0.38,-28.92 -0.38,-28.92 0.21,-5.91 -3.06,-14.45 -8.53,-11.9 -1.03,0.48 -1.87,1.3 -2.51,2.24 -3.32,4.84 -6.44,9.82 -9.33,14.93 -10.68,-12.54 1.33,-34.71 -9.37,-47.23 -0.79,-0.92 -1.79,-1.8 -2.99,-1.85 -1.43,-0.05 -2.61,1.06 -3.5,2.17 -9.31,11.48 -13.57,12.13 -17.64,33.25 -11.78,-19.81 3.64,-43.2 -9.73,-61.97 -2.42,10.54 -9.77,18.49 -6.14,31.84 -13.71,-14.9 -14.27,-25.71 -21.41,-38.57 -0.96,-1.74 -2.5,-3.55 -4.18,-4.78 -1.24,-0.31 -2.5,-0.53 -3.78,-0.61 -6.57,3.07 -7.62,18.16 -7.5,25.81 3.86,-5.15 7.42,-9.14 14.78,-9.02 0.55,0.01 1.19,0.38 1.11,1.02 -1.33,11.84 0.19,23.43 4.96,34.36 1.38,3.18 4.31,11.6 8.74,10.73 2.28,-0.44 3.67,-2.93 5.04,-4.62 1.36,-1.67 2.74,-3.18 4.57,-4.34 0.55,-0.35 1.4,-0.03 1.52,0.63 1.33,7.54 2.39,15.21 6.05,22.04 1.08,2.02 3.5,7.13 6.43,6.88 2.82,-0.24 4.8,-5.21 5.81,-7.25 0.37,-0.73 1.36,-0.56 1.72,0.08 4.02,7.03 4.18,17.08 10.11,22.93 2.17,-5.29 0.36,-11.23 1.52,-16.77 0.16,-0.76 1.15,-1.01 1.65,-0.41 9.87,12.02 14.91,27.44 16.28,42.85 4.98,-1.82 6.43,-2.77 9.9,-12.83 2.38,-6.91 5.09,21.06 5,28.4 -0.04,3.15 -0.58,23.76 5.77,21.72 5.07,-1.63 6.95,-15.21 7.2,-14.57 3.7,9.42 -0.3,21.63 -4.65,30.22 -1.71,3.38 -3.87,6.04 -6.44,7.98 0.03,0.13 0.03,0.13 0.07,0.25 10.11,0.9 20.53,0.08 30.74,0.06 15.48,-0.02 24.31,2.38 34.66,13.9 -16.7,-8.57 -28.62,-4.52 -47.11,-1.29 -5.66,0.98 -11.55,1.84 -17.42,2.23 -0.1,1.77 -0.31,3.52 -0.6,5.27 11.34,2.51 23.06,4.06 34.47,6.21 21.21,3.99 32.76,9.19 44.33,25.76 -20.93,-14.67 -38.17,-12.88 -64.22,-13.8 -6.81,-0.24 -13.82,-0.65 -20.78,-1.42 -0.1,0.22 -0.21,0.43 -0.3,0.64 -0.05,0.12 -0.05,0.22 -0.04,0.31 -0.53,0.92 -1.11,1.82 -1.7,2.71 11.67,4.63 23.78,8.56 35.49,13 23.96,9.06 36.45,17.35 46.88,38.28 -21.67,-20.86 -42.07,-22.64 -72.23,-29.35 -8.05,-1.79 -16.31,-3.82 -24.43,-6.25 -0.01,0.13 0.01,0.25 0.07,0.37 -0.29,0.24 -0.59,0.47 -0.88,0.71 11.31,7.05 23.05,13.65 34.34,20.62 25.52,15.76 38.14,27.91 45.93,53.57 -20.62,-28.27 -43.51,-35.11 -76.56,-49.74 -8.57,-3.79 -17.31,-7.89 -25.85,-12.36 -0.37,0.29 -0.74,0.57 -1.1,0.86 9.58,5.8 19.36,11.38 28.83,17.23 25.53,15.75 38.14,27.91 45.94,53.57 -20.63,-28.27 -43.52,-35.11 -76.57,-49.74 -2.35,-1.04 -4.71,-2.1 -7.08,-3.19 0.18,0.23 0.36,0.45 0.54,0.68 5.75,17.23 10.98,24.76 42.93,48.91 4.13,3.13 6.87,8.72 5.87,13.81 -32.19,-8.22 -55.2,-35.77 -82.8,-53.66 -7.75,-5.02 -15.83,-10.18 -25.33,-10.41 -4.61,-0.11 -8.12,3.62 -7.46,8.19 3.51,24.35 51.66,50.83 38.27,55.16 -5.79,1.87 -42.61,-18.56 -53.02,-32.96 -13.05,-18.03 -26.46,-38.79 -32.09,-42.59 v 0 c -0.62,3.06 -1.06,6.16 -1.82,9.19 -0.72,2.85 -2.37,8.84 -6.51,7.11 -5.99,-2.51 -6.61,-11.86 -7.09,-17.24 -0.31,-3.42 -1.03,-6.65 -1.82,-9.94 l -11.25,-7.09 c 1.4,5.21 -3.57,18.1 -3.66,17.4 -2.09,-15.89 -20.69,-32.76 -20.69,-32.76 7.69,7.93 9.97,21.54 2.03,29.35 -1.48,-10.95 -7.13,-21.3 -15.55,-28.46 3,6.56 2.14,14.73 -2.16,20.52 -7.11,-25.88 -21.02,-32.08 -38.14,-40.02 -7.24,-3.36 -15.19,-5.69 -21.11,-11.04 -5.91,-5.36 -8.87,-15.23 -3.7,-21.31 -0.37,-0.04 -4.86,-4.21 -21.18,-2.82 -5.17,0.44 -11.68,1.51 -16.47,4.37 -16.79,11.39 -25.31,-1.44 -25.95,-10.41 -0.99,1.25 -1.98,2.49 -3.04,3.65 -11.72,12.86 7.68,20.58 11.33,21.08 19.28,2.63 32.23,-4.35 51.06,3.02 8.24,3.23 22.45,20.99 11.63,38.83 -5.97,9.84 -13.62,14.95 -19.92,24.52 -1.73,2.64 -3.11,5.7 -3.15,9.13 -0.12,11.11 12.48,18.86 22.82,23.38 -15.07,3.58 -34.65,-13.79 -32.1,-29.96 1.62,-10.29 10.2,-16.51 16.97,-23.48 6.77,-6.96 12.2,-18.04 6.71,-27.95 -1.09,-1.97 -2.44,-3.57 -3.95,-4.91 4.58,7.12 6.55,18.24 -2.61,29.11 -7.74,9.2 -16.43,13.73 -24.43,22.94 -1.36,1.55 -2.54,3.27 -3.26,5.2 -4.31,11.48 7.81,19.79 17.98,24.56 -15.48,2.92 -31.92,-13.65 -26.73,-28.52 3.31,-9.48 12.82,-15 20.66,-21.27 7.85,-6.26 15.05,-16.36 11.27,-25.65 -4.77,-11.76 -21.17,-9.38 -33.85,-9.7 -36,-0.93 -36.7,-25.94 -25.41,-37 1.12,-1.1 3.06,-1.25 4.75,-1.85 -0.79,-1.53 -1.42,-3.13 -1.87,-4.81 -9.63,-1.32 -8.17,11.44 -10.58,7.22 -1.94,-3.4 3.79,-12.7 5.93,-14.78 -4.31,-2.44 -6.43,1.74 -9.64,2.62 1.6,-6.65 7.06,-12.23 13.68,-13.97 -6.59,-0.73 -11.75,1.63 -16.8,5.93 -1.78,-5.41 16.47,-16.52 22.05,-15.31 -4.61,-3.99 -10.52,-0.61 -19.55,0.73 14.42,-12.12 22.01,-9.67 27.18,-8.18 0,0 -2.08,-2.69 -0.26,-2.59 1.12,0.05 2.26,0.28 3.41,0.57 0.35,-5.51 8.95,-13.64 8.91,-12.78 -0.09,1.86 -6.77,8.52 -4.31,14.18 0.59,-0.75 6.56,-4.02 6.41,-3.17 0.77,-0.42 -0.06,5.56 -0.09,6.3 1.19,-0.64 6.89,-3.67 6.9,-2.98 0.01,0.07 0.81,8.12 0.89,8.41 0.15,-0.04 6.04,-4.61 7.72,-5.13 1.08,2.32 2.07,8.75 2.52,9.73 0.8,-1.22 5.17,-8.75 5.3,-8.63 0.64,-1.19 3.71,7.06 4.24,7.62 0.53,-1.39 3.57,-8.02 3.57,-8.02 0.55,0.02 1.15,5.66 1.5,6.1 2.94,-4.85 6.72,-14.42 6.9,-13.5 0.55,2.68 -2.78,13.25 -2.82,14.91 0.78,-0.84 1.9,-4.66 2.65,-4.64 0,0 1.97,4.02 2.22,4.26 0.02,0 0.04,0 0.07,0 0.82,-1.04 1.5,-3.92 2.15,-4.09 0.55,-0.15 2.03,2.95 2.48,3.34 0.86,-1.29 3.05,-2.68 3.05,-2.68 0.41,0.16 -0.33,-2.89 -0.33,-2.89 -0.57,-0.54 -3.57,-6.06 -3.77,-7.15 -1.1,0.04 -3.28,4.52 -3.72,3.2 -0.7,-2.05 -0.55,-5.68 -0.9,-6.86 -0.71,0.43 -3.94,4.3 -4.73,4.64 -0.32,0.14 0.45,-5.19 0.31,-6.37 -1.07,0.17 -6.31,5.23 -6.31,5.23 -0.28,-0.02 -0.69,-6.29 -0.65,-6.92 -0.98,1.37 -7.04,7.35 -7.05,7.32 -0.08,0.03 0.19,-6.37 0.22,-9.26 -1.07,0.67 -7.88,7.27 -8,6.53 -0.9,0.75 -0.14,-7.24 -0.16,-7.81 -0.25,0.2 -4.13,4.16 -7.88,6.04 -0.24,0.18 -0.8,-6.76 -0.71,-7.22 -3.91,1.05 -10.38,10.35 -10.49,9.51 0,0 2.84,-7.78 6.86,-11.46 -0.24,-0.1 -1.83,1.01 -2.43,1.29 -0.34,0.16 -0.88,-2.43 -0.8,-2.82 -2.34,-1.26 -4.47,-2.8 -6.19,-4.78 -2.45,-2.81 1.97,-1.64 1.28,-2.09 -4.12,-2.71 -5.03,-10.21 -19.76,-7.2 -1.25,0.25 8.04,-10.47 20.52,-2.69 0.44,-7.25 -10.72,-11.65 -15.35,-6.05 -0.07,-4.71 5.08,-8.13 9.79,-7.99 4.71,0.14 8.94,2.75 12.92,5.28 -0.31,-10.33 -4.7,-20.48 -12,-27.79 9.47,1.57 17.74,8.9 20.44,18.11 9.27,-4.12 14.5,-15.67 11.46,-25.35 8.01,6.17 11.43,17.65 8.12,27.2 11.51,-4.67 17.55,-19.6 12.52,-30.95 9.12,8.75 13.65,22 11.96,34.5 1.24,0.04 2.5,0.18 3.78,0.41 6.94,-3.78 12.46,-10.15 15.07,-17.61 5.82,6.24 4.8,17.01 -1,22.96 0.78,0.42 1.55,0.86 2.31,1.31 5.79,-1 11.8,-0.64 17.4,1.14 l -10.13,4.2 c 0.44,1.18 2.83,2.17 3.74,2.25 28.23,2.5 4.11,1.68 11.36,8.4 0.13,0.04 0.3,0.08 0.43,0.12 3.53,-0.79 6.98,-1.34 10.61,-1.84 2.51,-0.36 4.74,-1.03 6.9,-2.4 1.77,-1.11 3.01,-2.73 4.63,-4.01 0.29,-0.23 0.81,-0.04 0.97,0.26 1.11,2.07 1.13,4.19 0.83,6.34 9.3,-2.55 17.97,-7.3 24.79,-14.14 1.81,5.35 1.2,11.47 -1.63,16.36 17.4,-3.71 36.2,-0.28 51.16,9.35 -8.73,0.2 -17.42,1.76 -25.68,4.6 11.37,-2.29 23.57,-0.23 33.55,5.67 -9.59,-1.36 -19.67,1.16 -27.49,6.87 14.15,-1.22 28.57,0.97 41.72,6.32 -9.75,0.84 -21.19,0.08 -28.74,5.69 16.9,-2.74 36.09,0.49 35.8,0.53 -0.03,0 -0.06,0 -0.09,0.01 0.1,0.15 -11.07,3.41 -10.2,6.94 14.16,-3.5 20.37,-2.24 23.79,-2.54 0.21,-0.05 -7.51,2.91 -3.62,4.75 6.04,0.43 12.09,0.65 18.15,0.66 -0.82,-0.5 -1.61,-1.05 -2.28,-1.42 -1.82,-1 -3.63,-2.05 -5.18,-3.45 -1.13,-1.02 -1.92,-2.16 -2.44,-3.36 -2.13,-1.11 -4.17,-2.59 -6.27,-3.73 -2.49,-1.36 -4.75,-2.86 -6.76,-4.88 -1.03,-1.03 -2.03,-2.25 -2.89,-3.58 -2.17,-0.78 -4.1,-2.41 -6.02,-3.67 -1.96,-1.28 -4.13,-2.49 -5.8,-4.15 -0.45,-0.45 -0.84,-0.94 -1.2,-1.45 -0.07,0.04 -0.17,0.04 -0.22,0 -4.01,-2.57 -8.75,-4.42 -12.36,-7.54 -1.01,-0.88 -1.94,-1.85 -2.77,-2.9 -0.02,0 -0.04,0.02 -0.07,0.01 -2.17,-0.14 -4.36,-1.8 -6.1,-2.97 -2.75,-1.86 -5.35,-3.97 -7.7,-6.31 -0.23,-0.23 -0.73,-0.78 -1.31,-1.48 -5.44,-0.45 -10.46,-4.43 -13.74,-9.51 -4.13,-1.61 -7.93,-5.2 -10.47,-8.46 -0.49,-0.63 -0.95,-1.28 -1.37,-1.96 -4.83,-1.8 -8.87,-6.79 -11.46,-11.43 -5.99,-2.57 -10.79,-8.42 -12.27,-14.77 -0.92,-0.99 -1.71,-2.16 -2.29,-3.03 -1.89,-2.88 -3.12,-6.19 -3.82,-9.56 -0.01,-0.04 -0.02,-0.1 -0.03,-0.15 -3.24,-4.43 -6.76,-8.57 -7.05,-14.38 -3.97,-5.67 -5.95,-13.47 -6.03,-20.04 -0.02,-1.73 0.14,-3.59 0.48,-5.46 -0.38,-2.34 -1.92,-6.67 -2.85,-6.41 -22.29,-54.08 -26.4,-29.12 -30.91,-57.05 -9.44,-6.75 -27.43,-19.04 -28.58,-26.27 -1.67,-0.65 -16.9,-0.33 -22.03,-5.91 -5.67,2.24 -9.3,6.24 -14.66,7.12 -3.77,0.62 -11.82,0.31 -17.03,0.04 -10.91,15.99 -29.46,-1.42 -31.64,-6.49 -0.55,-1.28 13.39,6.77 21.08,0.6 11.69,-6.81 12.11,-2.18 16.57,-4.43 14.08,-7.1 23.73,-8.57 25.41,-8.88 -50.86,8.59 -53.21,1.37 -55.82,0.41 -0.19,-0.07 -0.37,-0.35 -0.51,-0.22 -9.82,8.54 -21.13,-1.89 -23.34,-7.01 -0.61,-1.41 9.69,6.63 20.04,-1.01 0.12,-0.09 0.31,-0.05 0.46,-0.11 11.33,-4.66 8.4,-0.59 27.84,0.39 5.61,0.28 28.22,-4.75 29.46,-4.91 0.35,-2.22 -20.43,4.34 -30.17,-6.65 -0.97,0.7 -11.48,7.84 -18.58,-11.18 -0.67,-1.79 7.23,6.03 16.75,5.78 0.72,-0.86 1.99,-1.7 3.98,-2.49 5.59,-2.19 13.48,3.49 18.65,4.55 5.79,1.18 24.09,2.31 27.66,3.12 6.47,-1.8 16.02,16.58 42.53,2.91 6.09,-3.14 14.16,-1.05 16.42,2.55 14.34,2.31 20.13,-6.85 19.36,-4.96 -0.22,0.52 1.23,19.99 -20.46,11.82 -0.14,-0.06 -13.17,3.9 -17.49,9.25 -0.4,1.33 -7.21,6.79 -7.22,6.81 1.14,1.45 3.78,3.91 7.03,6.41 4.38,1.96 1.63,-8.32 2.59,-7.22 0.48,0.54 7.21,13.22 7.71,13.71 7.61,3.59 14.17,3.3 11.34,-9.89 24.12,15.87 22.49,28.88 29.14,9.66 0.3,0.05 3.54,7.75 4.84,9.25 2.43,-2.28 5.29,-4.25 8.13,-5.83 0.78,-0.43 1.66,-0.84 2.6,-1.21 0.71,-1.8 1.83,-3.51 2.82,-4.89 2.48,-3.45 6.13,-7.41 10.24,-8.9 2.75,-0.99 6.03,-0.9 9.16,-0.41 2.99,-2.75 6.65,-4.63 11.11,-4.91 1.83,-0.12 3.76,-0.06 5.72,0.16 2.15,-0.9 4.29,-1.71 6.42,-2.49 3.57,-3.72 8.07,-6.46 13.41,-7.51 4.33,-0.86 8.86,-0.56 13.34,0.51 1.84,-0.3 3.67,-0.57 5.49,-0.79 0.81,-1.26 1.71,-2.44 2.75,-3.46 4.71,-4.61 11.2,-4.01 17.18,-2.85 4.95,0.96 11.44,2.85 16.85,5.97 7.27,-2.76 15.69,-2.47 23.13,1.52 3.12,1.68 5.87,3.86 8.34,6.34 1.33,0.45 2.64,0.92 3.94,1.39 1.23,-0.61 2.55,-1.08 3.98,-1.33 4.81,-0.84 9.54,1.04 13.47,3.68 4.72,3.17 8.8,7.29 12.46,11.83 1.54,0.91 3.03,1.82 4.44,2.72 9.43,0.83 19.31,9.57 25.29,15.19 4.99,4.68 8.87,10.18 12.17,16.07 4.85,2.85 10.16,4.8 15.81,5.31 5.14,0.46 10.5,-0.6 14.45,-4.08 3.73,-3.29 5.51,-8.04 6.22,-12.87 -16.06,-26.5 -1.6,-41.79 -17.07,-58.04 -10.13,-10.65 -16.38,3.67 -25.96,-10.63 -5.95,1.36 -10.14,4.76 -15.57,4.81 -3.82,0.04 -11.73,-1.49 -16.84,-2.55 -13.21,14.14 -28.9,-5.89 -30.28,-11.23 -0.35,-1.35 12.2,8.73 20.74,3.8 12.59,-4.95 12.3,-0.31 17.05,-1.86 15,-4.88 24.76,-4.86 26.46,-4.9 -51.57,0.74 -52.79,-6.74 -55.23,-8.1 -0.17,-0.09 -0.31,-0.39 -0.46,-0.29 -11.01,6.94 -20.6,-5.08 -22.01,-10.48 -0.39,-1.49 8.57,8.02 19.97,2.05 0.13,-0.07 0.31,0 0.46,-0.04 11.91,-2.87 8.4,0.7 27.46,4.62 5.51,1.13 28.62,-0.4 29.87,-0.37 0.68,-2.13 -20.85,1.18 -28.81,-11.15 -1.07,0.53 -12.54,5.99 -16.66,-13.89 -0.39,-1.87 6.22,7.06 15.67,8.27 0.84,-0.74 2.22,-1.39 4.32,-1.86 5.85,-1.31 12.79,5.5 17.73,7.33 5.55,2.05 23.46,5.95 26.87,7.3 6.66,-0.8 14.45,6.67 19.84,9.06 8.18,3.61 12.66,0.23 21.75,0.29 6.85,0.04 14.15,1.12 15.84,5.02 13.83,4.46 20.94,-3.71 19.89,-1.97 -0.3,0.49 -1.82,19.95 -22.02,8.58 -0.13,-0.08 -13.61,1.85 -18.7,6.48 -0.6,1.25 -8.16,5.61 -8.16,5.63 3.67,6.54 29.39,33.34 27.87,7.34 21.42,19.36 18.76,39.21 28.26,21.23 0.91,0.29 9.88,8.04 0.08,25.7 1.32,0.34 9.74,0.37 9.56,-16.95 -0.05,-5.09 16.27,28.44 -12.54,47.44 1.34,1.55 3.82,1.1 5.71,0.78 6.81,-1.16 13.69,-3.49 19.41,-7.41 0.43,-0.3 1.42,0.06 1.28,0.69 -1.88,8.28 -5.57,15.92 -12.01,21.61 -5.88,5.19 -13.18,8.17 -20.72,10 6.62,1.58 12.78,3.03 19.78,1.29 0.57,-0.13 1.46,0.45 0.96,1.07 -7.17,8.88 -16.16,14.66 -27.49,16.56 -7.29,1.22 -14.68,0.83 -22.03,1.32 -4.32,0.29 -8.29,1.04 -12.3,2.67 -0.81,0.33 -1.61,0.66 -2.42,0.96 0.02,0.04 0.03,0.07 0.04,0.1 5.69,3.26 10.39,9.5 13.76,14.4 3.79,5.52 7.31,11.21 9.62,17.51 3.65,2.7 6.86,6.19 8.68,8.52 2.83,3.63 7.43,13.08 7.78,13.5 5.6,3.54 10.51,8.34 13.69,13.54 1.55,2.52 4.04,8.27 4.21,8.42 6.5,1.76 12.48,5.09 16.55,10.51 2.76,3.67 4.6,7.87 6.48,12.05 5.26,1.96 10.3,5.34 13.67,8.08 2.85,2.33 5.5,4.87 8.02,7.54 4.97,-1.78 11.57,1.25 16.53,4.23 4.12,2.47 7.69,5.52 10.93,8.95 0.17,0.04 0.3,0.07 0.47,0.1 1.3,-0.54 2.67,-0.93 4.17,-1.02 4.71,-0.29 15.02,4.39 15.9,4.84 4.64,-3.18 12.08,-2.3 17.29,-0.64 2.79,0.88 5.49,2.02 8.12,3.29 1.94,-2.15 4.44,-3.76 7.38,-4.59 2.31,-0.64 4.71,-0.97 7.11,-1.21 0.95,-3.36 2.9,-6.4 5.87,-8.49 1.66,-1.17 3.5,-2.17 5.37,-3.1 0.45,-5.16 2.97,-10.33 6.11,-14.28 3.04,-3.82 11.19,-11.2 11.6,-11.49 0.44,-1.1 0.92,-2.12 1.34,-2.97 2.45,-4.91 5.53,-9.7 8.59,-14.24 3.16,-4.66 6.89,-8.92 11.59,-12.08 0.01,0 0.02,-0.01 0.03,-0.01 0.3,-2.9 1.05,-5.71 2.69,-8.16 2.72,-4.06 6.65,-7.28 9.75,-11.06 2.68,-3.25 5.43,-6.75 9.07,-8.97 1.31,-5.19 4.16,-10 7.98,-13.69 3.12,-3 6.65,-5.94 10.43,-8.25 1.89,-5.01 4.41,-9.82 7.73,-13.78 -1.06,-3.06 -1.92,-6.19 -2.51,-9.38 -2.62,-14.06 -0.09,-29.32 8.27,-40.93 1.68,-2.32 3.61,-4.73 5.37,-7.21 -5.23,-10.43 -11.44,-20.7 -17.51,-29.15 -3.62,-2.38 -11.32,-13.76 -13.07,-15.34 -8.79,-7.95 -22.22,-14.23 -23.41,-14.23 -5.95,1.35 -10.14,4.75 -15.57,4.81 -3.83,0.03 -11.74,-1.5 -16.84,-2.56 -13.21,14.14 -28.9,-5.88 -30.29,-11.22 -0.35,-1.35 12.21,8.72 20.75,3.79 7.41,-4.28 13.08,-1.29 18.32,-2.03 15.47,-2.2 23.53,-4.69 25.19,-4.73 -51.57,0.75 -52.79,-6.74 -55.23,-8.09 -0.17,-0.1 -0.31,-0.4 -0.46,-0.3 -11.02,6.95 -20.61,-5.08 -22.02,-10.48 -0.38,-1.48 8.58,8.03 19.97,2.05 0.13,-0.06 0.31,-0.02 0.47,-0.03 0.43,-1.18 13.46,-1.83 27.46,4.61 7.37,3.4 28.62,-0.4 29.87,-0.37 0.67,-2.13 -20.86,1.19 -28.81,-11.15 -1.07,0.54 -12.54,5.99 -16.66,-13.88 -0.39,-1.88 6.22,7.06 15.67,8.26 0.84,-0.74 2.22,-1.38 4.31,-1.85 5.86,-1.32 12.79,5.49 17.74,7.32 5.54,2.06 23.46,5.95 26.87,7.3 6.66,-0.8 14.45,6.67 19.84,9.06 8.18,3.61 12.66,0.23 21.74,0.29 6.86,0.05 14.16,1.12 15.84,5.02 13.83,4.46 20.95,-3.71 19.89,-1.96 -0.29,0.48 -1.82,19.95 -22.01,8.57 -0.14,-0.08 -13.62,1.85 -18.7,6.48 -0.6,1.25 -8.16,5.62 -8.17,5.63 0.1,0.17 0.22,0.35 0.34,0.53 2.3,0.49 4.52,2.32 6.8,1.84 15.52,-3.24 14.37,4.7 21.45,7.35 1.17,-2.07 1.77,-5.14 1.51,-9.55 8.25,7.45 11.82,12.81 13.65,15.58 0.88,0.37 1.75,0.74 2.63,1.12 0.71,-1.52 1.81,-4.76 4.57,-9.99 5.89,4.67 8.17,5.52 9.83,16.55 1.83,0.91 3.64,1.88 5.36,2.96 1.98,-2.69 4.02,-6.25 4.6,-10.65 0.3,-2.27 3.08,5.99 3.26,18 0.05,0.14 0.1,0.27 0.13,0.42 0.1,0.57 0.04,1.09 -0.12,1.58 -0.02,1.87 -0.1,3.82 -0.27,5.82 3.35,-1.24 6.92,-1.7 10.55,-1.68 0.08,-0.04 0.14,-0.07 0.22,-0.11 2.77,-3.51 6.45,-6.52 9.68,-8.53 3.67,-2.29 8.87,-3.33 13.83,-3.11 0.2,-0.12 0.36,-0.2 0.56,-0.31 3.11,-5.51 8.17,-10 14.09,-11.12 3.65,-0.69 7.24,-0.16 10.66,1.03 -0.25,-1.68 -0.53,-3.35 -0.86,-5 -9.36,-14.79 -12.26,-31.23 -23.98,-36.74 -9.93,-4.67 -22.48,-10.14 -23.56,-10.15 -5.95,1.36 -10.14,4.76 -15.57,4.81 -3.83,0.04 -11.74,-1.49 -16.84,-2.56 -13.21,14.15 -28.9,-5.88 -30.29,-11.22 -0.35,-1.35 12.21,8.73 20.75,3.79 12.59,-4.94 12.29,-0.3 17.05,-1.85 14.99,-4.88 24.76,-4.86 26.46,-4.91 -51.57,0.75 -52.79,-6.74 -55.23,-8.09 -0.17,-0.1 -0.31,-0.39 -0.46,-0.3 -11.02,6.95 -20.61,-5.07 -22.02,-10.47 -0.38,-1.49 8.58,8.02 19.97,2.05 0.13,-0.07 0.32,0 0.47,-0.04 11.91,-2.88 8.39,0.69 27.46,4.62 5.5,1.13 28.62,-0.4 29.87,-0.37 0.67,-2.14 -20.86,1.18 -28.81,-11.16 -1.07,0.54 -12.54,6 -16.66,-13.88 -0.39,-1.87 6.22,7.06 15.67,8.26 0.84,-0.73 2.22,-1.38 4.31,-1.85 5.86,-1.31 12.79,5.5 17.74,7.33 5.54,2.05 23.46,5.95 26.87,7.29 6.66,-0.79 14.45,6.68 19.84,9.06 8.18,3.62 12.66,0.24 21.74,0.3 6.86,0.04 14.16,1.11 15.84,5.02 13.83,4.45 20.95,-3.72 19.89,-1.97 -0.29,0.49 -1.82,19.95 -22.01,8.57 -0.14,-0.07 -13.62,1.85 -18.7,6.48 -0.6,1.26 -8.16,5.62 -8.17,5.64 1.48,2.62 6.5,8.5 11.89,12.93 2.75,-1.35 4.68,-3.96 4.34,-7.67 -0.06,-0.57 0.79,-0.46 1.04,-0.21 3.51,3.49 6.67,7.91 7.97,12.68 1.9,-1.3 2.98,-4.46 2.63,-10.39 21.43,19.35 18.77,39.21 28.26,21.23 0.87,0.27 9.06,7.34 1.32,23.3 1.09,0.15 2.47,0.36 4.01,0.63 2.29,-2.08 4.41,-6.4 4.32,-15.18 -0.03,-2.74 4.71,5.75 4.55,17.14 2.66,0.77 5.07,1.69 6.61,2.78 4.35,3.06 11.33,11.75 11.42,11.84 1.22,0.94 2.42,1.89 3.6,2.86 0.59,0.09 9.63,4.62 12.91,7.77 3.86,3.73 8.97,13.88 9.06,14.27 0.5,0.78 1.21,1.87 1.71,2.65 2.25,1.77 4.27,3.85 5.96,6.27 1.45,2.07 4.57,9.02 5.04,9.78 4.01,2.98 7.41,7.21 9.62,11.12 2.15,3.8 2.01,14.59 1.85,15.78 1.23,4.32 1.69,8.88 1.58,12.96 -0.03,0.78 0,5.67 -0.13,7.1" /><path
         id="path80"
         style="fill:#ffffff;fill-opacity:1;fill-rule:nonzero;stroke:none"
         d="m 7068.85,3016.53 c 0,-371.77 -301.38,-673.15 -673.15,-673.15 -371.77,0 -673.15,301.38 -673.15,673.15 0,371.77 301.38,673.15 673.15,673.15 371.77,0 673.15,-301.38 673.15,-673.15" /><path
         id="path82"
         style="fill:#000000;fill-opacity:1;fill-rule:nonzero;stroke:none"
         d="m 6395.7,3672.04 c -361.45,0 -655.52,-294.06 -655.52,-655.51 0,-361.45 294.07,-655.52 655.52,-655.52 361.44,0 655.51,294.07 655.51,655.52 0,361.45 -294.07,655.51 -655.51,655.51 z m 0,-1346.3 c -380.91,0 -690.79,309.88 -690.79,690.79 0,380.9 309.88,690.79 690.79,690.79 380.9,0 690.78,-309.89 690.78,-690.79 0,-380.91 -309.88,-690.79 -690.78,-690.79" /><path
         id="path84"
         style="fill:#000000;fill-opacity:1;fill-rule:nonzero;stroke:none"
         d="m 6615.29,2691.11 c -1.29,-0.89 -2.57,-1.78 -3.86,-2.66 -8.69,-5.98 -17.76,-11.43 -25.14,-18.87 5.27,8.62 9.27,17.77 14.05,26.67 4.76,8.86 10.7,17.17 13.48,26.97 2.5,8.79 2.43,18.28 2.89,27.48 0.7,5.53 1.25,11.1 1.89,16.63 1.24,10.68 4.05,20.89 6.41,31.22 2.5,1.45 4.76,3.15 6.81,5.05 1.15,-2.82 2.2,-5.71 3.12,-8.68 11.26,-36.7 -5.47,-70.67 -19.65,-103.81 z m 160.8,469.7 c -0.24,0.68 -5.04,-11.7 -7.27,-13.67 -0.24,-0.02 -0.54,-0.14 -0.81,-0.37 -8.96,-7.83 -16.92,-15.96 -28.11,-20.65 -10.1,-4.24 -20.83,-7.16 -31.16,-10.78 -11.26,-3.95 -23.11,-5.85 -34.96,-3.86 -10.25,1.72 -19.41,6.34 -28.31,11.5 -17.75,10.29 -34.82,26.75 -55.66,23.58 -97.4,-14.83 -250.2,-10.01 -255.34,-12.91 -4.03,0.66 -7.96,1.59 -11.59,3.34 -16.55,7.97 -28.97,24.77 -39.98,38.86 -5.59,7.14 -11.15,14.36 -15.69,22.23 -4.88,8.47 -8.39,17.86 -12.11,26.89 -3.45,8.38 -6.09,17.08 -9.56,25.44 -2.7,6.49 -6.19,12.69 -8.64,19.28 -1.12,4.66 -2.46,9.27 -4.32,13.74 -2.11,5.06 -4.64,9.97 -7.53,14.68 2.62,1.06 5.13,2.33 7.46,3.87 11.2,7.43 15.68,20.76 25.11,29.88 0.21,0.2 1.13,1.32 0.4,1.53 -13.9,4.14 -28.81,12.23 -42.98,4.74 -5.76,-3.04 -10.7,-7.19 -15.41,-11.66 -6.43,4.75 -13.34,8.27 -20.85,10.83 3.78,25.84 17.86,50.08 38.57,66 4.33,3.33 12.08,7.89 12.47,13.65 0,0.05 0.01,0.09 0.01,0.14 -8.46,2.42 -22.51,-4.24 -30.28,-7.68 -6.87,-3.06 -13.43,-6.8 -19.59,-11.12 -8.4,-4.91 -16.33,-10.58 -22.95,-17.79 -9.65,-10.5 -16.59,-24.79 -21.43,-38.89 -2.14,0.43 -4.31,0.74 -6.47,0.94 -0.08,0.03 -0.17,0.06 -0.26,0.1 -0.1,0.06 -0.26,0.02 -0.43,-0.05 -3.32,0.27 -6.61,0.28 -9.74,0.07 0.03,3.53 0.07,7.09 0.25,10.64 4.43,19.95 14.83,38.61 29.77,52.57 3.99,3.73 11.27,9.01 11.1,14.78 0,0.05 0,0.09 0,0.14 -6.02,1.11 -14.32,-2.41 -21.3,-6.07 -6.1,-1.89 -12.43,-5.57 -15.43,-7.4 -11.56,-7.06 -23.05,-18.49 -30.42,-29.84 -1.47,-2.26 -2.8,-4.66 -4.01,-7.15 -6.09,-9.66 -10.76,-20.21 -13.64,-31.25 -9.89,7.09 -20.79,7.21 -32.94,6.4 -0.78,-0.05 -1.8,-1.02 -1.74,-1.83 0.82,-10.12 -0.09,-21.96 6.39,-30.48 2.84,-3.74 8.04,-9.11 13.49,-11.39 1.5,-1.77 4.49,-2.3 6.78,-2.57 -7.27,-4.14 -14.47,-8.62 -19.16,-15.25 -7.01,-9.92 -4.32,-24.07 -2.89,-36.15 -12.11,-15.12 -21.85,-32.45 -31.27,-49.11 -1.23,-1.5 -2.31,-3.08 -3.18,-4.76 -2.04,-3.95 -2.49,-8.82 -2.25,-13.21 0.13,-2.34 0.48,-4.81 1.39,-6.99 0.48,-1.13 1.26,-1.98 1.89,-2.94 -2.17,-7.86 7.08,-17.56 14.15,-19.4 1.63,-0.43 3.2,-0.5 4.73,-0.32 2.76,-7.98 14.21,-6.48 20.91,-5.95 4.48,0.35 9.69,1.34 14.08,0 1.84,-0.56 3.03,-1.44 3.77,-2.53 -0.46,-2.05 -0.62,-4.02 -0.55,-5.94 -0.39,-4.23 -0.87,-8.84 1.01,-12.62 1.32,-2.64 3.91,-4.7 6.63,-6.52 2.01,-3.01 4.18,-5.98 6.19,-9 0.06,-0.08 0.25,-0.34 0.26,-0.45 0.02,-0.4 14.64,15.36 16.93,24.84 1.29,5.33 -1.14,8.96 -4.46,12.91 -3.01,3.59 -4.86,6.74 -3.86,11.65 0.44,2.11 1.31,4.11 2.31,6.05 5.51,5.01 14.09,5.73 21.14,7.78 7.29,2.12 14.53,5 21.59,7.8 0.01,0 0.02,0.01 0.04,0.01 3.42,-6.86 8.7,-13.21 11.05,-20.43 4.29,-13.21 7.54,-27.06 8.64,-40.93 0.54,-6.94 -1.06,-24.35 7.39,-27.52 1.64,-0.61 5.02,-1.32 4.93,-1.86 -1.59,-10.6 -4.18,-20.93 -4.31,-31.71 -0.16,-12.9 2.75,-27.83 13.19,-35.9 -0.16,-8.31 0.4,-16.56 2.44,-24.61 2.44,-9.68 6.67,-19.7 13.37,-27.23 2.49,-2.8 5.3,-5.24 8.21,-7.57 3.78,-11.71 10.18,-22.74 16.17,-33.39 4.6,-8.17 17.02,-39.42 19.25,-46.53 3.95,-12.56 39.66,-39.36 44.73,-39.67 0.98,-0.05 1.96,-0.1 2.94,-0.13 0.23,-6.74 0.22,-13.47 -0.48,-20.28 -1.29,-12.55 -3.82,-25.07 -3.47,-37.73 0.35,-12.34 4.75,-24.01 6,-36.22 1.43,-14 -2.72,-28.57 -8.28,-41.31 -2.8,-6.41 -6.16,-12.65 -10.05,-18.47 -4.57,-6.85 -10.47,-10.32 -16.93,-14.95 -7.25,-5.21 -12.02,-11.9 -16.43,-19.31 -3.73,-2.02 -5.34,-5.89 -6.27,-9.99 -0.97,-4.28 -2.28,-7.85 -4.19,-11.82 -1.23,-2.54 -2.87,-5.64 -2.6,-8.59 0.48,-5.08 5.39,-7.36 9.86,-6.67 0.65,-2.23 2.08,-3.95 5.05,-4.22 3.07,-0.28 6.21,1.37 9.07,2.13 5.11,1.37 9.95,0.64 15.13,0.65 14.11,0.03 29.83,10.01 38.15,21.03 5.73,7.6 8.48,17.75 11.15,26.73 3.19,10.71 6.12,21.43 9.95,31.95 4.06,11.17 7.36,22.87 11.91,33.84 2.95,7.12 6.99,13.68 10.19,20.65 0.27,0.18 0.51,0.4 0.64,0.62 5.26,8.72 1.68,18.38 1.93,27.88 0.32,12.5 3.95,25.82 8.6,37.37 0.27,0.65 0.56,1.3 0.84,1.95 0.15,-3.16 0.41,-6.32 0.86,-9.46 1.73,-12.22 7.42,-23.33 10.03,-35.32 3,-13.75 0.52,-28.69 -3.58,-41.98 -2.05,-6.68 -4.69,-13.26 -7.9,-19.48 -3.78,-7.33 -9.25,-11.43 -15.14,-16.76 -6.62,-5.99 -10.61,-13.18 -14.15,-21.04 -3.49,-2.42 -4.65,-6.45 -5.11,-10.63 -0.49,-4.36 -1.38,-8.06 -2.84,-12.21 -0.93,-2.67 -2.22,-5.93 -1.61,-8.83 1.05,-5 6.19,-6.71 10.55,-5.52 0.89,-2.14 2.51,-3.69 5.49,-3.62 3.08,0.06 6.01,2.05 8.78,3.13 4.92,1.93 9.81,1.76 14.96,2.35 14.01,1.62 28.51,13.3 35.53,25.19 4.85,8.19 6.43,18.59 8.08,27.81 1.96,11.01 3.67,21.99 6.28,32.87 2.78,11.56 4.75,23.55 8.03,34.96 2.13,7.41 5.41,14.39 7.8,21.67 0.26,0.21 0.47,0.46 0.57,0.68 4.25,9.26 -0.4,18.46 -1.22,27.93 -0.56,6.4 -0.27,13.11 0.59,19.75 1.84,-0.52 3.68,-1.03 5.53,-1.52 10.58,-2.81 50.26,-2.2 58.65,-1.86 6.78,0.26 21.49,-2.02 22.12,-2.14 0,-0.03 -0.02,-0.07 -0.01,-0.1 2.48,-7.99 15.45,-20.97 28.66,-18.61 -0.07,-0.1 -0.13,-0.19 -0.13,-0.26 -0.21,-6.69 -7.44,-23.65 3.57,-25.56 4.35,-0.76 8.8,1.59 12.99,4.75 0.22,-5.18 1.64,-10.26 4.97,-13.49 8.42,-8.2 14.64,4.31 18.69,9.83 0.6,0.82 1.28,1.53 2.02,2.17 -2.17,-22 -10.84,-43.56 -18.53,-64.75 -1.24,-0.95 -2.47,-1.91 -3.71,-2.87 -10.7,-8.28 -22.06,-15.7 -29.45,-27.37 -3.81,-6.01 -5.93,-12.71 -7.43,-19.63 -1.25,-5.75 -2.79,-11.79 -2.18,-17.71 0.76,-7.32 4.53,-11.38 9.89,-7.68 10.02,-8.18 28.98,-3.03 38.84,3.49 0.34,-0.13 1.14,0.29 1.44,0.72 0.18,0.26 0.39,0.49 0.59,0.74 2.02,1.58 3.83,3.35 5.48,5.27 1.38,1.12 2.75,2.25 4.02,3.5 -1.75,-3.74 -3.08,-7.68 -4.19,-11.71 -1.57,-5.67 -3.45,-11.61 -3.17,-17.56 0.34,-7.35 3.88,-11.61 9.45,-8.22 9.54,-8.73 28.76,-4.64 38.97,1.31 0.33,-0.14 1.16,0.23 1.48,0.64 0.19,0.25 0.41,0.47 0.62,0.71 2.11,1.46 4.02,3.13 5.77,4.96 1.86,1.35 3.73,2.69 5.36,4.34 3.14,3.18 5.75,7.04 8.37,10.64 6.43,8.86 11.21,18.52 16.91,27.83 5.25,8.58 11.64,16.55 14.96,26.17 2.99,8.64 3.45,18.11 4.42,27.27 1.01,5.49 1.87,11.02 2.82,16.51 2.65,15.31 8.54,29.48 11.65,44.61 2.84,13.85 7.88,28.82 7.18,43.07 -0.6,11.94 -8.52,18.89 -17.25,26.04 -3.67,3 -7.43,6.15 -10.97,9.53 1.79,6.08 2.54,12.29 2.89,18.76 0.6,11.2 1.54,22.38 2.71,33.54 1.1,10.62 2.73,21.21 3.27,31.89 0.55,10.96 0.23,21.94 0.4,32.91 0.34,21.09 -0.02,41.16 -4.82,61.84 -2.18,9.38 -4.65,19.02 -8.79,27.76 -1.07,2.25 -4.17,5.2 -6.96,8.28 -1.38,4.37 -2.37,8.79 -3.77,13.27 4.61,4.98 16.61,-2.29 21.04,-4.6 5.76,-3 11.21,-5.72 17.64,-7.11 15.59,-3.37 30.89,-0.71 45.41,5.52 13.4,5.77 25.51,14.74 34.16,26.57 3.98,5.44 6.55,12.13 9.18,18.46 6.17,14.85 -1.64,23.66 -4.82,32.29" /></g></g></svg>