<?xml version="1.0" encoding="UTF-8" standalone="no"?>
<svg
   xmlns:dc="http://purl.org/dc/elements/1.1/"
   xmlns:cc="http://creativecommons.org/ns#"
   xmlns:rdf="http://www.w3.org/1999/02/22-rdf-syntax-ns#"
   xmlns:svg="http://www.w3.org/2000/svg"
   xmlns="http://www.w3.org/2000/svg"
   viewBox="0 0 2666.6667 2901.6667"
   height="2901.6667"
   width="2666.6667"
   xml:space="preserve"
   id="svg2"
   version="1.1"><metadata
     id="metadata8"><rdf:RDF><cc:Work
         rdf:about=""><dc:format>image/svg+xml</dc:format><dc:type
           rdf:resource="http://purl.org/dc/dcmitype/StillImage" /></cc:Work></rdf:RDF></metadata><defs
     id="defs6"><clipPath
       id="clipPath34"
       clipPathUnits="userSpaceOnUse"><path
         id="path32"
         d="M 4717.39,14626.7 H 734.902 v 6235.2 H 4717.39 Z" /></clipPath><clipPath
       id="clipPath92"
       clipPathUnits="userSpaceOnUse"><path
         id="path90"
         d="m 14415.9,20861.9 v -6235.2 h -3982.5 v 6235.2 z" /></clipPath><clipPath
       id="clipPath194"
       clipPathUnits="userSpaceOnUse"><path
         id="path192"
         d="M 4717.39,7865.6 H 734.902 v 6235.2 H 4717.39 Z" /></clipPath><clipPath
       id="clipPath222"
       clipPathUnits="userSpaceOnUse"><path
         id="path220"
         d="M 9566.63,14100.8 V 7865.6 H 5584.14 v 6235.2 z" /></clipPath><clipPath
       id="clipPath248"
       clipPathUnits="userSpaceOnUse"><path
         id="path246"
         d="M 14415.9,14100.8 V 7865.6 h -3982.5 v 6235.2 z" /></clipPath><clipPath
       id="clipPath282"
       clipPathUnits="userSpaceOnUse"><path
         id="path280"
         d="m 19265.1,7865.6 h -3982.5 v 6235.2 h 3982.5 z" /></clipPath><clipPath
       id="clipPath306"
       clipPathUnits="userSpaceOnUse"><path
         id="path304"
         d="M 14415.9,7339.7 V 1104.5 h -3982.5 v 6235.2 z" /></clipPath><clipPath
       id="clipPath336"
       clipPathUnits="userSpaceOnUse"><path
         id="path334"
         d="m 19265.1,1104.5 h -3982.5 v 6235.2 h 3982.5 z" /></clipPath><clipPath
       id="clipPath374"
       clipPathUnits="userSpaceOnUse"><path
         id="path372"
         d="M 9566.63,20861.9 V 14626.7 H 5584.14 v 6235.2 z" /></clipPath><clipPath
       id="clipPath426"
       clipPathUnits="userSpaceOnUse"><path
         id="path424"
         d="m 19265.1,14626.7 h -3982.5 v 6235.2 h 3982.5 z" /></clipPath><clipPath
       id="clipPath470"
       clipPathUnits="userSpaceOnUse"><path
         id="path468"
         d="M 9566.63,7339.7 V 1104.5 H 5584.14 v 6235.2 z" /></clipPath><clipPath
       id="clipPath492"
       clipPathUnits="userSpaceOnUse"><path
         id="path490"
         d="M 4717.39,1104.5 H 734.902 V 7339.7 H 4717.39 Z" /></clipPath></defs><g
     transform="matrix(1.3333333,0,0,-1.3333333,0,2901.6667)"
     id="g10"><g
       transform="scale(0.1)"
       id="g12"><g
         transform="scale(1.33512)"
         id="g14"><path
           id="path16"
           style="fill:#ffffff;fill-opacity:1;fill-rule:nonzero;stroke:none"
           d="M 14979.9,0 H 0 V 16300 H 14979.9 V 0" /></g><path
         id="path18"
         style="fill:#ffffff;fill-opacity:1;fill-rule:nonzero;stroke:none"
         d="m 8335.65,3948.5 48.8,-119.9 -62.5,152.2 z" /><g
         transform="scale(1.27987)"
         id="g20"><path
           id="path22"
           style="fill:#c80000;fill-opacity:1;fill-rule:nonzero;stroke:none"
           d="M 3685.82,11428.2 H 574.199 V 16300 H 3685.82 v -4871.8" /></g><g
         transform="scale(1.26828)"
         id="g24"><path
           id="path26"
           style="fill:#a30000;fill-opacity:1;fill-rule:nonzero;stroke:none"
           d="m 2272.44,14585.6 c -42.86,46.8 -75.98,111 -95.46,190.9 -27.28,105.2 -40.92,335.1 -40.92,689.7 h 134.43 c 0,-358.5 11.69,-584.5 38.97,-678 21.42,-74 44.8,-113 68.18,-116.9 31.17,3.9 58.45,101.3 79.88,292.2 l 109.1,-77.9 c -33.12,-233.8 -93.51,-352.6 -181.19,-352.6 -40.91,0 -77.92,17.5 -112.99,52.6 z m -194.82,699.4 -44.81,-111.1 c -101.3,52.6 -206.51,93.6 -315.61,124.7 l 48.71,95.5 c 109.1,-25.3 212.35,-62.4 311.71,-109.1 z m -5.84,-303.9 -44.81,-111.1 c -101.31,62.4 -204.56,109.1 -311.72,142.2 l 48.71,95.5 c 107.15,-27.3 210.41,-70.1 307.82,-126.6 z m -592.25,-339 c 33.11,11.7 50.65,31.2 50.65,62.3 v 759.8 h 138.32 v -783.1 c 134.43,25.3 257.16,56.5 370.15,95.4 l 25.33,-122.7 c -161.69,-48.7 -346.78,-91.6 -553.29,-126.7 z m -13.64,642.9 -44.81,-111.1 c -105.2,54.6 -216.25,95.5 -329.24,126.7 l 50.65,95.4 c 112.99,-25.3 220.15,-62.3 323.4,-111 z m -13.64,-300 -44.81,-111.1 c -101.3,60.4 -208.45,107.2 -319.5,140.3 l 50.65,95.5 c 109.1,-27.3 212.35,-70.2 313.66,-124.7 z m -428.6,693.5 h 1184.5 v 161.7 h -485.1 v 115 h 485.1 v 163.6 h -496.79 v 118.9 h 631.22 v -680 H 889.224 v 652.7 c 229.886,11.7 428.606,40.9 592.246,89.6 l 66.24,-109.1 c -128.58,-35.1 -301.97,-64.3 -524.06,-87.7 v -148 h 490.94 v -115 H 1023.65 Z M 850.26,14642.1 c 27.273,11.7 42.86,35.1 42.86,66.2 v 755.9 h 138.32 V 14683 c 105.21,19.5 204.56,46.8 296.13,77.9 l 23.37,-124.7 c -136.37,-40.9 -294.17,-75.9 -469.514,-107.1 l -31.166,113" /></g><g
         id="g28"><g
           clip-path="url(#clipPath34)"
           id="g30"><path
             id="path36"
             style="fill:#e5b034;fill-opacity:1;fill-rule:nonzero;stroke:none"
             d="m 2766.82,14872.1 c -138.9,-108.2 -250,-141.7 -323.18,-149.3 -47.52,-5 -84.22,41 -69.4,86.4 193.48,591.6 55.91,1210.2 -21.36,1473.1 40.37,-56.2 78.9,-117.9 114.98,-185.7 150.96,-282.9 261.45,-672.5 298.96,-1224.5" /><g
             transform="scale(1.12537)"
             id="g38"><path
               id="path40"
               style="fill:#ffffff;fill-opacity:1;fill-rule:nonzero;stroke:none"
               d="m 2415.96,16195.6 c -25.89,37.1 -70.31,43.5 -115.07,49.9 -380.59,54.5 -1105.47,-188.8 -1246.03,-863.9 -7.53,-36.1 -1.7,-73.8 20.88,-103 0,0 257.54,-468.9 940.18,-428.3 682.63,40.5 964.82,535.9 964.82,535.9 l -564.78,809.4" /></g><g
             transform="scale(1.05421)"
             id="g42"><path
               id="path44"
               style="fill:#e5b034;fill-opacity:1;fill-rule:nonzero;stroke:none"
               d="m 4734.43,14166.2 c -91.42,-224.8 -230.64,-296.1 -237.04,-299.3 h -0.09 c -0.1,-0.1 -0.1,-0.1 -0.1,-0.1 H 3333.79 c 649.08,768.4 481.94,1255.1 481.94,1255.1 -64.47,-699.5 -727.52,-1255.1 -727.52,-1255.1 -82.79,-28.7 -156.57,-43.8 -213.68,-51.6 -63.98,-8.9 -121.38,39.6 -123.61,104.2 -2.23,65 -5.42,127.9 -9.69,188.6 -35.59,523.7 -140.39,893.3 -283.58,1161.6 -34.23,64.3 -70.77,122.8 -109.08,176.2 -75.72,105.6 -158.41,191.3 -244.89,262.5 31.41,-2.6 63.69,-4 96.86,-4 89.67,0 185.26,10.3 284.15,35.9 487.38,126.1 707.94,410.9 776.97,559.8 104.6,-25.6 271.26,-73.3 457.12,-153.4 433.56,-186.7 971.64,-549.4 1070.34,-1217 52.74,-356.8 11.53,-600.4 -54.69,-763.4" /></g><g
             transform="scale(1.09162)"
             id="g46"><path
               id="path48"
               style="fill:#c80000;fill-opacity:1;fill-rule:nonzero;stroke:none"
               d="m 1797.35,16208.8 c 0,50.4 40.81,91.2 91.16,91.2 50.34,0 91.15,-40.8 91.15,-91.2 0,-50.3 -40.81,-91.1 -91.15,-91.1 -50.35,0 -91.16,40.8 -91.16,91.1" /></g><g
             transform="scale(1.06731)"
             id="g50"><path
               id="path52"
               style="fill:#e5b034;fill-opacity:1;fill-rule:nonzero;stroke:none"
               d="m 1237.85,16180.2 c 0,-66.2 -53.64,-119.8 -119.8,-119.8 -66.18,0 -119.818,53.6 -119.818,119.8 0,66.2 53.638,119.8 119.818,119.8 66.16,0 119.8,-53.6 119.8,-119.8" /></g><g
             transform="scale(1.07228)"
             id="g54"><path
               id="path56"
               style="fill:none;stroke:#c80000;stroke-width:33.54550171;stroke-linecap:butt;stroke-linejoin:miter;stroke-miterlimit:10;stroke-dasharray:none;stroke-opacity:1"
               d="m 1292.59,16170.3 c 0,0 241.11,129.7 558.68,52.7" /></g><g
             transform="scale(1.06433)"
             id="g58"><path
               id="path60"
               style="fill:none;stroke:#c80000;stroke-width:33.79610062;stroke-linecap:butt;stroke-linejoin:miter;stroke-miterlimit:10;stroke-dasharray:none;stroke-opacity:1"
               d="m 1307.37,16238.9 c 0,0 323.57,61.1 541.08,-127.2" /></g><g
             transform="scale(1.05635)"
             id="g62"><path
               id="path64"
               style="fill:none;stroke:#c80000;stroke-width:34.05130005;stroke-linecap:butt;stroke-linejoin:miter;stroke-miterlimit:10;stroke-dasharray:none;stroke-opacity:1"
               d="m 1312.83,16300 c 0,0 299.85,-40.4 431.57,-261.8" /></g><g
             transform="scale(1.15321)"
             id="g66"><path
               id="path68"
               style="fill:#ffffff;fill-opacity:1;fill-rule:nonzero;stroke:none"
               d="m 2320.13,15667.7 c 0,349.2 283.08,632.3 632.29,632.3 349.19,0 632.27,-283.1 632.27,-632.3 0,-349.2 -283.08,-632.3 -632.27,-632.3 -349.21,0 -632.29,283.1 -632.29,632.3" /></g><g
             transform="scale(1.17151)"
             id="g70"><path
               id="path72"
               style="fill:#e5b034;fill-opacity:1;fill-rule:nonzero;stroke:none"
               d="m 2764.33,16124.6 c -240.35,-49.5 -435.6,-222.5 -516.56,-449.7 -106.44,22.2 -286.69,32.5 -537.07,-45.6 -1.22,15.9 -1.84,32.1 -1.84,48.3 0,343.7 278.66,622.4 622.4,622.4 168.29,0 320.97,-66.8 433.07,-175.4" /></g><g
             transform="scale(1.13236)"
             id="g74"><path
               id="path76"
               style="fill:#c80000;fill-opacity:1;fill-rule:nonzero;stroke:none"
               d="m 2489.53,15869.5 c 0,237.8 192.74,430.5 430.51,430.5 237.77,0 430.51,-192.7 430.51,-430.5 0,-237.8 -192.74,-430.5 -430.51,-430.5 -237.77,0 -430.51,192.7 -430.51,430.5" /></g></g></g><g
         transform="scale(1.27987)"
         id="g78"><path
           id="path80"
           style="fill:#c80000;fill-opacity:1;fill-rule:nonzero;stroke:none"
           d="M 11263.5,16300 V 11428.2 H 8151.89 V 16300 h 3111.61" /></g><g
         transform="scale(1.26889)"
         id="g82"><path
           id="path84"
           style="fill:#a30000;fill-opacity:1;fill-rule:nonzero;stroke:none"
           d="m 9734.89,15157 v -432.3 c 0,-39 21.43,-60.4 66.19,-60.4 h 140.2 c 31.14,0 54.54,5.8 70.12,15.6 19.5,13.6 39,87.6 56.5,220 l 124.6,-40.9 c -15.6,-136.3 -37,-225.9 -64.3,-264.8 -27.2,-35 -81.8,-54.5 -167.45,-54.5 h -190.79 c -112.94,0 -169.44,54.5 -169.44,161.6 v 327.1 h -405 c -13.64,-147.9 -48.71,-260.9 -107.11,-338.8 -75.97,-89.6 -181.1,-148 -317.44,-175.2 l -77.86,109 c 138.23,33.1 237.53,89.6 297.9,171.4 54.53,83.7 83.77,204.4 83.77,362.2 z m -408.94,1143 v -103.2 h 702.95 V 16080 h -702.95 v -136.3 h 790.65 v -64.3 c -15.6,-91.5 -39,-181.1 -70.2,-270.7 l -128.44,35.1 c 23.32,54.5 42.79,112.9 60.37,177.2 h -685.48 v -177.2 l 506.26,60.3 19.55,-114.8 -525.81,-62.4 v -60.3 c 0,-54.5 35.07,-81.8 107.1,-81.8 h 405.08 c 40.82,0 70.06,7.8 85.66,21.4 23.33,19.5 36.96,70.1 44.76,155.8 l 128.55,-39 c -13.6,-120.7 -38.9,-194.7 -75.98,-221.9 -35.07,-19.5 -87.64,-31.2 -157.7,-31.2 h -467.33 c -138.31,0 -206.41,56.5 -206.41,169.4 v 72.1 l -309.64,-37 -17.49,112.9 327.13,39 v 194.7 h -403.1 v -436.2 c 0,-338.8 -77.87,-627 -231.7,-866.5 l -107.1,93.4 c 128.46,202.5 194.66,457.6 200.57,769.2 v 562.8 h 568.6 v 356.3 h 142.1" /></g><g
         id="g86"><g
           clip-path="url(#clipPath92)"
           id="g88"><g
             transform="scale(1.20092)"
             id="g94"><path
               id="path96"
               style="fill:#e5b034;fill-opacity:1;fill-rule:nonzero;stroke:none"
               d="m 11032.5,15986.7 290.8,313.3 h 323.6 c 0,0 33.7,-449 -405,-460.9 l -209.4,147.6" /></g><g
             transform="scale(1.19002)"
             id="g98"><path
               id="path100"
               style="fill:#c70000;fill-opacity:1;fill-rule:nonzero;stroke:none"
               d="m 11246.2,16127.6 160,172.4 h 178.2 c 0,0 18.4,-247.1 -223,-253.6 l -115.2,81.2" /></g><g
             transform="scale(1.04204)"
             id="g102"><path
               id="path104"
               style="fill:#e5b034;fill-opacity:1;fill-rule:nonzero;stroke:none"
               d="m 12443.4,14284.2 c -36.1,-90.4 -77,-183.2 -123,-278.3 H 11679 c 0,0 0,0 0.1,0.1 1.7,2.9 64.6,110.9 118.3,278.2 62.7,195.4 112.9,471.7 38.2,755.8 0,0 -464.4,1014.4 707.1,1260 0,0 393.5,-781.8 -99.3,-2015.8" /></g><path
             id="path106"
             style="fill:#e5b034;fill-opacity:1;fill-rule:nonzero;stroke:none"
             d="m 12215.2,14884.7 v -0.2 c -157,-3.6 -283.3,-131.8 -283.3,-289.7 h 246.5 v -0.1 h 659.9 c 48,99.1 90.6,195.8 128.2,290 h -751.3" /><g
             transform="scale(1.17915)"
             id="g108"><path
               id="path110"
               style="fill:#ffffff;fill-opacity:1;fill-rule:nonzero;stroke:none"
               d="m 11529,16300 -1.5,-70.9 v -475.7 h -557.6 c 0,-73 59.8,-132.8 132.9,-132.8 h 424.7 v -108.7 c -1.7,-24.9 -4.4,-48.7 -8,-71.6 -7.7,-48.5 -19.5,-92.7 -34.5,-132.9 -126.7,-340 -480,-397.8 -480,-397.8 h -734.6 l -354.79,-354.2 c -283.33,141.7 -159.35,405.4 -159.35,405.4 -186.32,-5.9 -279.86,111.1 -326.5,220.2 128.22,20.3 142.73,124.9 142.73,124.9 v 254.8 l 95.15,100.8 c 133.83,-110 535.56,-373.7 980.16,-22.7 l 606.1,661.2 h 275.1" /></g><g
             transform="scale(1.17915)"
             id="g112"><path
               id="path114"
               style="fill:#e5b034;fill-opacity:1;fill-rule:nonzero;stroke:none"
               d="m 11253.9,16300 -606.1,-661.2 c -444.6,-351 -846.33,-87.3 -980.16,22.7 l 602.76,638.5 h 983.5" /></g><g
             transform="scale(1.16105)"
             id="g116"><path
               id="path118"
               style="fill:#ffffff;fill-opacity:1;fill-rule:nonzero;stroke:none"
               d="m 10537.9,16300 c -103.1,0 -186.6,-83.6 -186.6,-186.6 v -186.7 h 186.6 c 103.1,0 186.7,83.6 186.7,186.7 0,103 -83.6,186.6 -186.7,186.6" /></g><g
             transform="scale(1.14887)"
             id="g120"><path
               id="path122"
               style="fill:#c70000;fill-opacity:1;fill-rule:nonzero;stroke:none"
               d="m 10563.3,16300 c -56.5,0 -102.2,-45.7 -102.2,-102.2 v -102.1 h 102.2 c 56.4,0 102.1,45.7 102.1,102.1 0,56.5 -45.7,102.2 -102.1,102.2" /></g><g
             transform="scale(1.12567)"
             id="g124"><path
               id="path126"
               style="fill:#e5b034;fill-opacity:1;fill-rule:nonzero;stroke:none"
               d="m 10027.3,16300 v -266.9 c 0,0 -15.2,-109.6 -149.5,-130.8 -41.67,97.4 -47.62,188.9 -47.62,188.9 l 197.12,208.8" /></g><g
             transform="scale(1.11664)"
             id="g128"><path
               id="path130"
               style="fill:#c80000;fill-opacity:1;fill-rule:nonzero;stroke:none"
               d="m 11389.6,16130.5 v 17.6 h -903.2 l 918.4,134.5 -2.5,17.4 -1038,-152 0.8,-11.7 -0.8,-5.7 1026.3,-142.6 2.5,17.4 -900.3,125.1 h 896.8" /></g><g
             transform="scale(1.11271)"
             id="g132"><path
               id="path134"
               style="fill:#ffffff;fill-opacity:1;fill-rule:nonzero;stroke:none"
               d="m 12588.6,16124 c -8.5,-197.3 -81.9,-740.4 -626.1,-917.9 0,0 -406.6,-120.5 -406.6,-411.4 v -844.4 c -598.4,213.5 -610.2,840.9 -610.2,840.9 v 867.7 h 821.6 c 513.9,168.9 595.7,641.1 595.7,641.1 82.1,-51.7 157.1,-110.9 225.6,-176" /></g><g
             transform="scale(1.10069)"
             id="g136"><path
               id="path138"
               style="fill:#e5b034;fill-opacity:1;fill-rule:nonzero;stroke:none"
               d="m 13447.2,14210.9 v -3.4 h -505.6 c 0,-78.3 64.2,-142.4 142.4,-142.4 h 363.2 v -198.8 h -410.4 c 0,-78.3 64.1,-142.4 142.4,-142.4 h 268 v -464.3 h -565.3 c 118.3,617.5 -367.4,786.2 -367.4,786.2 h -596.4 c -87.3,12.2 -165.6,31.7 -236.1,56.8 v 853.7 c 0,294 411.2,415.8 411.2,415.8 550.1,179.5 624.3,728.5 632.8,927.9 179.4,-170.6 314.1,-381 415.4,-602.2 h -469.7 c 0,-78.2 64.1,-142.3 142.4,-142.3 h 387.5 c 31,-79.5 58.2,-159.6 81.9,-238.8 h -611.8 c 0,-78.3 64.1,-142.3 142.4,-142.3 h 508.6 c 21.4,-84 39,-166.3 53.6,-245.1 H 12726 c 0,-78.3 64.1,-142.4 142.4,-142.4 h 531.9 c 12.4,-81.7 21.5,-157.8 28.2,-226.3 h -606.4 c 0,-78.3 64,-142.4 142.3,-142.4 h 475.7 c 8.3,-128.9 7.1,-207.3 7.1,-207.3" /></g><path
             id="path140"
             style="fill:#e5b034;fill-opacity:1;fill-rule:nonzero;stroke:none"
             d="m 14801.2,14849.7 h -604.6 v -0.3 c -138.1,-3.1 -249,-115.8 -249,-254.6 l 216.6,-0.1 v 0 h 175 118.2 v 0 h 343.8 v 255" /><g
             transform="scale(1.04204)"
             id="g142"><path
               id="path144"
               style="fill:#e5b034;fill-opacity:1;fill-rule:nonzero;stroke:none"
               d="m 13147.1,15372.5 h -569.9 c 0,-82.7 67.7,-150.3 150.3,-150.3 h 409 c -6.9,-71.1 -16.6,-145.4 -29.8,-222.6 H 12535 c 0,-82.7 67.7,-150.4 150.4,-150.4 h 391.7 c -15,-68 -32.7,-138 -53.4,-210 h -533.5 c 0,-82.7 67.7,-150.4 150.4,-150.4 h 336.1 c -22.4,-66.7 -47.4,-135 -75.3,-204.6 -36.1,-90.4 -76.8,-183.3 -122.9,-278.3 h -641.3 c 0,0 0,0 0.1,0.1 1.6,2.8 64.5,110.9 118.3,278.2 62.6,195.4 112.7,471.7 38.1,755.8 0,0 -464.4,1014.4 707.1,1260 0,0 97.1,-192.7 134.4,-538 h -558 c 0,-82.7 67.7,-150.4 150.3,-150.4 h 419.2 c 3.6,-74.3 3.9,-154.1 0.4,-239.1" /></g><path
             id="path146"
             style="fill:#e5b034;fill-opacity:1;fill-rule:nonzero;stroke:none"
             d="m 12692.5,14884.7 v -0.2 c -157,-3.6 -283.2,-131.8 -283.2,-289.7 h 246.5 v -0.1 h 659.9 c 48,99.1 90.6,195.8 128.1,290 h -751.3" /><g
             transform="scale(1.13961)"
             id="g148"><path
               id="path150"
               style="fill:#c80000;fill-opacity:1;fill-rule:nonzero;stroke:none"
               d="m 11927.5,16300 v -137.5 H 11488 c -75.6,0 -137.5,61.9 -137.5,137.5 h 577" /></g><g
             transform="scale(1.11696)"
             id="g152"><path
               id="path154"
               style="fill:#c80000;fill-opacity:1;fill-rule:nonzero;stroke:none"
               d="m 12160.9,16300 c -8.1,-51.2 -20.6,-97.8 -36.4,-140.3 H 11721 c -77.2,0 -140.3,63.2 -140.3,140.3 h 580.2" /></g><g
             transform="scale(1.03429)"
             id="g156"><path
               id="path158"
               style="fill:#c80000;fill-opacity:1;fill-rule:nonzero;stroke:none"
               d="m 14178,16148.5 h -541.3 c -83.4,0 -151.5,68.2 -151.5,151.5 h 651 c 15.2,-50.9 29.2,-101.5 41.8,-151.5" /></g><g
             transform="scale(1.06003)"
             id="g160"><path
               id="path162"
               style="fill:#c80000;fill-opacity:1;fill-rule:nonzero;stroke:none"
               d="m 13708.1,16152.2 h -402.5 c -81.3,0 -147.8,66.5 -147.8,147.8 h 487.7 c 22.4,-48.9 43.2,-98.2 62.6,-147.8" /></g><path
             id="path164"
             style="fill:#c80000;fill-opacity:1;fill-rule:nonzero;stroke:none"
             d="m 14793.4,15869.9 h -523.6 c -86.2,0 -156.7,70.6 -156.7,156.7 h 667.5 c 5.7,-57.5 9.8,-110.1 12.8,-156.7" /><path
             id="path166"
             style="fill:#c80000;fill-opacity:1;fill-rule:nonzero;stroke:none"
             d="m 14801.2,15638 v -156.7 h -399.8 c -86.1,0 -156.7,70.6 -156.7,156.7 h 556.5" /><path
             id="path168"
             style="fill:#c70000;fill-opacity:1;fill-rule:nonzero;stroke:none"
             d="m 14801.2,15262.4 v -156.7 h -295 c -86.2,0 -156.7,70.6 -156.7,156.7 h 451.7" /><g
             transform="scale(1.00813)"
             id="g170"><path
               id="path172"
               style="fill:#c80000;fill-opacity:1;fill-rule:nonzero;stroke:none"
               d="m 14630.7,16144.6 h -580.8 c -85.5,0 -155.4,69.9 -155.4,155.4 h 710 c 9.9,-53.4 18.7,-105.3 26.2,-155.4" /></g><path
             id="path174"
             style="fill:#c80000;fill-opacity:1;fill-rule:nonzero;stroke:none"
             d="m 13699.8,16018.8 c -2.3,-50.5 -5.8,-102.7 -11,-156.7 h -426.2 c -86.1,0 -156.7,70.5 -156.7,156.7 h 593.9" /><path
             id="path176"
             style="fill:#c80000;fill-opacity:1;fill-rule:nonzero;stroke:none"
             d="m 13657.7,15630.2 c -8.8,-51 -19,-103.3 -30.8,-156.7 h -408.2 c -86.2,0 -156.7,70.5 -156.7,156.7 h 595.7" /><path
             id="path178"
             style="fill:#c80000;fill-opacity:1;fill-rule:nonzero;stroke:none"
             d="m 13571.2,15254.6 c -14.8,-51.3 -31.1,-103.5 -49,-156.7 H 13172 c -86.2,0 -156.7,70.5 -156.7,156.7 h 555.9" /><g
             transform="scale(1.00764)"
             id="g180"><path
               id="path182"
               style="fill:#c80000;fill-opacity:1;fill-rule:nonzero;stroke:none"
               d="M 13595.5,16144.5 H 13162 c -85.5,0 -155.5,70 -155.5,155.5 h 577.1 c 5.3,-48.9 9.4,-100.8 11.9,-155.5" /></g></g></g><path
         id="path184"
         style="fill:#c80000;fill-opacity:1;fill-rule:nonzero;stroke:none"
         d="M 4717.39,7865.6 H 734.902 v 6235.2 H 4717.39 V 7865.6" /><path
         id="path186"
         style="fill:#a30000;fill-opacity:1;fill-rule:nonzero;stroke:none"
         d="m 3058.75,13538.2 -121.07,-123.6 c -113.66,111.2 -266.85,229.8 -462.05,355.8 l 118.6,113.7 c 182.84,-116.1 338.51,-232.2 464.52,-345.9 z m -521.34,-1887.8 c -140.84,0 -210.03,79.1 -210.03,232.3 v 108.7 c -133.42,-81.5 -274.26,-148.2 -422.51,-202.6 l -101.31,150.7 c 192.72,66.8 368.15,153.2 523.82,261.9 v 966.2 h -308.86 c -19.77,-177.9 -49.41,-341 -84,-489.3 -103.78,-429.9 -338.51,-780.8 -709.15,-1055 l -116.12,140.8 c 323.68,247.1 538.64,553.5 644.89,924.1 34.59,143.3 64.24,303.9 84.01,479.4 h -677.01 v 172.9 h 694.3 c 14.83,168 22.25,348.4 22.25,541.1 h 175.43 c 0,-192.7 -7.41,-373.1 -19.77,-541.1 h 1304.61 v -172.9 h -835.15 v -827.8 c 192.73,170.5 355.81,380.5 484.29,630.1 l 158.14,-81.5 c -168.03,-321.3 -382.99,-580.7 -642.43,-778.4 v -187.7 c 0,-71.7 27.18,-108.8 86.48,-108.8 h 420.05 c 44.47,0 79.06,19.8 98.83,54.4 24.71,44.5 39.54,175.4 49.42,392.9 l 168.02,-54.4 c -17.3,-264.4 -49.42,-425 -93.9,-481.8 -39.53,-49.4 -103.78,-74.2 -190.25,-74.2 h -504.05" /><g
         id="g188"><g
           clip-path="url(#clipPath194)"
           id="g190"><path
             id="path196"
             style="fill:#ebb631;fill-opacity:1;fill-rule:nonzero;stroke:none"
             d="m 4801.9,10443.9 270.87,69.2 c -44.77,175.1 -214.26,285.3 -389.15,260 25.91,-46.8 49.69,-98.3 70.36,-154.9 21.96,-60.3 37.53,-118.5 47.92,-174.3" /><path
             id="path198"
             style="fill:#ffffff;fill-opacity:1;fill-rule:nonzero;stroke:none"
             d="m 1150.98,11364.5 c 0,42.3 34.2,76.5 76.36,76.5 42.27,0 76.47,-34.2 76.47,-76.5 z m 2134.89,-1013.9 c -0.44,0 -0.87,0 -1.31,0 h 512.56 c 178.43,0 324.39,145.9 324.39,324.3 h -324.39 c 178.43,0 324.39,146 324.39,324.4 h -324.39 c 178.43,0 324.39,146 324.39,324.4 h -324.39 c 178.43,0 324.39,146 324.39,324.4 v 0 h -324.39 c 178.43,0 324.39,146 324.39,324.4 h -499.55 c 0,0 0.01,0.1 0.01,0.1 h -119.89 v 303.8 c 0,0.4 1.98,38.5 33.87,69.3 33.96,32.7 93.61,48.4 172.48,45.5 h 1075.05 l 327.58,271.7 c 31.42,26 35.77,72.6 9.71,104 -26.07,31.5 -72.67,35.8 -104.09,9.8 L 4730.16,12539 h -368.11 l 185.12,158.7 c 30.99,26.6 34.57,73.2 8,104.2 -26.57,31 -73.24,34.6 -104.23,8 L 4134.91,12539 h -422.4 c -121.02,4.2 -214.92,-25 -279.14,-86.9 -76.91,-74.1 -79.13,-165.5 -79.13,-175.7 v -303.8 h -69.65 v 394.5 c -75.69,0 -145.2,-27.3 -199.92,-72.6 -54.72,-45.2 -94.74,-108.4 -111.23,-180.2 v 252.8 c -143.07,0 -264.38,-97.8 -300.26,-229.9 v 229.9 c -85.56,0 -163.37,-34.9 -219.77,-91.3 -56.4,-56.4 -91.38,-134.3 -91.38,-219.8 v -83 l 20.3,-0.4 c -147,0 -267.19,-120.3 -267.19,-267.3 v -101.7 c -4.94,-147.7 -116.95,-151.4 -125.58,-151.4 h -588.21 c -31.84,63.8 -97.65,107.8 -174.01,107.8 -6.06,0 -12,-0.4 -18.05,-0.9 v 273.1 c 0,1.1 0,2.4 -0.23,3.5 -0.11,0.5 -8.18,61.3 26.46,100.3 21.53,24.2 56.4,35.8 103.94,34.9 h 673.98 c 8.18,-0.3 59.87,-0.9 101.36,35.8 30.95,27.3 48.21,67.7 51.24,119.8 v 177.4 c 0,13.5 -10.88,24.3 -24.33,24.3 -13.46,0 -24.33,-10.8 -24.33,-24.3 v -175.2 c -6.62,-111.2 -92.17,-109.7 -101.7,-109.3 -0.56,0.2 -1.12,0.2 -1.68,0.2 h -673.98 c -62.23,1.4 -109.65,-16.1 -141.16,-51.6 -45.86,-52.1 -39.69,-124.1 -38.12,-137.4 v -282.5 c -74.68,-27.3 -127.93,-98.7 -127.93,-182.7 0,-6.8 0.33,-13.7 1,-20.3 -0.67,-5 -1,-10.1 -1,-15.2 v -416.4 h 907.75 c -9.76,-138.6 -170.32,-133.9 -170.32,-133.9 h -737.43 v -186.5 c 9.41,-171.9 165.04,-242.5 293.65,-242.5 h 1959.41" /><path
             id="path200"
             style="fill:#ebb631;fill-opacity:1;fill-rule:nonzero;stroke:none"
             d="m 4499.87,11224.7 -223.85,-57.2 c 95.3,-47.1 244.18,-143.4 364.17,-323.2 l 350.23,89.6 c -55.17,215.7 -274.81,345.9 -490.55,290.8" /><path
             id="path202"
             style="fill:#ebb631;fill-opacity:1;fill-rule:nonzero;stroke:none"
             d="m 8330.52,8805.1 c -13.43,301.9 -38.39,603.8 -84.7,902.8 -3.86,23.7 -7.47,47.3 -11.69,71 -8.11,47.3 -16.83,94.7 -27.43,142 -6.36,28.2 -28.35,51.7 -58.42,58.4 -41.56,9.3 -82.81,-16.8 -92.12,-58.4 -10.6,-47.3 -19.32,-94.7 -27.43,-142 -8.24,-47.3 -15.38,-94.6 -22.35,-142 -27.07,-188.6 -45.81,-378.4 -59.14,-568.2 -6.63,-94.7 -11.88,-189.4 -15.79,-284 l 2.05,-28.8 -0.19,1 -0.09,0.5 -0.02,-0.2 v -1.1 c 0.61,-21.8 0.19,-43.7 -1.72,-65.7 -12.64,-161.4 -85.99,-306.4 -239.88,-368.8 -125.88,-52.4 -277.59,-56.4 -415.57,-42.1 -197.29,24 -308.29,123.8 -344.8,319.1 -8.66,47.4 -13.71,101.6 -9.49,148 1.41,45.5 3.8,130.6 5.24,176.7 2.97,143.4 15.58,482.7 15.27,629.8 -1.91,24.7 -4.41,50.8 -8.05,74.8 -46.31,332.1 -215.58,664.6 -510.24,843.1 -281.05,171.8 -651.03,194.4 -955.77,82 -228.66,-83.4 -423.28,-267.8 -535.37,-478.9 -87.2,-163.1 -138.92,-333 -157.97,-514.7 0,0 -0.75,-9.8 -0.97,-15.5 -0.2,-5.1 -0.06,-2.3 -0.11,-3.8 -0.11,-8.2 -0.25,-32.3 -0.39,-40.1 -2.03,-204.4 -4.56,-449.9 -6.41,-654.4 -0.67,-48.2 -11.2,-103.9 -28.68,-144.1 -85.55,-200.3 -385.15,-274 -585.27,-297.4 -37.53,-4.2 -74.26,-7.1 -111.05,-7.9 -28.26,-0.1 -106.67,1.1 -137.07,0.9 -510.35,3.3 -1020.73,6 -1531.09,8.1 -8.05,1.7 -16.49,3.8 -24.43,6.2 -73.24,20.9 -146.59,60.9 -190.07,119.9 -34.07,47.4 -50.34,99.4 -56.31,163.3 -7.52,91.2 -1.74,199.8 53.65,272.3 42.17,54.3 110.13,85 178.52,100.5 6.88,1.5 13.74,2.8 19.46,3.7 154.98,-0.1 816.31,1 955.21,1.2 100.53,0.3 256.18,0.7 356.12,1.1 413.1,-5.6 810.07,253.4 974.04,632.4 58.11,130.8 89.12,273.9 90.23,417 0.25,13.7 -0.22,49.8 -0.25,65 4.5,354 -181.54,691 -471.9,884.5 -14.68,-57.5 -39.65,-123 -79.18,-140.3 h 120.88 c 0,0 0.2,-213.9 -160.28,-302.2 h 160.28 c 0,0 -82.65,-307 -324.08,-410.3 0.25,-5.1 0.36,-10.1 0.3,-15.2 -0.25,-21.9 0.11,-59.8 -1.02,-82 -3.97,-65.5 -30.16,-128.3 -73.22,-178.1 -55.28,-64.5 -137.01,-104.2 -221.94,-105.4 -353.57,1.3 -1004.44,2 -1359.95,2.3 -31.26,-1.5 -46.39,-3.5 -75.27,-7.6 -272.17,-41.6 -528.37,-175.7 -698.26,-397.2 -260.39,-332.8 -280.94,-869.1 -82.65,-1236.2 94.9,-177.5 245.68,-323.9 421.73,-419.4 126.19,-68.4 261.62,-114.7 403.74,-134.6 15.91,-1.9 32.93,-3.6 49.23,-3.4 571.23,2.3 1142.75,5.1 1714.02,9.3 103.64,3 205,15.1 306.46,33.3 593.06,104.3 1102.02,465.5 1127.37,1111.9 0.28,11.5 1.05,27.8 0.78,39.4 -2.06,213.9 -4.56,463.1 -6.8,677.1 0.58,5.8 1.38,12.1 2.13,17.1 15.83,107.5 55.94,223.8 125.33,303.8 69.24,80.1 163.08,108.2 270.25,110.1 76.04,1.3 143.45,-9.8 205.98,-43.2 120.25,-66.5 185.35,-207.4 218.39,-339.6 4.05,-16.3 7.19,-32.5 10.05,-48.3 l 1.08,-6.5 0.14,-0.9 c 5.36,-206.7 13.86,-524.8 20.05,-719.5 l 0.75,-24.8 0.05,1.7 c 0.03,0.4 0.06,0.8 0.06,1 v -0.6 l -0.08,-3.4 c 2.52,-286.2 107.72,-582.2 329.3,-774.3 166.72,-145.8 389.78,-212.8 607.47,-214.1 171.08,-1.3 343.63,18.6 507.52,79.2 385.28,140.4 585.04,489.4 558.47,890.8 -1.25,20.4 -3.75,42.1 -6.64,62.9" /><path
             id="path204"
             style="fill:#ebb631;fill-opacity:1;fill-rule:nonzero;stroke:none"
             d="m 1443.24,10106.3 c 22.53,-82.7 98.5,-144 188.08,-144 v 148.1 c 26.88,-84.8 103.82,-148.1 194.89,-148.1 v 307.9 h -577.83 v -113 c 0,-107.2 87.67,-194.9 194.86,-194.9 v 144" /><path
             id="path206"
             style="fill:#ebb631;fill-opacity:1;fill-rule:nonzero;stroke:none"
             d="m 2891.24,11020.2 h 287.82 c 0,-83.8 -57.3,-154.7 -134.55,-175.8 h 134.55 c 0,-100.3 -81.97,-182.2 -182.21,-182.2 h -105.61 v 358" /><path
             id="path208"
             style="fill:#c80000;fill-opacity:1;fill-rule:nonzero;stroke:none"
             d="m 2202.03,11636.5 c 0,56.2 22.99,107.2 59.99,144.2 36.89,37 88.02,60 144.08,60 v -150.8 c 23.65,86.7 103.15,150.8 197,150.8 v -166.2 c 21.53,94.3 104.83,166.2 204.18,166.2 v -322.5 h -605.25 v 118.3" /><path
             id="path210"
             style="fill:#c80000;fill-opacity:1;fill-rule:nonzero;stroke:none"
             d="m 2495.12,11220.4 c -67.83,0 -122.88,55.1 -122.88,122.9 0,67.9 55.05,122.8 122.88,122.8 67.84,0 122.78,-54.9 122.78,-122.8 0,-67.8 -54.94,-122.9 -122.78,-122.9" /></g></g><path
         id="path212"
         style="fill:#c80000;fill-opacity:1;fill-rule:nonzero;stroke:none"
         d="M 9566.63,14100.8 V 7865.6 H 5584.14 v 6235.2 h 3982.49" /><path
         id="path214"
         style="fill:#a30000;fill-opacity:1;fill-rule:nonzero;stroke:none"
         d="m 7281.9,11655.4 c -163.07,0 -242.15,86.5 -242.15,254.5 v 1228 h 172.96 v -521.3 c 232.27,76.6 457.11,185.3 679.5,326.1 l 98.82,-138.4 c -274.25,-158.1 -533.7,-276.7 -778.32,-353.3 v -506.5 c 0,-79.1 39.54,-121.1 123.55,-121.1 h 355.81 c 54.35,0 91.42,19.8 116.12,54.4 29.65,44.5 49.43,172.9 59.31,387.9 l 163.07,-51.9 c -17.29,-264.4 -51.89,-425 -101.3,-484.3 -44.48,-49.4 -111.2,-74.1 -205.08,-74.1 z m 746.2,1393.5 h -168.01 v 338.6 H 7037.28 V 13044 h -165.54 v 506.5 h 491.7 c -34.59,106.3 -71.65,205.1 -113.66,294.1 l 182.85,29.6 c 34.59,-93.9 71.65,-202.6 108.72,-323.7 h 486.75 z m -1430.62,-442.2 v 686.9 h -190.26 v -686.9 z m -531.24,686.9 v -686.9 h 187.78 v 686.9 z m 355.8,585.6 v -427.5 h 331.1 V 12448.5 H 6417.1 v -479.3 c 79.07,22.2 158.13,46.9 232.26,71.6 -24.7,79.1 -46.94,153.2 -71.66,222.4 l 143.31,44.5 c 69.19,-182.8 133.43,-395.3 187.8,-632.5 l -153.2,-37.1 c -19.77,86.5 -39.54,170.5 -61.77,254.5 -256.97,-89 -528.76,-165.6 -815.38,-224.9 l -42.01,170.5 c 138.37,24.7 271.79,51.9 405.22,84.1 v 526.2 h -331.1 v 1003.2 h 338.51 v 427.5 h 172.96" /><g
         id="g216"><g
           clip-path="url(#clipPath222)"
           id="g218"><path
             id="path224"
             style="fill:#ebb631;fill-opacity:1;fill-rule:nonzero;stroke:none"
             d="m 6801.13,11584.6 c -3.93,23.1 -6.71,46.6 -8.25,70.5 h -365.96 -27.67 -97.5 l 65.74,-35.3 -65.74,-35.8 h 125.17 v 0.6 h 374.21" /><path
             id="path226"
             style="fill:#ffffff;fill-opacity:1;fill-rule:nonzero;stroke:none"
             d="m 7071.39,11654.5 c 0.72,0 1.44,0 2.15,-0.1 49.51,-3.1 192.8,3.1 201.16,69.9 2.33,18.6 19.31,31.8 37.91,29.4 18.6,-2.3 31.8,-19.3 29.47,-37.9 -5.48,-43.6 -36.12,-100.2 -151.29,-121.6 -37.02,-6.9 -72.95,-8.3 -96.04,-8.3 -12.49,0 -21.21,0.5 -24.35,0.5 h -268.17 c 51.93,-273.5 293.69,-482.1 581.89,-482.1 h 924.72 c 149.85,0 272.48,122.6 272.48,272.5 v 460.8 c 0,153.7 -95.14,342.2 -296.65,342.2 l -161.71,-2.4 c 0,91 -74.57,199.5 -165.66,199.5 h -234.57 c -91.1,0 -165.58,-74.5 -165.58,-165.6 0,0 -4.31,-30.6 -39.89,-30.6 H 6791.9 v -484.2 c 0,-14.1 0.54,-28.2 1.53,-42 h 277.96" /><path
             id="path228"
             style="fill:#c80000;fill-opacity:1;fill-rule:nonzero;stroke:none"
             d="m 7666.49,12204 h 338.42 c 9.98,0 17.97,-8 17.97,-18 0,-9.8 -7.99,-17.9 -17.97,-17.9 h -95.41 c 22.01,-21.7 35.67,-51.8 35.67,-85 0,-65.9 -53.46,-119.2 -119.31,-119.2 -65.85,0 -119.21,53.3 -119.21,119.2 0,33.2 13.65,63.3 35.66,85 h -75.82 c -9.97,0 -17.97,8.1 -17.97,17.9 0,10 8,18 17.97,18" /><path
             id="path230"
             style="fill:#c80000;fill-opacity:1;fill-rule:nonzero;stroke:none"
             d="m 6862.78,12043.4 c 4.67,0 9.08,-1 13.21,-2.6 l 115.08,88.4 c 8.36,6.4 20.31,4.8 26.77,-3.5 6.47,-8.4 4.86,-20.4 -3.5,-26.8 l -116.88,-89.8 c 0.09,-0.2 0.09,-0.3 0.09,-0.5 0,-19.2 -15.54,-34.9 -34.77,-34.9 -19.22,0 -34.76,15.7 -34.76,34.9 0,19.1 15.54,34.8 34.76,34.8" /><path
             id="path232"
             style="fill:#ebb631;fill-opacity:1;fill-rule:nonzero;stroke:none"
             d="m 7350.32,8618 h 2542.42 c 156.96,0 284.26,127.2 284.26,284.2 v 83.8 c 0,157 -127.3,284.3 -284.26,284.3 H 7350.32 c -157,0 -284.27,-127.3 -284.27,-284.3 v -83.8 c 0,-157 127.27,-284.2 284.27,-284.2" /><path
             id="path234"
             style="fill:#ebb631;fill-opacity:1;fill-rule:nonzero;stroke:none"
             d="m 7113.54,7807.2 h 3015.96 c 169.6,0 307.1,137.5 307.1,307.1 v 38.1 c 0,169.6 -137.5,307.1 -307.1,307.1 H 7113.54 c -169.59,0 -307.07,-137.5 -307.07,-307.1 v -38.1 c 0,-169.6 137.48,-307.1 307.07,-307.1" /><path
             id="path236"
             style="fill:#ebb631;fill-opacity:1;fill-rule:nonzero;stroke:none"
             d="m 8704.55,9405.7 c -3.14,4.6 -6.2,9.2 -9.25,14 -60.82,94.2 -111.58,209.3 -26.5,347.3 82.74,134.3 249.84,203.4 443.26,283.3 158.21,65.4 321.72,132.9 458.63,249.1 180.76,153.4 272.48,357.2 272.48,605.5 0,273 -92.89,510.1 -268.61,685.6 -316.51,315.9 -786.19,325.7 -842.52,325.7 h -0.81 l 0.99,-601.9 c 18.6,-0.5 162.88,-6.6 296.02,-68.4 149.31,-69.4 213.01,-171.4 213.01,-341 0,-128.9 -50.31,-170.8 -359,-298.3 -240.95,-99.5 -540.83,-223.5 -725.9,-523.8 -131.44,-213.3 -166.74,-445.7 -106.91,-677.1 h 655.11" /></g></g><path
         id="path238"
         style="fill:#c80000;fill-opacity:1;fill-rule:nonzero;stroke:none"
         d="M 14415.9,14100.8 V 7865.6 h -3982.5 v 6235.2 h 3982.5" /><path
         id="path240"
         style="fill:#a30000;fill-opacity:1;fill-rule:nonzero;stroke:none"
         d="m 10956.5,13607.4 v 172.9 h 1536.8 l -126,-946.3 h 491.7 c -27.2,-558.4 -71.6,-894.4 -135.9,-1008.1 -66.7,-111.2 -205,-168 -412.6,-168 -84,0 -180.4,2.4 -294,7.4 l -47,170.5 c 123.6,-9.9 237.2,-17.3 341,-17.3 128.5,0 215,37 259.4,111.2 44.5,71.6 76.6,316.2 98.9,731.3 h -1559.1 l 160.6,790.7 180.3,-17.3 -113.6,-600.4 h 842.5 l 111.2,773.4 z m 1351.5,-1275 v -173 h -1544.3 v 173 H 12308" /><g
         id="g242"><g
           clip-path="url(#clipPath248)"
           id="g244"><path
             id="path250"
             style="fill:#ebb631;fill-opacity:1;fill-rule:nonzero;stroke:none"
             d="m 13421.1,11688.7 c 18.8,-58.9 21.8,-89.1 21.2,-146.8 170.2,-236 460.6,-583.8 929.8,-786.6 161.7,-70 328.4,-113.2 492.4,-136.7 273.7,-39.2 540.9,-24.1 769.8,10.8 268.9,197.7 210.7,453.6 210.7,453.6 -230.3,-146.5 -907.3,-61.2 -1092.8,79 l -15.8,12.5 h 92.9 c 109.6,0 199.3,89.8 199.3,199.3 h -543.7 l -61.1,48.4 -164.7,127.6 h 131.4 c 109.7,0 199.4,89.7 199.4,199.3 h -588.3 l -211.9,164 h 150.5 c 109.7,0 199.5,89.8 199.5,199.3 h -607.5 l -93.7,72.7 c -101.9,78.9 -326.8,57.5 -457.1,12.2 234.9,-95.4 352,-234.9 439.7,-508.6" /><path
             id="path252"
             style="fill:#ebb631;fill-opacity:1;fill-rule:nonzero;stroke:none"
             d="m 12800.5,9396.2 -1036.4,-321.8 c 0,0 62.5,-812.9 -179.7,-1295.6 l 192.1,-53.2 c 0,0 398.9,855.4 319.4,1174.3 l 1094.4,30.1 c -169.8,115.2 -305.8,276.7 -389.8,466.2" /><path
             id="path254"
             style="fill:#ebb631;fill-opacity:1;fill-rule:nonzero;stroke:none"
             d="m 16843.4,8244.5 c -158.4,156.9 -366.2,400.9 -495.2,703.4 l -447.7,321.7 c 0,0 -156.9,87.8 -261,342.9 -14.5,33.9 -26.9,69.1 -36.7,105.2 -18.2,66.8 -27.8,137.1 -27.8,209.6 0,294.3 159.2,551.4 396.2,690 -101.7,-27.2 -223.5,-54.7 -358.6,-75.2 -228.8,-34.8 -496.1,-50 -769.7,-10.8 -7.8,1.2 -15.5,2.3 -23.3,3.5 -156.5,24.2 -315.2,66.5 -469.1,133.2 -214.9,92.7 -392.1,205 -537.5,322 -172.4,138.7 -300,284.1 -392.3,412 -7.2,-50.6 -19,-99.8 -35.2,-147.2 -10.4,-30.3 -22.3,-59.9 -36.1,-88.6 -125.8,-262.9 -388.6,-447.9 -696.1,-462.5 79.3,-141 194.7,-390 175.6,-619.8 -2.8,-34.8 -5.5,-77.8 -5.8,-126.9 -1.4,-21.1 -2,-42.3 -2,-63.7 0,-158.9 33.6,-310 94.3,-446.4 84,-189.5 220,-351 389.8,-466.2 103.1,-70 218.7,-122.9 342.7,-154.8 232.4,-306.6 704.2,-1023.3 755.2,-1929.1 h 278.6 c 0,0 -355.4,1139.4 -213.6,1938.6 289.5,9.4 630.7,48.7 1021.8,139 310.9,-189.8 655.5,-361.9 802.9,-515.7 492.2,-513.5 278.3,-1562 278.3,-1562 h 278 c -246,631.2 0,1326.5 0,1326.5 0,0 -1.8,7.6 -5.7,21.3" /><path
             id="path256"
             style="fill:#ebb631;fill-opacity:1;fill-rule:nonzero;stroke:none"
             d="m 12617,12173.7 c -68.4,0.7 -137.4,-8.6 -204.8,-29 -327.5,215.6 -87.4,634.4 -87.4,634.4 l 292.2,-605.4" /><path
             id="path258"
             style="fill:#ffffff;fill-opacity:1;fill-rule:nonzero;stroke:none"
             d="m 13292.4,11384.3 c -3.7,-25.8 -8.8,-51 -15.4,-76 -45,-170.2 -154.8,-323.5 -318.9,-419.4 -277.8,-162.2 -622.1,-108.3 -838.1,110.5 -7.2,6.7 -14.3,14.5 -21.4,22.6 -2.5,2.8 -5,5.7 -7.5,8.6 -113.6,138.3 -222.6,190.6 -315.2,200.9 -24.1,2.8 -47.2,2.8 -68.8,0.5 -122.8,-12 -203.1,-89.4 -203.1,-89.4 l -283,-299.9 c -35.5,14.5 -71.4,36.4 -106.2,62.7 l 114.6,186.5 -187.8,-123.9 c -125.8,118.8 -223.5,267.9 -223.5,267.9 l 712.2,416.1 55.2,32.2 676.9,395.4 c 48.3,28.3 98.5,49.8 149.8,65.1 67.4,20.4 136.4,29.7 204.8,29 h 0.1 c 18.9,-0.2 38,-1.3 56.8,-3 -259.6,457.4 284.9,652.5 284.9,652.5 l -176.3,-671.4 c 171.9,-44.4 326.6,-154.5 423.1,-319.7 82.2,-140.6 109,-298.3 86.8,-447.8" /><path
             id="path260"
             style="fill:#c70000;fill-opacity:1;fill-rule:nonzero;stroke:none"
             d="m 12241.7,11667 c 0,69.3 56.2,125.4 125.4,125.4 69.3,0 125.4,-56.1 125.4,-125.4 0,-69.2 -56.1,-125.4 -125.4,-125.4 -69.2,0 -125.4,56.2 -125.4,125.4" /><path
             id="path262"
             style="fill:#c70000;fill-opacity:1;fill-rule:nonzero;stroke:none"
             d="m 11086.9,11226.9 c 14.7,-28.4 3.7,-63.2 -24.7,-77.9 -28.3,-14.7 -63.1,-3.7 -77.8,24.7 -14.7,28.3 -3.7,63.1 24.6,77.8 28.4,14.7 63.2,3.7 77.9,-24.6" /><path
             id="path264"
             style="fill:#c80000;fill-opacity:1;fill-rule:nonzero;stroke:none"
             d="m 12742,12296.9 69.7,275.1 c 0,0 -201.2,-99.6 -69.7,-275.1" /><path
             id="path266"
             style="fill:#c80000;fill-opacity:1;fill-rule:nonzero;stroke:none"
             d="m 13277,11308.4 h -1533.5 l 32.4,-76.9 c -24.1,2.8 -47.1,2.8 -68.8,0.5 l -176.8,419.9 55.1,32.3 126.3,-300 h 1580.7 c -3.6,-25.7 -8.8,-50.9 -15.4,-75.8" /></g></g><g
         transform="scale(1.18191)"
         id="g268"><path
           id="path270"
           style="fill:#c80000;fill-opacity:1;fill-rule:nonzero;stroke:none"
           d="m 16300,6655 h -3369.6 v 5275.6 H 16300 V 6655" /></g><g
         transform="scale(1.0905)"
         id="g272"><path
           id="path274"
           style="fill:#a30000;fill-opacity:1;fill-rule:nonzero;stroke:none"
           d="m 14951.8,12324 c -72.4,124.6 -145,235.6 -222,335.3 l 140.5,68 c 81.5,-104.2 156.3,-219.8 228.8,-346.7 l -113.3,-56.6 h 516.6 c 79.3,126.9 149.6,262.8 208.5,407.8 l 158.6,-54.3 c -56.7,-131.5 -122.4,-249.3 -194.9,-353.5 h 494 v -158.6 h -784 v -328.5 h 670.7 v -156.4 h -670.7 v -342.1 H 16300 V 11182 h -915.4 v -546 h -167.7 v 546 h -924.4 v 156.4 h 924.4 v 342.1 h -670.7 v 156.4 h 670.7 v 328.5 h -779.4 v 158.6 h 514.3" /></g><g
         id="g276"><g
           clip-path="url(#clipPath282)"
           id="g278"><g
             transform="scale(1.18196)"
             id="g284"><path
               id="path286"
               style="fill:#ebb631;fill-opacity:1;fill-rule:nonzero;stroke:none"
               d="m 18193.1,5195.42 c 0,0 94.8,685.81 -284.1,1081.26 -138.5,144.59 -280.1,191.54 -550.8,348.4 -36.9,21.4 -76.4,44.92 -118.4,70.98 l 0.2,0.09 c -209.8,97.97 -355,310.67 -355,557.37 0,339.52 275.3,614.91 614.8,614.91 135.2,0 260.2,-43.57 361.7,-117.43 153.5,-111.76 253.4,-292.98 253.4,-497.48 0,-10.99 -0.4,-21.91 -0.9,-32.82 l 0.9,0.51 c -19.9,-213.8 -54.3,-467.36 30.8,-692.66 0.2,-1.44 0.8,-2.8 1.4,-4.15 49.7,-140.19 134.5,-263.71 243.9,-360.08 -41.3,-146.28 -137.6,-573.96 16.3,-968.9 z m -589.4,-9.05 h -222.9 c 0,0 98.7,713.65 -295.6,1124.99 -132.5,138.25 -336.8,226.58 -546.9,345.53 -388.2,46.45 -622,167.1 -655.5,185.37 -2.8,1.44 -4.1,2.28 -4.1,2.28 -1.5,-2.19 -2.8,-4.56 -4.2,-6.93 -164.2,-288.67 -122.1,-1642.19 -122.1,-1642.19 h -199.9 c -42.1,1069.16 -203.5,1498.27 -314.9,1668.92 -51.5,32.91 -68.4,53.22 -98.6,81.99 45.1,-119.81 207.1,-630.9 186.6,-1750.91 h -187.9 c -16.7,1456.48 -720.8,1490.91 -857.3,2723.19 -39.9,359.65 -9.6,739.95 24.7,1004.17 413.8,96.54 612.8,278.52 687.6,365.67 128.2,-378.02 384.6,-741.14 763,-998.01 573.2,-389.18 1527.5,-408.89 2183.4,-26.65 0,0 111,-217.18 -111.5,-418.54 -105.5,76.91 -235.5,122.26 -376.1,122.26 -280.2,0 -518.3,-180.13 -604.9,-430.9 -11.1,-32.15 -19.8,-65.57 -25.7,-99.91 -88.9,-439.11 184.5,-692.67 184.5,-692.67 l 589.9,-355.76 c -37.8,-160.92 -161.3,-767.03 8.4,-1201.9 z m -3248.6,5074.13 c 17.3,38.4 38.5,75 62.9,109.3 81.5,114.5 199.2,203.6 330.4,252.6 125.8,45.4 253.3,56.6 382.3,41.3 157.8,-21.1 299.3,-108.7 398.4,-230.2 43.1,-52.9 78.2,-112.2 102.9,-175.2 2.8,-6.6 5.6,-13.4 8.1,-20.2 92.9,-244.08 34.5,-535.51 -175.3,-700.58 -123.8,-104.82 -302.2,-165.31 -466.2,-126.91 -10,2.21 -20,5 -29.9,8.04 -175.7,50.85 -332.2,211.77 -325.8,403.4 5.9,188.35 161,364.15 354.2,355.95 81.5,-3.4 153.9,-47.6 204,-106.5 8.5,-9.8 16.1,-19.8 23.2,-30.2 27.9,-52.71 39.9,-117.22 15.6,-174.32 -8.7,-19.55 -22.2,-36.56 -37.3,-48.99 -14.1,-10.92 -29.6,-10.24 -41.2,-3.05 -16.1,9.82 -24.6,31.9 -11.5,52.04 19.2,35.78 -1.9,75.29 -25.1,103.99 -5,5.32 3.1,-4.51 3.3,-4.82 -38.5,31.66 -83.8,52.85 -130,45.35 -84,-13.59 -147.3,-110.94 -142,-190.89 7.2,-85.96 94.9,-148.9 174.7,-165.15 39.2,-7.7 77.3,-5.58 113.4,4.48 52,14.22 100,44.42 142.3,84.44 71.9,67.01 104.6,155.25 98.7,251.89 -2.1,32.73 -8.8,65.53 -19.9,97.33 -35,102.5 -113.2,193.5 -214.2,226.9 -37.2,13 -76.9,15.1 -116.1,14 -56.9,-1.7 -114.7,-12.6 -163,-32.6 -65,-26.5 -120.4,-70.5 -162,-126.3 -11.7,-16 -22.5,-32.9 -30.4,-50.1 -93.1,-204.72 -402.9,-90.7 -324.5,135" /></g><g
             transform="scale(1.08293)"
             id="g288"><path
               id="path290"
               style="fill:#ffffff;fill-opacity:1;fill-rule:nonzero;stroke:none"
               d="m 15451,10513 c -44,0 -79.8,35.7 -79.8,80 0,44.1 35.8,79.9 79.8,79.9 44.1,0 80,-35.8 80,-79.9 0,-44.3 -35.9,-80 -80,-80 z m 815.9,-317.4 c -194.2,56.2 -350.3,234.2 -360.1,445.7 -8,180 47.5,240.2 29.1,230.2 -177.2,-97.5 -404.9,44.1 -347.1,254.5 19,42.5 17.8,66.3 44.8,104.2 -641.2,-425 -845,-1083.3 -910.7,-1223 -22.2,-47.06 -20.3,-95.26 -7.8,-139.03 l 70.8,52.54 c 0,0.74 -0.2,1.48 -0.2,2.49 0,12.1 9.8,21.98 21.8,21.98 12.1,0 21.9,-9.88 21.9,-21.98 0,-12.09 -9.8,-21.97 -21.9,-21.97 -1.4,0 -2.9,0.27 -4.3,0.55 l -73.3,-54.3 c -2,-1.48 -4.3,-2.4 -6.7,-2.49 31.4,-80.89 95.2,-141.19 95.2,-141.19 l 225.5,86.8 c 130.2,-34.81 216.9,-347.21 216.9,-347.21 121.4,78.12 147.4,399.1 147.4,399.1 331.6,17.83 691.2,172.81 891.8,344.21 -11.1,2.4 -22.1,5.4 -33.1,8.9" /></g><g
             transform="scale(1.03183)"
             id="g292"><path
               id="path294"
               style="fill:#c80000;fill-opacity:1;fill-rule:nonzero;stroke:none"
               d="m 16300,11117.5 c 0,-46.4 -37.6,-83.9 -83.9,-83.9 -46.3,0 -83.8,37.5 -83.8,83.9 0,46.3 37.5,83.9 83.8,83.9 46.3,0 83.9,-37.6 83.9,-83.9" /></g></g></g><path
         id="path296"
         style="fill:#c80000;fill-opacity:1;fill-rule:nonzero;stroke:none"
         d="M 14415.9,7339.7 V 1104.5 h -3982.5 v 6235.2 h 3982.5" /><path
         id="path298"
         style="fill:#a30000;fill-opacity:1;fill-rule:nonzero;stroke:none"
         d="m 12224,6206.1 h -397.8 v -528.8 h 397.8 z m 168,158.1 v -847.5 h -733.8 v 847.5 z m -373.1,812.9 c -24.7,-96.3 -51.8,-187.8 -86.4,-276.7 h 924.1 c 0,-859.9 -12.4,-1388.6 -34.6,-1591.3 -29.7,-239.6 -160.6,-360.7 -392.9,-360.7 -64.2,0 -177.9,4.9 -336,9.9 l -42,163.1 c 135.9,-5 254.5,-9.9 353.3,-9.9 143.3,0 224.8,91.4 244.6,269.3 17.3,145.8 27.2,595.5 32.1,1349.1 h -825.2 c -89,-170.5 -200.2,-323.7 -336.1,-462.1 l -108.7,140.9 c 210,217.4 353.3,479.3 427.5,790.7 z M 11527.2,7056 c -88.9,-148.2 -182.8,-271.8 -276.7,-370.6 19.8,-39.5 37.1,-76.6 51.9,-116.1 71.6,-200.2 111.2,-481.8 118.6,-847.5 0,-385.5 -54.4,-620.2 -158.1,-699.3 -59.3,-39.5 -145.8,-61.7 -259.5,-61.7 -64.2,0 -113.6,2.4 -153.2,2.4 l -51.9,165.6 c 56.9,-7.4 111.2,-12.4 165.6,-12.4 91.4,0 153.2,14.8 182.8,44.5 69.2,61.8 103.8,252 103.8,568.3 -2.5,111.2 -7.4,212.5 -12.4,303.9 -126,-177.9 -274.2,-326.1 -447.2,-447.2 l -98.8,148.2 c 222.4,145.8 392.9,321.3 516.4,523.9 -14.8,88.9 -34.6,168 -59.3,234.7 -9.9,24.7 -19.8,49.4 -29.7,69.2 -91.4,-76.6 -200.1,-153.2 -326.1,-232.3 l -96.4,153.2 c 123.6,61.8 237.2,140.8 341,234.7 -69.2,113.7 -155.7,215 -259.4,308.9 l 140.8,108.7 c 93.9,-96.4 175.4,-195.2 242.2,-294 79,91.4 153.1,192.7 222.3,303.9 l 143.3,-89" /><g
         id="g300"><g
           clip-path="url(#clipPath306)"
           id="g302"><path
             id="path308"
             style="fill:#ebb631;fill-opacity:1;fill-rule:nonzero;stroke:none"
             d="m 15650.3,2205.2 c 21.5,-16.8 40.7,-36.7 57.4,-58.7 51.2,-67.4 79.3,-156 79.3,-253.1 v -120 c 0,-208.9 -170.9,-379.9 -379.8,-379.9 h -271 c 0,225.4 0,513.1 0,536.8 0,560.9 -454.7,1015.7 -1015.6,1015.7 -560.9,0 -1015.6,-454.8 -1015.6,-1015.7 0,-196.7 56.1,-380.2 152.9,-535.8 h -208.8 c -132,0 -240,-107.9 -240,-239.9 V 914.699 h 240 998.4 c 8.2,0 16.3,0.403 24.3,1.203 16.2,-0.703 32.4,-1.203 48.8,-1.203 36.7,0 72.9,2.102 108.6,5.801 13.9,-2.898 28.3,-4.5 43.1,-4.5 h 33.6 l -0.1,-1.199 h 1178.6 c 406,0 738.3,332.199 738.3,738.199 v 360.8 c 0,16.1 -0.4,32.3 -1,48.4 -190.3,302.9 -466.2,198.7 -571.4,143 z m -252.9,163.8 c 85.4,0 158.5,-26.7 216.2,-72.5 112.1,59.4 406.2,170.5 609.1,-152.5 -12.3,339.2 -150.4,626.1 -507.2,666.3 -573.9,30.1 -489.4,-441.3 -489.4,-441.3 z m -3934.1,2611.3 c -17,10.3 -37.3,16.5 -60.3,16.5 h -335.1 c -64,0 -115.8,-51.8 -115.8,-115.7 v -306.2 c 0,-26.4 8.3,-49.6 21.8,-68.1 62.2,234.7 251.8,419 489.4,473.5 z m 1283.3,-3641.5 c -50,-74.1 -50.1,-206.6 -50.1,-206.6 V 914.699 h -742.4 V 1150.7 c 0,129.9 106.2,236.1 236.1,236.1 h 389.6 c -0.2,3.6 -0.6,7.1 -0.6,10.8 v 1773.8 c -33.3,115.2 -62.6,232.5 -86,349.8 807.6,-34.4 1101.1,471.6 1185.8,674 L 14607,2926 c -145.5,70.6 -309,110.2 -481.6,110.2 -571,0 -1041,-432.8 -1099.6,-988.4 -0.8,1.7 -1.7,3.4 -2.5,5.1 V 1463 c 0,0 -191.5,2 -276.7,-124.2" /><path
             id="path310"
             style="fill:#ffffff;fill-opacity:1;fill-rule:nonzero;stroke:none"
             d="m 12653.1,3641.1 h -1009.6 c -180.9,0 -345.2,73.9 -464.4,193.1 -119.1,119.1 -193.1,283.6 -193.1,464.4 0,57.8 7.6,114 21.8,167.5 62.2,234.6 251.7,418.9 489.4,473.4 47.1,10.9 96,16.6 146.3,16.6 h 95.9 c 137.9,370.6 494.9,634.8 913.7,634.8 538.4,0 974.9,-436.5 974.9,-974.9 0,-538.4 -436.5,-974.9 -974.9,-974.9" /><path
             id="path312"
             style="fill:#c80000;fill-opacity:1;fill-rule:nonzero;stroke:none"
             d="m 11391.8,4452.3 c 0,19.2 -15.5,34.7 -34.6,34.7 -19.2,0 -34.7,-15.5 -34.7,-34.7 0,-19.1 15.5,-34.6 34.7,-34.6 19.1,0 34.6,15.5 34.6,34.6" /><path
             id="path314"
             style="fill:#c80000;fill-opacity:1;fill-rule:nonzero;stroke:none"
             d="m 11498,4581.3 c 0,19.1 -15.5,34.7 -34.7,34.7 -19.1,0 -34.6,-15.6 -34.6,-34.7 0,-19.1 15.5,-34.7 34.6,-34.7 19.2,0 34.7,15.6 34.7,34.7" /><path
             id="path316"
             style="fill:#c80000;fill-opacity:1;fill-rule:nonzero;stroke:none"
             d="m 11620.6,4452.3 c 0,19.2 -15.5,34.7 -34.6,34.7 -19.2,0 -34.7,-15.5 -34.7,-34.7 0,-19.1 15.5,-34.6 34.7,-34.6 19.1,0 34.6,15.5 34.6,34.6" /><path
             id="path318"
             style="fill:#c80000;fill-opacity:1;fill-rule:nonzero;stroke:none"
             d="m 12235.8,5058.8 c 0,57.9 -47,104.8 -104.9,104.8 -57.8,0 -104.8,-46.9 -104.8,-104.8 0,-57.9 47,-104.8 104.8,-104.8 57.9,0 104.9,46.9 104.9,104.8" /><path
             id="path320"
             style="fill:#c80000;fill-opacity:1;fill-rule:nonzero;stroke:none"
             d="m 12818.2,3747.5 c 250.7,0 454,203.3 454,454.1 0,250.7 -203.3,1352.9 -454,1352.9 -250.7,0 -454.1,-1102.2 -454.1,-1352.9 0,-250.8 203.4,-454.1 454.1,-454.1" /></g></g><g
         transform="scale(1.18191)"
         id="g322"><path
           id="path324"
           style="fill:#c80000;fill-opacity:1;fill-rule:nonzero;stroke:none"
           d="M 16300,934.506 H 12930.4 V 6210.04 H 16300 V 934.506" /></g><g
         transform="scale(1.09066)"
         id="g326"><path
           id="path328"
           style="fill:#a30000;fill-opacity:1;fill-rule:nonzero;stroke:none"
           d="m 15391.5,4768.14 h 595.8 v 247.01 h -595.8 z m 595.8,623.02 h -595.8 v -240.13 h 595.8 z m -511.9,942.46 v 260.48 h 160.8 v -260.48 h 351.1 v -142.76 h -351.1 v -294.5 h 111 c 160.8,163.11 299,355.66 412.3,577.72 l 138.2,-72.52 c -99.7,-190.26 -210.7,-357.95 -337.6,-505.2 h 339.9 v -147.25 h -480.4 c -83.8,-77.02 -172.1,-149.55 -262.7,-215.19 h 586.8 V 4525.71 h -156.4 v 97.47 h -595.8 v -99.66 h -154.1 v 822.34 c -72.4,-31.72 -142.6,-61.15 -212.9,-88.38 l -86.1,133.68 c 242.5,86.09 457.7,203.91 647.9,357.95 h -575.4 v 147.25 h 464.5 v 294.5 h -355.8 v 142.76 z m -430.5,144.95 c -90.6,-144.95 -181.3,-265.06 -274.2,-357.94 15.9,-29.44 29.5,-58.87 40.8,-88.3 63.5,-181.27 99.7,-434.97 106.5,-765.78 0,-364.73 -45.3,-584.51 -135.9,-661.52 -49.9,-38.51 -122.3,-58.87 -217.5,-58.87 -65.7,0 -117.8,2.29 -156.3,2.29 l -47.6,151.75 c 58.9,-4.49 113.2,-9.08 167.7,-9.08 74.7,0 124.5,13.57 149.5,40.8 54.3,58.87 83.8,240.13 83.8,543.71 0,90.59 -4.5,172.19 -9,246.92 -113.4,-163.12 -244.7,-301.29 -394.3,-412.32 l -92.9,135.97 c 197.2,135.88 351.2,301.29 459.9,491.63 -13.5,86 -33.9,160.82 -56.6,224.27 -6.8,18.06 -13.6,31.72 -20.4,45.29 -83.8,-67.94 -181.2,-135.97 -290,-203.91 l -88.3,140.46 c 111,56.67 212.9,126.9 305.8,208.41 -63.4,106.45 -145,203.91 -240.1,290.01 l 126.9,99.67 c 90.6,-90.59 165.4,-183.47 226.5,-278.65 81.5,86.1 154.1,185.76 222,299.09 l 133.7,-83.9" /></g><g
         id="g330"><g
           clip-path="url(#clipPath336)"
           id="g332"><g
             transform="scale(1.18196)"
             id="g338"><path
               id="path340"
               style="fill:#ebb631;fill-opacity:1;fill-rule:nonzero;stroke:none"
               d="m 17857.1,1833.05 c -9.9,9.56 -20.7,18.7 -32.3,26.99 -50,35.28 -116,57.53 -172.8,30.71 -36.7,-17.51 -60.5,-56.09 -72.3,-94.25 -21.5,-62.77 13,-123.27 74.7,-143.74 105,-34.77 190.9,37.65 199.2,143.32 1.7,12.35 2.9,24.71 3.5,36.97 z m 123.1,-155.59 c -1.5,-118.19 -109.1,-219.29 -220.5,-238.24 -115.3,-16.84 -225.1,40.02 -314.1,113.79 -109.9,-363.63 -440.8,-631.324 -836.5,-646.973 -12.2,-0.595 -24.5,-0.846 -36.8,-0.846 -8.1,0 -15.9,0.083 -23.8,0.337 -2.6,-0.254 -4,-0.337 -4,-0.337 h -1084.7 l 134.6,68.444 h -155.1 c 0,0 48,31.385 127,70.395 79.1,39.08 189.3,85.7 314,116.41 15.7,3.81 31.8,7.36 48.1,10.67 -31.5,31.3 -60.7,64.97 -87.5,100.59 -113.7,152.29 -181.1,341.29 -181.1,545.96 0,503.9 408.6,912.37 912.5,912.37 485.2,0 882,-378.77 910.6,-856.88 1.1,-18.35 1.7,-36.88 1.7,-55.49 0,-64.48 -6.7,-127.25 -19.4,-187.91 77.3,-74.46 179.6,-141.89 285.3,-129.79 39.2,5.16 76.2,23.52 107.5,50.94 93,76.14 84.4,181.98 18.9,260.83 -2.3,-42.3 -10.3,-84.77 -34.1,-120.9 -54.3,-88.58 -190,-100.68 -263.1,-28.51 -60.5,56.94 -47.3,149.41 -3.7,212.27 64.2,95.86 190.9,82.07 274.9,23.44 1.3,-0.85 2.4,-1.69 3.5,-2.54 -12.2,89.6 -64,161.43 -174.1,167.6 -3.5,-0.17 -6.7,2.71 -6.5,6.35 0.1,3.3 2.8,5.92 6.1,5.92 24.4,0.17 47.6,-4.48 70.1,-12.52 80.8,-28.43 118.2,-104.32 126.3,-183.76 59.9,-49.33 104.4,-122.26 103.9,-201.62 z m -3708.6,-738.682 123.9,204.322 74.4,-226.319 232.3,945.629 c -240.4,284.61 -357.3,597.23 -404.2,751.8 z M 15759,1277.11 c -105,140.62 -172.6,310.76 -188,495.62 v 0.42 c -2.2,26.48 -3.3,53.13 -3.3,80.21 0,252.63 97.2,482.42 256.4,654.16 182.1,202.38 446.1,329.63 739.9,329.63 367.5,0 688.6,-199.25 860.9,-495.71 -222.4,597.48 -918.8,779.98 -1291.7,840.89 -67.7,-0.93 -142.4,24.62 -214.1,66.76 -123.5,72.76 -237.5,195.1 -289.2,316.67 -0.4,-6.93 -0.8,-13.87 -1.4,-20.56 -37.2,-458.47 -421.1,-818.89 -889.1,-818.89 -145.7,0 -283.2,34.94 -404.7,96.87 75.1,-247.47 206.9,-580.47 425.9,-870.92 l -10.9,-588.26 -8.5,-451.704 123.9,204.324 74.4,-226.321 116.2,473.701 57.8,235.03 c 212.6,-159.05 439.9,-256.6 626.8,-316.08 6.3,-1.94 12.5,-3.89 18.7,-5.84" /></g><g
             transform="scale(1.11075)"
             id="g342"><path
               id="path344"
               style="fill:#ebb631;fill-opacity:1;fill-rule:nonzero;stroke:none"
               d="m 15605.1,4809.91 c -110.7,0 -216.3,-22.15 -312.3,-62.3 13,112 76.1,344.63 370.9,430.25 394.1,114.61 636.3,2.07 636.3,2.07 0,0 -143.2,-46.18 -251.3,-156.56 -44.4,-2.25 -85.9,-6.39 -122.5,-12.69 -166.7,-29.17 -243,-127.94 -277.3,-201.94 -14.5,0.81 -29.1,1.17 -43.8,1.17" /></g><path
             id="path346"
             style="fill:#ebb631;fill-opacity:1;fill-rule:nonzero;stroke:none"
             d="m 16016.1,4432.9 c -18.3,-2.4 -40.9,56.3 -50.5,131 -9.6,74.6 -2.5,137.1 15.8,139.4 18.3,2.5 40.9,-56.3 50.6,-130.9 9.5,-74.7 2.5,-137.2 -15.9,-139.5 z m -104,41.1 c -18.3,-2.4 -41,56.3 -50.6,130.9 -9.7,74.7 -2.6,137.2 15.8,139.5 18.3,2.4 40.9,-56.2 50.6,-130.8 9.6,-74.8 2.5,-137.3 -15.8,-139.6 z m 10.4,476.7 c -39.6,14.4 -79.7,32.7 -156.8,64.7 l 105.5,-774.6 c 0,0 157.1,-30.6 293.9,-111.3 -3.4,508 -170.9,743.4 -242.6,821.2" /><g
             transform="scale(1.14977)"
             id="g348"><path
               id="path350"
               style="fill:#ffffff;fill-opacity:1;fill-rule:nonzero;stroke:none"
               d="m 15108.5,2905.01 c -307.4,0 -576.3,165.51 -722.4,412.17 -6,10 -11.6,20 -17,30.09 20.5,7.05 40.4,15.83 59.8,26.53 83,46.53 143,122.54 168.9,214.21 2.7,9.48 -2.7,19.22 -12.2,21.83 -9.5,2.7 -19.2,-2.69 -21.9,-12.17 -23.4,-82.45 -77.4,-150.99 -152.2,-192.73 -19.6,-10.97 -39.8,-19.66 -60.7,-26.19 -64.4,99.15 -147.9,166.99 -225.4,212.83 -2.7,441.82 -148.5,646.65 -210.9,714.23 321.9,-117.59 604.3,49.66 687.8,107.15 0.1,0.35 0.4,0.43 0.7,0.52 7.2,5.57 14.5,10.87 21.8,16.01 0.5,0.6 1.3,0.95 1.9,1.3 0.2,0.26 0.4,0.35 0.5,0.43 49.3,34.62 102.5,64.1 158.9,87.5 99.2,41.4 208.2,64.27 322.4,64.27 15.1,0 30.2,-0.43 45.2,-1.22 35.4,76.37 114.1,178.3 286.1,208.39 37.9,6.53 80.7,10.79 126.5,13.14 300.9,15.65 733.7,-48.79 733.7,-48.79 0,0 -217.6,-34.36 -351.5,-215.44 -100.5,-136.11 -93.5,-252.22 -150.9,-316.76 v -0.08 c 94.6,-135.68 149.8,-300.41 149.8,-478.27 0,-463.31 -375.5,-838.95 -838.9,-838.95" /></g><g
             transform="scale(1.12688)"
             id="g352"><path
               id="path354"
               style="fill:#c80000;fill-opacity:1;fill-rule:nonzero;stroke:none"
               d="m 15825.9,4448.29 c 105.3,-58.13 236,40.37 283,171.8 47,131.33 191.1,176.24 191.1,176.24 -433.3,7.36 -520.4,-172.07 -520.4,-172.07 0,0 -60.4,-117.05 46.3,-175.97" /></g><g
             transform="scale(1.05974)"
             id="g356"><path
               id="path358"
               style="fill:#c80000;fill-opacity:1;fill-rule:nonzero;stroke:none"
               d="m 16300,4296.73 c 0,62.94 -50.9,113.9 -113.8,113.9 -62.8,0 -113.9,-50.96 -113.9,-113.9 0,-62.85 51.1,-113.8 113.9,-113.8 62.9,0 113.8,50.95 113.8,113.8" /></g></g></g><g
         transform="scale(1.27987)"
         id="g360"><path
           id="path362"
           style="fill:#c80000;fill-opacity:1;fill-rule:nonzero;stroke:none"
           d="M 7474.66,16300 V 11428.2 H 4363.04 V 16300 h 3111.62" /></g><g
         transform="scale(1.26919)"
         id="g364"><path
           id="path366"
           style="fill:#a30000;fill-opacity:1;fill-rule:nonzero;stroke:none"
           d="m 4691.99,15402.5 -95.39,112.9 c 151.86,181.1 274.5,420.6 371.84,716.5 l 132.38,-29.2 c -35.04,-111 -73.98,-214.2 -116.81,-311.5 h 467.24 v 408.8 h 142.11 v -408.8 h 638.55 v -136.3 h -638.55 v -492.5 h 757.3 v -138.3 h -757.3 v -603.5 h -142.11 v 603.5 h -831.29 v 138.3 h 831.29 v 492.5 h -531.48 c -70.08,-132.4 -146.01,-249.2 -227.78,-352.4" /></g><g
         id="g368"><g
           clip-path="url(#clipPath374)"
           id="g370"><path
             id="path376"
             style="fill:#e5b034;fill-opacity:1;fill-rule:nonzero;stroke:none"
             d="m 7301.29,14634.8 h -479.65 l 27.18,79 h 442.27 l 10.2,-79" /><path
             id="path378"
             style="fill:#e5b034;fill-opacity:1;fill-rule:nonzero;stroke:none"
             d="m 8839.12,14626.7 h -549.33 l 40.18,87.1 h 472.31 l 36.84,-87.1" /><path
             id="path380"
             style="fill:#e5b034;fill-opacity:1;fill-rule:nonzero;stroke:none"
             d="m 9041.18,14687.2 h 316.48 l -17.42,-58.9 h -320.85 l 21.79,58.9" /><g
             transform="scale(1.0727)"
             id="g382"><path
               id="path384"
               style="fill:#e5b034;fill-opacity:1;fill-rule:nonzero;stroke:none"
               d="m 9739.62,15425.2 -411.11,0.2 c -103.91,0 -188.44,84.5 -188.44,188.4 v 56.1 c 0,103.9 84.53,188.4 188.44,188.4 h 227.84 c 30.67,-55.4 96.76,-93.8 173.39,-93.8 105.81,0 191.58,73.2 191.58,163.5 h -37.39 v 0.7 h -555.42 c -142.72,0 -258.81,-116.1 -258.81,-258.8 v -56.1 c 0,-142.7 116.09,-258.8 258.72,-258.8 l 411.2,-0.2 c 103.85,0 188.41,-84.5 188.41,-188.4 v -56.1 c 0,-103.9 -84.56,-188.5 -188.41,-188.5 H 9396.38 L 8051.76,16300 c -183.24,-548.9 -678.91,-527.1 -720.28,-524.3 -2.12,0.2 -4.14,0.2 -6.26,0.3 l -917.5,11 v -754.2 l 78.43,-1021.4 -75.95,-220.6 h 377.16 l -5.06,39.4 c 0,0 96.73,84.6 78.62,175.4 -16.73,83.3 -140.77,207.7 -5.24,466.9 -59.86,47.1 -135.16,110.6 -196.12,176.4 l 51.58,47.9 c 75.21,-81.1 176.16,-161 236.48,-206.1 170.09,-85.9 386.52,-145.9 626.87,-167.8 l -162.75,428.3 65.83,24.9 197.87,-520.7 v -0.2 l 161.27,-384.2 -37.06,-80.2 h 374.67 l -33.92,80.2 c 0,0 72.45,81.7 49.74,158.7 -12.51,42.7 -83.3,96.5 -126.43,233.6 -26.2,78 -45.87,197.4 -59.11,299 -13.33,101.4 -20.32,185.1 -20.87,191.9 l 70.06,5.8 c 0.28,-2.9 20.41,-245.4 57.92,-406.6 279.42,35 612.35,139.5 612.35,139.5 l 523.7,-457.2 v -108.8 l -72.79,-184.8 h 290.02 l 90.89,571.7 -157.26,241.6 66.46,296 v 0.1 h 274.54 c 142.73,0 258.79,116.1 258.79,258.8 v 56.1 c 0,142.7 -116.06,258.8 -258.79,258.8" /></g><path
             id="path386"
             style="fill:#e5b034;fill-opacity:1;fill-rule:nonzero;stroke:none"
             d="m 9292.67,15448.1 c -140.25,-56.4 -361.98,-94.8 -491.37,-113.8 51.8,-109.2 155.31,-234.9 358.67,-245.8 l -98.83,-347.3 h 312.45 l 102.37,420.2 c 0,0 -149.94,80.8 -183.29,286.7" /><g
             transform="scale(1.13487)"
             id="g388"><path
               id="path390"
               style="fill:#ffffff;fill-opacity:1;fill-rule:nonzero;stroke:none"
               d="m 7634.07,15863.4 c -0.44,-9 -2.33,-18.1 -5.37,-27.1 l -106.52,-308.2 c -168.68,-510.1 -628.4,-489.8 -666.67,-487.2 -1.98,0.1 -3.86,0.1 -5.73,0.1 l -1302.51,15.6 c -43.48,0.5 -81.75,28.7 -95.16,70.1 l -121.82,376.1 c -14.32,44.4 3.4,92.8 42.92,117.3 l 1095.73,679.9 h 786.09 l 64.03,-25.5 c 25.13,-10 44.1,-29 54.57,-51.8 -26.3,-33.7 -41.95,-75.9 -41.95,-121.6 v -238.6 l 302.39,0.9" /></g><g
             transform="scale(1.0885)"
             id="g392"><path
               id="path394"
               style="fill:#c80000;fill-opacity:1;fill-rule:nonzero;stroke:none"
               d="m 5714.73,16076.5 -36.3,136.5 168.42,87 c 0,0 27.3,-145.4 -132.12,-223.5" /></g><g
             transform="scale(1.20575)"
             id="g396"><path
               id="path398"
               style="fill:#ffffff;fill-opacity:1;fill-rule:nonzero;stroke:none"
               d="m 7650.81,15954.2 v -104.3 c 0,-248.3 -207.31,-451.4 -460.65,-451.4 H 6092.99 c -253.37,0 -460.65,203.1 -460.65,451.4 v 104.3 c 0,138.4 64.47,262.9 165.46,345.8 -20.97,-49.9 -32.56,-104.4 -32.56,-161.5 v -20.4 c 0,-234.9 196.07,-427.1 435.75,-427.1 h 881.14 c 239.7,0 435.77,192.2 435.77,427.1 v 20.4 c 0,57.1 -11.57,111.6 -32.56,161.5 100.98,-82.9 165.47,-207.4 165.47,-345.8" /></g><g
             transform="scale(1.13487)"
             id="g400"><path
               id="path402"
               style="fill:#e5b034;fill-opacity:1;fill-rule:nonzero;stroke:none"
               d="m 8108.02,16300 h -577.34 c -63.68,0 -120.65,-30.3 -157.05,-77.3 -26.3,-33.7 -41.95,-75.9 -41.95,-121.6 v -24.3 c 10.91,9.5 23.61,18.3 38.46,25.5 24.06,11.7 53.75,19.2 90.15,19.2 h 291.22 v -69.5 h -291.22 c -23.97,0 -44.62,-4.4 -61.89,-13.3 -19.23,-9.8 -34.52,-25.2 -46.24,-46.1 -17.26,-30.9 -19.68,-62.3 -19.68,-62.6 l -0.8,0.1 v -67.6 l 302.39,0.9 46.51,0.1 c 496.84,0 427.44,436.5 427.44,436.5" /></g><g
             transform="scale(1.12244)"
             id="g404"><path
               id="path406"
               style="fill:#c80000;fill-opacity:1;fill-rule:nonzero;stroke:none"
               d="m 7542.9,16300 c -36.8,0 -66.82,-7.6 -91.15,-19.4 -15.01,-7.3 -27.85,-16.1 -38.89,-25.8 v -148.3 l 0.82,-0.1 c 0,0.4 2.44,32 19.9,63.3 0,0 23.07,33 46.74,46.6 17.46,9 38.35,13.4 62.58,13.4 h 294.45 v 70.3 H 7542.9" /></g><g
             transform="scale(1.10911)"
             id="g408"><path
               id="path410"
               style="fill:#c80000;fill-opacity:1;fill-rule:nonzero;stroke:none"
               d="m 6638.9,16202.1 c 0,54 43.85,97.9 97.93,97.9 54.09,0 97.95,-43.9 97.95,-97.9 0,-54.1 -43.86,-98 -97.95,-98 -54.08,0 -97.93,43.9 -97.93,98" /></g></g></g><g
         transform="scale(1.27987)"
         id="g412"><path
           id="path414"
           style="fill:#c80000;fill-opacity:1;fill-rule:nonzero;stroke:none"
           d="M 15052.3,11428.2 H 11940.7 V 16300 h 3111.6 v -4871.8" /></g><g
         transform="scale(1.26978)"
         id="g416"><path
           id="path418"
           style="fill:#a30000;fill-opacity:1;fill-rule:nonzero;stroke:none"
           d="m 13776.8,14840.6 -110.9,-79.8 c -58.5,85.6 -140.1,181 -243.3,284.1 l 107,66.2 c 107.1,-103.2 188.8,-192.7 247.2,-270.5 z m -99.3,805.6 h -455.3 c -9.7,-114.8 -25.3,-218 -46.7,-309.4 h 502 z m -595.4,0 h -467 v -309.4 h 416.4 c 23.3,93.4 38.9,196.5 50.6,309.4 z m 299.6,344.4 H 12796 c -70,-77.8 -143.9,-149.8 -223.8,-216 h 535.2 c 91.5,62.3 182.9,134.3 274.3,216 z m -1041,-383.3 -93.4,114.8 c 251,147.9 457.3,340.5 616.9,577.9 l 142,-29.2 c -35,-54.5 -70.1,-107 -107,-155.7 h 671.3 v -105 c -87.6,-91.5 -175.1,-169.3 -260.8,-235.5 h 502.1 v -568.2 h -492.3 v -449.5 c 0,-58.4 31.1,-87.6 95.3,-87.6 h 313.3 c 48.7,0 83.7,11.7 103.2,35.1 25.2,31.1 42.8,116.7 52.5,256.8 l 134.3,-42.8 c -15.6,-179 -44.8,-286 -85.6,-324.9 -39,-33.1 -97.4,-50.6 -179.1,-50.6 h -377.5 c -130.3,0 -194.6,62.2 -194.6,184.8 v 478.7 h -42.8 c -33,-99.2 -73.9,-181 -122.6,-247.1 -128.4,-171.3 -342.5,-319.1 -644,-443.7 l -89.6,114.8 c 284.1,109 484.5,237.4 605.2,385.3 40.8,54.5 75.9,116.8 103.1,190.7 h -509.8 v 496.2 c -46.7,-33.1 -93.4,-64.2 -140.1,-95.3" /></g><g
         id="g420"><g
           clip-path="url(#clipPath426)"
           id="g422"><g
             transform="scale(1.18196)"
             id="g428"><path
               id="path430"
               style="fill:#ebb631;fill-opacity:1;fill-rule:nonzero;stroke:none"
               d="m 16138.7,12935.1 c 0,378 -306.4,684.4 -684.4,684.4 -377.9,0 -684.2,-306.4 -684.2,-684.4 0,-149.2 47.8,-287.3 128.9,-399.7 -7.8,-1.9 -15.7,-3.8 -23.5,-5.9 -177.2,-47.6 -333.4,-146 -452.4,-278.6 h 1003.4 c 4.6,0 9.3,0.1 13.8,0.2 4.7,-0.1 9.3,-0.2 14,-0.2 112.7,0 219,27.3 312.9,75.6 220.4,113.4 371.5,343.5 371.5,608.6 z m 642.5,642.6 c -100.6,0 -193.8,-32.6 -269.5,-87.6 -122.9,673.6 -663.2,1201.4 -1343,1305.7 -23.6,-63 -119.6,-263.1 -388.5,-276.8 h -357.1 l 430.7,-1126.9 c 139.1,185.4 360.6,305.5 610.4,305.5 421.1,0 762.4,-341.3 762.4,-762.4 0,-303.6 -177.5,-565.8 -434.4,-688.4 h 436.2 c 113.9,156.1 200.5,333.3 252.7,524.7 80.5,-69.7 185.4,-111.9 300.1,-111.9 253.6,0 459.1,205.5 459.1,459.1 0,253.5 -205.5,459 -459.1,459 z m -2131.4,80.3 -868,-6.1 c 216.7,167.6 471.8,284.6 745.5,337.6 l 122.5,-331.5" /></g><g
             transform="scale(1.18196)"
             id="g432"><path
               id="path434"
               style="fill:#ebb631;fill-opacity:1;fill-rule:nonzero;stroke:none"
               d="m 15693.2,15337.6 c 390.5,0 741.2,169.4 982.8,438.6 l -1569.8,-301.1 c 176.8,-88.1 376.1,-137.5 587,-137.5" /></g><g
             transform="scale(1.24568)"
             id="g436"><path
               id="path438"
               style="fill:#ffffff;fill-opacity:1;fill-rule:nonzero;stroke:none"
               d="m 13057.7,13974.6 -102.1,250.8 h 0.6 c 61.3,0 110.9,49.8 110.9,111 0,44 -25.5,82 -62.6,100 l 575.5,575.4 v 0 0 l 1288.1,1288.2 c 18.1,-334.7 -100.8,-675.5 -356.6,-931.3 -199,-199 -449.5,-315.1 -708.5,-348.5 h 305.1 c 0.2,0 0.4,0 0.6,0 H 15823 l -1489.5,-285.7 c -0.1,0 -0.1,0.1 -0.2,0.1 v -503.7 c -11.8,-363.8 -338.9,-356.1 -338.9,-356.1 h -743 c -89.8,-1.3 -160.7,28.8 -193.7,99.8" /></g><g
             transform="scale(1.11499)"
             id="g440"><path
               id="path442"
               style="fill:#c80000;fill-opacity:1;fill-rule:nonzero;stroke:none"
               d="m 14908.3,16190 c 0,-60.8 49.3,-110.1 110.1,-110.1 60.7,0 110,49.3 110,110.1 0,60.7 -49.3,110 -110,110 -60.8,0 -110.1,-49.3 -110.1,-110" /></g><g
             transform="scale(1.08662)"
             id="g444"><path
               id="path446"
               style="fill:#c80000;fill-opacity:1;fill-rule:nonzero;stroke:none"
               d="m 14969,16284.3 c 0,8.7 -7.1,15.7 -15.9,15.7 -8.6,0 -15.8,-7 -15.8,-15.7 0,-8.8 7.2,-15.8 15.8,-15.8 8.8,0 15.9,7 15.9,15.8" /></g><g
             transform="scale(1.08936)"
             id="g448"><path
               id="path450"
               style="fill:#c80000;fill-opacity:1;fill-rule:nonzero;stroke:none"
               d="m 14969,16268.6 c 8.8,0 15.8,7 15.8,15.8 0,8.6 -7,15.6 -15.8,15.6 -8.6,0 -15.6,-7 -15.6,-15.6 0,-8.8 7,-15.8 15.6,-15.8" /></g><g
             transform="scale(1.08494)"
             id="g452"><path
               id="path454"
               style="fill:#c80000;fill-opacity:1;fill-rule:nonzero;stroke:none"
               d="m 15036.6,16268.4 c 8.6,0 15.7,7.1 15.7,15.9 0,8.7 -7.1,15.7 -15.7,15.7 -8.9,0 -15.9,-7 -15.9,-15.7 0,-8.8 7,-15.9 15.9,-15.9" /></g><g
             transform="scale(1.10235)"
             id="g456"><path
               id="path458"
               style="fill:#ebb631;fill-opacity:1;fill-rule:nonzero;stroke:none"
               d="m 14742.5,16201.1 c 0,43.5 -26.3,81.1 -64.4,98.9 l -87.2,-84.1 c -6.5,-6.2 -8.7,-15.4 -5.7,-23.8 l 42.7,-100.9 h 0.5 c 63,0 114.1,49.3 114.1,109.9" /></g></g></g><path
         id="path460"
         style="fill:#c80000;fill-opacity:1;fill-rule:nonzero;stroke:none"
         d="M 9566.63,7339.7 V 1104.5 H 5584.14 v 6235.2 h 3982.49" /><path
         id="path462"
         style="fill:#a30000;fill-opacity:1;fill-rule:nonzero;stroke:none"
         d="m 7526.51,6445.7 -113.65,-81.5 c -54.37,86.5 -128.49,182.8 -222.38,289.1 l 116.13,71.6 c 96.37,-106.2 170.49,-200.1 219.9,-279.2 z m 501.59,-457.1 c -2.47,-533.7 -37.07,-842.5 -101.3,-929 -61.77,-79.1 -165.55,-121.1 -311.33,-121.1 h -224.85 l -51.89,165.6 c 111.19,-2.5 205.09,-5 279.21,-5 84.01,0 143.31,27.2 180.37,76.6 39.53,59.3 59.31,274.3 59.31,649.9 h -948.81 v 1158.8 h 227.31 c 32.12,74.1 56.83,153.2 74.12,232.2 l 175.44,-24.7 c -17.3,-74.1 -42.01,-143.3 -71.66,-207.5 h 563.36 c -22.23,-425 -54.36,-677 -98.84,-753.6 -46.94,-76.6 -130.95,-116.2 -254.5,-116.2 h -118.59 l -51.9,150.8 c 64.25,-2.5 121.08,-5 170.49,-5 56.84,0 96.37,22.3 121.08,64.3 22.23,44.4 39.53,210 54.36,494.1 H 7079.3 v -830.2 z m -382.98,-425 v -163 h -832.68 v 163 z m -1272.49,447.3 c 79.07,242.1 126.01,509 145.78,800.5 h -617.72 v 168 h 783.26 V 6848.5 C 6666.66,6468 6602.42,6127 6488.76,5825.6 c 108.72,-177.9 210.02,-353.4 298.97,-531.3 l -128.48,-126 c -74.13,153.2 -155.67,308.9 -249.56,467 -118.6,-252 -276.73,-471.9 -471.94,-664.7 l -108.71,128.5 c 202.61,202.6 358.27,439.8 471.94,714.1 -123.55,197.7 -264.39,402.8 -417.58,612.8 l 121.07,113.6 c 130.96,-177.9 254.49,-353.3 368.16,-528.7" /><g
         id="g464"><g
           clip-path="url(#clipPath470)"
           id="g466"><path
             id="path472"
             style="fill:#ffffff;fill-opacity:1;fill-rule:nonzero;stroke:none"
             d="m 6983.62,4575.2 c 0,310.5 251.73,562.2 562.27,562.2 310.54,0 562.27,-251.7 562.27,-562.2 0,-310.6 -251.73,-562.3 -562.27,-562.3 -310.54,0 -562.27,251.7 -562.27,562.3" /><path
             id="path474"
             style="fill:#ebb631;fill-opacity:1;fill-rule:nonzero;stroke:none"
             d="m 7391.61,4834.5 c 71.62,0 129.72,-58.1 129.72,-129.8 0,-71.6 -58.1,-129.5 -129.72,-129.5 -71.63,0 -129.59,57.9 -129.59,129.5 0,71.7 57.96,129.8 129.59,129.8 z m -521.42,-312.8 c -16.77,0 -30.62,13.7 -30.62,30.7 0,16.9 13.85,30.6 30.62,30.6 16.96,0 30.63,-13.7 30.63,-30.6 0,-17 -13.67,-30.7 -30.63,-30.7 z m 1125.06,987 c -107.84,0 -199.89,-67.5 -236.76,-162.4 0.79,7.7 1.19,15.5 1.19,23.4 0,132.9 -107.57,240.4 -240.47,240.4 -132.77,0 -240.48,-107.5 -240.48,-240.4 0,-25.1 3.85,-49.2 11.01,-72.1 -34.22,59.2 -98.02,99.1 -171.37,99.1 -64.72,0 -122.02,-31.1 -158.1,-78.9 h -0.13 c -0.27,-0.5 -0.67,-1.1 -0.93,-1.5 -4.25,-5.7 -8.09,-11.5 -11.81,-17.7 -80.38,-124.3 -122.02,-267.2 -122.02,-427.1 0,-66.9 8.75,-131.9 24.53,-193.7 l -172.96,-185.7 c -16.58,-62.7 42.98,-66 42.98,-66 h 207.44 v -214 c -0.92,-7 -1.32,-14.3 -1.32,-21.6 0,-107.2 86.88,-193.9 194.18,-193.9 107.04,0 193.92,86.7 193.92,193.9 0,78.4 -46.43,145.8 -113.28,176.4 l 0.8,0.6 -119.37,58.6 h 90.06 c 38.2,0 70.43,24.9 81.57,59.3 39.66,-25.6 86.88,-40.6 137.68,-40.6 140.2,0 253.87,113.5 253.87,253.7 0,140.2 -113.67,253.9 -253.87,253.9 -140.07,0 -253.74,-113.7 -253.74,-253.9 0,-35.8 7.43,-69.9 20.83,-100.7 l -170.58,-0.5 c 3.45,169.3 83.17,319.7 206.39,418.2 29.18,25.2 66.72,45.8 66.72,45.8 65.12,38 139,63.2 217.65,71.6 35.82,4.9 92.19,2.1 92.19,2.1 66.85,-4.1 130.38,-19.7 188.61,-45.5 31.3,-13.8 58.49,-22.9 87.81,-41.5 3.45,-2.6 7.16,-5 10.87,-7.5 1.33,-0.8 2.52,-1.6 3.85,-2.6 l -0.13,0.4 c 38.73,-23.8 84.22,-37.9 133.17,-37.9 140.33,0 254.13,113.7 254.13,254 0,140.5 -113.8,254.3 -254.13,254.3 z M 11146.7,2486.6 H 9654.02 c 9.02,407 341.41,734.2 750.58,734.2 V 2586 c 56,359.6 366.9,634.8 742.1,634.8 z m 1346,23.5 c -21.8,972.7 -817,1754.3 -1794.7,1754.3 -967.98,0 -1756.91,-765.9 -1794.05,-1724.8 l 1.59,-3.8 c 33.43,383.8 355.47,685 747.95,685 v -734.2 h -723.94 v -760.4 c -388.76,0 -710.94,285.1 -768.9,657.6 v -657.6 c -373.38,0 -685.08,263 -760.42,614 v -614 c -359.71,0 -662.26,244.2 -751.66,575.7 74.14,-918.1 695.02,-1681.599 1536.75,-1964.798 h -44.7 c 188.34,-109 315.15,-312.602 315.15,-545.801 V -413.5 l -166.6,-172.602 h 423.78 L 8546.49,-413.5 v 204.801 c 0,168.8006 66.59,322.301 174.82,435.398 7.03,-0.597 14.19,-0.898 21.35,-1.5 C 8850.1,112.301 8916.02,-40.5 8916.02,-208.699 V -413.5 l -166.46,-172.602 h 423.78 L 9006.88,-413.5 v 204.801 c 0,172.9998 69.77,329.699 182.64,443.5 198.03,23.601 396.32,73.801 590.11,152.699 l -1.59,3.703 C 10553.2,713.102 11111.5,1452.5 11171.5,2328.9 c 79.2,-283.8 339.5,-492.2 648.5,-492.2 v 632.2 h 1.5 c 21.2,-352.6 313.8,-632.2 671.9,-632.2 v 673.4 h -0.7" /><path
             id="path476"
             style="fill:#ffffff;fill-opacity:1;fill-rule:nonzero;stroke:none"
             d="m 8839.22,2698.6 64.73,-159 -82.9,201.8 z" /><path
             id="path478"
             style="fill:#ffffff;fill-opacity:1;fill-rule:nonzero;stroke:none"
             d="m 8930.61,2486.6 h -1.06 v -760.4 c -388.76,0 -710.94,285.1 -768.9,657.6 v -657.6 c -373.38,0 -685.08,263 -760.42,614 v -614 c -359.71,0 -662.26,244.2 -751.66,575.7 -14.06,114.3 -6.9,184.7 -6.9,184.7 -0.13,25.1 0.13,50.2 0.93,75.2 v 1.4 c 1.59,236.6 16.71,402.4 31.57,510 0,7.9 90.46,458.4 360.24,646.6 287.7,200.7 512.45,101.4 816.53,209.9 232.82,83.2 318.56,294.9 319.23,444.9 l 589.34,-1487.7 61.54,-145.5 82.9,-201.8 1.59,-3.8 8.23,-20.4 10.08,-24.6 6.76,-4.2" /><path
             id="path480"
             style="fill:#c80000;fill-opacity:1;fill-rule:nonzero;stroke:none"
             d="m 7391.68,4637.7 c 37.12,0 67.16,30 67.16,67.1 0,37.1 -30.04,67.2 -67.16,67.2 -37.13,0 -67.17,-30.1 -67.17,-67.2 0,-37.1 30.04,-67.1 67.17,-67.1" /></g></g><path
         id="path482"
         style="fill:#c80000;fill-opacity:1;fill-rule:nonzero;stroke:none"
         d="M 4717.39,1104.5 H 734.902 V 7339.7 H 4717.39 V 1104.5" /><path
         id="path484"
         style="fill:#a30000;fill-opacity:1;fill-rule:nonzero;stroke:none"
         d="m 2358.28,6927.6 v 160.6 h 743.73 l -44.48,-439.9 h 247.09 V 6490.2 H 2205.09 v 158.1 h 684.42 l 29.65,279.3 z m 358.27,-1546.8 c -88.95,-177.9 -232.26,-331.1 -429.93,-459.6 l -111.19,138.4 c 180.38,111.2 308.86,242.1 387.93,395.3 24.71,49.4 44.48,106.3 64.24,173 h -447.23 v 155.7 h 479.36 c 12.35,88.9 22.23,190.2 29.64,298.9 h -249.55 c -51.89,-96.3 -108.72,-182.8 -168.02,-256.9 l -111.19,130.9 c 103.78,123.6 187.79,284.2 252.03,481.8 l 158.13,-34.6 c -19.77,-56.8 -39.53,-111.2 -59.3,-163 h 721.49 v -158.2 h -382.98 c -7.41,-111.2 -17.3,-210 -27.18,-298.9 h 509 v -155.7 h -474.41 c 96.36,-207.6 259.44,-395.4 489.23,-560.9 l -111.19,-135.9 c -212.49,173 -370.63,363.2 -474.4,568.3 -14.82,-44.5 -29.65,-84 -44.48,-118.6 z m -958.69,728.9 -51.89,177.9 c 175.44,261.9 301.45,563.4 380.51,899.4 l 155.67,-69.2 c -44.48,-163.1 -96.36,-316.3 -160.61,-459.6 V 4943.5 h -163.07 v 1400.9 c -49.42,-81.5 -103.78,-160.6 -160.61,-234.7 z m 34.59,978.5 c -86.48,-163.1 -172.96,-296.5 -261.91,-400.3 17.3,-39.6 32.12,-76.6 44.48,-113.7 61.77,-195.2 96.36,-474.4 101.3,-835.1 0,-355.8 -27.18,-575.7 -76.59,-659.7 -49.42,-76.6 -133.43,-116.2 -256.97,-116.2 -64.25,0 -121.08,2.5 -170.49,7.4 l -42.01,168.1 c 64.25,-7.5 123.55,-12.4 177.9,-12.4 84.01,0 135.9,27.2 160.61,79.1 24.71,76.6 39.53,259.4 39.53,551 0,81.5 -2.47,158.1 -4.94,229.8 -98.83,-153.2 -210.02,-281.7 -338.5,-388 l -101.31,148.3 c 177.9,135.9 316.27,299 417.58,489.2 -17.3,118.6 -39.54,219.9 -66.72,303.9 l -7.41,17.3 c -79.07,-74.1 -170.49,-148.2 -274.27,-222.4 l -93.89,148.3 c 108.72,61.8 205.08,138.4 294.03,232.3 -59.3,106.2 -135.89,207.5 -227.31,306.4 l 145.78,91.4 c 76.59,-89 140.83,-177.9 195.19,-266.9 74.13,96.4 143.31,205.1 207.56,328.6 l 138.36,-86.4" /><g
         id="g486"><g
           clip-path="url(#clipPath492)"
           id="g488"><path
             id="path494"
             style="fill:#e5b034;fill-opacity:1;fill-rule:nonzero;stroke:none"
             d="m 3371.55,3459.5 c -98.39,-95.4 -217.45,-169.3 -349.75,-215 -15.88,-5.4 -32.09,-10.5 -48.46,-15.2 l -1.81,-0.5 c -82.36,-23.3 -169.34,-35.9 -259.3,-35.9 -136.1,0 -265.41,28.7 -382.33,80.3 V 966 h -165.86 c -141.39,0 -256.15,-114.602 -256.15,-256 h 641.62 472.29 324.12 c 2.64,139.199 116.09,251 255.82,251 h 50.44 c -205.55,184 -334.87,451.3 -334.87,748.8 0,555.1 449.8,1004.9 1004.93,1004.9 353.39,0 664.28,-182.4 843.38,-458.2 -328.76,580.7 -986.75,1027.4 -1794.07,1203" /><path
             id="path496"
             style="fill:#ffffff;fill-opacity:1;fill-rule:nonzero;stroke:none"
             d="m 2973.34,1311.7 -1.81,5.7 -641.63,1955.8 c 116.92,-51.6 246.23,-80.3 382.33,-80.3 89.96,0 176.94,12.6 259.3,35.9 l 1.81,-1917.1" /><path
             id="path498"
             style="fill:#e5b034;fill-opacity:1;fill-rule:nonzero;stroke:none"
             d="m 5322.92,1665.5 c 0,-527.7 -427.85,-955.5 -955.55,-955.5 h -928.49 c 0,1.5 0,3.301 0.15,4.801 2.52,132.398 110.39,238.699 243.26,238.699 h 47.95 c -195.45,175 -318.41,429.1 -318.41,712 0,527.9 427.69,955.5 955.54,955.5 336.02,0 631.63,-173.4 801.92,-435.7 44.82,-69 80.98,-144.2 106.93,-224 0.15,-0.3 0.15,-0.5 0.31,-0.8 30.03,-92.9 46.39,-192 46.39,-295" /><path
             id="path500"
             style="fill:#e5b034;fill-opacity:1;fill-rule:nonzero;stroke:none"
             d="m 3830.33,4283.1 c -9.71,171.1 -57.92,331.9 -136.01,473.9 159.16,38.5 277.42,181.8 277.42,352.8 0,200.6 -162.56,363.1 -363.08,363.1 -170.33,0 -313.2,-117.3 -352.38,-275.5 -161.11,89.7 -346.64,140.8 -544.1,140.8 -197.42,0 -382.91,-51.1 -544,-140.8 -39.2,158.2 -182.06,275.5 -352.37,275.5 -200.52,0 -363.07,-162.5 -363.07,-363.1 0,-170.9 118.2,-314.2 277.32,-352.8 -78.1,-142 -126.31,-302.8 -136.02,-473.9 -141.35,-212.4 -223.81,-467.7 -223.81,-742.1 h 449.8 1784.31 449.79 c 0,274.4 -82.45,529.7 -223.8,742.1" /><path
             id="path502"
             style="fill:#c80000;fill-opacity:1;fill-rule:nonzero;stroke:none"
             d="m 3608.66,5351 c -133.21,0 -241.19,-108 -241.19,-241.2 0,-133.2 107.98,-241.2 241.19,-241.2 133.2,0 241.19,108 241.19,241.2 0,133.2 -107.99,241.2 -241.19,241.2" /><path
             id="path504"
             style="fill:#c80000;fill-opacity:1;fill-rule:nonzero;stroke:none"
             d="m 1815.81,5351 c -133.2,0 -241.19,-108 -241.19,-241.2 0,-133.2 107.99,-241.2 241.19,-241.2 133.21,0 241.19,108 241.19,241.2 0,133.2 -107.98,241.2 -241.19,241.2" /><path
             id="path506"
             style="fill:#ffffff;fill-opacity:1;fill-rule:nonzero;stroke:none"
             d="m 3181.21,4899 h -937.95 c -222.54,0 -404.62,-182.1 -404.62,-404.6 v 0 c 0,-173.5 110.84,-321.9 265.03,-379.1 -12.64,-49.7 -19.4,-101.8 -19.4,-155.4 0,-346.8 281.15,-628 627.97,-628 346.81,0 627.96,281.2 627.96,628 0,53.6 -6.76,105.7 -19.4,155.4 154.19,57.2 265.03,205.6 265.03,379.1 v 0 c 0,222.5 -182.08,404.6 -404.62,404.6" /><path
             id="path508"
             style="fill:#c80000;fill-opacity:1;fill-rule:nonzero;stroke:none"
             d="m 3012.86,3884.2 c 0,15.7 -12.77,28.5 -28.53,28.5 -15.76,0 -28.53,-12.8 -28.53,-28.5 0,-134.3 -109.26,-243.6 -243.57,-243.6 -134.3,0 -243.56,109.3 -243.56,243.6 0,15.7 -12.78,28.5 -28.53,28.5 -15.76,0 -28.53,-12.8 -28.53,-28.5 0,-165.8 134.86,-300.7 300.62,-300.7 165.77,0 300.63,134.9 300.63,300.7 z m -233.44,80.9 c 15.69,0 28.41,12.7 28.41,28.4 0,15.7 -12.72,28.4 -28.41,28.4 -15.69,0 -28.4,-12.7 -28.4,-28.4 0,-15.7 12.71,-28.4 28.4,-28.4 z m -134.37,0 c 15.69,0 28.4,12.7 28.4,28.4 0,15.7 -12.71,28.4 -28.4,28.4 -15.69,0 -28.41,-12.7 -28.41,-28.4 0,-15.7 12.72,-28.4 28.41,-28.4 z m 426.34,364.3 c 65.56,0 118.7,53.1 118.7,118.7 0,65.5 -53.14,118.7 -118.7,118.7 -65.56,0 -118.7,-53.2 -118.7,-118.7 0,-65.6 53.14,-118.7 118.7,-118.7 z m -837.01,118.7 c 0,65.5 53.14,118.7 118.7,118.7 65.56,0 118.7,-53.2 118.7,-118.7 0,-65.6 -53.14,-118.7 -118.7,-118.7 -65.56,0 -118.7,53.1 -118.7,118.7" /></g></g></g></g></svg>